G04 EAGLE Gerber RS-274X export*
G75*
%MOMM*%
%FSLAX34Y34*%
%LPD*%
%INBottom Copper*%
%IPPOS*%
%AMOC8*
5,1,8,0,0,1.08239X$1,22.5*%
G01*
%ADD10C,0.254000*%
%ADD11C,0.800000*%
%ADD12C,0.508000*%
%ADD13C,2.000000*%
%ADD14C,1.270000*%

G36*
X13929Y3819D02*
X13929Y3819D01*
X14005Y3818D01*
X14101Y3839D01*
X14200Y3851D01*
X14271Y3876D01*
X14345Y3892D01*
X14434Y3935D01*
X14528Y3968D01*
X14592Y4009D01*
X14660Y4042D01*
X14737Y4103D01*
X14821Y4157D01*
X14873Y4212D01*
X14933Y4259D01*
X14994Y4336D01*
X15063Y4408D01*
X15102Y4473D01*
X15149Y4532D01*
X15191Y4622D01*
X15242Y4707D01*
X15265Y4779D01*
X15297Y4848D01*
X15318Y4944D01*
X15348Y5039D01*
X15354Y5114D01*
X15370Y5188D01*
X15368Y5288D01*
X15376Y5386D01*
X15365Y5461D01*
X15363Y5537D01*
X15339Y5633D01*
X15324Y5731D01*
X15296Y5801D01*
X15278Y5875D01*
X15213Y6011D01*
X15195Y6055D01*
X15185Y6070D01*
X15173Y6096D01*
X13589Y8839D01*
X13589Y12892D01*
X13716Y13112D01*
X13776Y13250D01*
X13840Y13387D01*
X13845Y13410D01*
X13854Y13432D01*
X13881Y13580D01*
X13913Y13728D01*
X13912Y13751D01*
X13916Y13774D01*
X13909Y13925D01*
X13906Y14076D01*
X13900Y14099D01*
X13899Y14123D01*
X13858Y14267D01*
X13821Y14414D01*
X13808Y14440D01*
X13803Y14458D01*
X13781Y14498D01*
X13716Y14635D01*
X13589Y14855D01*
X13589Y18560D01*
X15442Y21770D01*
X18629Y23610D01*
X18646Y23623D01*
X26188Y23623D01*
X27375Y22435D01*
X27376Y22434D01*
X27377Y22433D01*
X27522Y22319D01*
X27648Y22218D01*
X27649Y22218D01*
X27651Y22217D01*
X27814Y22140D01*
X27963Y22070D01*
X27965Y22069D01*
X27966Y22069D01*
X28143Y22031D01*
X28304Y21996D01*
X28305Y21996D01*
X28307Y21996D01*
X28489Y21999D01*
X28653Y22002D01*
X28654Y22002D01*
X28655Y22002D01*
X28824Y22045D01*
X28991Y22087D01*
X28992Y22088D01*
X28993Y22088D01*
X29214Y22193D01*
X31690Y23623D01*
X35453Y23623D01*
X35520Y23567D01*
X35539Y23557D01*
X35550Y23548D01*
X35589Y23530D01*
X35735Y23450D01*
X38484Y22225D01*
X39201Y21427D01*
X39288Y21351D01*
X39368Y21268D01*
X39418Y21236D01*
X39462Y21196D01*
X39564Y21142D01*
X39661Y21079D01*
X39717Y21059D01*
X39769Y21031D01*
X39881Y21001D01*
X39989Y20962D01*
X40048Y20955D01*
X40106Y20940D01*
X40221Y20935D01*
X40335Y20922D01*
X40394Y20929D01*
X40454Y20927D01*
X40567Y20949D01*
X40682Y20963D01*
X40738Y20983D01*
X40796Y20994D01*
X40901Y21041D01*
X41010Y21080D01*
X41075Y21120D01*
X41114Y21137D01*
X41149Y21164D01*
X41219Y21206D01*
X44603Y23623D01*
X48910Y23623D01*
X51894Y21491D01*
X51982Y21443D01*
X52064Y21386D01*
X52134Y21359D01*
X52199Y21322D01*
X52295Y21295D01*
X52388Y21259D01*
X52462Y21248D01*
X52534Y21227D01*
X52634Y21223D01*
X52733Y21208D01*
X52808Y21214D01*
X52883Y21211D01*
X52981Y21229D01*
X53080Y21237D01*
X53152Y21260D01*
X53225Y21274D01*
X53317Y21314D01*
X53412Y21345D01*
X53476Y21384D01*
X53545Y21414D01*
X53625Y21473D01*
X53710Y21525D01*
X53764Y21577D01*
X53824Y21622D01*
X53888Y21698D01*
X53960Y21768D01*
X53967Y21778D01*
X53970Y21780D01*
X54043Y21880D01*
X54123Y21974D01*
X54147Y22019D01*
X54177Y22061D01*
X54226Y22174D01*
X54282Y22284D01*
X54295Y22334D01*
X54315Y22381D01*
X54337Y22502D01*
X54367Y22622D01*
X54368Y22673D01*
X54377Y22724D01*
X54370Y22847D01*
X54372Y22971D01*
X54361Y23021D01*
X54359Y23072D01*
X54324Y23190D01*
X54298Y23311D01*
X54276Y23357D01*
X54262Y23407D01*
X54202Y23514D01*
X54149Y23626D01*
X54117Y23666D01*
X54092Y23711D01*
X53933Y23897D01*
X52949Y24881D01*
X52949Y28459D01*
X53853Y29363D01*
X53906Y29430D01*
X53967Y29490D01*
X54014Y29566D01*
X54070Y29636D01*
X54106Y29713D01*
X54152Y29786D01*
X54181Y29870D01*
X54219Y29951D01*
X54237Y30034D01*
X54264Y30116D01*
X54273Y30205D01*
X54292Y30292D01*
X54291Y30377D01*
X54299Y30462D01*
X54288Y30551D01*
X54286Y30640D01*
X54265Y30723D01*
X54254Y30808D01*
X54213Y30929D01*
X54201Y30978D01*
X54189Y31001D01*
X54176Y31040D01*
X54063Y31304D01*
X54010Y31396D01*
X53966Y31492D01*
X53913Y31567D01*
X53890Y31607D01*
X53863Y31635D01*
X53823Y31691D01*
X53770Y31753D01*
X53768Y31772D01*
X53764Y31874D01*
X53745Y31945D01*
X53736Y32017D01*
X53685Y32167D01*
X53674Y32211D01*
X53666Y32225D01*
X53658Y32249D01*
X53259Y33181D01*
X53176Y33325D01*
X53094Y33472D01*
X53089Y33478D01*
X53086Y33483D01*
X53069Y33501D01*
X52949Y33642D01*
X52949Y37373D01*
X54889Y40733D01*
X58249Y42673D01*
X62012Y42673D01*
X62079Y42617D01*
X62098Y42607D01*
X62109Y42598D01*
X62148Y42580D01*
X62293Y42500D01*
X65043Y41275D01*
X67339Y38722D01*
X67868Y37088D01*
X68419Y35386D01*
X67636Y33854D01*
X67623Y33820D01*
X67605Y33788D01*
X67563Y33657D01*
X67514Y33527D01*
X67510Y33491D01*
X67498Y33456D01*
X67487Y33319D01*
X67470Y33182D01*
X67473Y33145D01*
X67470Y33109D01*
X67491Y32972D01*
X67505Y32835D01*
X67517Y32800D01*
X67522Y32764D01*
X67573Y32636D01*
X67618Y32505D01*
X67637Y32474D01*
X67651Y32440D01*
X67730Y32327D01*
X67803Y32210D01*
X67829Y32184D01*
X67850Y32154D01*
X67952Y32062D01*
X68050Y31965D01*
X68081Y31945D01*
X68109Y31921D01*
X68229Y31854D01*
X68347Y31782D01*
X68382Y31770D01*
X68414Y31752D01*
X68546Y31715D01*
X68677Y31671D01*
X68714Y31667D01*
X68749Y31657D01*
X68993Y31638D01*
X71605Y31638D01*
X71668Y31577D01*
X71731Y31539D01*
X71790Y31493D01*
X71880Y31450D01*
X71967Y31398D01*
X72037Y31375D01*
X72105Y31344D01*
X72203Y31323D01*
X72299Y31292D01*
X72373Y31286D01*
X72445Y31270D01*
X72546Y31272D01*
X72646Y31264D01*
X72719Y31275D01*
X72794Y31276D01*
X72891Y31301D01*
X72991Y31316D01*
X73060Y31343D01*
X73132Y31361D01*
X73221Y31407D01*
X73315Y31444D01*
X73376Y31487D01*
X73442Y31521D01*
X73518Y31586D01*
X73601Y31643D01*
X73650Y31698D01*
X73707Y31747D01*
X73767Y31828D01*
X73834Y31902D01*
X73870Y31967D01*
X73914Y32027D01*
X73954Y32119D01*
X74003Y32207D01*
X74023Y32279D01*
X74052Y32347D01*
X74070Y32446D01*
X74097Y32543D01*
X74105Y32643D01*
X74114Y32690D01*
X74112Y32726D01*
X74117Y32786D01*
X74117Y38031D01*
X74111Y38080D01*
X74108Y38199D01*
X73941Y39703D01*
X73968Y39747D01*
X73982Y39787D01*
X74003Y39824D01*
X74039Y39951D01*
X74082Y40077D01*
X74085Y40111D01*
X75153Y41179D01*
X75184Y41218D01*
X75266Y41305D01*
X76211Y42486D01*
X76262Y42498D01*
X76300Y42516D01*
X76341Y42528D01*
X76456Y42593D01*
X76575Y42651D01*
X76602Y42673D01*
X78112Y42673D01*
X78162Y42678D01*
X78280Y42682D01*
X79784Y42849D01*
X79829Y42821D01*
X79869Y42808D01*
X79906Y42787D01*
X80033Y42751D01*
X80158Y42708D01*
X80193Y42705D01*
X81261Y41637D01*
X81300Y41606D01*
X81386Y41524D01*
X81853Y41151D01*
X81863Y41144D01*
X81872Y41136D01*
X82011Y41052D01*
X82148Y40966D01*
X82160Y40962D01*
X82170Y40955D01*
X82325Y40905D01*
X82478Y40853D01*
X82490Y40851D01*
X82502Y40848D01*
X82663Y40834D01*
X82824Y40817D01*
X82837Y40819D01*
X82849Y40818D01*
X83009Y40841D01*
X83170Y40862D01*
X83182Y40866D01*
X83194Y40868D01*
X83345Y40927D01*
X83496Y40984D01*
X83507Y40990D01*
X83518Y40995D01*
X83652Y41087D01*
X83787Y41176D01*
X83795Y41185D01*
X83805Y41192D01*
X83915Y41313D01*
X84026Y41430D01*
X84032Y41441D01*
X84040Y41450D01*
X84167Y41659D01*
X84280Y41885D01*
X87674Y43017D01*
X90556Y41576D01*
X90613Y41555D01*
X90665Y41526D01*
X90776Y41496D01*
X90884Y41457D01*
X90943Y41449D01*
X91001Y41433D01*
X91116Y41429D01*
X91230Y41415D01*
X91289Y41422D01*
X91349Y41419D01*
X91462Y41441D01*
X91576Y41453D01*
X91633Y41473D01*
X91692Y41484D01*
X91880Y41560D01*
X91905Y41569D01*
X91910Y41572D01*
X91919Y41576D01*
X94801Y43017D01*
X98195Y41885D01*
X99795Y38685D01*
X95950Y27152D01*
X95946Y27134D01*
X95939Y27117D01*
X95915Y26989D01*
X95904Y26955D01*
X95902Y26921D01*
X95879Y26811D01*
X95879Y26792D01*
X95876Y26774D01*
X95881Y26661D01*
X95876Y26607D01*
X95884Y26556D01*
X95886Y26462D01*
X95891Y26444D01*
X95892Y26426D01*
X95909Y26356D01*
X95644Y25827D01*
X95634Y25799D01*
X95619Y25773D01*
X95575Y25635D01*
X95525Y25500D01*
X95522Y25470D01*
X95512Y25441D01*
X95501Y25297D01*
X95484Y25154D01*
X95487Y25124D01*
X95484Y25094D01*
X95506Y24951D01*
X95522Y24807D01*
X95532Y24779D01*
X95536Y24749D01*
X95589Y24615D01*
X95638Y24479D01*
X95654Y24453D01*
X95665Y24425D01*
X95747Y24307D01*
X95825Y24185D01*
X95847Y24164D01*
X95864Y24139D01*
X95971Y24043D01*
X96074Y23941D01*
X96100Y23926D01*
X96123Y23906D01*
X96249Y23836D01*
X96373Y23761D01*
X96401Y23752D01*
X96428Y23737D01*
X96567Y23698D01*
X96704Y23653D01*
X96734Y23651D01*
X96763Y23642D01*
X97007Y23623D01*
X97556Y23623D01*
X98626Y22858D01*
X98770Y22778D01*
X98915Y22696D01*
X98924Y22694D01*
X98931Y22689D01*
X99090Y22644D01*
X99250Y22597D01*
X99258Y22597D01*
X99267Y22594D01*
X99432Y22587D01*
X99597Y22577D01*
X99606Y22578D01*
X99615Y22578D01*
X99779Y22608D01*
X99941Y22636D01*
X99949Y22640D01*
X99957Y22641D01*
X100110Y22708D01*
X100262Y22772D01*
X100269Y22777D01*
X100277Y22781D01*
X100409Y22879D01*
X100544Y22977D01*
X100549Y22984D01*
X100556Y22989D01*
X100662Y23115D01*
X100771Y23241D01*
X100776Y23250D01*
X100781Y23255D01*
X100794Y23280D01*
X100892Y23454D01*
X101170Y24050D01*
X104533Y25272D01*
X107775Y23759D01*
X109224Y19773D01*
X109262Y19698D01*
X109290Y19619D01*
X109339Y19542D01*
X109380Y19461D01*
X109434Y19397D01*
X109479Y19326D01*
X109545Y19263D01*
X109603Y19193D01*
X109669Y19142D01*
X109730Y19084D01*
X109808Y19037D01*
X109880Y18982D01*
X109957Y18948D01*
X110029Y18905D01*
X110115Y18877D01*
X110199Y18840D01*
X110281Y18824D01*
X110361Y18799D01*
X110451Y18792D01*
X110541Y18774D01*
X110625Y18778D01*
X110708Y18771D01*
X110798Y18784D01*
X110889Y18788D01*
X110970Y18810D01*
X111053Y18823D01*
X111137Y18856D01*
X111225Y18880D01*
X111299Y18920D01*
X111377Y18951D01*
X111451Y19003D01*
X111531Y19047D01*
X111594Y19103D01*
X111663Y19150D01*
X111724Y19218D01*
X111792Y19278D01*
X111840Y19347D01*
X111896Y19409D01*
X111940Y19489D01*
X111993Y19563D01*
X112024Y19641D01*
X112065Y19714D01*
X112090Y19802D01*
X112124Y19886D01*
X112137Y19969D01*
X112160Y20050D01*
X112170Y20182D01*
X112178Y20230D01*
X112176Y20255D01*
X112179Y20293D01*
X112179Y21093D01*
X114709Y23623D01*
X119047Y23623D01*
X123753Y20905D01*
X123799Y20885D01*
X123842Y20858D01*
X123959Y20816D01*
X124073Y20767D01*
X124123Y20758D01*
X124170Y20741D01*
X124293Y20727D01*
X124416Y20704D01*
X124466Y20707D01*
X124516Y20701D01*
X124640Y20716D01*
X124764Y20722D01*
X124812Y20736D01*
X124862Y20741D01*
X124979Y20783D01*
X125099Y20818D01*
X125143Y20842D01*
X125190Y20859D01*
X125400Y20985D01*
X129093Y23623D01*
X133401Y23623D01*
X136906Y21119D01*
X137487Y19423D01*
X137508Y19379D01*
X137559Y19249D01*
X138811Y16681D01*
X138811Y10243D01*
X138124Y8835D01*
X138078Y8704D01*
X138026Y8575D01*
X138018Y8532D01*
X138008Y8506D01*
X138003Y8456D01*
X137980Y8335D01*
X137938Y7962D01*
X137880Y7915D01*
X137786Y7820D01*
X137687Y7730D01*
X137663Y7697D01*
X137634Y7668D01*
X137564Y7554D01*
X137488Y7444D01*
X137468Y7397D01*
X137452Y7371D01*
X137436Y7324D01*
X137391Y7220D01*
X136913Y5828D01*
X136891Y5727D01*
X136860Y5629D01*
X136854Y5558D01*
X136839Y5488D01*
X136840Y5384D01*
X136832Y5282D01*
X136843Y5211D01*
X136844Y5139D01*
X136868Y5039D01*
X136884Y4937D01*
X136910Y4871D01*
X136927Y4801D01*
X136974Y4709D01*
X137012Y4613D01*
X137053Y4554D01*
X137086Y4490D01*
X137153Y4412D01*
X137211Y4327D01*
X137265Y4279D01*
X137311Y4224D01*
X137394Y4163D01*
X137470Y4094D01*
X137533Y4059D01*
X137590Y4016D01*
X137685Y3975D01*
X137775Y3925D01*
X137844Y3906D01*
X137910Y3877D01*
X138011Y3858D01*
X138111Y3830D01*
X138206Y3823D01*
X138253Y3814D01*
X138290Y3816D01*
X138354Y3811D01*
X143424Y3811D01*
X143500Y3819D01*
X143576Y3818D01*
X143673Y3839D01*
X143770Y3851D01*
X143842Y3876D01*
X143917Y3893D01*
X144006Y3935D01*
X144098Y3968D01*
X144163Y4010D01*
X144232Y4042D01*
X144308Y4104D01*
X144391Y4157D01*
X144444Y4212D01*
X144504Y4260D01*
X144565Y4337D01*
X144633Y4408D01*
X144673Y4473D01*
X144720Y4533D01*
X144788Y4666D01*
X144812Y4707D01*
X144818Y4725D01*
X144831Y4751D01*
X144931Y4991D01*
X147409Y7469D01*
X147649Y7569D01*
X147716Y7606D01*
X147787Y7634D01*
X147868Y7690D01*
X147954Y7738D01*
X148010Y7789D01*
X148073Y7833D01*
X148139Y7906D01*
X148212Y7972D01*
X148255Y8035D01*
X148306Y8092D01*
X148354Y8178D01*
X148410Y8259D01*
X148438Y8330D01*
X148475Y8397D01*
X148502Y8492D01*
X148538Y8583D01*
X148549Y8659D01*
X148570Y8732D01*
X148582Y8881D01*
X148589Y8928D01*
X148587Y8947D01*
X148589Y8976D01*
X148589Y16424D01*
X148581Y16500D01*
X148582Y16576D01*
X148561Y16673D01*
X148549Y16770D01*
X148524Y16842D01*
X148507Y16917D01*
X148465Y17006D01*
X148432Y17098D01*
X148390Y17163D01*
X148358Y17232D01*
X148296Y17308D01*
X148243Y17391D01*
X148188Y17444D01*
X148140Y17504D01*
X148063Y17565D01*
X147992Y17633D01*
X147927Y17673D01*
X147867Y17720D01*
X147734Y17788D01*
X147693Y17812D01*
X147675Y17818D01*
X147649Y17831D01*
X147409Y17931D01*
X144931Y20409D01*
X143589Y23647D01*
X143589Y27153D01*
X144931Y30391D01*
X147409Y32869D01*
X147649Y32969D01*
X147716Y33006D01*
X147787Y33034D01*
X147868Y33090D01*
X147954Y33138D01*
X148010Y33189D01*
X148073Y33233D01*
X148139Y33306D01*
X148212Y33372D01*
X148255Y33435D01*
X148306Y33492D01*
X148354Y33578D01*
X148410Y33659D01*
X148438Y33730D01*
X148475Y33797D01*
X148502Y33892D01*
X148538Y33983D01*
X148549Y34059D01*
X148570Y34132D01*
X148582Y34281D01*
X148589Y34328D01*
X148587Y34347D01*
X148589Y34376D01*
X148589Y41824D01*
X148581Y41900D01*
X148582Y41976D01*
X148561Y42073D01*
X148549Y42170D01*
X148524Y42242D01*
X148507Y42317D01*
X148465Y42406D01*
X148432Y42498D01*
X148390Y42563D01*
X148358Y42632D01*
X148296Y42708D01*
X148243Y42791D01*
X148188Y42844D01*
X148140Y42904D01*
X148063Y42965D01*
X147992Y43033D01*
X147927Y43073D01*
X147867Y43120D01*
X147734Y43188D01*
X147693Y43212D01*
X147675Y43218D01*
X147649Y43231D01*
X147409Y43331D01*
X144931Y45809D01*
X143589Y49047D01*
X143589Y52553D01*
X144931Y55791D01*
X147409Y58269D01*
X147649Y58369D01*
X147716Y58406D01*
X147787Y58434D01*
X147868Y58490D01*
X147954Y58538D01*
X148010Y58589D01*
X148073Y58633D01*
X148139Y58706D01*
X148212Y58772D01*
X148255Y58835D01*
X148306Y58892D01*
X148354Y58978D01*
X148410Y59059D01*
X148438Y59130D01*
X148475Y59197D01*
X148502Y59292D01*
X148538Y59383D01*
X148549Y59459D01*
X148570Y59532D01*
X148582Y59681D01*
X148589Y59728D01*
X148587Y59747D01*
X148589Y59776D01*
X148589Y67224D01*
X148581Y67300D01*
X148582Y67376D01*
X148561Y67473D01*
X148549Y67570D01*
X148524Y67642D01*
X148507Y67717D01*
X148465Y67806D01*
X148432Y67898D01*
X148390Y67963D01*
X148358Y68032D01*
X148296Y68108D01*
X148243Y68191D01*
X148188Y68244D01*
X148140Y68304D01*
X148063Y68365D01*
X147992Y68433D01*
X147927Y68473D01*
X147867Y68520D01*
X147734Y68588D01*
X147693Y68612D01*
X147675Y68618D01*
X147649Y68631D01*
X147409Y68731D01*
X144931Y71209D01*
X143589Y74447D01*
X143589Y77953D01*
X144931Y81191D01*
X147409Y83669D01*
X147649Y83769D01*
X147716Y83806D01*
X147787Y83834D01*
X147868Y83890D01*
X147954Y83938D01*
X148010Y83989D01*
X148073Y84033D01*
X148139Y84106D01*
X148212Y84172D01*
X148255Y84235D01*
X148306Y84292D01*
X148354Y84378D01*
X148410Y84459D01*
X148438Y84530D01*
X148475Y84597D01*
X148502Y84692D01*
X148538Y84783D01*
X148549Y84859D01*
X148570Y84932D01*
X148582Y85081D01*
X148589Y85128D01*
X148587Y85147D01*
X148589Y85176D01*
X148589Y92624D01*
X148581Y92700D01*
X148582Y92776D01*
X148561Y92873D01*
X148549Y92970D01*
X148524Y93042D01*
X148507Y93117D01*
X148465Y93206D01*
X148432Y93298D01*
X148390Y93363D01*
X148358Y93432D01*
X148296Y93508D01*
X148243Y93591D01*
X148188Y93644D01*
X148140Y93704D01*
X148063Y93765D01*
X147992Y93833D01*
X147927Y93873D01*
X147867Y93920D01*
X147734Y93988D01*
X147693Y94012D01*
X147675Y94018D01*
X147649Y94031D01*
X147409Y94131D01*
X144931Y96609D01*
X143589Y99847D01*
X143589Y103353D01*
X144931Y106591D01*
X147409Y109069D01*
X147649Y109169D01*
X147716Y109206D01*
X147787Y109234D01*
X147868Y109290D01*
X147954Y109338D01*
X148010Y109389D01*
X148073Y109433D01*
X148139Y109506D01*
X148212Y109572D01*
X148255Y109635D01*
X148306Y109692D01*
X148354Y109778D01*
X148410Y109859D01*
X148438Y109930D01*
X148475Y109997D01*
X148502Y110092D01*
X148538Y110183D01*
X148549Y110259D01*
X148570Y110332D01*
X148582Y110481D01*
X148589Y110528D01*
X148587Y110547D01*
X148589Y110576D01*
X148589Y118024D01*
X148581Y118100D01*
X148582Y118176D01*
X148561Y118273D01*
X148549Y118370D01*
X148524Y118442D01*
X148507Y118517D01*
X148465Y118606D01*
X148432Y118698D01*
X148390Y118763D01*
X148358Y118832D01*
X148296Y118908D01*
X148243Y118991D01*
X148188Y119044D01*
X148140Y119104D01*
X148063Y119165D01*
X147992Y119233D01*
X147927Y119273D01*
X147867Y119320D01*
X147734Y119388D01*
X147693Y119412D01*
X147675Y119418D01*
X147649Y119431D01*
X147409Y119531D01*
X144931Y122009D01*
X143589Y125247D01*
X143589Y128753D01*
X144931Y131991D01*
X147409Y134469D01*
X147649Y134569D01*
X147716Y134606D01*
X147787Y134634D01*
X147868Y134690D01*
X147954Y134738D01*
X148010Y134789D01*
X148073Y134833D01*
X148139Y134906D01*
X148212Y134972D01*
X148255Y135035D01*
X148306Y135092D01*
X148354Y135178D01*
X148410Y135259D01*
X148438Y135330D01*
X148475Y135397D01*
X148502Y135492D01*
X148538Y135583D01*
X148549Y135659D01*
X148570Y135732D01*
X148582Y135881D01*
X148589Y135928D01*
X148587Y135947D01*
X148589Y135976D01*
X148589Y143424D01*
X148581Y143500D01*
X148582Y143576D01*
X148561Y143673D01*
X148549Y143770D01*
X148524Y143842D01*
X148507Y143917D01*
X148465Y144006D01*
X148432Y144098D01*
X148390Y144163D01*
X148358Y144232D01*
X148296Y144308D01*
X148243Y144391D01*
X148188Y144444D01*
X148140Y144504D01*
X148063Y144565D01*
X147992Y144633D01*
X147927Y144673D01*
X147867Y144720D01*
X147734Y144788D01*
X147693Y144812D01*
X147675Y144818D01*
X147649Y144831D01*
X147409Y144931D01*
X144931Y147409D01*
X143589Y150647D01*
X143589Y154153D01*
X144931Y157391D01*
X147409Y159869D01*
X147649Y159969D01*
X147716Y160006D01*
X147787Y160034D01*
X147868Y160090D01*
X147954Y160138D01*
X148010Y160189D01*
X148073Y160233D01*
X148139Y160306D01*
X148212Y160372D01*
X148255Y160435D01*
X148306Y160492D01*
X148354Y160578D01*
X148410Y160659D01*
X148438Y160730D01*
X148475Y160797D01*
X148502Y160892D01*
X148538Y160983D01*
X148549Y161059D01*
X148570Y161132D01*
X148582Y161281D01*
X148589Y161328D01*
X148587Y161347D01*
X148589Y161376D01*
X148589Y168824D01*
X148581Y168900D01*
X148582Y168976D01*
X148561Y169073D01*
X148549Y169170D01*
X148524Y169242D01*
X148507Y169317D01*
X148465Y169406D01*
X148432Y169498D01*
X148390Y169563D01*
X148358Y169632D01*
X148296Y169708D01*
X148243Y169791D01*
X148188Y169844D01*
X148140Y169904D01*
X148063Y169965D01*
X147992Y170033D01*
X147927Y170073D01*
X147867Y170120D01*
X147734Y170188D01*
X147693Y170212D01*
X147675Y170218D01*
X147649Y170231D01*
X147409Y170331D01*
X144931Y172809D01*
X143589Y176047D01*
X143589Y179553D01*
X144931Y182791D01*
X147409Y185269D01*
X147649Y185369D01*
X147716Y185406D01*
X147787Y185434D01*
X147868Y185490D01*
X147954Y185538D01*
X148010Y185589D01*
X148073Y185633D01*
X148139Y185706D01*
X148212Y185772D01*
X148255Y185835D01*
X148306Y185892D01*
X148354Y185978D01*
X148410Y186059D01*
X148438Y186130D01*
X148475Y186197D01*
X148502Y186292D01*
X148538Y186383D01*
X148549Y186459D01*
X148570Y186532D01*
X148582Y186681D01*
X148589Y186728D01*
X148587Y186747D01*
X148589Y186776D01*
X148589Y194224D01*
X148587Y194247D01*
X148588Y194269D01*
X148581Y194320D01*
X148582Y194376D01*
X148561Y194473D01*
X148549Y194570D01*
X148539Y194600D01*
X148537Y194614D01*
X148521Y194652D01*
X148507Y194717D01*
X148465Y194806D01*
X148432Y194898D01*
X148410Y194932D01*
X148408Y194938D01*
X148390Y194964D01*
X148358Y195032D01*
X148296Y195108D01*
X148243Y195191D01*
X148209Y195224D01*
X148208Y195225D01*
X148188Y195244D01*
X148140Y195304D01*
X148063Y195365D01*
X147992Y195433D01*
X147927Y195473D01*
X147867Y195520D01*
X147734Y195588D01*
X147693Y195612D01*
X147675Y195618D01*
X147649Y195631D01*
X147409Y195731D01*
X144931Y198209D01*
X143589Y201447D01*
X143589Y204953D01*
X144931Y208191D01*
X147409Y210669D01*
X147649Y210769D01*
X147716Y210806D01*
X147787Y210834D01*
X147868Y210890D01*
X147954Y210938D01*
X148010Y210989D01*
X148073Y211033D01*
X148139Y211106D01*
X148212Y211172D01*
X148255Y211235D01*
X148306Y211292D01*
X148354Y211378D01*
X148410Y211459D01*
X148438Y211530D01*
X148475Y211597D01*
X148502Y211692D01*
X148538Y211783D01*
X148549Y211859D01*
X148570Y211932D01*
X148582Y212081D01*
X148589Y212128D01*
X148587Y212147D01*
X148589Y212176D01*
X148589Y215037D01*
X148581Y215113D01*
X148582Y215189D01*
X148561Y215285D01*
X148549Y215383D01*
X148524Y215455D01*
X148507Y215530D01*
X148465Y215618D01*
X148432Y215711D01*
X148390Y215775D01*
X148358Y215844D01*
X148296Y215921D01*
X148243Y216004D01*
X148188Y216057D01*
X148140Y216117D01*
X148063Y216178D01*
X147992Y216246D01*
X147927Y216285D01*
X147867Y216333D01*
X147733Y216401D01*
X147693Y216425D01*
X147675Y216431D01*
X147649Y216444D01*
X145008Y217538D01*
X141338Y221208D01*
X139351Y226004D01*
X139351Y231196D01*
X141338Y235992D01*
X145008Y239662D01*
X147649Y240756D01*
X147716Y240793D01*
X147787Y240821D01*
X147868Y240877D01*
X147954Y240925D01*
X148010Y240977D01*
X148073Y241020D01*
X148139Y241093D01*
X148212Y241159D01*
X148255Y241222D01*
X148306Y241279D01*
X148354Y241365D01*
X148410Y241446D01*
X148438Y241517D01*
X148475Y241584D01*
X148502Y241679D01*
X148538Y241770D01*
X148549Y241846D01*
X148570Y241919D01*
X148582Y242068D01*
X148589Y242115D01*
X148587Y242134D01*
X148589Y242163D01*
X148589Y245024D01*
X148581Y245100D01*
X148582Y245176D01*
X148561Y245273D01*
X148549Y245370D01*
X148524Y245442D01*
X148507Y245517D01*
X148465Y245606D01*
X148432Y245698D01*
X148390Y245763D01*
X148358Y245832D01*
X148296Y245908D01*
X148243Y245991D01*
X148188Y246044D01*
X148140Y246104D01*
X148063Y246165D01*
X147992Y246233D01*
X147927Y246273D01*
X147867Y246320D01*
X147734Y246388D01*
X147693Y246412D01*
X147675Y246418D01*
X147649Y246431D01*
X147409Y246531D01*
X144931Y249009D01*
X143589Y252247D01*
X143589Y255753D01*
X144931Y258991D01*
X147409Y261469D01*
X147649Y261569D01*
X147716Y261606D01*
X147787Y261634D01*
X147868Y261690D01*
X147954Y261738D01*
X148010Y261789D01*
X148073Y261833D01*
X148139Y261906D01*
X148212Y261972D01*
X148255Y262035D01*
X148306Y262092D01*
X148354Y262178D01*
X148410Y262259D01*
X148438Y262330D01*
X148475Y262397D01*
X148502Y262492D01*
X148538Y262583D01*
X148549Y262659D01*
X148570Y262732D01*
X148582Y262881D01*
X148589Y262928D01*
X148587Y262947D01*
X148589Y262976D01*
X148589Y270424D01*
X148581Y270500D01*
X148582Y270576D01*
X148561Y270673D01*
X148549Y270770D01*
X148524Y270842D01*
X148507Y270917D01*
X148465Y271006D01*
X148432Y271098D01*
X148390Y271163D01*
X148358Y271232D01*
X148296Y271308D01*
X148243Y271391D01*
X148188Y271444D01*
X148140Y271504D01*
X148063Y271565D01*
X147992Y271633D01*
X147927Y271673D01*
X147867Y271720D01*
X147734Y271788D01*
X147693Y271812D01*
X147675Y271818D01*
X147649Y271831D01*
X147409Y271931D01*
X144931Y274409D01*
X143589Y277647D01*
X143589Y281153D01*
X144931Y284391D01*
X147409Y286869D01*
X147649Y286969D01*
X147716Y287006D01*
X147787Y287034D01*
X147868Y287090D01*
X147954Y287138D01*
X148010Y287189D01*
X148073Y287233D01*
X148139Y287306D01*
X148212Y287372D01*
X148255Y287435D01*
X148306Y287492D01*
X148354Y287578D01*
X148410Y287659D01*
X148438Y287730D01*
X148475Y287797D01*
X148502Y287892D01*
X148538Y287983D01*
X148549Y288059D01*
X148570Y288132D01*
X148582Y288281D01*
X148589Y288328D01*
X148587Y288347D01*
X148589Y288376D01*
X148589Y295824D01*
X148581Y295900D01*
X148582Y295976D01*
X148561Y296073D01*
X148549Y296170D01*
X148524Y296242D01*
X148507Y296317D01*
X148465Y296406D01*
X148432Y296498D01*
X148390Y296563D01*
X148358Y296632D01*
X148296Y296708D01*
X148243Y296791D01*
X148188Y296844D01*
X148140Y296904D01*
X148063Y296965D01*
X147992Y297033D01*
X147927Y297073D01*
X147867Y297120D01*
X147734Y297188D01*
X147693Y297212D01*
X147675Y297218D01*
X147649Y297231D01*
X147409Y297331D01*
X144931Y299809D01*
X143589Y303047D01*
X143589Y306553D01*
X144931Y309791D01*
X147409Y312269D01*
X147649Y312369D01*
X147716Y312406D01*
X147787Y312434D01*
X147868Y312490D01*
X147954Y312538D01*
X148010Y312589D01*
X148073Y312633D01*
X148139Y312706D01*
X148212Y312772D01*
X148255Y312835D01*
X148306Y312892D01*
X148354Y312978D01*
X148410Y313059D01*
X148438Y313130D01*
X148475Y313197D01*
X148502Y313292D01*
X148538Y313383D01*
X148549Y313459D01*
X148570Y313532D01*
X148582Y313681D01*
X148589Y313728D01*
X148587Y313747D01*
X148589Y313776D01*
X148589Y321224D01*
X148581Y321300D01*
X148582Y321376D01*
X148561Y321473D01*
X148549Y321570D01*
X148524Y321642D01*
X148507Y321717D01*
X148465Y321806D01*
X148432Y321898D01*
X148390Y321963D01*
X148358Y322032D01*
X148296Y322108D01*
X148243Y322191D01*
X148188Y322244D01*
X148140Y322304D01*
X148063Y322365D01*
X147992Y322433D01*
X147927Y322473D01*
X147867Y322520D01*
X147734Y322588D01*
X147693Y322612D01*
X147675Y322618D01*
X147649Y322631D01*
X147409Y322731D01*
X144931Y325209D01*
X143589Y328447D01*
X143589Y331953D01*
X144931Y335191D01*
X147409Y337669D01*
X147649Y337769D01*
X147716Y337806D01*
X147787Y337834D01*
X147868Y337890D01*
X147954Y337938D01*
X148010Y337989D01*
X148073Y338033D01*
X148139Y338106D01*
X148212Y338172D01*
X148255Y338235D01*
X148306Y338292D01*
X148354Y338378D01*
X148410Y338459D01*
X148438Y338530D01*
X148475Y338597D01*
X148502Y338692D01*
X148538Y338783D01*
X148549Y338859D01*
X148570Y338932D01*
X148582Y339081D01*
X148589Y339128D01*
X148587Y339147D01*
X148589Y339176D01*
X148589Y342037D01*
X148581Y342113D01*
X148582Y342189D01*
X148561Y342285D01*
X148549Y342383D01*
X148524Y342455D01*
X148507Y342530D01*
X148465Y342618D01*
X148432Y342711D01*
X148390Y342775D01*
X148358Y342844D01*
X148296Y342921D01*
X148243Y343004D01*
X148188Y343057D01*
X148140Y343117D01*
X148063Y343178D01*
X147992Y343246D01*
X147927Y343285D01*
X147867Y343333D01*
X147733Y343401D01*
X147693Y343425D01*
X147675Y343431D01*
X147649Y343444D01*
X145008Y344538D01*
X141338Y348208D01*
X139351Y353004D01*
X139351Y358196D01*
X141338Y362992D01*
X145008Y366662D01*
X147649Y367756D01*
X147716Y367793D01*
X147787Y367821D01*
X147868Y367877D01*
X147954Y367925D01*
X148010Y367977D01*
X148073Y368020D01*
X148139Y368093D01*
X148212Y368159D01*
X148255Y368222D01*
X148306Y368279D01*
X148354Y368365D01*
X148410Y368446D01*
X148438Y368517D01*
X148475Y368584D01*
X148502Y368679D01*
X148538Y368770D01*
X148549Y368846D01*
X148570Y368919D01*
X148582Y369068D01*
X148589Y369115D01*
X148587Y369134D01*
X148589Y369163D01*
X148589Y372024D01*
X148581Y372100D01*
X148582Y372176D01*
X148561Y372273D01*
X148549Y372370D01*
X148524Y372442D01*
X148507Y372517D01*
X148465Y372606D01*
X148432Y372698D01*
X148390Y372763D01*
X148358Y372832D01*
X148296Y372908D01*
X148243Y372991D01*
X148188Y373044D01*
X148140Y373104D01*
X148063Y373165D01*
X147992Y373233D01*
X147927Y373273D01*
X147867Y373320D01*
X147734Y373388D01*
X147693Y373412D01*
X147675Y373418D01*
X147649Y373431D01*
X147409Y373531D01*
X144931Y376009D01*
X143589Y379247D01*
X143589Y382753D01*
X144931Y385991D01*
X147409Y388469D01*
X147649Y388569D01*
X147716Y388606D01*
X147787Y388634D01*
X147868Y388690D01*
X147954Y388738D01*
X148010Y388789D01*
X148073Y388833D01*
X148139Y388906D01*
X148212Y388972D01*
X148255Y389035D01*
X148306Y389092D01*
X148354Y389178D01*
X148410Y389259D01*
X148438Y389330D01*
X148475Y389397D01*
X148502Y389492D01*
X148538Y389583D01*
X148549Y389659D01*
X148570Y389732D01*
X148582Y389881D01*
X148589Y389928D01*
X148587Y389947D01*
X148589Y389976D01*
X148589Y397424D01*
X148581Y397500D01*
X148582Y397576D01*
X148561Y397673D01*
X148549Y397770D01*
X148524Y397842D01*
X148507Y397917D01*
X148465Y398006D01*
X148432Y398098D01*
X148390Y398163D01*
X148358Y398232D01*
X148296Y398308D01*
X148243Y398391D01*
X148188Y398444D01*
X148140Y398504D01*
X148063Y398565D01*
X147992Y398633D01*
X147927Y398673D01*
X147867Y398720D01*
X147734Y398788D01*
X147693Y398812D01*
X147675Y398818D01*
X147649Y398831D01*
X147409Y398931D01*
X144931Y401409D01*
X143589Y404647D01*
X143589Y408153D01*
X144931Y411391D01*
X147409Y413869D01*
X147649Y413969D01*
X147716Y414006D01*
X147787Y414034D01*
X147868Y414090D01*
X147954Y414138D01*
X148010Y414189D01*
X148073Y414233D01*
X148139Y414306D01*
X148212Y414372D01*
X148255Y414435D01*
X148306Y414492D01*
X148354Y414578D01*
X148410Y414659D01*
X148438Y414730D01*
X148475Y414797D01*
X148502Y414892D01*
X148538Y414983D01*
X148549Y415059D01*
X148570Y415132D01*
X148582Y415281D01*
X148589Y415328D01*
X148587Y415347D01*
X148589Y415376D01*
X148589Y422824D01*
X148581Y422900D01*
X148582Y422976D01*
X148561Y423073D01*
X148549Y423170D01*
X148524Y423242D01*
X148507Y423317D01*
X148465Y423406D01*
X148432Y423498D01*
X148390Y423563D01*
X148358Y423632D01*
X148296Y423708D01*
X148243Y423791D01*
X148188Y423844D01*
X148140Y423904D01*
X148063Y423965D01*
X147992Y424033D01*
X147927Y424073D01*
X147867Y424120D01*
X147734Y424188D01*
X147693Y424212D01*
X147675Y424218D01*
X147649Y424231D01*
X147409Y424331D01*
X144931Y426809D01*
X143589Y430047D01*
X143589Y433553D01*
X144931Y436791D01*
X147409Y439269D01*
X147649Y439369D01*
X147716Y439406D01*
X147787Y439434D01*
X147868Y439490D01*
X147954Y439538D01*
X148010Y439589D01*
X148073Y439633D01*
X148139Y439706D01*
X148212Y439772D01*
X148255Y439835D01*
X148306Y439892D01*
X148354Y439978D01*
X148410Y440059D01*
X148438Y440130D01*
X148475Y440197D01*
X148502Y440292D01*
X148538Y440383D01*
X148549Y440459D01*
X148570Y440532D01*
X148582Y440681D01*
X148589Y440728D01*
X148587Y440747D01*
X148589Y440776D01*
X148589Y448224D01*
X148581Y448300D01*
X148582Y448376D01*
X148561Y448473D01*
X148549Y448570D01*
X148524Y448642D01*
X148507Y448717D01*
X148465Y448806D01*
X148432Y448898D01*
X148390Y448963D01*
X148358Y449032D01*
X148296Y449108D01*
X148243Y449191D01*
X148188Y449244D01*
X148140Y449304D01*
X148063Y449365D01*
X147992Y449433D01*
X147927Y449473D01*
X147867Y449520D01*
X147734Y449588D01*
X147693Y449612D01*
X147675Y449618D01*
X147649Y449631D01*
X147409Y449731D01*
X144931Y452209D01*
X143589Y455447D01*
X143589Y458953D01*
X144931Y462191D01*
X147409Y464669D01*
X147649Y464769D01*
X147716Y464806D01*
X147787Y464834D01*
X147868Y464890D01*
X147954Y464938D01*
X148010Y464989D01*
X148073Y465033D01*
X148139Y465106D01*
X148212Y465172D01*
X148255Y465235D01*
X148306Y465292D01*
X148354Y465378D01*
X148410Y465459D01*
X148438Y465530D01*
X148475Y465597D01*
X148502Y465692D01*
X148538Y465783D01*
X148549Y465859D01*
X148570Y465932D01*
X148582Y466081D01*
X148589Y466128D01*
X148587Y466147D01*
X148589Y466176D01*
X148589Y473624D01*
X148581Y473700D01*
X148582Y473776D01*
X148561Y473873D01*
X148549Y473970D01*
X148524Y474042D01*
X148507Y474117D01*
X148465Y474206D01*
X148432Y474298D01*
X148390Y474363D01*
X148358Y474432D01*
X148296Y474508D01*
X148243Y474591D01*
X148188Y474644D01*
X148140Y474704D01*
X148063Y474765D01*
X147992Y474833D01*
X147927Y474873D01*
X147867Y474920D01*
X147734Y474988D01*
X147693Y475012D01*
X147675Y475018D01*
X147649Y475031D01*
X147409Y475131D01*
X144931Y477609D01*
X143589Y480847D01*
X143589Y484353D01*
X144931Y487591D01*
X146229Y488889D01*
X146291Y488968D01*
X146361Y489040D01*
X146399Y489104D01*
X146445Y489162D01*
X146488Y489253D01*
X146540Y489339D01*
X146562Y489410D01*
X146594Y489477D01*
X146615Y489575D01*
X146646Y489671D01*
X146652Y489745D01*
X146668Y489818D01*
X146666Y489918D01*
X146674Y490018D01*
X146663Y490092D01*
X146662Y490166D01*
X146637Y490263D01*
X146622Y490363D01*
X146595Y490432D01*
X146577Y490504D01*
X146531Y490593D01*
X146494Y490687D01*
X146451Y490748D01*
X146417Y490814D01*
X146352Y490890D01*
X146295Y490973D01*
X146239Y491023D01*
X146191Y491079D01*
X146110Y491139D01*
X146036Y491206D01*
X145971Y491242D01*
X145911Y491287D01*
X145819Y491326D01*
X145731Y491375D01*
X145659Y491395D01*
X145591Y491425D01*
X145492Y491442D01*
X145395Y491470D01*
X145295Y491478D01*
X145248Y491486D01*
X145212Y491484D01*
X145152Y491489D01*
X7248Y491489D01*
X7149Y491478D01*
X7048Y491476D01*
X6976Y491458D01*
X6902Y491449D01*
X6808Y491416D01*
X6710Y491391D01*
X6644Y491357D01*
X6574Y491332D01*
X6490Y491277D01*
X6400Y491231D01*
X6344Y491183D01*
X6281Y491143D01*
X6212Y491071D01*
X6135Y491006D01*
X6091Y490946D01*
X6039Y490892D01*
X5988Y490806D01*
X5928Y490725D01*
X5898Y490657D01*
X5860Y490593D01*
X5830Y490497D01*
X5790Y490405D01*
X5777Y490332D01*
X5754Y490261D01*
X5746Y490161D01*
X5728Y490062D01*
X5732Y489988D01*
X5726Y489914D01*
X5741Y489814D01*
X5746Y489714D01*
X5767Y489643D01*
X5778Y489569D01*
X5815Y489476D01*
X5843Y489379D01*
X5879Y489314D01*
X5906Y489245D01*
X5964Y489163D01*
X6013Y489075D01*
X6078Y488999D01*
X6105Y488959D01*
X6132Y488935D01*
X6171Y488889D01*
X7469Y487591D01*
X8811Y484353D01*
X8811Y480847D01*
X7469Y477609D01*
X4991Y475131D01*
X4751Y475031D01*
X4684Y474994D01*
X4613Y474966D01*
X4532Y474910D01*
X4446Y474862D01*
X4390Y474811D01*
X4327Y474767D01*
X4261Y474694D01*
X4188Y474628D01*
X4145Y474565D01*
X4094Y474508D01*
X4046Y474422D01*
X3990Y474341D01*
X3962Y474270D01*
X3925Y474203D01*
X3898Y474108D01*
X3862Y474017D01*
X3851Y473941D01*
X3830Y473868D01*
X3818Y473719D01*
X3811Y473672D01*
X3813Y473653D01*
X3811Y473624D01*
X3811Y466176D01*
X3819Y466100D01*
X3818Y466024D01*
X3839Y465927D01*
X3851Y465830D01*
X3876Y465758D01*
X3893Y465683D01*
X3935Y465594D01*
X3968Y465502D01*
X4010Y465437D01*
X4042Y465368D01*
X4104Y465292D01*
X4157Y465209D01*
X4212Y465156D01*
X4260Y465096D01*
X4337Y465035D01*
X4408Y464967D01*
X4473Y464927D01*
X4533Y464880D01*
X4666Y464812D01*
X4707Y464788D01*
X4725Y464782D01*
X4751Y464769D01*
X4991Y464669D01*
X7469Y462191D01*
X8811Y458953D01*
X8811Y455447D01*
X7469Y452209D01*
X4991Y449731D01*
X4751Y449631D01*
X4684Y449594D01*
X4613Y449566D01*
X4532Y449510D01*
X4446Y449462D01*
X4390Y449411D01*
X4327Y449367D01*
X4261Y449294D01*
X4188Y449228D01*
X4145Y449165D01*
X4094Y449108D01*
X4046Y449022D01*
X3990Y448941D01*
X3962Y448870D01*
X3925Y448803D01*
X3898Y448708D01*
X3862Y448617D01*
X3851Y448541D01*
X3830Y448468D01*
X3818Y448319D01*
X3811Y448272D01*
X3813Y448253D01*
X3811Y448224D01*
X3811Y440776D01*
X3819Y440700D01*
X3818Y440624D01*
X3839Y440527D01*
X3851Y440430D01*
X3876Y440358D01*
X3893Y440283D01*
X3935Y440194D01*
X3968Y440102D01*
X4010Y440037D01*
X4042Y439968D01*
X4104Y439892D01*
X4157Y439809D01*
X4212Y439756D01*
X4260Y439696D01*
X4337Y439635D01*
X4408Y439567D01*
X4473Y439527D01*
X4533Y439480D01*
X4666Y439412D01*
X4707Y439388D01*
X4725Y439382D01*
X4751Y439369D01*
X4991Y439269D01*
X7469Y436791D01*
X8811Y433553D01*
X8811Y430047D01*
X7469Y426809D01*
X4991Y424331D01*
X4751Y424231D01*
X4684Y424194D01*
X4613Y424166D01*
X4532Y424110D01*
X4446Y424062D01*
X4390Y424011D01*
X4327Y423967D01*
X4261Y423894D01*
X4188Y423828D01*
X4145Y423765D01*
X4094Y423708D01*
X4046Y423622D01*
X3990Y423541D01*
X3962Y423470D01*
X3925Y423403D01*
X3898Y423308D01*
X3862Y423217D01*
X3851Y423141D01*
X3830Y423068D01*
X3818Y422919D01*
X3811Y422872D01*
X3813Y422853D01*
X3811Y422824D01*
X3811Y415376D01*
X3819Y415300D01*
X3818Y415224D01*
X3839Y415127D01*
X3851Y415030D01*
X3876Y414958D01*
X3893Y414883D01*
X3935Y414794D01*
X3968Y414702D01*
X4010Y414637D01*
X4042Y414568D01*
X4104Y414492D01*
X4157Y414409D01*
X4212Y414356D01*
X4260Y414296D01*
X4337Y414235D01*
X4408Y414167D01*
X4473Y414127D01*
X4533Y414080D01*
X4666Y414012D01*
X4707Y413988D01*
X4725Y413982D01*
X4751Y413969D01*
X4991Y413869D01*
X7469Y411391D01*
X8811Y408153D01*
X8811Y404647D01*
X7469Y401409D01*
X4991Y398931D01*
X4751Y398831D01*
X4684Y398794D01*
X4613Y398766D01*
X4532Y398710D01*
X4446Y398662D01*
X4390Y398611D01*
X4327Y398567D01*
X4261Y398494D01*
X4188Y398428D01*
X4145Y398365D01*
X4094Y398308D01*
X4046Y398222D01*
X3990Y398141D01*
X3962Y398070D01*
X3925Y398003D01*
X3898Y397908D01*
X3862Y397817D01*
X3851Y397741D01*
X3830Y397668D01*
X3818Y397519D01*
X3811Y397472D01*
X3813Y397453D01*
X3811Y397424D01*
X3811Y389976D01*
X3819Y389900D01*
X3818Y389824D01*
X3839Y389727D01*
X3851Y389630D01*
X3876Y389558D01*
X3893Y389483D01*
X3935Y389394D01*
X3968Y389302D01*
X4010Y389237D01*
X4042Y389168D01*
X4104Y389092D01*
X4157Y389009D01*
X4212Y388956D01*
X4260Y388896D01*
X4337Y388835D01*
X4408Y388767D01*
X4473Y388727D01*
X4533Y388680D01*
X4666Y388612D01*
X4707Y388588D01*
X4725Y388582D01*
X4751Y388569D01*
X4991Y388469D01*
X7469Y385991D01*
X8811Y382753D01*
X8811Y379247D01*
X7469Y376009D01*
X4991Y373531D01*
X4751Y373431D01*
X4684Y373394D01*
X4613Y373366D01*
X4532Y373310D01*
X4446Y373262D01*
X4390Y373211D01*
X4327Y373167D01*
X4261Y373094D01*
X4188Y373028D01*
X4145Y372965D01*
X4094Y372908D01*
X4046Y372822D01*
X3990Y372741D01*
X3962Y372670D01*
X3925Y372603D01*
X3898Y372508D01*
X3862Y372417D01*
X3851Y372341D01*
X3830Y372268D01*
X3818Y372119D01*
X3811Y372072D01*
X3813Y372053D01*
X3811Y372024D01*
X3811Y364576D01*
X3819Y364500D01*
X3818Y364424D01*
X3839Y364327D01*
X3851Y364230D01*
X3876Y364158D01*
X3893Y364083D01*
X3935Y363994D01*
X3968Y363902D01*
X4010Y363837D01*
X4042Y363768D01*
X4104Y363692D01*
X4157Y363609D01*
X4212Y363556D01*
X4260Y363496D01*
X4337Y363435D01*
X4408Y363367D01*
X4473Y363327D01*
X4533Y363280D01*
X4666Y363212D01*
X4707Y363188D01*
X4725Y363182D01*
X4751Y363169D01*
X4991Y363069D01*
X7469Y360591D01*
X8811Y357353D01*
X8811Y353847D01*
X7469Y350609D01*
X4991Y348131D01*
X4751Y348031D01*
X4684Y347994D01*
X4613Y347966D01*
X4532Y347910D01*
X4446Y347862D01*
X4390Y347811D01*
X4327Y347767D01*
X4261Y347694D01*
X4188Y347628D01*
X4145Y347565D01*
X4094Y347508D01*
X4046Y347422D01*
X3990Y347341D01*
X3962Y347270D01*
X3925Y347203D01*
X3898Y347108D01*
X3862Y347017D01*
X3851Y346941D01*
X3830Y346868D01*
X3818Y346719D01*
X3811Y346672D01*
X3813Y346653D01*
X3811Y346624D01*
X3811Y339176D01*
X3819Y339100D01*
X3818Y339024D01*
X3839Y338927D01*
X3851Y338830D01*
X3876Y338758D01*
X3893Y338683D01*
X3935Y338594D01*
X3968Y338502D01*
X4010Y338437D01*
X4042Y338368D01*
X4104Y338292D01*
X4157Y338209D01*
X4212Y338156D01*
X4260Y338096D01*
X4337Y338035D01*
X4408Y337967D01*
X4473Y337927D01*
X4533Y337880D01*
X4666Y337812D01*
X4707Y337788D01*
X4725Y337782D01*
X4751Y337769D01*
X4991Y337669D01*
X7469Y335191D01*
X8811Y331953D01*
X8811Y328447D01*
X7469Y325209D01*
X4991Y322731D01*
X4751Y322631D01*
X4684Y322594D01*
X4613Y322566D01*
X4532Y322510D01*
X4446Y322462D01*
X4390Y322411D01*
X4327Y322367D01*
X4261Y322294D01*
X4188Y322228D01*
X4145Y322165D01*
X4094Y322108D01*
X4046Y322022D01*
X3990Y321941D01*
X3962Y321870D01*
X3925Y321803D01*
X3898Y321708D01*
X3862Y321617D01*
X3851Y321541D01*
X3830Y321468D01*
X3818Y321319D01*
X3811Y321272D01*
X3813Y321253D01*
X3811Y321224D01*
X3811Y313776D01*
X3819Y313700D01*
X3818Y313624D01*
X3839Y313527D01*
X3851Y313430D01*
X3876Y313358D01*
X3893Y313283D01*
X3935Y313194D01*
X3968Y313102D01*
X4010Y313037D01*
X4042Y312968D01*
X4104Y312892D01*
X4157Y312809D01*
X4212Y312756D01*
X4260Y312696D01*
X4337Y312635D01*
X4408Y312567D01*
X4473Y312527D01*
X4533Y312480D01*
X4666Y312412D01*
X4707Y312388D01*
X4725Y312382D01*
X4751Y312369D01*
X4991Y312269D01*
X7469Y309791D01*
X8811Y306553D01*
X8811Y303047D01*
X7469Y299809D01*
X4991Y297331D01*
X4751Y297231D01*
X4684Y297194D01*
X4613Y297166D01*
X4532Y297110D01*
X4446Y297062D01*
X4390Y297011D01*
X4327Y296967D01*
X4261Y296894D01*
X4188Y296828D01*
X4145Y296765D01*
X4094Y296708D01*
X4046Y296622D01*
X3990Y296541D01*
X3962Y296470D01*
X3925Y296403D01*
X3898Y296308D01*
X3862Y296217D01*
X3851Y296141D01*
X3830Y296068D01*
X3818Y295919D01*
X3811Y295872D01*
X3813Y295853D01*
X3811Y295824D01*
X3811Y288376D01*
X3819Y288300D01*
X3818Y288224D01*
X3839Y288127D01*
X3851Y288030D01*
X3876Y287958D01*
X3893Y287883D01*
X3935Y287794D01*
X3968Y287702D01*
X4010Y287637D01*
X4042Y287568D01*
X4104Y287492D01*
X4157Y287409D01*
X4212Y287356D01*
X4260Y287296D01*
X4337Y287235D01*
X4408Y287167D01*
X4473Y287127D01*
X4533Y287080D01*
X4666Y287012D01*
X4707Y286988D01*
X4725Y286982D01*
X4751Y286969D01*
X4991Y286869D01*
X7469Y284391D01*
X8811Y281153D01*
X8811Y277647D01*
X7469Y274409D01*
X4991Y271931D01*
X4751Y271831D01*
X4684Y271794D01*
X4613Y271766D01*
X4532Y271710D01*
X4446Y271662D01*
X4390Y271611D01*
X4327Y271567D01*
X4261Y271494D01*
X4188Y271428D01*
X4145Y271365D01*
X4094Y271308D01*
X4046Y271222D01*
X3990Y271141D01*
X3962Y271070D01*
X3925Y271003D01*
X3898Y270908D01*
X3862Y270817D01*
X3851Y270741D01*
X3830Y270668D01*
X3818Y270519D01*
X3811Y270472D01*
X3813Y270453D01*
X3811Y270424D01*
X3811Y262976D01*
X3819Y262900D01*
X3818Y262824D01*
X3839Y262727D01*
X3851Y262630D01*
X3876Y262558D01*
X3893Y262483D01*
X3935Y262394D01*
X3968Y262302D01*
X4010Y262237D01*
X4042Y262168D01*
X4104Y262092D01*
X4157Y262009D01*
X4212Y261956D01*
X4260Y261896D01*
X4337Y261835D01*
X4408Y261767D01*
X4473Y261727D01*
X4533Y261680D01*
X4666Y261612D01*
X4707Y261588D01*
X4725Y261582D01*
X4751Y261569D01*
X4991Y261469D01*
X7469Y258991D01*
X8811Y255753D01*
X8811Y252247D01*
X7469Y249009D01*
X4991Y246531D01*
X4751Y246431D01*
X4684Y246394D01*
X4613Y246366D01*
X4532Y246310D01*
X4446Y246262D01*
X4390Y246211D01*
X4327Y246167D01*
X4261Y246094D01*
X4188Y246028D01*
X4145Y245965D01*
X4094Y245908D01*
X4046Y245822D01*
X3990Y245741D01*
X3962Y245670D01*
X3925Y245603D01*
X3898Y245508D01*
X3862Y245417D01*
X3851Y245341D01*
X3830Y245268D01*
X3818Y245119D01*
X3811Y245072D01*
X3813Y245053D01*
X3811Y245024D01*
X3811Y242824D01*
X3814Y242798D01*
X3812Y242772D01*
X3834Y242625D01*
X3851Y242478D01*
X3859Y242453D01*
X3863Y242427D01*
X3918Y242289D01*
X3968Y242150D01*
X3982Y242128D01*
X3992Y242103D01*
X4077Y241982D01*
X4157Y241857D01*
X4176Y241839D01*
X4191Y241817D01*
X4301Y241718D01*
X4408Y241615D01*
X4430Y241601D01*
X4450Y241584D01*
X4580Y241512D01*
X4707Y241436D01*
X4732Y241428D01*
X4755Y241415D01*
X4898Y241375D01*
X5039Y241330D01*
X5065Y241328D01*
X5090Y241320D01*
X5334Y241301D01*
X25400Y241301D01*
X31751Y234950D01*
X31751Y215885D01*
X22686Y206821D01*
X22608Y206722D01*
X22523Y206628D01*
X22500Y206586D01*
X22470Y206548D01*
X22416Y206434D01*
X22355Y206323D01*
X22342Y206276D01*
X22321Y206233D01*
X22294Y206109D01*
X22260Y205988D01*
X22255Y205927D01*
X22248Y205892D01*
X22248Y205844D01*
X22240Y205744D01*
X22240Y200656D01*
X22255Y200531D01*
X22261Y200404D01*
X22275Y200358D01*
X22280Y200310D01*
X22323Y200191D01*
X22358Y200070D01*
X22381Y200027D01*
X22398Y199982D01*
X22466Y199876D01*
X22528Y199765D01*
X22567Y199719D01*
X22587Y199689D01*
X22621Y199656D01*
X22686Y199579D01*
X31751Y190515D01*
X31751Y171450D01*
X25400Y165099D01*
X5334Y165099D01*
X5308Y165096D01*
X5282Y165098D01*
X5135Y165076D01*
X4988Y165059D01*
X4963Y165051D01*
X4937Y165047D01*
X4799Y164992D01*
X4660Y164942D01*
X4638Y164928D01*
X4613Y164918D01*
X4492Y164833D01*
X4367Y164753D01*
X4349Y164734D01*
X4327Y164719D01*
X4228Y164609D01*
X4125Y164502D01*
X4111Y164480D01*
X4094Y164460D01*
X4022Y164330D01*
X3946Y164203D01*
X3938Y164178D01*
X3925Y164155D01*
X3885Y164012D01*
X3840Y163871D01*
X3838Y163845D01*
X3830Y163820D01*
X3811Y163576D01*
X3811Y161376D01*
X3819Y161300D01*
X3818Y161224D01*
X3839Y161127D01*
X3851Y161030D01*
X3876Y160958D01*
X3893Y160883D01*
X3935Y160794D01*
X3968Y160702D01*
X4010Y160637D01*
X4042Y160568D01*
X4104Y160492D01*
X4157Y160409D01*
X4212Y160356D01*
X4260Y160296D01*
X4337Y160235D01*
X4408Y160167D01*
X4473Y160127D01*
X4533Y160080D01*
X4666Y160012D01*
X4707Y159988D01*
X4725Y159982D01*
X4751Y159969D01*
X4991Y159869D01*
X7469Y157391D01*
X8811Y154153D01*
X8811Y150647D01*
X7469Y147409D01*
X4991Y144931D01*
X4751Y144831D01*
X4684Y144794D01*
X4613Y144766D01*
X4532Y144710D01*
X4446Y144662D01*
X4390Y144611D01*
X4327Y144567D01*
X4261Y144494D01*
X4188Y144428D01*
X4145Y144365D01*
X4094Y144308D01*
X4046Y144222D01*
X3990Y144141D01*
X3962Y144070D01*
X3925Y144003D01*
X3898Y143908D01*
X3862Y143817D01*
X3851Y143741D01*
X3830Y143668D01*
X3818Y143519D01*
X3811Y143472D01*
X3813Y143453D01*
X3811Y143424D01*
X3811Y135976D01*
X3819Y135900D01*
X3818Y135824D01*
X3839Y135727D01*
X3851Y135630D01*
X3876Y135558D01*
X3893Y135483D01*
X3935Y135394D01*
X3968Y135302D01*
X4010Y135237D01*
X4042Y135168D01*
X4104Y135092D01*
X4157Y135009D01*
X4212Y134956D01*
X4260Y134896D01*
X4337Y134835D01*
X4408Y134767D01*
X4473Y134727D01*
X4533Y134680D01*
X4666Y134612D01*
X4707Y134588D01*
X4725Y134582D01*
X4751Y134569D01*
X4991Y134469D01*
X7469Y131991D01*
X8811Y128753D01*
X8811Y125247D01*
X7469Y122009D01*
X4991Y119531D01*
X4751Y119431D01*
X4684Y119394D01*
X4613Y119366D01*
X4532Y119310D01*
X4446Y119262D01*
X4390Y119211D01*
X4327Y119167D01*
X4261Y119094D01*
X4188Y119028D01*
X4145Y118965D01*
X4094Y118908D01*
X4046Y118822D01*
X3990Y118741D01*
X3962Y118670D01*
X3925Y118603D01*
X3898Y118508D01*
X3862Y118417D01*
X3851Y118341D01*
X3830Y118268D01*
X3818Y118119D01*
X3811Y118072D01*
X3813Y118053D01*
X3811Y118024D01*
X3811Y110576D01*
X3819Y110500D01*
X3818Y110424D01*
X3839Y110327D01*
X3851Y110230D01*
X3876Y110158D01*
X3893Y110083D01*
X3935Y109994D01*
X3968Y109902D01*
X4010Y109837D01*
X4042Y109768D01*
X4104Y109692D01*
X4157Y109609D01*
X4212Y109556D01*
X4260Y109496D01*
X4337Y109435D01*
X4408Y109367D01*
X4473Y109327D01*
X4533Y109280D01*
X4666Y109212D01*
X4707Y109188D01*
X4725Y109182D01*
X4751Y109169D01*
X4991Y109069D01*
X7469Y106591D01*
X8811Y103353D01*
X8811Y99847D01*
X7469Y96609D01*
X4991Y94131D01*
X4751Y94031D01*
X4684Y93994D01*
X4613Y93966D01*
X4532Y93910D01*
X4446Y93862D01*
X4390Y93811D01*
X4327Y93767D01*
X4261Y93694D01*
X4188Y93628D01*
X4145Y93565D01*
X4094Y93508D01*
X4046Y93422D01*
X3990Y93341D01*
X3962Y93270D01*
X3925Y93203D01*
X3898Y93108D01*
X3862Y93017D01*
X3851Y92941D01*
X3830Y92868D01*
X3818Y92719D01*
X3811Y92672D01*
X3813Y92653D01*
X3811Y92624D01*
X3811Y85176D01*
X3819Y85100D01*
X3818Y85024D01*
X3839Y84927D01*
X3851Y84830D01*
X3876Y84758D01*
X3893Y84683D01*
X3935Y84594D01*
X3968Y84502D01*
X4010Y84437D01*
X4042Y84368D01*
X4104Y84292D01*
X4157Y84209D01*
X4212Y84156D01*
X4260Y84096D01*
X4337Y84035D01*
X4408Y83967D01*
X4473Y83927D01*
X4533Y83880D01*
X4666Y83812D01*
X4707Y83788D01*
X4725Y83782D01*
X4751Y83769D01*
X4991Y83669D01*
X7469Y81191D01*
X8811Y77953D01*
X8811Y74447D01*
X7469Y71209D01*
X4991Y68731D01*
X4751Y68631D01*
X4684Y68594D01*
X4613Y68566D01*
X4532Y68510D01*
X4446Y68462D01*
X4390Y68411D01*
X4327Y68367D01*
X4261Y68294D01*
X4188Y68228D01*
X4145Y68165D01*
X4094Y68108D01*
X4046Y68022D01*
X3990Y67941D01*
X3962Y67870D01*
X3925Y67803D01*
X3898Y67708D01*
X3862Y67617D01*
X3851Y67541D01*
X3830Y67468D01*
X3818Y67319D01*
X3811Y67272D01*
X3813Y67253D01*
X3811Y67224D01*
X3811Y59776D01*
X3819Y59700D01*
X3818Y59624D01*
X3839Y59527D01*
X3851Y59430D01*
X3876Y59358D01*
X3893Y59283D01*
X3935Y59194D01*
X3968Y59102D01*
X4010Y59037D01*
X4042Y58968D01*
X4104Y58892D01*
X4157Y58809D01*
X4212Y58756D01*
X4260Y58696D01*
X4337Y58635D01*
X4408Y58567D01*
X4473Y58527D01*
X4533Y58480D01*
X4666Y58412D01*
X4707Y58388D01*
X4725Y58382D01*
X4751Y58369D01*
X4991Y58269D01*
X7469Y55791D01*
X8811Y52553D01*
X8811Y49047D01*
X7469Y45809D01*
X4991Y43331D01*
X4751Y43231D01*
X4684Y43194D01*
X4613Y43166D01*
X4532Y43110D01*
X4446Y43062D01*
X4390Y43011D01*
X4327Y42967D01*
X4261Y42894D01*
X4188Y42828D01*
X4145Y42765D01*
X4094Y42708D01*
X4046Y42622D01*
X3990Y42541D01*
X3962Y42470D01*
X3925Y42403D01*
X3898Y42308D01*
X3862Y42217D01*
X3851Y42141D01*
X3830Y42068D01*
X3818Y41919D01*
X3811Y41872D01*
X3813Y41853D01*
X3811Y41824D01*
X3811Y34376D01*
X3819Y34300D01*
X3818Y34224D01*
X3839Y34127D01*
X3851Y34030D01*
X3876Y33958D01*
X3893Y33883D01*
X3935Y33794D01*
X3968Y33702D01*
X4010Y33637D01*
X4042Y33568D01*
X4104Y33492D01*
X4157Y33409D01*
X4212Y33356D01*
X4260Y33296D01*
X4337Y33235D01*
X4408Y33167D01*
X4473Y33127D01*
X4533Y33080D01*
X4666Y33012D01*
X4707Y32988D01*
X4725Y32982D01*
X4751Y32969D01*
X4991Y32869D01*
X7469Y30391D01*
X8811Y27153D01*
X8811Y23647D01*
X7469Y20409D01*
X4991Y17931D01*
X4751Y17831D01*
X4684Y17794D01*
X4613Y17766D01*
X4532Y17710D01*
X4446Y17662D01*
X4390Y17611D01*
X4327Y17567D01*
X4261Y17494D01*
X4188Y17428D01*
X4145Y17365D01*
X4094Y17308D01*
X4046Y17222D01*
X3990Y17141D01*
X3962Y17070D01*
X3925Y17003D01*
X3898Y16908D01*
X3862Y16817D01*
X3851Y16741D01*
X3830Y16668D01*
X3818Y16519D01*
X3811Y16472D01*
X3813Y16453D01*
X3811Y16424D01*
X3811Y8976D01*
X3819Y8900D01*
X3818Y8824D01*
X3839Y8727D01*
X3851Y8630D01*
X3876Y8558D01*
X3893Y8483D01*
X3935Y8394D01*
X3968Y8302D01*
X4010Y8237D01*
X4042Y8168D01*
X4104Y8092D01*
X4157Y8009D01*
X4212Y7956D01*
X4260Y7896D01*
X4337Y7835D01*
X4408Y7767D01*
X4473Y7727D01*
X4533Y7680D01*
X4666Y7612D01*
X4707Y7588D01*
X4725Y7582D01*
X4751Y7569D01*
X4991Y7469D01*
X7469Y4991D01*
X7569Y4751D01*
X7606Y4684D01*
X7634Y4613D01*
X7690Y4532D01*
X7738Y4446D01*
X7789Y4390D01*
X7833Y4327D01*
X7906Y4261D01*
X7972Y4188D01*
X8035Y4145D01*
X8092Y4094D01*
X8178Y4046D01*
X8259Y3990D01*
X8330Y3962D01*
X8397Y3925D01*
X8492Y3898D01*
X8583Y3862D01*
X8659Y3851D01*
X8732Y3830D01*
X8881Y3818D01*
X8928Y3811D01*
X8947Y3813D01*
X8976Y3811D01*
X13854Y3811D01*
X13929Y3819D01*
G37*
%LPC*%
G36*
X29554Y42958D02*
X29554Y42958D01*
X26963Y44031D01*
X24981Y46013D01*
X23908Y48604D01*
X23908Y51408D01*
X24981Y53999D01*
X26063Y55081D01*
X26083Y55107D01*
X26209Y55251D01*
X26381Y55482D01*
X26426Y55509D01*
X26478Y55549D01*
X26535Y55581D01*
X26674Y55699D01*
X26703Y55721D01*
X26709Y55729D01*
X26721Y55739D01*
X26963Y55982D01*
X27676Y56277D01*
X27704Y56293D01*
X27876Y56378D01*
X31574Y58592D01*
X31625Y58632D01*
X31682Y58663D01*
X31822Y58783D01*
X31850Y58804D01*
X31857Y58812D01*
X31868Y58822D01*
X95565Y122519D01*
X95644Y122618D01*
X95728Y122712D01*
X95752Y122754D01*
X95782Y122792D01*
X95836Y122906D01*
X95897Y123017D01*
X95910Y123063D01*
X95931Y123107D01*
X95957Y123230D01*
X95992Y123352D01*
X95997Y123413D01*
X96004Y123448D01*
X96003Y123496D01*
X96011Y123596D01*
X96011Y196321D01*
X96004Y196386D01*
X96006Y196451D01*
X95975Y196632D01*
X95971Y196668D01*
X95968Y196677D01*
X95965Y196692D01*
X94917Y200873D01*
X94905Y200904D01*
X94846Y201085D01*
X94551Y201798D01*
X94551Y202141D01*
X94544Y202206D01*
X94546Y202270D01*
X94515Y202452D01*
X94511Y202487D01*
X94508Y202497D01*
X94505Y202512D01*
X94493Y202563D01*
X94535Y202848D01*
X94536Y202880D01*
X94551Y203071D01*
X94551Y203329D01*
X94548Y203361D01*
X94545Y203396D01*
X94546Y203409D01*
X94543Y203431D01*
X94535Y203552D01*
X94493Y203837D01*
X94505Y203888D01*
X94514Y203952D01*
X94532Y204015D01*
X94546Y204198D01*
X94551Y204234D01*
X94550Y204244D01*
X94551Y204259D01*
X94551Y204602D01*
X94846Y205315D01*
X94855Y205346D01*
X94917Y205527D01*
X95965Y209708D01*
X95974Y209772D01*
X95992Y209835D01*
X96006Y210018D01*
X96011Y210053D01*
X96010Y210064D01*
X96011Y210079D01*
X96011Y232258D01*
X95997Y232384D01*
X95990Y232510D01*
X95977Y232556D01*
X95971Y232604D01*
X95929Y232723D01*
X95894Y232845D01*
X95870Y232887D01*
X95854Y232932D01*
X95785Y233039D01*
X95724Y233149D01*
X95684Y233195D01*
X95665Y233225D01*
X95630Y233259D01*
X95592Y233304D01*
X95591Y233305D01*
X95590Y233306D01*
X95565Y233335D01*
X90066Y238834D01*
X90015Y238875D01*
X89971Y238922D01*
X89821Y239029D01*
X89793Y239051D01*
X89784Y239055D01*
X89772Y239064D01*
X86073Y241279D01*
X86044Y241292D01*
X85874Y241379D01*
X85161Y241674D01*
X84919Y241917D01*
X84868Y241957D01*
X84823Y242005D01*
X84673Y242112D01*
X84646Y242134D01*
X84637Y242138D01*
X84624Y242147D01*
X84579Y242174D01*
X84407Y242406D01*
X84385Y242429D01*
X84261Y242575D01*
X83178Y243657D01*
X82105Y246248D01*
X82105Y249052D01*
X83178Y251643D01*
X85161Y253626D01*
X87752Y254699D01*
X90556Y254699D01*
X93147Y253626D01*
X94229Y252543D01*
X94254Y252523D01*
X94398Y252397D01*
X94630Y252225D01*
X94657Y252180D01*
X94697Y252128D01*
X94728Y252072D01*
X94847Y251932D01*
X94869Y251903D01*
X94877Y251897D01*
X94887Y251885D01*
X95130Y251643D01*
X95425Y250930D01*
X95441Y250902D01*
X95525Y250730D01*
X97740Y247032D01*
X97779Y246981D01*
X97811Y246924D01*
X97930Y246784D01*
X97952Y246756D01*
X97960Y246749D01*
X97970Y246738D01*
X104551Y240156D01*
X104552Y240156D01*
X106338Y238370D01*
X107189Y236316D01*
X107189Y210078D01*
X107196Y210014D01*
X107194Y209949D01*
X107225Y209768D01*
X107229Y209732D01*
X107232Y209723D01*
X107235Y209708D01*
X108237Y205712D01*
X108283Y205527D01*
X108295Y205497D01*
X108353Y205315D01*
X108649Y204602D01*
X108649Y204259D01*
X108656Y204194D01*
X108654Y204129D01*
X108685Y203948D01*
X108689Y203913D01*
X108692Y203903D01*
X108695Y203888D01*
X108707Y203837D01*
X108665Y203552D01*
X108664Y203520D01*
X108649Y203329D01*
X108649Y203071D01*
X108652Y203039D01*
X108665Y202848D01*
X108707Y202563D01*
X108695Y202512D01*
X108686Y202447D01*
X108668Y202385D01*
X108654Y202202D01*
X108649Y202166D01*
X108650Y202156D01*
X108649Y202141D01*
X108649Y201798D01*
X108353Y201085D01*
X108345Y201054D01*
X108283Y200873D01*
X107235Y196692D01*
X107226Y196628D01*
X107208Y196565D01*
X107194Y196382D01*
X107189Y196347D01*
X107190Y196337D01*
X107189Y196322D01*
X107189Y119538D01*
X106338Y117484D01*
X39772Y50918D01*
X39732Y50867D01*
X39684Y50823D01*
X39577Y50673D01*
X39555Y50645D01*
X39551Y50636D01*
X39542Y50624D01*
X37328Y46926D01*
X37315Y46897D01*
X37227Y46726D01*
X36932Y46013D01*
X36689Y45771D01*
X36649Y45720D01*
X36601Y45675D01*
X36495Y45526D01*
X36473Y45498D01*
X36468Y45489D01*
X36459Y45476D01*
X36432Y45431D01*
X36201Y45259D01*
X36178Y45237D01*
X36031Y45113D01*
X34949Y44031D01*
X32358Y42958D01*
X29554Y42958D01*
G37*
%LPD*%
D10*
X134493Y13462D02*
X134490Y13692D01*
X134482Y13922D01*
X134468Y14151D01*
X134449Y14380D01*
X134424Y14609D01*
X134394Y14837D01*
X134359Y15064D01*
X134318Y15290D01*
X134272Y15515D01*
X134220Y15739D01*
X134163Y15962D01*
X134101Y16183D01*
X134033Y16403D01*
X133960Y16621D01*
X133882Y16837D01*
X133799Y17051D01*
X133711Y17264D01*
X133618Y17474D01*
X133519Y17681D01*
X133486Y17771D01*
X133450Y17860D01*
X133410Y17948D01*
X133366Y18033D01*
X133319Y18117D01*
X133269Y18199D01*
X133215Y18279D01*
X133159Y18356D01*
X133099Y18432D01*
X133036Y18505D01*
X132971Y18575D01*
X132902Y18643D01*
X132831Y18707D01*
X132758Y18769D01*
X132682Y18828D01*
X132604Y18884D01*
X132523Y18937D01*
X132441Y18986D01*
X132357Y19032D01*
X132270Y19075D01*
X132183Y19114D01*
X132093Y19150D01*
X132003Y19182D01*
X131911Y19210D01*
X131818Y19235D01*
X131724Y19256D01*
X131630Y19273D01*
X131535Y19287D01*
X131439Y19296D01*
X131343Y19302D01*
X131247Y19304D01*
X131151Y19302D01*
X131055Y19296D01*
X130959Y19287D01*
X130864Y19273D01*
X130770Y19256D01*
X130676Y19235D01*
X130583Y19210D01*
X130491Y19182D01*
X130401Y19150D01*
X130311Y19114D01*
X130224Y19075D01*
X130137Y19032D01*
X130053Y18986D01*
X129971Y18937D01*
X129890Y18884D01*
X129812Y18828D01*
X129736Y18769D01*
X129663Y18707D01*
X129592Y18643D01*
X129523Y18575D01*
X129458Y18505D01*
X129395Y18432D01*
X129335Y18357D01*
X129279Y18279D01*
X129225Y18199D01*
X129175Y18117D01*
X129128Y18033D01*
X129085Y17948D01*
X129044Y17860D01*
X129008Y17771D01*
X128975Y17681D01*
X128976Y17681D02*
X128877Y17473D01*
X128784Y17263D01*
X128696Y17051D01*
X128613Y16837D01*
X128535Y16620D01*
X128462Y16402D01*
X128394Y16183D01*
X128332Y15961D01*
X128275Y15739D01*
X128223Y15515D01*
X128177Y15290D01*
X128136Y15064D01*
X128101Y14836D01*
X128071Y14609D01*
X128046Y14380D01*
X128027Y14151D01*
X128013Y13922D01*
X128005Y13692D01*
X128002Y13462D01*
X134493Y13462D02*
X134490Y13232D01*
X134482Y13002D01*
X134468Y12773D01*
X134449Y12544D01*
X134424Y12315D01*
X134394Y12087D01*
X134359Y11860D01*
X134318Y11634D01*
X134272Y11409D01*
X134220Y11185D01*
X134163Y10962D01*
X134101Y10741D01*
X134033Y10521D01*
X133960Y10303D01*
X133882Y10087D01*
X133799Y9873D01*
X133711Y9661D01*
X133618Y9450D01*
X133519Y9243D01*
X133486Y9153D01*
X133450Y9064D01*
X133409Y8976D01*
X133366Y8891D01*
X133319Y8807D01*
X133269Y8725D01*
X133215Y8645D01*
X133159Y8568D01*
X133099Y8492D01*
X133036Y8419D01*
X132971Y8349D01*
X132902Y8281D01*
X132831Y8217D01*
X132758Y8155D01*
X132682Y8096D01*
X132604Y8040D01*
X132523Y7987D01*
X132441Y7938D01*
X132357Y7892D01*
X132270Y7849D01*
X132183Y7810D01*
X132093Y7774D01*
X132003Y7742D01*
X131911Y7714D01*
X131818Y7689D01*
X131724Y7668D01*
X131630Y7651D01*
X131535Y7637D01*
X131439Y7628D01*
X131343Y7622D01*
X131247Y7620D01*
X128975Y9243D02*
X128876Y9450D01*
X128783Y9661D01*
X128695Y9873D01*
X128612Y10087D01*
X128534Y10303D01*
X128461Y10521D01*
X128393Y10741D01*
X128331Y10962D01*
X128274Y11185D01*
X128222Y11409D01*
X128176Y11634D01*
X128135Y11860D01*
X128100Y12087D01*
X128070Y12315D01*
X128045Y12544D01*
X128026Y12773D01*
X128012Y13002D01*
X128004Y13232D01*
X128001Y13462D01*
X128975Y9243D02*
X129008Y9153D01*
X129044Y9064D01*
X129085Y8976D01*
X129128Y8891D01*
X129175Y8807D01*
X129225Y8725D01*
X129279Y8645D01*
X129335Y8567D01*
X129395Y8492D01*
X129458Y8419D01*
X129523Y8349D01*
X129592Y8281D01*
X129663Y8217D01*
X129736Y8155D01*
X129812Y8096D01*
X129890Y8040D01*
X129971Y7987D01*
X130053Y7938D01*
X130137Y7892D01*
X130224Y7849D01*
X130311Y7810D01*
X130401Y7774D01*
X130491Y7742D01*
X130583Y7714D01*
X130676Y7689D01*
X130770Y7668D01*
X130864Y7651D01*
X130959Y7637D01*
X131055Y7628D01*
X131151Y7622D01*
X131247Y7620D01*
X133843Y10216D02*
X128650Y16708D01*
X121691Y14111D02*
X117796Y14111D01*
X117697Y14109D01*
X117597Y14103D01*
X117498Y14094D01*
X117400Y14081D01*
X117302Y14064D01*
X117204Y14043D01*
X117108Y14018D01*
X117013Y13990D01*
X116919Y13958D01*
X116826Y13923D01*
X116734Y13884D01*
X116644Y13841D01*
X116556Y13796D01*
X116469Y13746D01*
X116385Y13694D01*
X116302Y13638D01*
X116222Y13580D01*
X116144Y13518D01*
X116069Y13453D01*
X115996Y13385D01*
X115926Y13315D01*
X115858Y13242D01*
X115793Y13167D01*
X115731Y13089D01*
X115673Y13009D01*
X115617Y12926D01*
X115565Y12842D01*
X115515Y12755D01*
X115470Y12667D01*
X115427Y12577D01*
X115388Y12485D01*
X115353Y12392D01*
X115321Y12298D01*
X115293Y12203D01*
X115268Y12107D01*
X115247Y12009D01*
X115230Y11911D01*
X115217Y11813D01*
X115208Y11714D01*
X115202Y11614D01*
X115200Y11515D01*
X115200Y10866D01*
X115199Y10866D02*
X115201Y10753D01*
X115207Y10640D01*
X115217Y10527D01*
X115231Y10414D01*
X115248Y10302D01*
X115270Y10191D01*
X115295Y10081D01*
X115325Y9971D01*
X115358Y9863D01*
X115395Y9756D01*
X115435Y9650D01*
X115480Y9546D01*
X115528Y9443D01*
X115579Y9342D01*
X115634Y9243D01*
X115692Y9146D01*
X115754Y9051D01*
X115819Y8958D01*
X115887Y8868D01*
X115958Y8780D01*
X116033Y8694D01*
X116110Y8611D01*
X116190Y8531D01*
X116273Y8454D01*
X116359Y8379D01*
X116447Y8308D01*
X116537Y8240D01*
X116630Y8175D01*
X116725Y8113D01*
X116822Y8055D01*
X116921Y8000D01*
X117022Y7949D01*
X117125Y7901D01*
X117229Y7856D01*
X117335Y7816D01*
X117442Y7779D01*
X117550Y7746D01*
X117660Y7716D01*
X117770Y7691D01*
X117881Y7669D01*
X117993Y7652D01*
X118106Y7638D01*
X118219Y7628D01*
X118332Y7622D01*
X118445Y7620D01*
X118558Y7622D01*
X118671Y7628D01*
X118784Y7638D01*
X118897Y7652D01*
X119009Y7669D01*
X119120Y7691D01*
X119230Y7716D01*
X119340Y7746D01*
X119448Y7779D01*
X119555Y7816D01*
X119661Y7856D01*
X119765Y7901D01*
X119868Y7949D01*
X119969Y8000D01*
X120068Y8055D01*
X120165Y8113D01*
X120260Y8175D01*
X120353Y8240D01*
X120443Y8308D01*
X120531Y8379D01*
X120617Y8454D01*
X120700Y8531D01*
X120780Y8611D01*
X120857Y8694D01*
X120932Y8780D01*
X121003Y8868D01*
X121071Y8958D01*
X121136Y9051D01*
X121198Y9146D01*
X121256Y9243D01*
X121311Y9342D01*
X121362Y9443D01*
X121410Y9546D01*
X121455Y9650D01*
X121495Y9756D01*
X121532Y9863D01*
X121565Y9971D01*
X121595Y10081D01*
X121620Y10191D01*
X121642Y10302D01*
X121659Y10414D01*
X121673Y10527D01*
X121683Y10640D01*
X121689Y10753D01*
X121691Y10866D01*
X121691Y14111D01*
X121689Y14254D01*
X121683Y14397D01*
X121673Y14540D01*
X121659Y14682D01*
X121642Y14824D01*
X121620Y14966D01*
X121595Y15107D01*
X121565Y15247D01*
X121532Y15386D01*
X121495Y15524D01*
X121454Y15661D01*
X121410Y15797D01*
X121361Y15932D01*
X121309Y16065D01*
X121254Y16197D01*
X121194Y16327D01*
X121131Y16456D01*
X121065Y16583D01*
X120995Y16708D01*
X120922Y16830D01*
X120845Y16951D01*
X120765Y17070D01*
X120682Y17186D01*
X120596Y17301D01*
X120507Y17412D01*
X120414Y17522D01*
X120319Y17628D01*
X120220Y17732D01*
X120119Y17833D01*
X120015Y17932D01*
X119909Y18027D01*
X119799Y18120D01*
X119688Y18209D01*
X119573Y18295D01*
X119457Y18378D01*
X119338Y18458D01*
X119217Y18535D01*
X119095Y18608D01*
X118970Y18678D01*
X118843Y18744D01*
X118714Y18807D01*
X118584Y18867D01*
X118452Y18922D01*
X118319Y18974D01*
X118184Y19023D01*
X118048Y19067D01*
X117911Y19108D01*
X117773Y19145D01*
X117634Y19178D01*
X117494Y19208D01*
X117353Y19233D01*
X117211Y19255D01*
X117069Y19272D01*
X116927Y19286D01*
X116784Y19296D01*
X116641Y19302D01*
X116498Y19304D01*
X104327Y20602D02*
X109520Y6322D01*
X98648Y13462D02*
X98645Y13692D01*
X98637Y13922D01*
X98623Y14151D01*
X98604Y14380D01*
X98579Y14609D01*
X98549Y14837D01*
X98514Y15064D01*
X98473Y15290D01*
X98427Y15515D01*
X98375Y15739D01*
X98318Y15962D01*
X98256Y16183D01*
X98188Y16403D01*
X98115Y16621D01*
X98037Y16837D01*
X97954Y17051D01*
X97866Y17264D01*
X97773Y17474D01*
X97674Y17681D01*
X97641Y17771D01*
X97605Y17860D01*
X97565Y17948D01*
X97521Y18033D01*
X97474Y18117D01*
X97424Y18199D01*
X97370Y18279D01*
X97314Y18356D01*
X97254Y18432D01*
X97191Y18505D01*
X97126Y18575D01*
X97057Y18643D01*
X96986Y18707D01*
X96913Y18769D01*
X96837Y18828D01*
X96759Y18884D01*
X96678Y18937D01*
X96596Y18986D01*
X96512Y19032D01*
X96425Y19075D01*
X96338Y19114D01*
X96248Y19150D01*
X96158Y19182D01*
X96066Y19210D01*
X95973Y19235D01*
X95879Y19256D01*
X95785Y19273D01*
X95690Y19287D01*
X95594Y19296D01*
X95498Y19302D01*
X95402Y19304D01*
X95306Y19302D01*
X95210Y19296D01*
X95114Y19287D01*
X95019Y19273D01*
X94925Y19256D01*
X94831Y19235D01*
X94738Y19210D01*
X94646Y19182D01*
X94556Y19150D01*
X94466Y19114D01*
X94379Y19075D01*
X94292Y19032D01*
X94208Y18986D01*
X94126Y18937D01*
X94045Y18884D01*
X93967Y18828D01*
X93891Y18769D01*
X93818Y18707D01*
X93747Y18643D01*
X93678Y18575D01*
X93613Y18505D01*
X93550Y18432D01*
X93490Y18357D01*
X93434Y18279D01*
X93380Y18199D01*
X93330Y18117D01*
X93283Y18033D01*
X93240Y17948D01*
X93199Y17860D01*
X93163Y17771D01*
X93130Y17681D01*
X93131Y17681D02*
X93032Y17473D01*
X92939Y17263D01*
X92851Y17051D01*
X92768Y16837D01*
X92690Y16620D01*
X92617Y16402D01*
X92549Y16183D01*
X92487Y15961D01*
X92430Y15739D01*
X92378Y15515D01*
X92332Y15290D01*
X92291Y15064D01*
X92256Y14836D01*
X92226Y14609D01*
X92201Y14380D01*
X92182Y14151D01*
X92168Y13922D01*
X92160Y13692D01*
X92157Y13462D01*
X98648Y13462D02*
X98645Y13232D01*
X98637Y13002D01*
X98623Y12773D01*
X98604Y12544D01*
X98579Y12315D01*
X98549Y12087D01*
X98514Y11860D01*
X98473Y11634D01*
X98427Y11409D01*
X98375Y11185D01*
X98318Y10962D01*
X98256Y10741D01*
X98188Y10521D01*
X98115Y10303D01*
X98037Y10087D01*
X97954Y9873D01*
X97866Y9661D01*
X97773Y9450D01*
X97674Y9243D01*
X97641Y9153D01*
X97605Y9064D01*
X97564Y8976D01*
X97521Y8891D01*
X97474Y8807D01*
X97424Y8725D01*
X97370Y8645D01*
X97314Y8568D01*
X97254Y8492D01*
X97191Y8419D01*
X97126Y8349D01*
X97057Y8281D01*
X96986Y8217D01*
X96913Y8155D01*
X96837Y8096D01*
X96759Y8040D01*
X96678Y7987D01*
X96596Y7938D01*
X96512Y7892D01*
X96425Y7849D01*
X96338Y7810D01*
X96248Y7774D01*
X96158Y7742D01*
X96066Y7714D01*
X95973Y7689D01*
X95879Y7668D01*
X95785Y7651D01*
X95690Y7637D01*
X95594Y7628D01*
X95498Y7622D01*
X95402Y7620D01*
X93131Y9243D02*
X93032Y9450D01*
X92939Y9661D01*
X92851Y9873D01*
X92768Y10087D01*
X92690Y10303D01*
X92617Y10521D01*
X92549Y10741D01*
X92487Y10962D01*
X92430Y11185D01*
X92378Y11409D01*
X92332Y11634D01*
X92291Y11860D01*
X92256Y12087D01*
X92226Y12315D01*
X92201Y12544D01*
X92182Y12773D01*
X92168Y13002D01*
X92160Y13232D01*
X92157Y13462D01*
X93130Y9243D02*
X93163Y9153D01*
X93199Y9064D01*
X93240Y8976D01*
X93283Y8891D01*
X93330Y8807D01*
X93380Y8725D01*
X93434Y8645D01*
X93490Y8567D01*
X93550Y8492D01*
X93613Y8419D01*
X93678Y8349D01*
X93747Y8281D01*
X93818Y8217D01*
X93891Y8155D01*
X93967Y8096D01*
X94045Y8040D01*
X94126Y7987D01*
X94208Y7938D01*
X94292Y7892D01*
X94379Y7849D01*
X94466Y7810D01*
X94556Y7774D01*
X94646Y7742D01*
X94738Y7714D01*
X94831Y7689D01*
X94925Y7668D01*
X95019Y7651D01*
X95114Y7637D01*
X95210Y7628D01*
X95306Y7622D01*
X95402Y7620D01*
X97999Y10216D02*
X92806Y16708D01*
X85846Y7620D02*
X81952Y7620D01*
X81853Y7622D01*
X81753Y7628D01*
X81654Y7637D01*
X81556Y7650D01*
X81458Y7667D01*
X81360Y7688D01*
X81264Y7713D01*
X81169Y7741D01*
X81075Y7773D01*
X80982Y7808D01*
X80890Y7847D01*
X80800Y7890D01*
X80712Y7935D01*
X80625Y7985D01*
X80541Y8037D01*
X80458Y8093D01*
X80378Y8151D01*
X80300Y8213D01*
X80225Y8278D01*
X80152Y8346D01*
X80082Y8416D01*
X80014Y8489D01*
X79949Y8564D01*
X79887Y8642D01*
X79829Y8722D01*
X79773Y8805D01*
X79721Y8889D01*
X79671Y8976D01*
X79626Y9064D01*
X79583Y9154D01*
X79544Y9246D01*
X79509Y9339D01*
X79477Y9433D01*
X79449Y9528D01*
X79424Y9624D01*
X79403Y9722D01*
X79386Y9820D01*
X79373Y9918D01*
X79364Y10017D01*
X79358Y10117D01*
X79356Y10216D01*
X79355Y10216D02*
X79355Y11515D01*
X79356Y11515D02*
X79358Y11614D01*
X79364Y11714D01*
X79373Y11813D01*
X79386Y11911D01*
X79403Y12009D01*
X79424Y12107D01*
X79449Y12203D01*
X79477Y12298D01*
X79509Y12392D01*
X79544Y12485D01*
X79583Y12577D01*
X79626Y12667D01*
X79671Y12755D01*
X79721Y12842D01*
X79773Y12926D01*
X79829Y13009D01*
X79887Y13089D01*
X79949Y13167D01*
X80014Y13242D01*
X80082Y13315D01*
X80152Y13385D01*
X80225Y13453D01*
X80300Y13518D01*
X80378Y13580D01*
X80458Y13638D01*
X80541Y13694D01*
X80625Y13746D01*
X80712Y13796D01*
X80800Y13841D01*
X80890Y13884D01*
X80982Y13923D01*
X81075Y13958D01*
X81169Y13990D01*
X81264Y14018D01*
X81360Y14043D01*
X81458Y14064D01*
X81556Y14081D01*
X81654Y14094D01*
X81753Y14103D01*
X81853Y14109D01*
X81952Y14111D01*
X85846Y14111D01*
X85846Y19304D01*
X79355Y19304D01*
X68483Y20602D02*
X73676Y6322D01*
X59233Y19304D02*
X59126Y19302D01*
X59020Y19296D01*
X58914Y19286D01*
X58808Y19273D01*
X58702Y19255D01*
X58598Y19234D01*
X58494Y19209D01*
X58391Y19180D01*
X58290Y19148D01*
X58190Y19111D01*
X58091Y19071D01*
X57993Y19028D01*
X57897Y18981D01*
X57803Y18930D01*
X57711Y18876D01*
X57621Y18819D01*
X57533Y18759D01*
X57448Y18695D01*
X57365Y18628D01*
X57284Y18558D01*
X57206Y18486D01*
X57130Y18410D01*
X57058Y18332D01*
X56988Y18251D01*
X56921Y18168D01*
X56857Y18083D01*
X56797Y17995D01*
X56740Y17905D01*
X56686Y17813D01*
X56635Y17719D01*
X56588Y17623D01*
X56545Y17525D01*
X56505Y17426D01*
X56468Y17326D01*
X56436Y17225D01*
X56407Y17122D01*
X56382Y17018D01*
X56361Y16914D01*
X56343Y16808D01*
X56330Y16702D01*
X56320Y16596D01*
X56314Y16490D01*
X56312Y16383D01*
X59233Y19304D02*
X59354Y19302D01*
X59475Y19296D01*
X59595Y19286D01*
X59716Y19273D01*
X59835Y19255D01*
X59955Y19234D01*
X60073Y19209D01*
X60190Y19180D01*
X60307Y19147D01*
X60422Y19111D01*
X60536Y19070D01*
X60649Y19027D01*
X60761Y18979D01*
X60870Y18928D01*
X60978Y18873D01*
X61085Y18815D01*
X61189Y18754D01*
X61291Y18689D01*
X61391Y18621D01*
X61489Y18550D01*
X61585Y18476D01*
X61678Y18399D01*
X61768Y18318D01*
X61856Y18235D01*
X61941Y18149D01*
X62024Y18060D01*
X62103Y17969D01*
X62180Y17875D01*
X62253Y17779D01*
X62323Y17681D01*
X62390Y17580D01*
X62454Y17477D01*
X62515Y17372D01*
X62572Y17265D01*
X62625Y17157D01*
X62675Y17047D01*
X62721Y16935D01*
X62764Y16822D01*
X62803Y16707D01*
X57287Y14111D02*
X57208Y14189D01*
X57132Y14269D01*
X57059Y14352D01*
X56989Y14438D01*
X56922Y14525D01*
X56858Y14616D01*
X56798Y14708D01*
X56740Y14802D01*
X56686Y14899D01*
X56636Y14997D01*
X56589Y15097D01*
X56545Y15198D01*
X56505Y15301D01*
X56469Y15406D01*
X56437Y15511D01*
X56408Y15618D01*
X56383Y15725D01*
X56361Y15834D01*
X56344Y15943D01*
X56330Y16052D01*
X56321Y16162D01*
X56315Y16273D01*
X56313Y16383D01*
X57286Y14111D02*
X62804Y7620D01*
X56312Y7620D01*
X50002Y13462D02*
X49999Y13692D01*
X49991Y13922D01*
X49977Y14151D01*
X49958Y14380D01*
X49933Y14609D01*
X49903Y14837D01*
X49868Y15064D01*
X49827Y15290D01*
X49781Y15515D01*
X49729Y15739D01*
X49672Y15962D01*
X49610Y16183D01*
X49542Y16403D01*
X49469Y16621D01*
X49391Y16837D01*
X49308Y17051D01*
X49220Y17264D01*
X49127Y17474D01*
X49028Y17681D01*
X48995Y17771D01*
X48959Y17860D01*
X48919Y17948D01*
X48875Y18033D01*
X48828Y18117D01*
X48778Y18199D01*
X48724Y18279D01*
X48668Y18356D01*
X48608Y18432D01*
X48545Y18505D01*
X48480Y18575D01*
X48411Y18643D01*
X48340Y18707D01*
X48267Y18769D01*
X48191Y18828D01*
X48113Y18884D01*
X48032Y18937D01*
X47950Y18986D01*
X47866Y19032D01*
X47779Y19075D01*
X47692Y19114D01*
X47602Y19150D01*
X47512Y19182D01*
X47420Y19210D01*
X47327Y19235D01*
X47233Y19256D01*
X47139Y19273D01*
X47044Y19287D01*
X46948Y19296D01*
X46852Y19302D01*
X46756Y19304D01*
X46660Y19302D01*
X46564Y19296D01*
X46468Y19287D01*
X46373Y19273D01*
X46279Y19256D01*
X46185Y19235D01*
X46092Y19210D01*
X46000Y19182D01*
X45910Y19150D01*
X45820Y19114D01*
X45733Y19075D01*
X45646Y19032D01*
X45562Y18986D01*
X45480Y18937D01*
X45399Y18884D01*
X45321Y18828D01*
X45245Y18769D01*
X45172Y18707D01*
X45101Y18643D01*
X45032Y18575D01*
X44967Y18505D01*
X44904Y18432D01*
X44844Y18357D01*
X44788Y18279D01*
X44734Y18199D01*
X44684Y18117D01*
X44637Y18033D01*
X44594Y17948D01*
X44553Y17860D01*
X44517Y17771D01*
X44484Y17681D01*
X44485Y17681D02*
X44386Y17473D01*
X44293Y17263D01*
X44205Y17051D01*
X44122Y16837D01*
X44044Y16620D01*
X43971Y16402D01*
X43903Y16183D01*
X43841Y15961D01*
X43784Y15739D01*
X43732Y15515D01*
X43686Y15290D01*
X43645Y15064D01*
X43610Y14836D01*
X43580Y14609D01*
X43555Y14380D01*
X43536Y14151D01*
X43522Y13922D01*
X43514Y13692D01*
X43511Y13462D01*
X50002Y13462D02*
X49999Y13232D01*
X49991Y13002D01*
X49977Y12773D01*
X49958Y12544D01*
X49933Y12315D01*
X49903Y12087D01*
X49868Y11860D01*
X49827Y11634D01*
X49781Y11409D01*
X49729Y11185D01*
X49672Y10962D01*
X49610Y10741D01*
X49542Y10521D01*
X49469Y10303D01*
X49391Y10087D01*
X49308Y9873D01*
X49220Y9661D01*
X49127Y9450D01*
X49028Y9243D01*
X48995Y9153D01*
X48959Y9064D01*
X48918Y8976D01*
X48875Y8891D01*
X48828Y8807D01*
X48778Y8725D01*
X48724Y8645D01*
X48668Y8568D01*
X48608Y8492D01*
X48545Y8419D01*
X48480Y8349D01*
X48411Y8281D01*
X48340Y8217D01*
X48267Y8155D01*
X48191Y8096D01*
X48113Y8040D01*
X48032Y7987D01*
X47950Y7938D01*
X47866Y7892D01*
X47779Y7849D01*
X47692Y7810D01*
X47602Y7774D01*
X47512Y7742D01*
X47420Y7714D01*
X47327Y7689D01*
X47233Y7668D01*
X47139Y7651D01*
X47044Y7637D01*
X46948Y7628D01*
X46852Y7622D01*
X46756Y7620D01*
X44485Y9243D02*
X44386Y9450D01*
X44293Y9661D01*
X44205Y9873D01*
X44122Y10087D01*
X44044Y10303D01*
X43971Y10521D01*
X43903Y10741D01*
X43841Y10962D01*
X43784Y11185D01*
X43732Y11409D01*
X43686Y11634D01*
X43645Y11860D01*
X43610Y12087D01*
X43580Y12315D01*
X43555Y12544D01*
X43536Y12773D01*
X43522Y13002D01*
X43514Y13232D01*
X43511Y13462D01*
X44484Y9243D02*
X44517Y9153D01*
X44553Y9064D01*
X44594Y8976D01*
X44637Y8891D01*
X44684Y8807D01*
X44734Y8725D01*
X44788Y8645D01*
X44844Y8567D01*
X44904Y8492D01*
X44967Y8419D01*
X45032Y8349D01*
X45101Y8281D01*
X45172Y8217D01*
X45245Y8155D01*
X45321Y8096D01*
X45399Y8040D01*
X45480Y7987D01*
X45562Y7938D01*
X45646Y7892D01*
X45733Y7849D01*
X45820Y7810D01*
X45910Y7774D01*
X46000Y7742D01*
X46092Y7714D01*
X46185Y7689D01*
X46279Y7668D01*
X46373Y7651D01*
X46468Y7637D01*
X46564Y7628D01*
X46660Y7622D01*
X46756Y7620D01*
X49353Y10216D02*
X44160Y16708D01*
X33630Y19304D02*
X33523Y19302D01*
X33417Y19296D01*
X33311Y19286D01*
X33205Y19273D01*
X33099Y19255D01*
X32995Y19234D01*
X32891Y19209D01*
X32788Y19180D01*
X32687Y19148D01*
X32587Y19111D01*
X32488Y19071D01*
X32390Y19028D01*
X32294Y18981D01*
X32200Y18930D01*
X32108Y18876D01*
X32018Y18819D01*
X31930Y18759D01*
X31845Y18695D01*
X31762Y18628D01*
X31681Y18558D01*
X31603Y18486D01*
X31527Y18410D01*
X31455Y18332D01*
X31385Y18251D01*
X31318Y18168D01*
X31254Y18083D01*
X31194Y17995D01*
X31137Y17905D01*
X31083Y17813D01*
X31032Y17719D01*
X30985Y17623D01*
X30942Y17525D01*
X30902Y17426D01*
X30865Y17326D01*
X30833Y17225D01*
X30804Y17122D01*
X30779Y17018D01*
X30758Y16914D01*
X30740Y16808D01*
X30727Y16702D01*
X30717Y16596D01*
X30711Y16490D01*
X30709Y16383D01*
X33630Y19304D02*
X33751Y19302D01*
X33872Y19296D01*
X33992Y19286D01*
X34113Y19273D01*
X34232Y19255D01*
X34352Y19234D01*
X34470Y19209D01*
X34587Y19180D01*
X34704Y19147D01*
X34819Y19111D01*
X34933Y19070D01*
X35046Y19027D01*
X35158Y18979D01*
X35267Y18928D01*
X35375Y18873D01*
X35482Y18815D01*
X35586Y18754D01*
X35688Y18689D01*
X35788Y18621D01*
X35886Y18550D01*
X35982Y18476D01*
X36075Y18399D01*
X36165Y18318D01*
X36253Y18235D01*
X36338Y18149D01*
X36421Y18060D01*
X36500Y17969D01*
X36577Y17875D01*
X36650Y17779D01*
X36720Y17681D01*
X36787Y17580D01*
X36851Y17477D01*
X36912Y17372D01*
X36969Y17265D01*
X37022Y17157D01*
X37072Y17047D01*
X37118Y16935D01*
X37161Y16822D01*
X37200Y16707D01*
X31684Y14111D02*
X31605Y14189D01*
X31529Y14269D01*
X31456Y14352D01*
X31386Y14438D01*
X31319Y14525D01*
X31255Y14616D01*
X31195Y14708D01*
X31137Y14802D01*
X31083Y14899D01*
X31033Y14997D01*
X30986Y15097D01*
X30942Y15198D01*
X30902Y15301D01*
X30866Y15406D01*
X30834Y15511D01*
X30805Y15618D01*
X30780Y15725D01*
X30758Y15834D01*
X30741Y15943D01*
X30727Y16052D01*
X30718Y16162D01*
X30712Y16273D01*
X30710Y16383D01*
X31683Y14111D02*
X37200Y7620D01*
X30709Y7620D01*
X24399Y7620D02*
X21153Y7620D01*
X21040Y7622D01*
X20927Y7628D01*
X20814Y7638D01*
X20701Y7652D01*
X20589Y7669D01*
X20478Y7691D01*
X20368Y7716D01*
X20258Y7746D01*
X20150Y7779D01*
X20043Y7816D01*
X19937Y7856D01*
X19833Y7901D01*
X19730Y7949D01*
X19629Y8000D01*
X19530Y8055D01*
X19433Y8113D01*
X19338Y8175D01*
X19245Y8240D01*
X19155Y8308D01*
X19067Y8379D01*
X18981Y8454D01*
X18898Y8531D01*
X18818Y8611D01*
X18741Y8694D01*
X18666Y8780D01*
X18595Y8868D01*
X18527Y8958D01*
X18462Y9051D01*
X18400Y9146D01*
X18342Y9243D01*
X18287Y9342D01*
X18236Y9443D01*
X18188Y9546D01*
X18143Y9650D01*
X18103Y9756D01*
X18066Y9863D01*
X18033Y9971D01*
X18003Y10081D01*
X17978Y10191D01*
X17956Y10302D01*
X17939Y10414D01*
X17925Y10527D01*
X17915Y10640D01*
X17909Y10753D01*
X17907Y10866D01*
X17909Y10979D01*
X17915Y11092D01*
X17925Y11205D01*
X17939Y11318D01*
X17956Y11430D01*
X17978Y11541D01*
X18003Y11651D01*
X18033Y11761D01*
X18066Y11869D01*
X18103Y11976D01*
X18143Y12082D01*
X18188Y12186D01*
X18236Y12289D01*
X18287Y12390D01*
X18342Y12489D01*
X18400Y12586D01*
X18462Y12681D01*
X18527Y12774D01*
X18595Y12864D01*
X18666Y12952D01*
X18741Y13038D01*
X18818Y13121D01*
X18898Y13201D01*
X18981Y13278D01*
X19067Y13353D01*
X19155Y13424D01*
X19245Y13492D01*
X19338Y13557D01*
X19433Y13619D01*
X19530Y13677D01*
X19629Y13732D01*
X19730Y13783D01*
X19833Y13831D01*
X19937Y13876D01*
X20043Y13916D01*
X20150Y13953D01*
X20258Y13986D01*
X20368Y14016D01*
X20478Y14041D01*
X20589Y14063D01*
X20701Y14080D01*
X20814Y14094D01*
X20927Y14104D01*
X21040Y14110D01*
X21153Y14112D01*
X20504Y19304D02*
X24399Y19304D01*
X20504Y19304D02*
X20403Y19302D01*
X20303Y19296D01*
X20203Y19286D01*
X20103Y19273D01*
X20004Y19255D01*
X19905Y19234D01*
X19808Y19209D01*
X19711Y19180D01*
X19616Y19147D01*
X19522Y19111D01*
X19430Y19071D01*
X19339Y19028D01*
X19250Y18981D01*
X19163Y18931D01*
X19077Y18877D01*
X18994Y18820D01*
X18914Y18760D01*
X18835Y18697D01*
X18759Y18630D01*
X18686Y18561D01*
X18616Y18489D01*
X18548Y18415D01*
X18483Y18338D01*
X18422Y18258D01*
X18363Y18176D01*
X18308Y18092D01*
X18256Y18006D01*
X18207Y17918D01*
X18162Y17828D01*
X18120Y17736D01*
X18082Y17643D01*
X18048Y17548D01*
X18017Y17453D01*
X17990Y17356D01*
X17967Y17258D01*
X17947Y17159D01*
X17932Y17059D01*
X17920Y16959D01*
X17912Y16859D01*
X17908Y16758D01*
X17908Y16658D01*
X17912Y16557D01*
X17920Y16457D01*
X17932Y16357D01*
X17947Y16257D01*
X17967Y16158D01*
X17990Y16060D01*
X18017Y15963D01*
X18048Y15868D01*
X18082Y15773D01*
X18120Y15680D01*
X18162Y15588D01*
X18207Y15498D01*
X18256Y15410D01*
X18308Y15324D01*
X18363Y15240D01*
X18422Y15158D01*
X18483Y15078D01*
X18548Y15001D01*
X18616Y14927D01*
X18686Y14855D01*
X18759Y14786D01*
X18835Y14719D01*
X18914Y14656D01*
X18994Y14596D01*
X19077Y14539D01*
X19163Y14485D01*
X19250Y14435D01*
X19339Y14388D01*
X19430Y14345D01*
X19522Y14305D01*
X19616Y14269D01*
X19711Y14236D01*
X19808Y14207D01*
X19905Y14182D01*
X20004Y14161D01*
X20103Y14143D01*
X20203Y14130D01*
X20303Y14120D01*
X20403Y14114D01*
X20504Y14112D01*
X20504Y14111D02*
X23101Y14111D01*
X91237Y26670D02*
X95132Y38354D01*
X87343Y38354D02*
X91237Y26670D01*
X81681Y35758D02*
X78436Y38354D01*
X78436Y26670D01*
X81681Y26670D02*
X75190Y26670D01*
X69799Y26670D02*
X69799Y27319D01*
X69150Y27319D01*
X69150Y26670D01*
X69799Y26670D01*
X60189Y38354D02*
X60082Y38352D01*
X59976Y38346D01*
X59870Y38336D01*
X59764Y38323D01*
X59658Y38305D01*
X59554Y38284D01*
X59450Y38259D01*
X59347Y38230D01*
X59246Y38198D01*
X59146Y38161D01*
X59047Y38121D01*
X58949Y38078D01*
X58853Y38031D01*
X58759Y37980D01*
X58667Y37926D01*
X58577Y37869D01*
X58489Y37809D01*
X58404Y37745D01*
X58321Y37678D01*
X58240Y37608D01*
X58162Y37536D01*
X58086Y37460D01*
X58014Y37382D01*
X57944Y37301D01*
X57877Y37218D01*
X57813Y37133D01*
X57753Y37045D01*
X57696Y36955D01*
X57642Y36863D01*
X57591Y36769D01*
X57544Y36673D01*
X57501Y36575D01*
X57461Y36476D01*
X57424Y36376D01*
X57392Y36275D01*
X57363Y36172D01*
X57338Y36068D01*
X57317Y35964D01*
X57299Y35858D01*
X57286Y35752D01*
X57276Y35646D01*
X57270Y35540D01*
X57268Y35433D01*
X60189Y38354D02*
X60310Y38352D01*
X60431Y38346D01*
X60551Y38336D01*
X60672Y38323D01*
X60791Y38305D01*
X60911Y38284D01*
X61029Y38259D01*
X61146Y38230D01*
X61263Y38197D01*
X61378Y38161D01*
X61492Y38120D01*
X61605Y38077D01*
X61717Y38029D01*
X61826Y37978D01*
X61934Y37923D01*
X62041Y37865D01*
X62145Y37804D01*
X62247Y37739D01*
X62347Y37671D01*
X62445Y37600D01*
X62541Y37526D01*
X62634Y37449D01*
X62724Y37368D01*
X62812Y37285D01*
X62897Y37199D01*
X62980Y37110D01*
X63059Y37019D01*
X63136Y36925D01*
X63209Y36829D01*
X63279Y36731D01*
X63346Y36630D01*
X63410Y36527D01*
X63471Y36422D01*
X63528Y36315D01*
X63581Y36207D01*
X63631Y36097D01*
X63677Y35985D01*
X63720Y35872D01*
X63759Y35757D01*
X58242Y33161D02*
X58163Y33239D01*
X58087Y33319D01*
X58014Y33402D01*
X57944Y33488D01*
X57877Y33575D01*
X57813Y33666D01*
X57753Y33758D01*
X57695Y33852D01*
X57641Y33949D01*
X57591Y34047D01*
X57544Y34147D01*
X57500Y34248D01*
X57460Y34351D01*
X57424Y34456D01*
X57392Y34561D01*
X57363Y34668D01*
X57338Y34775D01*
X57316Y34884D01*
X57299Y34993D01*
X57285Y35102D01*
X57276Y35212D01*
X57270Y35323D01*
X57268Y35433D01*
X58242Y33161D02*
X63759Y26670D01*
X57268Y26670D01*
D11*
X30956Y50006D03*
D12*
X101600Y120650D02*
X101600Y203200D01*
X101600Y120650D02*
X30956Y50006D01*
D11*
X101600Y203200D03*
D12*
X101600Y235204D02*
X89154Y247650D01*
X101600Y235204D02*
X101600Y203200D01*
D11*
X89154Y247650D03*
D12*
X35199Y54249D02*
X30206Y51259D01*
X30956Y50006D01*
X32209Y49256D02*
X35199Y54249D01*
X32209Y49256D02*
X30956Y50006D01*
X101600Y197200D02*
X103016Y202845D01*
X101600Y203200D01*
X100184Y202845D02*
X101600Y197200D01*
X100184Y202845D02*
X101600Y203200D01*
X100184Y203555D02*
X101600Y209200D01*
X100184Y203555D02*
X101600Y203200D01*
X103016Y203555D02*
X101600Y209200D01*
X103016Y203555D02*
X101600Y203200D01*
X93397Y243407D02*
X90407Y248400D01*
X89154Y247650D01*
X88404Y246397D02*
X93397Y243407D01*
X88404Y246397D02*
X89154Y247650D01*
D13*
X0Y203200D03*
D11*
X136981Y266700D03*
X88646Y184150D03*
X81756Y228600D03*
X89154Y285750D03*
D14*
X31750Y203200D02*
X0Y203200D01*
D11*
X107950Y482600D03*
X127000Y482600D03*
X25400Y482600D03*
X44450Y482600D03*
D13*
X152400Y228600D03*
X152400Y355600D03*
M02*
