G04 EAGLE Gerber RS-274X export*
G75*
%MOMM*%
%FSLAX34Y34*%
%LPD*%
%INTop Copper*%
%IPPOS*%
%AMOC8*
5,1,8,0,0,1.08239X$1,22.5*%
G01*
%ADD10C,0.254000*%
%ADD11C,1.500000*%
%ADD12R,1.100000X1.000000*%
%ADD13R,1.320800X0.558800*%
%ADD14C,0.508000*%
%ADD15C,0.406400*%
%ADD16C,0.800000*%
%ADD17C,0.800000*%
%ADD18C,0.560000*%
%ADD19C,0.152400*%
%ADD20C,2.000000*%
%ADD21C,0.304800*%

G36*
X147092Y369955D02*
X147092Y369955D01*
X147118Y369953D01*
X147265Y369975D01*
X147412Y369992D01*
X147437Y370000D01*
X147463Y370004D01*
X147601Y370059D01*
X147740Y370109D01*
X147762Y370123D01*
X147787Y370133D01*
X147908Y370218D01*
X148033Y370298D01*
X148051Y370317D01*
X148073Y370332D01*
X148172Y370442D01*
X148275Y370549D01*
X148289Y370571D01*
X148306Y370591D01*
X148378Y370721D01*
X148454Y370848D01*
X148462Y370873D01*
X148475Y370896D01*
X148515Y371039D01*
X148560Y371180D01*
X148562Y371206D01*
X148570Y371231D01*
X148589Y371475D01*
X148589Y372024D01*
X148581Y372100D01*
X148582Y372176D01*
X148561Y372273D01*
X148549Y372370D01*
X148524Y372442D01*
X148507Y372517D01*
X148465Y372606D01*
X148432Y372698D01*
X148390Y372763D01*
X148358Y372832D01*
X148296Y372908D01*
X148243Y372991D01*
X148188Y373044D01*
X148140Y373104D01*
X148063Y373165D01*
X147992Y373233D01*
X147927Y373273D01*
X147867Y373320D01*
X147734Y373388D01*
X147693Y373412D01*
X147675Y373418D01*
X147649Y373431D01*
X147409Y373531D01*
X144931Y376009D01*
X143589Y379247D01*
X143589Y382753D01*
X144931Y385991D01*
X147409Y388469D01*
X147649Y388569D01*
X147716Y388606D01*
X147787Y388634D01*
X147868Y388690D01*
X147954Y388738D01*
X148010Y388789D01*
X148073Y388833D01*
X148139Y388906D01*
X148212Y388972D01*
X148255Y389035D01*
X148306Y389092D01*
X148354Y389178D01*
X148410Y389259D01*
X148438Y389330D01*
X148475Y389397D01*
X148502Y389492D01*
X148538Y389583D01*
X148549Y389659D01*
X148570Y389732D01*
X148582Y389881D01*
X148589Y389928D01*
X148587Y389947D01*
X148589Y389976D01*
X148589Y397424D01*
X148581Y397500D01*
X148582Y397576D01*
X148561Y397673D01*
X148549Y397770D01*
X148524Y397842D01*
X148507Y397917D01*
X148465Y398006D01*
X148432Y398098D01*
X148390Y398163D01*
X148358Y398232D01*
X148296Y398308D01*
X148243Y398391D01*
X148188Y398444D01*
X148140Y398504D01*
X148063Y398565D01*
X147992Y398633D01*
X147927Y398673D01*
X147867Y398720D01*
X147734Y398788D01*
X147693Y398812D01*
X147675Y398818D01*
X147649Y398831D01*
X147409Y398931D01*
X144931Y401409D01*
X143589Y404647D01*
X143589Y408153D01*
X144931Y411391D01*
X147409Y413869D01*
X147649Y413969D01*
X147716Y414006D01*
X147787Y414034D01*
X147868Y414090D01*
X147954Y414138D01*
X148010Y414189D01*
X148073Y414233D01*
X148139Y414306D01*
X148212Y414372D01*
X148255Y414435D01*
X148306Y414492D01*
X148354Y414578D01*
X148410Y414659D01*
X148438Y414730D01*
X148475Y414797D01*
X148502Y414892D01*
X148538Y414983D01*
X148549Y415059D01*
X148570Y415132D01*
X148582Y415281D01*
X148589Y415328D01*
X148587Y415347D01*
X148589Y415376D01*
X148589Y422824D01*
X148581Y422900D01*
X148582Y422976D01*
X148561Y423073D01*
X148549Y423170D01*
X148524Y423242D01*
X148507Y423317D01*
X148465Y423406D01*
X148432Y423498D01*
X148390Y423563D01*
X148358Y423632D01*
X148296Y423708D01*
X148243Y423791D01*
X148188Y423844D01*
X148140Y423904D01*
X148063Y423965D01*
X147992Y424033D01*
X147927Y424073D01*
X147867Y424120D01*
X147734Y424188D01*
X147693Y424212D01*
X147675Y424218D01*
X147649Y424231D01*
X147409Y424331D01*
X144931Y426809D01*
X143589Y430047D01*
X143589Y433553D01*
X144931Y436791D01*
X147409Y439269D01*
X147649Y439369D01*
X147716Y439406D01*
X147787Y439434D01*
X147868Y439490D01*
X147954Y439538D01*
X148010Y439589D01*
X148073Y439633D01*
X148139Y439706D01*
X148212Y439772D01*
X148255Y439835D01*
X148306Y439892D01*
X148354Y439978D01*
X148410Y440059D01*
X148438Y440130D01*
X148475Y440197D01*
X148502Y440292D01*
X148538Y440383D01*
X148549Y440459D01*
X148570Y440532D01*
X148582Y440681D01*
X148589Y440728D01*
X148587Y440747D01*
X148589Y440776D01*
X148589Y448224D01*
X148581Y448300D01*
X148582Y448376D01*
X148561Y448473D01*
X148549Y448570D01*
X148524Y448642D01*
X148507Y448717D01*
X148465Y448806D01*
X148432Y448898D01*
X148390Y448963D01*
X148358Y449032D01*
X148296Y449108D01*
X148243Y449191D01*
X148188Y449244D01*
X148140Y449304D01*
X148063Y449365D01*
X147992Y449433D01*
X147927Y449473D01*
X147867Y449520D01*
X147734Y449588D01*
X147693Y449612D01*
X147675Y449618D01*
X147649Y449631D01*
X147409Y449731D01*
X144931Y452209D01*
X143589Y455447D01*
X143589Y458953D01*
X144931Y462191D01*
X147409Y464669D01*
X147649Y464769D01*
X147716Y464806D01*
X147787Y464834D01*
X147868Y464890D01*
X147954Y464938D01*
X148010Y464989D01*
X148073Y465033D01*
X148139Y465106D01*
X148212Y465172D01*
X148255Y465235D01*
X148306Y465292D01*
X148354Y465378D01*
X148410Y465459D01*
X148438Y465530D01*
X148475Y465597D01*
X148502Y465692D01*
X148538Y465783D01*
X148549Y465859D01*
X148570Y465932D01*
X148582Y466081D01*
X148589Y466128D01*
X148587Y466147D01*
X148589Y466176D01*
X148589Y473624D01*
X148581Y473700D01*
X148582Y473776D01*
X148561Y473873D01*
X148549Y473970D01*
X148524Y474042D01*
X148507Y474117D01*
X148465Y474206D01*
X148432Y474298D01*
X148390Y474363D01*
X148358Y474432D01*
X148296Y474508D01*
X148243Y474591D01*
X148188Y474644D01*
X148140Y474704D01*
X148063Y474765D01*
X147992Y474833D01*
X147927Y474873D01*
X147867Y474920D01*
X147734Y474988D01*
X147693Y475012D01*
X147675Y475018D01*
X147649Y475031D01*
X147409Y475131D01*
X144931Y477609D01*
X143589Y480847D01*
X143589Y484353D01*
X144931Y487591D01*
X146229Y488889D01*
X146291Y488968D01*
X146361Y489040D01*
X146399Y489104D01*
X146445Y489162D01*
X146488Y489253D01*
X146540Y489339D01*
X146562Y489410D01*
X146594Y489477D01*
X146615Y489575D01*
X146646Y489671D01*
X146652Y489745D01*
X146668Y489818D01*
X146666Y489918D01*
X146674Y490018D01*
X146663Y490092D01*
X146662Y490166D01*
X146637Y490263D01*
X146622Y490363D01*
X146595Y490432D01*
X146577Y490504D01*
X146531Y490593D01*
X146494Y490687D01*
X146451Y490748D01*
X146417Y490814D01*
X146352Y490890D01*
X146295Y490973D01*
X146239Y491023D01*
X146191Y491079D01*
X146110Y491139D01*
X146036Y491206D01*
X145971Y491242D01*
X145911Y491287D01*
X145819Y491326D01*
X145731Y491375D01*
X145659Y491395D01*
X145591Y491425D01*
X145492Y491442D01*
X145395Y491470D01*
X145295Y491478D01*
X145248Y491486D01*
X145212Y491484D01*
X145152Y491489D01*
X7248Y491489D01*
X7149Y491478D01*
X7048Y491476D01*
X6976Y491458D01*
X6902Y491449D01*
X6808Y491416D01*
X6710Y491391D01*
X6644Y491357D01*
X6574Y491332D01*
X6490Y491277D01*
X6400Y491231D01*
X6344Y491183D01*
X6281Y491143D01*
X6212Y491071D01*
X6135Y491006D01*
X6091Y490946D01*
X6039Y490892D01*
X5988Y490806D01*
X5928Y490725D01*
X5898Y490657D01*
X5860Y490593D01*
X5830Y490497D01*
X5790Y490405D01*
X5777Y490332D01*
X5754Y490261D01*
X5746Y490161D01*
X5728Y490062D01*
X5732Y489988D01*
X5726Y489914D01*
X5741Y489814D01*
X5746Y489714D01*
X5767Y489643D01*
X5778Y489569D01*
X5815Y489476D01*
X5843Y489379D01*
X5879Y489314D01*
X5906Y489245D01*
X5964Y489163D01*
X6013Y489075D01*
X6078Y488999D01*
X6105Y488959D01*
X6132Y488935D01*
X6171Y488889D01*
X7469Y487591D01*
X8811Y484353D01*
X8811Y480847D01*
X7469Y477609D01*
X4991Y475131D01*
X4751Y475031D01*
X4684Y474994D01*
X4613Y474966D01*
X4532Y474910D01*
X4446Y474862D01*
X4390Y474811D01*
X4327Y474767D01*
X4261Y474694D01*
X4188Y474628D01*
X4145Y474565D01*
X4094Y474508D01*
X4046Y474422D01*
X3990Y474341D01*
X3962Y474270D01*
X3925Y474203D01*
X3898Y474108D01*
X3862Y474017D01*
X3851Y473941D01*
X3830Y473868D01*
X3818Y473719D01*
X3811Y473672D01*
X3813Y473653D01*
X3811Y473624D01*
X3811Y466176D01*
X3819Y466100D01*
X3818Y466024D01*
X3839Y465927D01*
X3851Y465830D01*
X3876Y465758D01*
X3893Y465683D01*
X3935Y465594D01*
X3968Y465502D01*
X4010Y465437D01*
X4042Y465368D01*
X4104Y465292D01*
X4157Y465209D01*
X4212Y465156D01*
X4260Y465096D01*
X4337Y465035D01*
X4408Y464967D01*
X4473Y464927D01*
X4533Y464880D01*
X4666Y464812D01*
X4707Y464788D01*
X4725Y464782D01*
X4751Y464769D01*
X4991Y464669D01*
X7469Y462191D01*
X8811Y458953D01*
X8811Y455447D01*
X7469Y452209D01*
X4991Y449731D01*
X4751Y449631D01*
X4684Y449594D01*
X4613Y449566D01*
X4532Y449510D01*
X4446Y449462D01*
X4390Y449411D01*
X4327Y449367D01*
X4261Y449294D01*
X4188Y449228D01*
X4145Y449165D01*
X4094Y449108D01*
X4046Y449022D01*
X3990Y448941D01*
X3962Y448870D01*
X3925Y448803D01*
X3898Y448708D01*
X3862Y448617D01*
X3851Y448541D01*
X3830Y448468D01*
X3818Y448319D01*
X3811Y448272D01*
X3813Y448253D01*
X3811Y448224D01*
X3811Y440776D01*
X3819Y440700D01*
X3818Y440624D01*
X3839Y440527D01*
X3851Y440430D01*
X3876Y440358D01*
X3893Y440283D01*
X3935Y440194D01*
X3968Y440102D01*
X4010Y440037D01*
X4042Y439968D01*
X4104Y439892D01*
X4157Y439809D01*
X4212Y439756D01*
X4260Y439696D01*
X4337Y439635D01*
X4408Y439567D01*
X4473Y439527D01*
X4533Y439480D01*
X4666Y439412D01*
X4707Y439388D01*
X4725Y439382D01*
X4751Y439369D01*
X4991Y439269D01*
X7469Y436791D01*
X8811Y433553D01*
X8811Y430047D01*
X7469Y426809D01*
X4991Y424331D01*
X4751Y424231D01*
X4684Y424194D01*
X4613Y424166D01*
X4532Y424110D01*
X4446Y424062D01*
X4390Y424011D01*
X4327Y423967D01*
X4261Y423894D01*
X4188Y423828D01*
X4145Y423765D01*
X4094Y423708D01*
X4046Y423622D01*
X3990Y423541D01*
X3962Y423470D01*
X3925Y423403D01*
X3898Y423308D01*
X3862Y423217D01*
X3851Y423141D01*
X3830Y423068D01*
X3818Y422919D01*
X3811Y422872D01*
X3813Y422853D01*
X3811Y422824D01*
X3811Y415376D01*
X3819Y415300D01*
X3818Y415224D01*
X3839Y415127D01*
X3851Y415030D01*
X3876Y414958D01*
X3893Y414883D01*
X3935Y414794D01*
X3968Y414702D01*
X4010Y414637D01*
X4042Y414568D01*
X4104Y414492D01*
X4157Y414409D01*
X4212Y414356D01*
X4260Y414296D01*
X4337Y414235D01*
X4408Y414167D01*
X4473Y414127D01*
X4533Y414080D01*
X4666Y414012D01*
X4707Y413988D01*
X4725Y413982D01*
X4751Y413969D01*
X4991Y413869D01*
X7469Y411391D01*
X8811Y408153D01*
X8811Y404647D01*
X7469Y401409D01*
X4991Y398931D01*
X4751Y398831D01*
X4684Y398794D01*
X4613Y398766D01*
X4532Y398710D01*
X4446Y398662D01*
X4390Y398611D01*
X4327Y398567D01*
X4261Y398494D01*
X4188Y398428D01*
X4145Y398365D01*
X4094Y398308D01*
X4046Y398222D01*
X3990Y398141D01*
X3962Y398070D01*
X3925Y398003D01*
X3898Y397908D01*
X3862Y397817D01*
X3851Y397741D01*
X3830Y397668D01*
X3818Y397519D01*
X3811Y397472D01*
X3813Y397453D01*
X3811Y397424D01*
X3811Y389976D01*
X3819Y389900D01*
X3818Y389824D01*
X3839Y389727D01*
X3851Y389630D01*
X3876Y389558D01*
X3893Y389483D01*
X3935Y389394D01*
X3968Y389302D01*
X4010Y389237D01*
X4042Y389168D01*
X4104Y389092D01*
X4157Y389009D01*
X4212Y388956D01*
X4260Y388896D01*
X4337Y388835D01*
X4408Y388767D01*
X4473Y388727D01*
X4533Y388680D01*
X4666Y388612D01*
X4707Y388588D01*
X4725Y388582D01*
X4751Y388569D01*
X4991Y388469D01*
X7469Y385991D01*
X8811Y382753D01*
X8811Y379247D01*
X7469Y376009D01*
X4991Y373531D01*
X4751Y373431D01*
X4684Y373394D01*
X4613Y373366D01*
X4532Y373310D01*
X4446Y373262D01*
X4390Y373211D01*
X4327Y373167D01*
X4261Y373094D01*
X4188Y373028D01*
X4145Y372965D01*
X4094Y372908D01*
X4046Y372822D01*
X3990Y372741D01*
X3962Y372670D01*
X3925Y372603D01*
X3898Y372508D01*
X3862Y372417D01*
X3851Y372341D01*
X3830Y372268D01*
X3818Y372119D01*
X3811Y372072D01*
X3813Y372053D01*
X3811Y372024D01*
X3811Y371475D01*
X3814Y371449D01*
X3812Y371423D01*
X3834Y371276D01*
X3851Y371129D01*
X3859Y371104D01*
X3863Y371078D01*
X3918Y370940D01*
X3968Y370801D01*
X3982Y370779D01*
X3992Y370754D01*
X4077Y370633D01*
X4157Y370508D01*
X4176Y370490D01*
X4191Y370468D01*
X4301Y370369D01*
X4408Y370266D01*
X4430Y370252D01*
X4450Y370235D01*
X4580Y370163D01*
X4707Y370087D01*
X4732Y370079D01*
X4755Y370066D01*
X4898Y370026D01*
X5039Y369981D01*
X5065Y369979D01*
X5090Y369971D01*
X5334Y369952D01*
X147066Y369952D01*
X147092Y369955D01*
G37*
%LPC*%
G36*
X60875Y388655D02*
X60875Y388655D01*
X60861Y388657D01*
X60848Y388662D01*
X60688Y388680D01*
X60529Y388701D01*
X60516Y388699D01*
X60502Y388701D01*
X60342Y388682D01*
X60183Y388666D01*
X60169Y388662D01*
X60155Y388660D01*
X59923Y388585D01*
X59060Y388227D01*
X50585Y388227D01*
X46142Y390792D01*
X43577Y395235D01*
X43577Y401704D01*
X43574Y401730D01*
X43576Y401756D01*
X43554Y401903D01*
X43537Y402050D01*
X43529Y402075D01*
X43525Y402101D01*
X43470Y402239D01*
X43420Y402378D01*
X43406Y402400D01*
X43396Y402425D01*
X43311Y402546D01*
X43231Y402671D01*
X43212Y402689D01*
X43197Y402711D01*
X43087Y402810D01*
X42980Y402913D01*
X42958Y402927D01*
X42938Y402944D01*
X42808Y403016D01*
X42681Y403092D01*
X42656Y403100D01*
X42633Y403113D01*
X42490Y403153D01*
X42349Y403198D01*
X42323Y403200D01*
X42298Y403208D01*
X42285Y403209D01*
X40560Y403923D01*
X39273Y405210D01*
X38577Y406890D01*
X38577Y408710D01*
X39273Y410390D01*
X40560Y411677D01*
X42312Y412402D01*
X42400Y412413D01*
X42425Y412421D01*
X42451Y412425D01*
X42589Y412480D01*
X42728Y412530D01*
X42750Y412544D01*
X42775Y412554D01*
X42896Y412639D01*
X43021Y412719D01*
X43039Y412738D01*
X43061Y412753D01*
X43160Y412863D01*
X43263Y412970D01*
X43277Y412992D01*
X43294Y413012D01*
X43366Y413141D01*
X43442Y413269D01*
X43450Y413294D01*
X43463Y413317D01*
X43503Y413460D01*
X43548Y413601D01*
X43550Y413627D01*
X43558Y413652D01*
X43559Y413665D01*
X44014Y414765D01*
X44036Y414842D01*
X44068Y414916D01*
X44084Y415009D01*
X44110Y415100D01*
X44114Y415180D01*
X44128Y415259D01*
X44122Y415353D01*
X44127Y415448D01*
X44113Y415527D01*
X44108Y415607D01*
X44081Y415698D01*
X44064Y415791D01*
X44032Y415864D01*
X44010Y415941D01*
X43963Y416024D01*
X43925Y416110D01*
X43878Y416175D01*
X43838Y416245D01*
X43774Y416314D01*
X43718Y416390D01*
X43656Y416442D01*
X43602Y416501D01*
X43524Y416554D01*
X43452Y416615D01*
X43380Y416652D01*
X43314Y416697D01*
X43185Y416752D01*
X43141Y416774D01*
X43120Y416779D01*
X43089Y416793D01*
X42951Y416839D01*
X42874Y416991D01*
X42812Y417087D01*
X42757Y417188D01*
X42717Y417233D01*
X42684Y417283D01*
X42601Y417362D01*
X42525Y417448D01*
X42463Y417495D01*
X42432Y417524D01*
X42395Y417546D01*
X42330Y417595D01*
X41860Y417894D01*
X41852Y417898D01*
X41844Y417904D01*
X41695Y417974D01*
X41547Y418046D01*
X41538Y418048D01*
X41529Y418052D01*
X41367Y418087D01*
X41207Y418123D01*
X41197Y418123D01*
X41188Y418125D01*
X41023Y418122D01*
X40858Y418121D01*
X40849Y418119D01*
X40840Y418119D01*
X40680Y418078D01*
X40519Y418040D01*
X40511Y418035D01*
X40502Y418033D01*
X40281Y417928D01*
X37052Y416064D01*
X37035Y416051D01*
X33217Y416051D01*
X29597Y417560D01*
X28216Y418952D01*
X26957Y420222D01*
X26971Y423800D01*
X27734Y424556D01*
X27735Y424557D01*
X27736Y424557D01*
X27839Y424687D01*
X27952Y424828D01*
X27952Y424829D01*
X27953Y424830D01*
X28025Y424982D01*
X28102Y425142D01*
X28102Y425144D01*
X28103Y425145D01*
X28141Y425321D01*
X28177Y425483D01*
X28177Y425484D01*
X28177Y425485D01*
X28175Y425658D01*
X28172Y425831D01*
X28172Y425832D01*
X28172Y425834D01*
X28130Y426004D01*
X28089Y426170D01*
X28088Y426171D01*
X28088Y426172D01*
X27984Y426393D01*
X27312Y427569D01*
X27288Y427601D01*
X27288Y431314D01*
X27301Y431333D01*
X29141Y434520D01*
X31343Y435791D01*
X31465Y435881D01*
X31589Y435967D01*
X31604Y435985D01*
X31623Y435999D01*
X31721Y436114D01*
X31822Y436226D01*
X31833Y436247D01*
X31849Y436265D01*
X31917Y436399D01*
X31991Y436531D01*
X31997Y436554D01*
X32008Y436575D01*
X32044Y436721D01*
X32085Y436866D01*
X32088Y436895D01*
X32092Y436913D01*
X32093Y436960D01*
X32105Y437110D01*
X32105Y452893D01*
X34635Y455423D01*
X43405Y455423D01*
X43470Y455358D01*
X43490Y455342D01*
X43508Y455322D01*
X43627Y455234D01*
X43743Y455142D01*
X43767Y455130D01*
X43788Y455115D01*
X43924Y455056D01*
X44058Y454993D01*
X44084Y454987D01*
X44108Y454977D01*
X44254Y454950D01*
X44399Y454919D01*
X44425Y454920D01*
X44451Y454915D01*
X44599Y454923D01*
X44747Y454925D01*
X44773Y454932D01*
X44799Y454933D01*
X44941Y454974D01*
X45085Y455010D01*
X45109Y455022D01*
X45134Y455030D01*
X45263Y455102D01*
X45395Y455170D01*
X45415Y455187D01*
X45438Y455200D01*
X45624Y455358D01*
X45689Y455423D01*
X45964Y455423D01*
X46053Y455433D01*
X46142Y455433D01*
X46225Y455453D01*
X46310Y455463D01*
X46394Y455493D01*
X46481Y455513D01*
X46591Y455563D01*
X46638Y455580D01*
X46662Y455595D01*
X46704Y455614D01*
X46944Y455748D01*
X47877Y455481D01*
X47966Y455467D01*
X48052Y455442D01*
X48172Y455433D01*
X48221Y455425D01*
X48250Y455426D01*
X48296Y455423D01*
X49266Y455423D01*
X49461Y455228D01*
X49531Y455173D01*
X49594Y455110D01*
X49667Y455065D01*
X49734Y455012D01*
X49815Y454974D01*
X49890Y454927D01*
X50004Y454884D01*
X50049Y454863D01*
X50077Y454857D01*
X50119Y454841D01*
X50407Y454758D01*
X50568Y454732D01*
X50730Y454703D01*
X50741Y454703D01*
X50751Y454702D01*
X50914Y454712D01*
X51078Y454721D01*
X51088Y454724D01*
X51099Y454724D01*
X51256Y454772D01*
X51413Y454817D01*
X51422Y454823D01*
X51432Y454826D01*
X51574Y454908D01*
X51717Y454987D01*
X51727Y454996D01*
X51734Y455000D01*
X51758Y455022D01*
X51903Y455146D01*
X52180Y455423D01*
X53584Y455423D01*
X53610Y455426D01*
X53636Y455424D01*
X53783Y455446D01*
X53930Y455463D01*
X53955Y455471D01*
X53981Y455475D01*
X54119Y455530D01*
X54258Y455580D01*
X54281Y455594D01*
X54305Y455604D01*
X54426Y455689D01*
X54551Y455769D01*
X54570Y455788D01*
X54591Y455803D01*
X54690Y455913D01*
X54793Y456020D01*
X54807Y456042D01*
X54825Y456062D01*
X54896Y456192D01*
X54972Y456319D01*
X54980Y456344D01*
X54993Y456367D01*
X55033Y456510D01*
X55079Y456651D01*
X55081Y456677D01*
X55088Y456702D01*
X55107Y456946D01*
X55107Y471943D01*
X57637Y474473D01*
X64699Y474473D01*
X68220Y472440D01*
X68358Y472380D01*
X68495Y472315D01*
X68518Y472310D01*
X68540Y472301D01*
X68688Y472274D01*
X68836Y472242D01*
X68860Y472243D01*
X68883Y472239D01*
X69033Y472246D01*
X69185Y472249D01*
X69207Y472255D01*
X69231Y472256D01*
X69376Y472298D01*
X69522Y472335D01*
X69548Y472347D01*
X69566Y472352D01*
X69607Y472375D01*
X69743Y472440D01*
X73243Y474460D01*
X73260Y474473D01*
X75362Y474473D01*
X77537Y474473D01*
X80801Y474473D01*
X81670Y473603D01*
X81691Y473587D01*
X81708Y473567D01*
X81828Y473479D01*
X81943Y473387D01*
X81967Y473376D01*
X81988Y473360D01*
X82124Y473301D01*
X82259Y473238D01*
X82284Y473232D01*
X82308Y473222D01*
X82454Y473196D01*
X82599Y473165D01*
X82625Y473165D01*
X82651Y473160D01*
X82800Y473168D01*
X82948Y473171D01*
X82973Y473177D01*
X82999Y473178D01*
X83142Y473219D01*
X83286Y473256D01*
X83309Y473268D01*
X83334Y473275D01*
X83464Y473347D01*
X83596Y473415D01*
X83616Y473432D01*
X83638Y473445D01*
X83825Y473603D01*
X84694Y474473D01*
X91585Y474473D01*
X91603Y474460D01*
X94791Y472620D01*
X96643Y469410D01*
X96643Y465404D01*
X96641Y465389D01*
X96643Y465329D01*
X96643Y465296D01*
X96646Y465274D01*
X96648Y465236D01*
X96651Y465083D01*
X96656Y465062D01*
X96657Y465041D01*
X96699Y464893D01*
X96736Y464745D01*
X96747Y464722D01*
X96752Y464705D01*
X96774Y464665D01*
X96841Y464524D01*
X97293Y463742D01*
X97293Y459689D01*
X96149Y457708D01*
X96119Y457638D01*
X96080Y457573D01*
X96050Y457479D01*
X96010Y457388D01*
X95997Y457313D01*
X95974Y457241D01*
X95966Y457142D01*
X95948Y457045D01*
X95952Y456969D01*
X95946Y456894D01*
X95960Y456796D01*
X95965Y456697D01*
X95986Y456624D01*
X95997Y456549D01*
X96034Y456457D01*
X96061Y456362D01*
X96098Y456296D01*
X96126Y456225D01*
X96183Y456144D01*
X96231Y456057D01*
X96282Y456001D01*
X96325Y455939D01*
X96398Y455873D01*
X96465Y455799D01*
X96528Y455756D01*
X96584Y455706D01*
X96670Y455658D01*
X96752Y455601D01*
X96822Y455574D01*
X96889Y455537D01*
X96984Y455510D01*
X97076Y455474D01*
X97151Y455463D01*
X97224Y455442D01*
X97375Y455430D01*
X97421Y455423D01*
X97440Y455425D01*
X97468Y455423D01*
X105280Y455423D01*
X105411Y455292D01*
X105431Y455275D01*
X105449Y455255D01*
X105568Y455167D01*
X105684Y455075D01*
X105708Y455064D01*
X105729Y455048D01*
X105865Y454990D01*
X105999Y454926D01*
X106025Y454921D01*
X106049Y454910D01*
X106195Y454884D01*
X106340Y454853D01*
X106366Y454853D01*
X106392Y454848D01*
X106540Y454856D01*
X106688Y454859D01*
X106714Y454865D01*
X106740Y454866D01*
X106883Y454908D01*
X107026Y454944D01*
X107050Y454956D01*
X107075Y454963D01*
X107204Y455035D01*
X107336Y455103D01*
X107356Y455120D01*
X107379Y455133D01*
X107565Y455292D01*
X107696Y455423D01*
X114758Y455423D01*
X118268Y453396D01*
X120295Y449885D01*
X120295Y445832D01*
X119260Y444039D01*
X119218Y443942D01*
X119167Y443849D01*
X119149Y443783D01*
X119121Y443719D01*
X119103Y443615D01*
X119074Y443513D01*
X119071Y443444D01*
X119059Y443376D01*
X119064Y443271D01*
X119060Y443165D01*
X119073Y443097D01*
X119076Y443028D01*
X119106Y442927D01*
X119125Y442823D01*
X119160Y442738D01*
X119172Y442693D01*
X119191Y442659D01*
X119217Y442596D01*
X120639Y439751D01*
X119968Y437739D01*
X119959Y437693D01*
X119941Y437649D01*
X119923Y437523D01*
X119897Y437398D01*
X119898Y437351D01*
X119891Y437304D01*
X119901Y437177D01*
X119904Y437049D01*
X119916Y437004D01*
X119920Y436957D01*
X119959Y436835D01*
X119991Y436712D01*
X120013Y436670D01*
X120027Y436625D01*
X120093Y436516D01*
X120152Y436403D01*
X120183Y436367D01*
X120207Y436327D01*
X120296Y436235D01*
X120379Y436139D01*
X120417Y436111D01*
X120450Y436077D01*
X120652Y435938D01*
X123409Y434346D01*
X125436Y430835D01*
X125436Y426782D01*
X124401Y424989D01*
X124359Y424892D01*
X124309Y424799D01*
X124290Y424733D01*
X124263Y424669D01*
X124244Y424565D01*
X124215Y424463D01*
X124213Y424394D01*
X124200Y424326D01*
X124205Y424221D01*
X124201Y424115D01*
X124214Y424047D01*
X124218Y423978D01*
X124247Y423877D01*
X124266Y423773D01*
X124301Y423688D01*
X124313Y423643D01*
X124332Y423609D01*
X124358Y423546D01*
X125780Y420701D01*
X124649Y417307D01*
X121449Y415707D01*
X118309Y416754D01*
X118287Y416759D01*
X118266Y416767D01*
X118116Y416794D01*
X117968Y416826D01*
X117945Y416825D01*
X117923Y416829D01*
X117771Y416821D01*
X117619Y416818D01*
X117597Y416812D01*
X117575Y416811D01*
X117429Y416769D01*
X117282Y416731D01*
X117262Y416721D01*
X117240Y416715D01*
X117107Y416640D01*
X116973Y416570D01*
X116956Y416555D01*
X116936Y416544D01*
X116750Y416386D01*
X116415Y416051D01*
X114032Y416051D01*
X113883Y416034D01*
X113733Y416022D01*
X113710Y416014D01*
X113686Y416011D01*
X113545Y415961D01*
X113402Y415914D01*
X113381Y415902D01*
X113358Y415894D01*
X113232Y415812D01*
X113103Y415735D01*
X113086Y415718D01*
X113065Y415705D01*
X112961Y415597D01*
X112853Y415492D01*
X112840Y415472D01*
X112823Y415454D01*
X112746Y415325D01*
X112665Y415199D01*
X112657Y415176D01*
X112644Y415155D01*
X112599Y415012D01*
X112548Y414870D01*
X112545Y414846D01*
X112538Y414823D01*
X112526Y414674D01*
X112509Y414524D01*
X112512Y414500D01*
X112510Y414476D01*
X112532Y414327D01*
X112550Y414178D01*
X112559Y414150D01*
X112562Y414131D01*
X112579Y414087D01*
X112625Y413945D01*
X112723Y413710D01*
X112723Y391890D01*
X112027Y390210D01*
X110740Y388923D01*
X109060Y388227D01*
X87240Y388227D01*
X85560Y388923D01*
X84273Y390210D01*
X83816Y391313D01*
X83816Y391314D01*
X83736Y391458D01*
X83647Y391618D01*
X83646Y391619D01*
X83528Y391749D01*
X83413Y391876D01*
X83412Y391876D01*
X83412Y391877D01*
X83269Y391975D01*
X83126Y392074D01*
X83125Y392075D01*
X82962Y392139D01*
X82802Y392202D01*
X82801Y392202D01*
X82637Y392226D01*
X82457Y392253D01*
X82456Y392253D01*
X82298Y392239D01*
X82110Y392224D01*
X82109Y392224D01*
X81944Y392170D01*
X81778Y392117D01*
X81778Y392116D01*
X81777Y392116D01*
X81634Y392030D01*
X81480Y391937D01*
X81479Y391937D01*
X81479Y391936D01*
X81369Y391830D01*
X81230Y391694D01*
X81229Y391694D01*
X81229Y391693D01*
X81090Y391492D01*
X80493Y390457D01*
X76630Y388227D01*
X67240Y388227D01*
X66279Y388626D01*
X66217Y388643D01*
X66158Y388670D01*
X66050Y388691D01*
X65944Y388721D01*
X65879Y388724D01*
X65816Y388737D01*
X65706Y388733D01*
X65595Y388738D01*
X65532Y388727D01*
X65467Y388724D01*
X65361Y388696D01*
X65253Y388676D01*
X65193Y388650D01*
X65131Y388633D01*
X64965Y388551D01*
X64933Y388537D01*
X64925Y388531D01*
X64912Y388525D01*
X64723Y388411D01*
X62923Y388143D01*
X60875Y388655D01*
G37*
%LPD*%
D10*
X59426Y458470D02*
X59426Y470154D01*
X62672Y470154D01*
X62785Y470152D01*
X62898Y470146D01*
X63011Y470136D01*
X63124Y470122D01*
X63236Y470105D01*
X63347Y470083D01*
X63457Y470058D01*
X63567Y470028D01*
X63675Y469995D01*
X63782Y469958D01*
X63888Y469918D01*
X63992Y469873D01*
X64095Y469825D01*
X64196Y469774D01*
X64295Y469719D01*
X64392Y469661D01*
X64487Y469599D01*
X64580Y469534D01*
X64670Y469466D01*
X64758Y469395D01*
X64844Y469320D01*
X64927Y469243D01*
X65007Y469163D01*
X65084Y469080D01*
X65159Y468994D01*
X65230Y468906D01*
X65298Y468816D01*
X65363Y468723D01*
X65425Y468628D01*
X65483Y468531D01*
X65538Y468432D01*
X65589Y468331D01*
X65637Y468228D01*
X65682Y468124D01*
X65722Y468018D01*
X65759Y467911D01*
X65792Y467803D01*
X65822Y467693D01*
X65847Y467583D01*
X65869Y467472D01*
X65886Y467360D01*
X65900Y467247D01*
X65910Y467134D01*
X65916Y467021D01*
X65918Y466908D01*
X65916Y466795D01*
X65910Y466682D01*
X65900Y466569D01*
X65886Y466456D01*
X65869Y466344D01*
X65847Y466233D01*
X65822Y466123D01*
X65792Y466013D01*
X65759Y465905D01*
X65722Y465798D01*
X65682Y465692D01*
X65637Y465588D01*
X65589Y465485D01*
X65538Y465384D01*
X65483Y465285D01*
X65425Y465188D01*
X65363Y465093D01*
X65298Y465000D01*
X65230Y464910D01*
X65159Y464822D01*
X65084Y464736D01*
X65007Y464653D01*
X64927Y464573D01*
X64844Y464496D01*
X64758Y464421D01*
X64670Y464350D01*
X64580Y464282D01*
X64487Y464217D01*
X64392Y464155D01*
X64295Y464097D01*
X64196Y464042D01*
X64095Y463991D01*
X63992Y463943D01*
X63888Y463898D01*
X63782Y463858D01*
X63675Y463821D01*
X63567Y463788D01*
X63457Y463758D01*
X63347Y463733D01*
X63236Y463711D01*
X63124Y463694D01*
X63011Y463680D01*
X62898Y463670D01*
X62785Y463664D01*
X62672Y463662D01*
X62672Y463663D02*
X59426Y463663D01*
X63321Y463663D02*
X65917Y458470D01*
X77065Y464961D02*
X79012Y464961D01*
X79012Y458470D01*
X75118Y458470D01*
X75019Y458472D01*
X74919Y458478D01*
X74820Y458487D01*
X74722Y458500D01*
X74624Y458517D01*
X74526Y458538D01*
X74430Y458563D01*
X74335Y458591D01*
X74241Y458623D01*
X74148Y458658D01*
X74056Y458697D01*
X73966Y458740D01*
X73878Y458785D01*
X73791Y458835D01*
X73707Y458887D01*
X73624Y458943D01*
X73544Y459001D01*
X73466Y459063D01*
X73391Y459128D01*
X73318Y459196D01*
X73248Y459266D01*
X73180Y459339D01*
X73115Y459414D01*
X73053Y459492D01*
X72995Y459572D01*
X72939Y459655D01*
X72887Y459739D01*
X72837Y459826D01*
X72792Y459914D01*
X72749Y460004D01*
X72710Y460096D01*
X72675Y460189D01*
X72643Y460283D01*
X72615Y460378D01*
X72590Y460474D01*
X72569Y460572D01*
X72552Y460670D01*
X72539Y460768D01*
X72530Y460867D01*
X72524Y460967D01*
X72522Y461066D01*
X72521Y461066D02*
X72521Y467558D01*
X72522Y467558D02*
X72524Y467657D01*
X72530Y467757D01*
X72539Y467856D01*
X72552Y467954D01*
X72569Y468052D01*
X72590Y468150D01*
X72615Y468246D01*
X72643Y468341D01*
X72675Y468435D01*
X72710Y468528D01*
X72749Y468620D01*
X72792Y468710D01*
X72837Y468798D01*
X72887Y468885D01*
X72939Y468969D01*
X72995Y469052D01*
X73053Y469132D01*
X73115Y469210D01*
X73180Y469285D01*
X73248Y469358D01*
X73318Y469428D01*
X73391Y469496D01*
X73466Y469561D01*
X73544Y469623D01*
X73624Y469681D01*
X73707Y469737D01*
X73791Y469789D01*
X73878Y469839D01*
X73966Y469884D01*
X74056Y469927D01*
X74148Y469966D01*
X74240Y470001D01*
X74335Y470033D01*
X74430Y470061D01*
X74526Y470086D01*
X74624Y470107D01*
X74722Y470124D01*
X74820Y470137D01*
X74919Y470146D01*
X75019Y470152D01*
X75118Y470154D01*
X79012Y470154D01*
X86483Y464961D02*
X89728Y464961D01*
X89728Y464962D02*
X89841Y464960D01*
X89954Y464954D01*
X90067Y464944D01*
X90180Y464930D01*
X90292Y464913D01*
X90403Y464891D01*
X90513Y464866D01*
X90623Y464836D01*
X90731Y464803D01*
X90838Y464766D01*
X90944Y464726D01*
X91048Y464681D01*
X91151Y464633D01*
X91252Y464582D01*
X91351Y464527D01*
X91448Y464469D01*
X91543Y464407D01*
X91636Y464342D01*
X91726Y464274D01*
X91814Y464203D01*
X91900Y464128D01*
X91983Y464051D01*
X92063Y463971D01*
X92140Y463888D01*
X92215Y463802D01*
X92286Y463714D01*
X92354Y463624D01*
X92419Y463531D01*
X92481Y463436D01*
X92539Y463339D01*
X92594Y463240D01*
X92645Y463139D01*
X92693Y463036D01*
X92738Y462932D01*
X92778Y462826D01*
X92815Y462719D01*
X92848Y462611D01*
X92878Y462501D01*
X92903Y462391D01*
X92925Y462280D01*
X92942Y462168D01*
X92956Y462055D01*
X92966Y461942D01*
X92972Y461829D01*
X92974Y461716D01*
X92972Y461603D01*
X92966Y461490D01*
X92956Y461377D01*
X92942Y461264D01*
X92925Y461152D01*
X92903Y461041D01*
X92878Y460931D01*
X92848Y460821D01*
X92815Y460713D01*
X92778Y460606D01*
X92738Y460500D01*
X92693Y460396D01*
X92645Y460293D01*
X92594Y460192D01*
X92539Y460093D01*
X92481Y459996D01*
X92419Y459901D01*
X92354Y459808D01*
X92286Y459718D01*
X92215Y459630D01*
X92140Y459544D01*
X92063Y459461D01*
X91983Y459381D01*
X91900Y459304D01*
X91814Y459229D01*
X91726Y459158D01*
X91636Y459090D01*
X91543Y459025D01*
X91448Y458963D01*
X91351Y458905D01*
X91252Y458850D01*
X91151Y458799D01*
X91048Y458751D01*
X90944Y458706D01*
X90838Y458666D01*
X90731Y458629D01*
X90623Y458596D01*
X90513Y458566D01*
X90403Y458541D01*
X90292Y458519D01*
X90180Y458502D01*
X90067Y458488D01*
X89954Y458478D01*
X89841Y458472D01*
X89728Y458470D01*
X86483Y458470D01*
X86483Y470154D01*
X89728Y470154D01*
X89829Y470152D01*
X89929Y470146D01*
X90029Y470136D01*
X90129Y470123D01*
X90228Y470105D01*
X90327Y470084D01*
X90424Y470059D01*
X90521Y470030D01*
X90616Y469997D01*
X90710Y469961D01*
X90802Y469921D01*
X90893Y469878D01*
X90982Y469831D01*
X91069Y469781D01*
X91155Y469727D01*
X91238Y469670D01*
X91318Y469610D01*
X91397Y469547D01*
X91473Y469480D01*
X91546Y469411D01*
X91616Y469339D01*
X91684Y469265D01*
X91749Y469188D01*
X91810Y469108D01*
X91869Y469026D01*
X91924Y468942D01*
X91976Y468856D01*
X92025Y468768D01*
X92070Y468678D01*
X92112Y468586D01*
X92150Y468493D01*
X92184Y468398D01*
X92215Y468303D01*
X92242Y468206D01*
X92265Y468108D01*
X92285Y468009D01*
X92300Y467909D01*
X92312Y467809D01*
X92320Y467709D01*
X92324Y467608D01*
X92324Y467508D01*
X92320Y467407D01*
X92312Y467307D01*
X92300Y467207D01*
X92285Y467107D01*
X92265Y467008D01*
X92242Y466910D01*
X92215Y466813D01*
X92184Y466718D01*
X92150Y466623D01*
X92112Y466530D01*
X92070Y466438D01*
X92025Y466348D01*
X91976Y466260D01*
X91924Y466174D01*
X91869Y466090D01*
X91810Y466008D01*
X91749Y465928D01*
X91684Y465851D01*
X91616Y465777D01*
X91546Y465705D01*
X91473Y465636D01*
X91397Y465569D01*
X91318Y465506D01*
X91238Y465446D01*
X91155Y465389D01*
X91069Y465335D01*
X90982Y465285D01*
X90893Y465238D01*
X90802Y465195D01*
X90710Y465155D01*
X90616Y465119D01*
X90521Y465086D01*
X90424Y465057D01*
X90327Y465032D01*
X90228Y465011D01*
X90129Y464993D01*
X90029Y464980D01*
X89929Y464970D01*
X89829Y464964D01*
X89728Y464962D01*
X41617Y439420D02*
X36424Y439420D01*
X36424Y451104D01*
X41617Y451104D01*
X40318Y445911D02*
X36424Y445911D01*
X47478Y451104D02*
X47478Y439420D01*
X53969Y439420D02*
X47478Y451104D01*
X53969Y451104D02*
X53969Y439420D01*
X63242Y439420D02*
X65839Y439420D01*
X63242Y439420D02*
X63143Y439422D01*
X63043Y439428D01*
X62944Y439437D01*
X62846Y439450D01*
X62748Y439467D01*
X62650Y439488D01*
X62554Y439513D01*
X62459Y439541D01*
X62365Y439573D01*
X62272Y439608D01*
X62180Y439647D01*
X62090Y439690D01*
X62002Y439735D01*
X61915Y439785D01*
X61831Y439837D01*
X61748Y439893D01*
X61668Y439951D01*
X61590Y440013D01*
X61515Y440078D01*
X61442Y440146D01*
X61372Y440216D01*
X61304Y440289D01*
X61239Y440364D01*
X61177Y440442D01*
X61119Y440522D01*
X61063Y440605D01*
X61011Y440689D01*
X60961Y440776D01*
X60916Y440864D01*
X60873Y440954D01*
X60834Y441046D01*
X60799Y441139D01*
X60767Y441233D01*
X60739Y441328D01*
X60714Y441424D01*
X60693Y441522D01*
X60676Y441620D01*
X60663Y441718D01*
X60654Y441817D01*
X60648Y441917D01*
X60646Y442016D01*
X60646Y448508D01*
X60648Y448607D01*
X60654Y448707D01*
X60663Y448806D01*
X60676Y448904D01*
X60693Y449002D01*
X60714Y449100D01*
X60739Y449196D01*
X60767Y449291D01*
X60799Y449385D01*
X60834Y449478D01*
X60873Y449570D01*
X60916Y449660D01*
X60961Y449748D01*
X61011Y449835D01*
X61063Y449919D01*
X61119Y450002D01*
X61177Y450082D01*
X61239Y450160D01*
X61304Y450235D01*
X61372Y450308D01*
X61442Y450378D01*
X61515Y450446D01*
X61590Y450511D01*
X61668Y450573D01*
X61748Y450631D01*
X61831Y450687D01*
X61915Y450739D01*
X62002Y450789D01*
X62090Y450834D01*
X62180Y450877D01*
X62272Y450916D01*
X62364Y450951D01*
X62459Y450983D01*
X62554Y451011D01*
X62650Y451036D01*
X62748Y451057D01*
X62846Y451074D01*
X62944Y451087D01*
X63043Y451096D01*
X63143Y451102D01*
X63242Y451104D01*
X65839Y451104D01*
X71374Y447858D02*
X71374Y442666D01*
X71373Y447858D02*
X71375Y447971D01*
X71381Y448084D01*
X71391Y448197D01*
X71405Y448310D01*
X71422Y448422D01*
X71444Y448533D01*
X71469Y448643D01*
X71499Y448753D01*
X71532Y448861D01*
X71569Y448968D01*
X71609Y449074D01*
X71654Y449178D01*
X71702Y449281D01*
X71753Y449382D01*
X71808Y449481D01*
X71866Y449578D01*
X71928Y449673D01*
X71993Y449766D01*
X72061Y449856D01*
X72132Y449944D01*
X72207Y450030D01*
X72284Y450113D01*
X72364Y450193D01*
X72447Y450270D01*
X72533Y450345D01*
X72621Y450416D01*
X72711Y450484D01*
X72804Y450549D01*
X72899Y450611D01*
X72996Y450669D01*
X73095Y450724D01*
X73196Y450775D01*
X73299Y450823D01*
X73403Y450868D01*
X73509Y450908D01*
X73616Y450945D01*
X73724Y450978D01*
X73834Y451008D01*
X73944Y451033D01*
X74055Y451055D01*
X74167Y451072D01*
X74280Y451086D01*
X74393Y451096D01*
X74506Y451102D01*
X74619Y451104D01*
X74732Y451102D01*
X74845Y451096D01*
X74958Y451086D01*
X75071Y451072D01*
X75183Y451055D01*
X75294Y451033D01*
X75404Y451008D01*
X75514Y450978D01*
X75622Y450945D01*
X75729Y450908D01*
X75835Y450868D01*
X75939Y450823D01*
X76042Y450775D01*
X76143Y450724D01*
X76242Y450669D01*
X76339Y450611D01*
X76434Y450549D01*
X76527Y450484D01*
X76617Y450416D01*
X76705Y450345D01*
X76791Y450270D01*
X76874Y450193D01*
X76954Y450113D01*
X77031Y450030D01*
X77106Y449944D01*
X77177Y449856D01*
X77245Y449766D01*
X77310Y449673D01*
X77372Y449578D01*
X77430Y449481D01*
X77485Y449382D01*
X77536Y449281D01*
X77584Y449178D01*
X77629Y449074D01*
X77669Y448968D01*
X77706Y448861D01*
X77739Y448753D01*
X77769Y448643D01*
X77794Y448533D01*
X77816Y448422D01*
X77833Y448310D01*
X77847Y448197D01*
X77857Y448084D01*
X77863Y447971D01*
X77865Y447858D01*
X77865Y442666D01*
X77863Y442553D01*
X77857Y442440D01*
X77847Y442327D01*
X77833Y442214D01*
X77816Y442102D01*
X77794Y441991D01*
X77769Y441881D01*
X77739Y441771D01*
X77706Y441663D01*
X77669Y441556D01*
X77629Y441450D01*
X77584Y441346D01*
X77536Y441243D01*
X77485Y441142D01*
X77430Y441043D01*
X77372Y440946D01*
X77310Y440851D01*
X77245Y440758D01*
X77177Y440668D01*
X77106Y440580D01*
X77031Y440494D01*
X76954Y440411D01*
X76874Y440331D01*
X76791Y440254D01*
X76705Y440179D01*
X76617Y440108D01*
X76527Y440040D01*
X76434Y439975D01*
X76339Y439913D01*
X76242Y439855D01*
X76143Y439800D01*
X76042Y439749D01*
X75939Y439701D01*
X75835Y439656D01*
X75729Y439616D01*
X75622Y439579D01*
X75514Y439546D01*
X75404Y439516D01*
X75294Y439491D01*
X75183Y439469D01*
X75071Y439452D01*
X74958Y439438D01*
X74845Y439428D01*
X74732Y439422D01*
X74619Y439420D01*
X74506Y439422D01*
X74393Y439428D01*
X74280Y439438D01*
X74167Y439452D01*
X74055Y439469D01*
X73944Y439491D01*
X73834Y439516D01*
X73724Y439546D01*
X73616Y439579D01*
X73509Y439616D01*
X73403Y439656D01*
X73299Y439701D01*
X73196Y439749D01*
X73095Y439800D01*
X72996Y439855D01*
X72899Y439913D01*
X72804Y439975D01*
X72711Y440040D01*
X72621Y440108D01*
X72533Y440179D01*
X72447Y440254D01*
X72364Y440331D01*
X72284Y440411D01*
X72207Y440494D01*
X72132Y440580D01*
X72061Y440668D01*
X71993Y440758D01*
X71928Y440851D01*
X71866Y440946D01*
X71808Y441043D01*
X71753Y441142D01*
X71702Y441243D01*
X71654Y441346D01*
X71609Y441450D01*
X71569Y441556D01*
X71532Y441663D01*
X71499Y441771D01*
X71469Y441881D01*
X71444Y441991D01*
X71422Y442102D01*
X71405Y442214D01*
X71391Y442327D01*
X71381Y442440D01*
X71375Y442553D01*
X71373Y442666D01*
X84602Y439420D02*
X84602Y451104D01*
X87848Y451104D01*
X87961Y451102D01*
X88074Y451096D01*
X88187Y451086D01*
X88300Y451072D01*
X88412Y451055D01*
X88523Y451033D01*
X88633Y451008D01*
X88743Y450978D01*
X88851Y450945D01*
X88958Y450908D01*
X89064Y450868D01*
X89168Y450823D01*
X89271Y450775D01*
X89372Y450724D01*
X89471Y450669D01*
X89568Y450611D01*
X89663Y450549D01*
X89756Y450484D01*
X89846Y450416D01*
X89934Y450345D01*
X90020Y450270D01*
X90103Y450193D01*
X90183Y450113D01*
X90260Y450030D01*
X90335Y449944D01*
X90406Y449856D01*
X90474Y449766D01*
X90539Y449673D01*
X90601Y449578D01*
X90659Y449481D01*
X90714Y449382D01*
X90765Y449281D01*
X90813Y449178D01*
X90858Y449074D01*
X90898Y448968D01*
X90935Y448861D01*
X90968Y448753D01*
X90998Y448643D01*
X91023Y448533D01*
X91045Y448422D01*
X91062Y448310D01*
X91076Y448197D01*
X91086Y448084D01*
X91092Y447971D01*
X91094Y447858D01*
X91093Y447858D02*
X91093Y442666D01*
X91094Y442666D02*
X91092Y442553D01*
X91086Y442440D01*
X91076Y442327D01*
X91062Y442214D01*
X91045Y442102D01*
X91023Y441991D01*
X90998Y441881D01*
X90968Y441771D01*
X90935Y441663D01*
X90898Y441556D01*
X90858Y441450D01*
X90813Y441346D01*
X90765Y441243D01*
X90714Y441142D01*
X90659Y441043D01*
X90601Y440946D01*
X90539Y440851D01*
X90474Y440758D01*
X90406Y440668D01*
X90335Y440580D01*
X90260Y440494D01*
X90183Y440411D01*
X90103Y440331D01*
X90020Y440254D01*
X89934Y440179D01*
X89846Y440108D01*
X89756Y440040D01*
X89663Y439975D01*
X89568Y439913D01*
X89471Y439855D01*
X89372Y439800D01*
X89271Y439749D01*
X89168Y439701D01*
X89064Y439656D01*
X88958Y439616D01*
X88851Y439579D01*
X88743Y439546D01*
X88633Y439516D01*
X88523Y439491D01*
X88412Y439469D01*
X88300Y439452D01*
X88187Y439438D01*
X88074Y439428D01*
X87961Y439422D01*
X87848Y439420D01*
X84602Y439420D01*
X98298Y439420D02*
X103491Y439420D01*
X98298Y439420D02*
X98298Y451104D01*
X103491Y451104D01*
X102193Y445911D02*
X98298Y445911D01*
X109485Y451104D02*
X109485Y439420D01*
X109485Y451104D02*
X112731Y451104D01*
X112844Y451102D01*
X112957Y451096D01*
X113070Y451086D01*
X113183Y451072D01*
X113295Y451055D01*
X113406Y451033D01*
X113516Y451008D01*
X113626Y450978D01*
X113734Y450945D01*
X113841Y450908D01*
X113947Y450868D01*
X114051Y450823D01*
X114154Y450775D01*
X114255Y450724D01*
X114354Y450669D01*
X114451Y450611D01*
X114546Y450549D01*
X114639Y450484D01*
X114729Y450416D01*
X114817Y450345D01*
X114903Y450270D01*
X114986Y450193D01*
X115066Y450113D01*
X115143Y450030D01*
X115218Y449944D01*
X115289Y449856D01*
X115357Y449766D01*
X115422Y449673D01*
X115484Y449578D01*
X115542Y449481D01*
X115597Y449382D01*
X115648Y449281D01*
X115696Y449178D01*
X115741Y449074D01*
X115781Y448968D01*
X115818Y448861D01*
X115851Y448753D01*
X115881Y448643D01*
X115906Y448533D01*
X115928Y448422D01*
X115945Y448310D01*
X115959Y448197D01*
X115969Y448084D01*
X115975Y447971D01*
X115977Y447858D01*
X115975Y447745D01*
X115969Y447632D01*
X115959Y447519D01*
X115945Y447406D01*
X115928Y447294D01*
X115906Y447183D01*
X115881Y447073D01*
X115851Y446963D01*
X115818Y446855D01*
X115781Y446748D01*
X115741Y446642D01*
X115696Y446538D01*
X115648Y446435D01*
X115597Y446334D01*
X115542Y446235D01*
X115484Y446138D01*
X115422Y446043D01*
X115357Y445950D01*
X115289Y445860D01*
X115218Y445772D01*
X115143Y445686D01*
X115066Y445603D01*
X114986Y445523D01*
X114903Y445446D01*
X114817Y445371D01*
X114729Y445300D01*
X114639Y445232D01*
X114546Y445167D01*
X114451Y445105D01*
X114354Y445047D01*
X114255Y444992D01*
X114154Y444941D01*
X114051Y444893D01*
X113947Y444848D01*
X113841Y444808D01*
X113734Y444771D01*
X113626Y444738D01*
X113516Y444708D01*
X113406Y444683D01*
X113295Y444661D01*
X113183Y444644D01*
X113070Y444630D01*
X112957Y444620D01*
X112844Y444614D01*
X112731Y444612D01*
X112731Y444613D02*
X109485Y444613D01*
X113380Y444613D02*
X115976Y439420D01*
X37773Y422966D02*
X37771Y422867D01*
X37765Y422767D01*
X37756Y422668D01*
X37743Y422570D01*
X37726Y422472D01*
X37705Y422374D01*
X37680Y422278D01*
X37652Y422183D01*
X37620Y422089D01*
X37585Y421996D01*
X37546Y421904D01*
X37503Y421814D01*
X37458Y421726D01*
X37408Y421639D01*
X37356Y421555D01*
X37300Y421472D01*
X37242Y421392D01*
X37180Y421314D01*
X37115Y421239D01*
X37047Y421166D01*
X36977Y421096D01*
X36904Y421028D01*
X36829Y420963D01*
X36751Y420901D01*
X36671Y420843D01*
X36588Y420787D01*
X36504Y420735D01*
X36417Y420685D01*
X36329Y420640D01*
X36239Y420597D01*
X36147Y420558D01*
X36054Y420523D01*
X35960Y420491D01*
X35865Y420463D01*
X35769Y420438D01*
X35671Y420417D01*
X35573Y420400D01*
X35475Y420387D01*
X35376Y420378D01*
X35276Y420372D01*
X35177Y420370D01*
X35033Y420372D01*
X34888Y420378D01*
X34744Y420387D01*
X34601Y420400D01*
X34457Y420417D01*
X34314Y420438D01*
X34172Y420463D01*
X34031Y420491D01*
X33890Y420523D01*
X33750Y420559D01*
X33611Y420598D01*
X33473Y420641D01*
X33337Y420688D01*
X33201Y420738D01*
X33067Y420792D01*
X32935Y420849D01*
X32804Y420910D01*
X32675Y420974D01*
X32547Y421042D01*
X32421Y421112D01*
X32297Y421187D01*
X32176Y421264D01*
X32056Y421345D01*
X31938Y421428D01*
X31823Y421515D01*
X31710Y421605D01*
X31599Y421698D01*
X31491Y421793D01*
X31385Y421892D01*
X31282Y421993D01*
X31608Y429458D02*
X31610Y429557D01*
X31616Y429657D01*
X31625Y429756D01*
X31638Y429854D01*
X31655Y429952D01*
X31676Y430050D01*
X31701Y430146D01*
X31729Y430241D01*
X31761Y430335D01*
X31796Y430428D01*
X31835Y430520D01*
X31878Y430610D01*
X31923Y430698D01*
X31973Y430785D01*
X32025Y430869D01*
X32081Y430952D01*
X32139Y431032D01*
X32201Y431110D01*
X32266Y431185D01*
X32334Y431258D01*
X32404Y431328D01*
X32477Y431396D01*
X32552Y431461D01*
X32630Y431523D01*
X32710Y431581D01*
X32793Y431637D01*
X32877Y431689D01*
X32964Y431739D01*
X33052Y431784D01*
X33142Y431827D01*
X33234Y431866D01*
X33327Y431901D01*
X33421Y431933D01*
X33516Y431961D01*
X33613Y431986D01*
X33710Y432007D01*
X33808Y432024D01*
X33906Y432037D01*
X34005Y432046D01*
X34105Y432052D01*
X34204Y432054D01*
X34340Y432052D01*
X34476Y432046D01*
X34612Y432037D01*
X34748Y432024D01*
X34883Y432006D01*
X35017Y431986D01*
X35151Y431961D01*
X35285Y431933D01*
X35417Y431900D01*
X35548Y431865D01*
X35679Y431825D01*
X35808Y431782D01*
X35936Y431736D01*
X36062Y431685D01*
X36188Y431632D01*
X36311Y431574D01*
X36433Y431514D01*
X36553Y431450D01*
X36672Y431382D01*
X36788Y431312D01*
X36902Y431238D01*
X37015Y431161D01*
X37125Y431080D01*
X32905Y427186D02*
X32819Y427239D01*
X32735Y427296D01*
X32653Y427355D01*
X32573Y427418D01*
X32496Y427484D01*
X32421Y427552D01*
X32349Y427624D01*
X32280Y427698D01*
X32214Y427775D01*
X32151Y427854D01*
X32091Y427936D01*
X32034Y428020D01*
X31980Y428106D01*
X31930Y428194D01*
X31883Y428284D01*
X31839Y428375D01*
X31800Y428469D01*
X31763Y428563D01*
X31731Y428659D01*
X31702Y428757D01*
X31677Y428855D01*
X31656Y428954D01*
X31638Y429054D01*
X31625Y429154D01*
X31615Y429255D01*
X31609Y429357D01*
X31607Y429458D01*
X36476Y425238D02*
X36562Y425185D01*
X36646Y425128D01*
X36728Y425069D01*
X36808Y425006D01*
X36885Y424940D01*
X36960Y424872D01*
X37032Y424800D01*
X37101Y424726D01*
X37167Y424649D01*
X37230Y424570D01*
X37290Y424488D01*
X37347Y424404D01*
X37401Y424318D01*
X37451Y424230D01*
X37498Y424140D01*
X37542Y424049D01*
X37581Y423955D01*
X37618Y423861D01*
X37650Y423765D01*
X37679Y423667D01*
X37704Y423569D01*
X37725Y423470D01*
X37743Y423370D01*
X37756Y423270D01*
X37766Y423169D01*
X37772Y423067D01*
X37774Y422966D01*
X36476Y425238D02*
X32905Y427186D01*
X43417Y432054D02*
X46014Y420370D01*
X48610Y428159D01*
X51206Y420370D01*
X53803Y432054D01*
X60558Y432054D02*
X60558Y420370D01*
X59260Y420370D02*
X61856Y420370D01*
X61856Y432054D02*
X59260Y432054D01*
X69946Y432054D02*
X69946Y420370D01*
X66700Y432054D02*
X73192Y432054D01*
X81185Y420370D02*
X83781Y420370D01*
X81185Y420370D02*
X81086Y420372D01*
X80986Y420378D01*
X80887Y420387D01*
X80789Y420400D01*
X80691Y420417D01*
X80593Y420438D01*
X80497Y420463D01*
X80402Y420491D01*
X80308Y420523D01*
X80215Y420558D01*
X80123Y420597D01*
X80033Y420640D01*
X79945Y420685D01*
X79858Y420735D01*
X79774Y420787D01*
X79691Y420843D01*
X79611Y420901D01*
X79533Y420963D01*
X79458Y421028D01*
X79385Y421096D01*
X79315Y421166D01*
X79247Y421239D01*
X79182Y421314D01*
X79120Y421392D01*
X79062Y421472D01*
X79006Y421555D01*
X78954Y421639D01*
X78904Y421726D01*
X78859Y421814D01*
X78816Y421904D01*
X78777Y421996D01*
X78742Y422089D01*
X78710Y422183D01*
X78682Y422278D01*
X78657Y422374D01*
X78636Y422472D01*
X78619Y422570D01*
X78606Y422668D01*
X78597Y422767D01*
X78591Y422867D01*
X78589Y422966D01*
X78588Y422966D02*
X78588Y429458D01*
X78589Y429458D02*
X78591Y429557D01*
X78597Y429657D01*
X78606Y429756D01*
X78619Y429854D01*
X78636Y429952D01*
X78657Y430050D01*
X78682Y430146D01*
X78710Y430241D01*
X78742Y430335D01*
X78777Y430428D01*
X78816Y430520D01*
X78859Y430610D01*
X78904Y430698D01*
X78954Y430785D01*
X79006Y430869D01*
X79062Y430952D01*
X79120Y431032D01*
X79182Y431110D01*
X79247Y431185D01*
X79315Y431258D01*
X79385Y431328D01*
X79458Y431396D01*
X79533Y431461D01*
X79611Y431523D01*
X79691Y431581D01*
X79774Y431637D01*
X79858Y431689D01*
X79945Y431739D01*
X80033Y431784D01*
X80123Y431827D01*
X80215Y431866D01*
X80307Y431901D01*
X80402Y431933D01*
X80497Y431961D01*
X80593Y431986D01*
X80691Y432007D01*
X80789Y432024D01*
X80887Y432037D01*
X80986Y432046D01*
X81086Y432052D01*
X81185Y432054D01*
X83781Y432054D01*
X89743Y432054D02*
X89743Y420370D01*
X89743Y426861D02*
X96234Y426861D01*
X96234Y432054D02*
X96234Y420370D01*
X103439Y420370D02*
X108632Y420370D01*
X103439Y420370D02*
X103439Y432054D01*
X108632Y432054D01*
X107334Y426861D02*
X103439Y426861D01*
X114626Y432054D02*
X114626Y420370D01*
X114626Y432054D02*
X117872Y432054D01*
X117985Y432052D01*
X118098Y432046D01*
X118211Y432036D01*
X118324Y432022D01*
X118436Y432005D01*
X118547Y431983D01*
X118657Y431958D01*
X118767Y431928D01*
X118875Y431895D01*
X118982Y431858D01*
X119088Y431818D01*
X119192Y431773D01*
X119295Y431725D01*
X119396Y431674D01*
X119495Y431619D01*
X119592Y431561D01*
X119687Y431499D01*
X119780Y431434D01*
X119870Y431366D01*
X119958Y431295D01*
X120044Y431220D01*
X120127Y431143D01*
X120207Y431063D01*
X120284Y430980D01*
X120359Y430894D01*
X120430Y430806D01*
X120498Y430716D01*
X120563Y430623D01*
X120625Y430528D01*
X120683Y430431D01*
X120738Y430332D01*
X120789Y430231D01*
X120837Y430128D01*
X120882Y430024D01*
X120922Y429918D01*
X120959Y429811D01*
X120992Y429703D01*
X121022Y429593D01*
X121047Y429483D01*
X121069Y429372D01*
X121086Y429260D01*
X121100Y429147D01*
X121110Y429034D01*
X121116Y428921D01*
X121118Y428808D01*
X121116Y428695D01*
X121110Y428582D01*
X121100Y428469D01*
X121086Y428356D01*
X121069Y428244D01*
X121047Y428133D01*
X121022Y428023D01*
X120992Y427913D01*
X120959Y427805D01*
X120922Y427698D01*
X120882Y427592D01*
X120837Y427488D01*
X120789Y427385D01*
X120738Y427284D01*
X120683Y427185D01*
X120625Y427088D01*
X120563Y426993D01*
X120498Y426900D01*
X120430Y426810D01*
X120359Y426722D01*
X120284Y426636D01*
X120207Y426553D01*
X120127Y426473D01*
X120044Y426396D01*
X119958Y426321D01*
X119870Y426250D01*
X119780Y426182D01*
X119687Y426117D01*
X119592Y426055D01*
X119495Y425997D01*
X119396Y425942D01*
X119295Y425891D01*
X119192Y425843D01*
X119088Y425798D01*
X118982Y425758D01*
X118875Y425721D01*
X118767Y425688D01*
X118657Y425658D01*
X118547Y425633D01*
X118436Y425611D01*
X118324Y425594D01*
X118211Y425580D01*
X118098Y425570D01*
X117985Y425564D01*
X117872Y425562D01*
X117872Y425563D02*
X114626Y425563D01*
X118521Y425563D02*
X121117Y420370D01*
D11*
X152400Y228600D03*
D12*
X108638Y266700D03*
X125638Y266700D03*
X93100Y228600D03*
X110100Y228600D03*
D11*
X133350Y38100D03*
X133350Y12700D03*
X0Y203200D03*
X152400Y355600D03*
D13*
X88646Y212598D03*
X88646Y203200D03*
X88646Y193802D03*
X114554Y193802D03*
X114554Y212598D03*
X89154Y257302D03*
X89154Y266700D03*
X89154Y276098D03*
X63246Y276098D03*
X63246Y257302D03*
X63246Y266700D03*
D11*
X19050Y38100D03*
X133350Y165100D03*
D14*
X110100Y228600D02*
X108337Y228600D01*
X108513Y227013D02*
X110100Y228600D01*
X108513Y227013D02*
X108513Y215465D01*
X111379Y212598D02*
X114554Y212598D01*
X111379Y212598D02*
X108513Y215465D01*
X108638Y266700D02*
X89154Y266700D01*
X134554Y228600D02*
X152400Y228600D01*
X110100Y228600D02*
X108513Y230188D01*
X108513Y266575D01*
X108638Y266700D01*
X133350Y228600D02*
X134554Y228600D01*
X133350Y228600D02*
X110100Y228600D01*
D15*
X133349Y228600D02*
X134363Y228865D01*
X135370Y229153D01*
X136371Y229464D01*
X137363Y229799D01*
X138348Y230157D01*
X139324Y230537D01*
X140291Y230940D01*
X141248Y231366D01*
X142196Y231813D01*
X143132Y232283D01*
X144057Y232774D01*
X144971Y233287D01*
X145872Y233820D01*
X146761Y234375D01*
X147637Y234950D01*
X147638Y234950D02*
X147638Y222250D01*
X147637Y222250D02*
X146761Y222825D01*
X145872Y223380D01*
X144971Y223913D01*
X144057Y224426D01*
X143132Y224917D01*
X142196Y225387D01*
X141248Y225834D01*
X140291Y226260D01*
X139324Y226663D01*
X138348Y227043D01*
X137363Y227401D01*
X136371Y227736D01*
X135370Y228047D01*
X134363Y228335D01*
X133349Y228600D01*
D14*
X89154Y257302D02*
X86654Y257302D01*
D16*
X26988Y46038D02*
X19050Y38100D01*
D17*
X30956Y50006D03*
D16*
X26988Y46038D01*
D17*
X101600Y203200D03*
D18*
X88646Y203200D01*
D17*
X89154Y247650D03*
D16*
X89154Y255058D01*
D14*
X89154Y257302D01*
D15*
X26988Y46037D02*
X26723Y45504D01*
X26470Y44964D01*
X26230Y44419D01*
X26003Y43868D01*
X25788Y43313D01*
X25587Y42752D01*
X25398Y42187D01*
X25223Y41617D01*
X25061Y41044D01*
X24913Y40467D01*
X24778Y39887D01*
X24656Y39304D01*
X24548Y38718D01*
X24454Y38130D01*
X24373Y37539D01*
X24373Y37540D02*
X18490Y43423D01*
X18489Y43423D02*
X19080Y43504D01*
X19668Y43598D01*
X20254Y43706D01*
X20837Y43828D01*
X21417Y43963D01*
X21994Y44111D01*
X22567Y44273D01*
X23137Y44448D01*
X23702Y44637D01*
X24263Y44838D01*
X24818Y45053D01*
X25369Y45280D01*
X25914Y45520D01*
X26454Y45773D01*
X26987Y46038D01*
X26805Y45674D02*
X31852Y48254D01*
X30956Y50006D01*
X29167Y50826D02*
X26805Y45674D01*
X29167Y50826D02*
X30956Y50006D01*
X31776Y48217D02*
X26624Y45855D01*
X31776Y48217D02*
X30956Y50006D01*
X29204Y50902D02*
X26624Y45855D01*
X29204Y50902D02*
X30956Y50006D01*
D18*
X95600Y203200D02*
X101360Y202024D01*
X101600Y203200D01*
X101360Y204376D02*
X95600Y203200D01*
X101360Y204376D02*
X101600Y203200D01*
D15*
X63246Y257302D02*
X53308Y257302D01*
X50546Y254540D01*
X50546Y95504D01*
X125413Y20638D02*
X133350Y12700D01*
X125413Y20638D02*
X50546Y95504D01*
X125412Y20637D02*
X125677Y20104D01*
X125930Y19564D01*
X126170Y19019D01*
X126397Y18468D01*
X126612Y17913D01*
X126813Y17352D01*
X127002Y16787D01*
X127177Y16217D01*
X127339Y15644D01*
X127487Y15067D01*
X127622Y14487D01*
X127744Y13904D01*
X127852Y13318D01*
X127946Y12730D01*
X128027Y12139D01*
X128027Y12140D02*
X133910Y18023D01*
X133911Y18023D02*
X133320Y18104D01*
X132732Y18198D01*
X132146Y18306D01*
X131563Y18428D01*
X130983Y18563D01*
X130406Y18711D01*
X129833Y18873D01*
X129263Y19048D01*
X128698Y19237D01*
X128137Y19438D01*
X127582Y19653D01*
X127031Y19880D01*
X126486Y20120D01*
X125946Y20373D01*
X125413Y20638D01*
X63246Y291846D02*
X127000Y355600D01*
X63246Y280988D02*
X63246Y276098D01*
X63246Y280988D02*
X63246Y281781D01*
X63246Y282575D01*
X63246Y291846D01*
X133350Y355600D02*
X152400Y355600D01*
X133350Y355600D02*
X127000Y355600D01*
X133349Y355600D02*
X134363Y355865D01*
X135370Y356153D01*
X136371Y356464D01*
X137363Y356799D01*
X138348Y357157D01*
X139324Y357537D01*
X140291Y357940D01*
X141248Y358366D01*
X142196Y358813D01*
X143132Y359283D01*
X144057Y359774D01*
X144971Y360287D01*
X145872Y360820D01*
X146761Y361375D01*
X147637Y361950D01*
X147638Y361950D02*
X147638Y349250D01*
X147637Y349250D02*
X146761Y349825D01*
X145872Y350380D01*
X144971Y350913D01*
X144057Y351426D01*
X143132Y351917D01*
X142196Y352387D01*
X141248Y352834D01*
X140291Y353260D01*
X139324Y353663D01*
X138348Y354043D01*
X137363Y354401D01*
X136371Y354736D01*
X135370Y355047D01*
X134363Y355335D01*
X133349Y355600D01*
D19*
X63246Y280988D02*
X60071Y277813D01*
X57944Y277813D01*
X63246Y280988D02*
X66421Y277813D01*
X68263Y277813D01*
D14*
X125413Y173038D02*
X133350Y165100D01*
X125413Y173038D02*
X114554Y183896D01*
X114554Y187325D01*
X114554Y188119D01*
X114554Y193802D01*
D15*
X125412Y173037D02*
X125677Y172504D01*
X125930Y171964D01*
X126170Y171419D01*
X126397Y170868D01*
X126612Y170313D01*
X126813Y169752D01*
X127002Y169187D01*
X127177Y168617D01*
X127339Y168044D01*
X127487Y167467D01*
X127622Y166887D01*
X127744Y166304D01*
X127852Y165718D01*
X127946Y165130D01*
X128027Y164539D01*
X128027Y164540D02*
X133910Y170423D01*
X133911Y170423D02*
X133320Y170504D01*
X132732Y170598D01*
X132146Y170706D01*
X131563Y170828D01*
X130983Y170963D01*
X130406Y171111D01*
X129833Y171273D01*
X129263Y171448D01*
X128698Y171637D01*
X128137Y171838D01*
X127582Y172053D01*
X127031Y172280D01*
X126486Y172520D01*
X125946Y172773D01*
X125413Y173038D01*
D19*
X114554Y188119D02*
X109538Y193135D01*
X114554Y188119D02*
X119317Y192881D01*
D15*
X125413Y46038D02*
X133350Y38100D01*
X125413Y46038D02*
X68263Y103188D01*
X68263Y236538D01*
X73025Y266700D02*
X63246Y266700D01*
X73025Y266700D02*
X76200Y263525D01*
X76200Y244475D01*
X68263Y236538D01*
X125412Y46037D02*
X125677Y45504D01*
X125930Y44964D01*
X126170Y44419D01*
X126397Y43868D01*
X126612Y43313D01*
X126813Y42752D01*
X127002Y42187D01*
X127177Y41617D01*
X127339Y41044D01*
X127487Y40467D01*
X127622Y39887D01*
X127744Y39304D01*
X127852Y38718D01*
X127946Y38130D01*
X128027Y37539D01*
X128027Y37540D02*
X133910Y43423D01*
X133911Y43423D02*
X133320Y43504D01*
X132732Y43598D01*
X132146Y43706D01*
X131563Y43828D01*
X130983Y43963D01*
X130406Y44111D01*
X129833Y44273D01*
X129263Y44448D01*
X128698Y44637D01*
X128137Y44838D01*
X127582Y45053D01*
X127031Y45280D01*
X126486Y45520D01*
X125946Y45773D01*
X125413Y46038D01*
D20*
X0Y203200D03*
D16*
X125638Y266700D02*
X136981Y266700D01*
D17*
X136981Y266700D03*
D14*
X88646Y193802D02*
X88646Y191202D01*
D16*
X88646Y184150D01*
D17*
X88646Y184150D03*
D16*
X93100Y228600D02*
X81756Y228600D01*
D17*
X81756Y228600D03*
D14*
X89154Y276098D02*
X89154Y278698D01*
D16*
X89154Y285750D01*
D17*
X89154Y285750D03*
X107950Y482600D03*
X127000Y482600D03*
X25400Y482600D03*
X44450Y482600D03*
D21*
X73150Y412800D02*
X73160Y412800D01*
X78150Y412800D02*
X78160Y412800D01*
X68150Y412800D02*
X66900Y407800D01*
X68150Y407800D01*
X78150Y407800D01*
X78150Y396550D01*
X78148Y396430D01*
X78142Y396310D01*
X78133Y396190D01*
X78119Y396070D01*
X78102Y395952D01*
X78081Y395833D01*
X78056Y395716D01*
X78027Y395599D01*
X77995Y395483D01*
X77959Y395368D01*
X77919Y395255D01*
X77876Y395143D01*
X77829Y395032D01*
X77779Y394923D01*
X77725Y394815D01*
X77667Y394710D01*
X77607Y394606D01*
X77543Y394504D01*
X77476Y394405D01*
X77405Y394307D01*
X77332Y394212D01*
X77255Y394119D01*
X77176Y394029D01*
X77094Y393941D01*
X77009Y393856D01*
X76921Y393774D01*
X76831Y393695D01*
X76738Y393618D01*
X76643Y393545D01*
X76545Y393474D01*
X76446Y393407D01*
X76344Y393343D01*
X76240Y393283D01*
X76135Y393225D01*
X76027Y393171D01*
X75918Y393121D01*
X75807Y393074D01*
X75695Y393031D01*
X75582Y392991D01*
X75467Y392955D01*
X75351Y392923D01*
X75234Y392894D01*
X75117Y392869D01*
X74998Y392848D01*
X74880Y392831D01*
X74760Y392817D01*
X74640Y392808D01*
X74520Y392802D01*
X74400Y392800D01*
X68150Y392800D01*
X66900Y407800D02*
X68150Y412800D01*
X66900Y407800D02*
X63150Y392800D01*
X63150Y407800D02*
X66900Y407800D01*
X68150Y407800D01*
X58150Y407800D02*
X43150Y407800D01*
X58150Y407800D02*
X58150Y405300D01*
X58148Y405160D01*
X58142Y405020D01*
X58132Y404880D01*
X58119Y404740D01*
X58101Y404601D01*
X58079Y404462D01*
X58054Y404325D01*
X58025Y404187D01*
X57992Y404051D01*
X57955Y403916D01*
X57914Y403782D01*
X57869Y403649D01*
X57821Y403517D01*
X57769Y403387D01*
X57714Y403258D01*
X57655Y403131D01*
X57592Y403005D01*
X57526Y402881D01*
X57457Y402760D01*
X57384Y402640D01*
X57307Y402522D01*
X57228Y402407D01*
X57145Y402293D01*
X57059Y402183D01*
X56970Y402074D01*
X56878Y401968D01*
X56783Y401865D01*
X56686Y401764D01*
X56585Y401667D01*
X56482Y401572D01*
X56376Y401480D01*
X56267Y401391D01*
X56157Y401305D01*
X56043Y401222D01*
X55928Y401143D01*
X55810Y401066D01*
X55690Y400993D01*
X55569Y400924D01*
X55445Y400858D01*
X55319Y400795D01*
X55192Y400736D01*
X55063Y400681D01*
X54933Y400629D01*
X54801Y400581D01*
X54668Y400536D01*
X54534Y400495D01*
X54399Y400458D01*
X54263Y400425D01*
X54125Y400396D01*
X53988Y400371D01*
X53849Y400349D01*
X53710Y400331D01*
X53570Y400318D01*
X53430Y400308D01*
X53290Y400302D01*
X53150Y400300D01*
X48150Y397800D02*
X48150Y412800D01*
X48150Y397800D02*
X48152Y397660D01*
X48158Y397520D01*
X48168Y397380D01*
X48181Y397240D01*
X48199Y397101D01*
X48221Y396962D01*
X48246Y396825D01*
X48275Y396687D01*
X48308Y396551D01*
X48345Y396416D01*
X48386Y396282D01*
X48431Y396149D01*
X48479Y396017D01*
X48531Y395887D01*
X48586Y395758D01*
X48645Y395631D01*
X48708Y395505D01*
X48774Y395381D01*
X48843Y395260D01*
X48916Y395140D01*
X48993Y395022D01*
X49072Y394907D01*
X49155Y394793D01*
X49241Y394683D01*
X49330Y394574D01*
X49422Y394468D01*
X49517Y394365D01*
X49614Y394264D01*
X49715Y394167D01*
X49818Y394072D01*
X49924Y393980D01*
X50033Y393891D01*
X50143Y393805D01*
X50257Y393722D01*
X50372Y393643D01*
X50490Y393566D01*
X50610Y393493D01*
X50731Y393424D01*
X50855Y393358D01*
X50981Y393295D01*
X51108Y393236D01*
X51237Y393181D01*
X51367Y393129D01*
X51499Y393081D01*
X51632Y393036D01*
X51766Y392995D01*
X51901Y392958D01*
X52037Y392925D01*
X52175Y392896D01*
X52312Y392871D01*
X52451Y392849D01*
X52590Y392831D01*
X52730Y392818D01*
X52870Y392808D01*
X53010Y392802D01*
X53150Y392800D01*
X58150Y392800D01*
X88150Y392800D02*
X88150Y412800D01*
X88150Y392800D02*
X108150Y392800D01*
X108150Y412800D01*
X88150Y412800D01*
X93150Y407800D02*
X98150Y407800D01*
X93150Y407800D02*
X93150Y402800D01*
X98150Y402800D01*
X98150Y397800D01*
X103150Y397800D01*
X103150Y402800D01*
D20*
X152400Y228600D03*
X152400Y355600D03*
M02*
