M48
;GenerationSoftware,Autodesk,EAGLE,9.6.2*%
;CreationDate,2023-05-06T14:39:15Z*%
FMAT,2
ICI,OFF
METRIC,TZ,000.000
T2C0.400
T1C1.000
%
G90
M71
T1
X15240Y22860
X15240Y22860
X15240Y25400
X0Y20320
X15240Y27940
X15240Y30480
X0Y33020
X15240Y35560
X15240Y38100
X15240Y40640
X15240Y43180
X15240Y45720
X15240Y48260
X15240Y35560
X0Y0
X0Y2540
X0Y5080
X0Y7620
X0Y10160
X0Y12700
X0Y15240
X0Y17780
X0Y20320
X0Y22860
X0Y25400
X0Y27940
X0Y30480
X15240Y33020
X0Y35560
X0Y38100
X0Y40640
X0Y43180
X0Y45720
X0Y48260
X15240Y0
X15240Y2540
X15240Y5080
X15240Y7620
X15240Y10160
X15240Y12700
X15240Y15240
X15240Y17780
X15240Y20320
T2
X10160Y20320
X8915Y24765
X13698Y26670
X8865Y18415
X8915Y28575
X10795Y48260
X12700Y48260
X2540Y48260
X4445Y48260
X8176Y22860
X3096Y5001
M30