G04 EAGLE Gerber RS-274X export*
G75*
%MOMM*%
%FSLAX34Y34*%
%LPD*%
%INSilkscreen Top*%
%IPPOS*%
%AMOC8*
5,1,8,0,0,1.08239X$1,22.5*%
G01*
%ADD10C,0.050800*%
%ADD11C,0.127000*%
%ADD12C,0.152400*%
%ADD13R,0.500000X1.500000*%
%ADD14R,0.508000X1.524000*%

G36*
X138203Y348501D02*
X138203Y348501D01*
X138255Y348502D01*
X138322Y348527D01*
X138392Y348542D01*
X138437Y348569D01*
X138486Y348587D01*
X138542Y348632D01*
X138603Y348668D01*
X138637Y348708D01*
X138678Y348740D01*
X138717Y348801D01*
X138763Y348855D01*
X138783Y348903D01*
X138811Y348947D01*
X138828Y349017D01*
X138855Y349083D01*
X138863Y349155D01*
X138871Y349186D01*
X138869Y349209D01*
X138874Y349250D01*
X138874Y361950D01*
X138862Y362021D01*
X138860Y362092D01*
X138842Y362141D01*
X138834Y362193D01*
X138801Y362256D01*
X138776Y362323D01*
X138743Y362364D01*
X138719Y362410D01*
X138667Y362459D01*
X138622Y362515D01*
X138578Y362544D01*
X138541Y362580D01*
X138476Y362610D01*
X138415Y362648D01*
X138365Y362661D01*
X138318Y362683D01*
X138246Y362691D01*
X138177Y362709D01*
X138125Y362704D01*
X138073Y362710D01*
X138003Y362695D01*
X137932Y362689D01*
X137884Y362669D01*
X137833Y362658D01*
X137771Y362621D01*
X137705Y362593D01*
X137649Y362548D01*
X137622Y362532D01*
X137606Y362514D01*
X137574Y362488D01*
X131224Y356138D01*
X131213Y356122D01*
X131197Y356110D01*
X131141Y356022D01*
X131081Y355939D01*
X131075Y355920D01*
X131064Y355903D01*
X131039Y355802D01*
X131008Y355703D01*
X131009Y355684D01*
X131004Y355664D01*
X131012Y355561D01*
X131015Y355458D01*
X131022Y355439D01*
X131023Y355419D01*
X131063Y355324D01*
X131099Y355227D01*
X131112Y355211D01*
X131119Y355193D01*
X131224Y355062D01*
X137574Y348712D01*
X137632Y348670D01*
X137684Y348621D01*
X137732Y348599D01*
X137774Y348568D01*
X137842Y348547D01*
X137908Y348517D01*
X137959Y348511D01*
X138009Y348496D01*
X138081Y348498D01*
X138152Y348490D01*
X138203Y348501D01*
G37*
G36*
X115997Y31005D02*
X115997Y31005D01*
X116069Y31011D01*
X116116Y31031D01*
X116167Y31042D01*
X116229Y31079D01*
X116295Y31107D01*
X116351Y31152D01*
X116378Y31168D01*
X116394Y31186D01*
X116426Y31212D01*
X122776Y37562D01*
X122787Y37578D01*
X122803Y37590D01*
X122859Y37678D01*
X122919Y37761D01*
X122925Y37780D01*
X122936Y37797D01*
X122961Y37898D01*
X122992Y37997D01*
X122991Y38016D01*
X122996Y38036D01*
X122988Y38139D01*
X122985Y38242D01*
X122978Y38261D01*
X122977Y38281D01*
X122937Y38376D01*
X122901Y38473D01*
X122888Y38489D01*
X122881Y38507D01*
X122776Y38638D01*
X116426Y44988D01*
X116368Y45030D01*
X116316Y45080D01*
X116268Y45102D01*
X116226Y45132D01*
X116158Y45153D01*
X116093Y45183D01*
X116041Y45189D01*
X115991Y45204D01*
X115919Y45202D01*
X115848Y45210D01*
X115797Y45199D01*
X115745Y45198D01*
X115678Y45173D01*
X115608Y45158D01*
X115563Y45131D01*
X115514Y45113D01*
X115458Y45069D01*
X115397Y45032D01*
X115363Y44992D01*
X115322Y44960D01*
X115283Y44899D01*
X115237Y44845D01*
X115217Y44797D01*
X115189Y44753D01*
X115172Y44683D01*
X115145Y44617D01*
X115137Y44545D01*
X115129Y44514D01*
X115131Y44491D01*
X115126Y44450D01*
X115126Y31750D01*
X115138Y31679D01*
X115140Y31608D01*
X115158Y31559D01*
X115166Y31507D01*
X115199Y31444D01*
X115224Y31377D01*
X115257Y31336D01*
X115281Y31290D01*
X115333Y31241D01*
X115378Y31185D01*
X115422Y31156D01*
X115459Y31121D01*
X115524Y31090D01*
X115585Y31052D01*
X115635Y31039D01*
X115683Y31017D01*
X115754Y31009D01*
X115823Y30991D01*
X115875Y30996D01*
X115927Y30990D01*
X115997Y31005D01*
G37*
G36*
X122328Y5601D02*
X122328Y5601D01*
X122380Y5602D01*
X122447Y5627D01*
X122517Y5642D01*
X122562Y5669D01*
X122611Y5687D01*
X122667Y5732D01*
X122728Y5768D01*
X122762Y5808D01*
X122803Y5840D01*
X122842Y5901D01*
X122888Y5955D01*
X122908Y6003D01*
X122936Y6047D01*
X122953Y6117D01*
X122980Y6183D01*
X122988Y6255D01*
X122996Y6286D01*
X122994Y6309D01*
X122999Y6350D01*
X122999Y19050D01*
X122987Y19121D01*
X122985Y19192D01*
X122967Y19241D01*
X122959Y19293D01*
X122926Y19356D01*
X122901Y19423D01*
X122868Y19464D01*
X122844Y19510D01*
X122792Y19559D01*
X122747Y19615D01*
X122703Y19644D01*
X122666Y19680D01*
X122601Y19710D01*
X122540Y19748D01*
X122490Y19761D01*
X122443Y19783D01*
X122371Y19791D01*
X122302Y19809D01*
X122250Y19804D01*
X122198Y19810D01*
X122128Y19795D01*
X122057Y19789D01*
X122009Y19769D01*
X121958Y19758D01*
X121896Y19721D01*
X121830Y19693D01*
X121774Y19648D01*
X121747Y19632D01*
X121731Y19614D01*
X121699Y19588D01*
X115349Y13238D01*
X115338Y13222D01*
X115322Y13210D01*
X115266Y13122D01*
X115206Y13039D01*
X115200Y13020D01*
X115189Y13003D01*
X115164Y12902D01*
X115133Y12803D01*
X115134Y12784D01*
X115129Y12764D01*
X115137Y12661D01*
X115140Y12558D01*
X115147Y12539D01*
X115148Y12519D01*
X115188Y12424D01*
X115224Y12327D01*
X115237Y12311D01*
X115244Y12293D01*
X115349Y12162D01*
X121699Y5812D01*
X121757Y5770D01*
X121809Y5721D01*
X121857Y5699D01*
X121899Y5668D01*
X121967Y5647D01*
X122033Y5617D01*
X122084Y5611D01*
X122134Y5596D01*
X122206Y5598D01*
X122277Y5590D01*
X122328Y5601D01*
G37*
D10*
X108179Y28668D02*
X104793Y28668D01*
X104702Y28670D01*
X104611Y28676D01*
X104520Y28686D01*
X104430Y28699D01*
X104341Y28717D01*
X104252Y28738D01*
X104165Y28763D01*
X104078Y28792D01*
X103993Y28825D01*
X103910Y28861D01*
X103828Y28901D01*
X103748Y28944D01*
X103669Y28991D01*
X103593Y29041D01*
X103519Y29094D01*
X103448Y29150D01*
X103379Y29210D01*
X103312Y29272D01*
X103249Y29337D01*
X103188Y29405D01*
X103130Y29475D01*
X103075Y29548D01*
X103023Y29623D01*
X102975Y29700D01*
X102930Y29780D01*
X102888Y29861D01*
X102850Y29943D01*
X102816Y30028D01*
X102785Y30114D01*
X102758Y30201D01*
X102735Y30289D01*
X102716Y30378D01*
X102700Y30467D01*
X102688Y30558D01*
X102680Y30648D01*
X102676Y30739D01*
X102676Y30831D01*
X102680Y30922D01*
X102688Y31012D01*
X102700Y31103D01*
X102716Y31192D01*
X102735Y31281D01*
X102758Y31369D01*
X102785Y31456D01*
X102816Y31542D01*
X102850Y31627D01*
X102888Y31709D01*
X102930Y31790D01*
X102975Y31870D01*
X103023Y31947D01*
X103075Y32022D01*
X103130Y32095D01*
X103188Y32165D01*
X103249Y32233D01*
X103312Y32298D01*
X103379Y32360D01*
X103448Y32420D01*
X103519Y32476D01*
X103593Y32529D01*
X103669Y32579D01*
X103748Y32626D01*
X103828Y32669D01*
X103910Y32709D01*
X103993Y32745D01*
X104078Y32778D01*
X104165Y32807D01*
X104252Y32832D01*
X104341Y32853D01*
X104430Y32871D01*
X104520Y32884D01*
X104611Y32894D01*
X104702Y32900D01*
X104793Y32902D01*
X104793Y32901D02*
X108179Y32901D01*
X108179Y32902D02*
X108270Y32900D01*
X108361Y32894D01*
X108452Y32884D01*
X108542Y32871D01*
X108631Y32853D01*
X108720Y32832D01*
X108807Y32807D01*
X108894Y32778D01*
X108979Y32745D01*
X109062Y32709D01*
X109144Y32669D01*
X109224Y32626D01*
X109303Y32579D01*
X109379Y32529D01*
X109453Y32476D01*
X109524Y32420D01*
X109593Y32360D01*
X109660Y32298D01*
X109723Y32233D01*
X109784Y32165D01*
X109842Y32095D01*
X109897Y32022D01*
X109949Y31947D01*
X109997Y31870D01*
X110042Y31790D01*
X110084Y31709D01*
X110122Y31627D01*
X110156Y31542D01*
X110187Y31456D01*
X110214Y31369D01*
X110237Y31281D01*
X110256Y31192D01*
X110272Y31103D01*
X110284Y31012D01*
X110292Y30922D01*
X110296Y30831D01*
X110296Y30739D01*
X110292Y30648D01*
X110284Y30558D01*
X110272Y30467D01*
X110256Y30378D01*
X110237Y30289D01*
X110214Y30201D01*
X110187Y30114D01*
X110156Y30028D01*
X110122Y29943D01*
X110084Y29861D01*
X110042Y29780D01*
X109997Y29700D01*
X109949Y29623D01*
X109897Y29548D01*
X109842Y29475D01*
X109784Y29405D01*
X109723Y29337D01*
X109660Y29272D01*
X109593Y29210D01*
X109524Y29150D01*
X109453Y29094D01*
X109379Y29041D01*
X109303Y28991D01*
X109224Y28944D01*
X109144Y28901D01*
X109062Y28861D01*
X108979Y28825D01*
X108894Y28792D01*
X108807Y28763D01*
X108720Y28738D01*
X108631Y28717D01*
X108542Y28699D01*
X108452Y28686D01*
X108361Y28676D01*
X108270Y28670D01*
X108179Y28668D01*
X108179Y36227D02*
X102676Y36227D01*
X108179Y36227D02*
X108270Y36229D01*
X108361Y36235D01*
X108452Y36245D01*
X108542Y36258D01*
X108631Y36276D01*
X108720Y36297D01*
X108807Y36322D01*
X108894Y36351D01*
X108979Y36384D01*
X109062Y36420D01*
X109144Y36460D01*
X109224Y36503D01*
X109303Y36550D01*
X109379Y36600D01*
X109453Y36653D01*
X109524Y36709D01*
X109593Y36769D01*
X109660Y36831D01*
X109723Y36896D01*
X109784Y36964D01*
X109842Y37034D01*
X109897Y37107D01*
X109949Y37182D01*
X109997Y37259D01*
X110042Y37339D01*
X110084Y37420D01*
X110122Y37502D01*
X110156Y37587D01*
X110187Y37673D01*
X110214Y37760D01*
X110237Y37848D01*
X110256Y37937D01*
X110272Y38026D01*
X110284Y38117D01*
X110292Y38207D01*
X110296Y38298D01*
X110296Y38390D01*
X110292Y38481D01*
X110284Y38571D01*
X110272Y38662D01*
X110256Y38751D01*
X110237Y38840D01*
X110214Y38928D01*
X110187Y39015D01*
X110156Y39101D01*
X110122Y39186D01*
X110084Y39268D01*
X110042Y39349D01*
X109997Y39429D01*
X109949Y39506D01*
X109897Y39581D01*
X109842Y39654D01*
X109784Y39724D01*
X109723Y39792D01*
X109660Y39857D01*
X109593Y39919D01*
X109524Y39979D01*
X109453Y40035D01*
X109379Y40088D01*
X109303Y40138D01*
X109224Y40185D01*
X109144Y40228D01*
X109062Y40268D01*
X108979Y40304D01*
X108894Y40337D01*
X108807Y40366D01*
X108720Y40391D01*
X108631Y40412D01*
X108542Y40430D01*
X108452Y40443D01*
X108361Y40453D01*
X108270Y40459D01*
X108179Y40461D01*
X102676Y40461D01*
X102676Y45415D02*
X110296Y45415D01*
X102676Y43299D02*
X102676Y47532D01*
X38037Y46402D02*
X30417Y43862D01*
X38037Y41322D01*
X38037Y38010D02*
X30417Y38010D01*
X30417Y37164D02*
X30417Y38857D01*
X38037Y38857D02*
X38037Y37164D01*
X38037Y34031D02*
X30417Y34031D01*
X38037Y34031D02*
X38037Y31914D01*
X38035Y31824D01*
X38029Y31734D01*
X38020Y31645D01*
X38007Y31556D01*
X37989Y31468D01*
X37969Y31381D01*
X37944Y31294D01*
X37916Y31209D01*
X37884Y31125D01*
X37849Y31042D01*
X37810Y30961D01*
X37768Y30882D01*
X37723Y30804D01*
X37674Y30729D01*
X37622Y30655D01*
X37567Y30584D01*
X37509Y30515D01*
X37448Y30449D01*
X37385Y30386D01*
X37319Y30325D01*
X37250Y30267D01*
X37179Y30212D01*
X37105Y30160D01*
X37030Y30111D01*
X36952Y30066D01*
X36873Y30024D01*
X36792Y29985D01*
X36709Y29950D01*
X36625Y29918D01*
X36540Y29890D01*
X36453Y29865D01*
X36366Y29845D01*
X36278Y29827D01*
X36189Y29814D01*
X36100Y29805D01*
X36010Y29799D01*
X35920Y29797D01*
X35920Y29798D02*
X32533Y29798D01*
X32533Y29797D02*
X32443Y29799D01*
X32353Y29805D01*
X32264Y29814D01*
X32175Y29827D01*
X32087Y29845D01*
X32000Y29865D01*
X31913Y29890D01*
X31828Y29918D01*
X31744Y29950D01*
X31661Y29985D01*
X31580Y30024D01*
X31501Y30066D01*
X31423Y30111D01*
X31348Y30160D01*
X31274Y30212D01*
X31203Y30267D01*
X31134Y30325D01*
X31068Y30386D01*
X31005Y30449D01*
X30944Y30515D01*
X30886Y30584D01*
X30831Y30655D01*
X30779Y30729D01*
X30730Y30804D01*
X30685Y30882D01*
X30643Y30961D01*
X30604Y31042D01*
X30569Y31125D01*
X30537Y31209D01*
X30509Y31294D01*
X30484Y31381D01*
X30464Y31468D01*
X30446Y31556D01*
X30433Y31645D01*
X30424Y31734D01*
X30418Y31824D01*
X30416Y31914D01*
X30417Y31914D02*
X30417Y34031D01*
X139446Y222614D02*
X139446Y225154D01*
X139444Y225235D01*
X139438Y225315D01*
X139429Y225395D01*
X139415Y225474D01*
X139398Y225553D01*
X139377Y225631D01*
X139353Y225708D01*
X139325Y225783D01*
X139293Y225857D01*
X139258Y225930D01*
X139219Y226001D01*
X139177Y226069D01*
X139132Y226136D01*
X139084Y226201D01*
X139032Y226263D01*
X138978Y226322D01*
X138921Y226379D01*
X138862Y226433D01*
X138800Y226485D01*
X138735Y226533D01*
X138668Y226578D01*
X138600Y226620D01*
X138529Y226659D01*
X138456Y226694D01*
X138382Y226726D01*
X138307Y226754D01*
X138230Y226778D01*
X138152Y226799D01*
X138073Y226816D01*
X137994Y226830D01*
X137914Y226839D01*
X137834Y226845D01*
X137753Y226847D01*
X136906Y226847D01*
X136825Y226845D01*
X136745Y226839D01*
X136665Y226830D01*
X136586Y226816D01*
X136507Y226799D01*
X136429Y226778D01*
X136352Y226754D01*
X136277Y226726D01*
X136203Y226694D01*
X136130Y226659D01*
X136060Y226620D01*
X135991Y226578D01*
X135924Y226533D01*
X135859Y226485D01*
X135797Y226433D01*
X135738Y226379D01*
X135681Y226322D01*
X135627Y226263D01*
X135575Y226201D01*
X135527Y226136D01*
X135482Y226069D01*
X135440Y226001D01*
X135401Y225930D01*
X135366Y225857D01*
X135334Y225783D01*
X135306Y225708D01*
X135282Y225631D01*
X135261Y225553D01*
X135244Y225474D01*
X135230Y225395D01*
X135221Y225315D01*
X135215Y225235D01*
X135213Y225154D01*
X135213Y222614D01*
X131826Y222614D01*
X131826Y226847D01*
X131826Y229506D02*
X139446Y232046D01*
X131826Y234586D01*
X17187Y210156D02*
X17187Y208886D01*
X12954Y208886D01*
X12954Y211426D01*
X12956Y211507D01*
X12962Y211587D01*
X12971Y211667D01*
X12985Y211746D01*
X13002Y211825D01*
X13023Y211903D01*
X13047Y211980D01*
X13075Y212055D01*
X13107Y212129D01*
X13142Y212202D01*
X13181Y212273D01*
X13223Y212341D01*
X13268Y212408D01*
X13316Y212473D01*
X13368Y212535D01*
X13422Y212594D01*
X13479Y212651D01*
X13538Y212705D01*
X13600Y212757D01*
X13665Y212805D01*
X13732Y212850D01*
X13801Y212892D01*
X13871Y212931D01*
X13944Y212966D01*
X14018Y212998D01*
X14093Y213026D01*
X14170Y213050D01*
X14248Y213071D01*
X14327Y213088D01*
X14406Y213102D01*
X14486Y213111D01*
X14566Y213117D01*
X14647Y213119D01*
X14647Y213120D02*
X18881Y213120D01*
X18881Y213119D02*
X18962Y213117D01*
X19042Y213111D01*
X19122Y213102D01*
X19201Y213088D01*
X19280Y213071D01*
X19358Y213050D01*
X19435Y213026D01*
X19510Y212998D01*
X19584Y212966D01*
X19657Y212931D01*
X19727Y212892D01*
X19796Y212850D01*
X19863Y212805D01*
X19928Y212757D01*
X19990Y212705D01*
X20049Y212651D01*
X20106Y212594D01*
X20160Y212535D01*
X20212Y212473D01*
X20260Y212408D01*
X20305Y212341D01*
X20347Y212273D01*
X20386Y212202D01*
X20421Y212129D01*
X20453Y212055D01*
X20481Y211980D01*
X20505Y211903D01*
X20526Y211825D01*
X20543Y211746D01*
X20557Y211667D01*
X20566Y211587D01*
X20572Y211507D01*
X20574Y211426D01*
X20574Y208886D01*
X20574Y205317D02*
X12954Y205317D01*
X12954Y201083D02*
X20574Y205317D01*
X20574Y201083D02*
X12954Y201083D01*
X12954Y197514D02*
X20574Y197514D01*
X20574Y195397D01*
X20572Y195307D01*
X20566Y195217D01*
X20557Y195128D01*
X20544Y195039D01*
X20526Y194951D01*
X20506Y194864D01*
X20481Y194777D01*
X20453Y194692D01*
X20421Y194608D01*
X20386Y194525D01*
X20347Y194444D01*
X20305Y194365D01*
X20260Y194287D01*
X20211Y194212D01*
X20159Y194138D01*
X20104Y194067D01*
X20046Y193998D01*
X19985Y193932D01*
X19922Y193869D01*
X19856Y193808D01*
X19787Y193750D01*
X19716Y193695D01*
X19642Y193643D01*
X19567Y193594D01*
X19489Y193549D01*
X19410Y193507D01*
X19329Y193468D01*
X19246Y193433D01*
X19162Y193401D01*
X19077Y193373D01*
X18990Y193348D01*
X18903Y193328D01*
X18815Y193310D01*
X18726Y193297D01*
X18637Y193288D01*
X18547Y193282D01*
X18457Y193280D01*
X15071Y193280D01*
X14981Y193282D01*
X14891Y193288D01*
X14802Y193297D01*
X14713Y193310D01*
X14625Y193328D01*
X14538Y193348D01*
X14451Y193373D01*
X14366Y193401D01*
X14282Y193433D01*
X14199Y193468D01*
X14118Y193507D01*
X14039Y193549D01*
X13961Y193594D01*
X13886Y193643D01*
X13812Y193695D01*
X13741Y193750D01*
X13672Y193808D01*
X13606Y193869D01*
X13543Y193932D01*
X13482Y193998D01*
X13424Y194067D01*
X13369Y194138D01*
X13317Y194212D01*
X13268Y194287D01*
X13223Y194365D01*
X13181Y194444D01*
X13142Y194525D01*
X13107Y194608D01*
X13075Y194692D01*
X13047Y194777D01*
X13022Y194864D01*
X13002Y194951D01*
X12984Y195039D01*
X12971Y195128D01*
X12962Y195217D01*
X12956Y195307D01*
X12954Y195397D01*
X12954Y197514D01*
X102676Y9017D02*
X110296Y9017D01*
X110296Y8170D02*
X110296Y9864D01*
X102676Y9864D02*
X102676Y8170D01*
X102676Y12996D02*
X110296Y12996D01*
X110296Y17230D02*
X102676Y12996D01*
X102676Y17230D02*
X110296Y17230D01*
X97696Y10832D02*
X97694Y10913D01*
X97688Y10993D01*
X97679Y11073D01*
X97665Y11152D01*
X97648Y11231D01*
X97627Y11309D01*
X97603Y11386D01*
X97575Y11461D01*
X97543Y11535D01*
X97508Y11608D01*
X97469Y11679D01*
X97427Y11747D01*
X97382Y11814D01*
X97334Y11879D01*
X97282Y11941D01*
X97228Y12000D01*
X97171Y12057D01*
X97112Y12111D01*
X97050Y12163D01*
X96985Y12211D01*
X96918Y12256D01*
X96850Y12298D01*
X96779Y12337D01*
X96706Y12372D01*
X96632Y12404D01*
X96557Y12432D01*
X96480Y12456D01*
X96402Y12477D01*
X96323Y12494D01*
X96244Y12508D01*
X96164Y12517D01*
X96084Y12523D01*
X96003Y12525D01*
X97696Y10832D02*
X97694Y10714D01*
X97688Y10597D01*
X97679Y10480D01*
X97665Y10363D01*
X97648Y10246D01*
X97627Y10131D01*
X97602Y10016D01*
X97573Y9901D01*
X97540Y9788D01*
X97504Y9676D01*
X97464Y9566D01*
X97421Y9456D01*
X97374Y9348D01*
X97323Y9242D01*
X97269Y9138D01*
X97212Y9035D01*
X97151Y8934D01*
X97087Y8835D01*
X97020Y8739D01*
X96949Y8645D01*
X96876Y8553D01*
X96799Y8463D01*
X96720Y8376D01*
X96638Y8292D01*
X91769Y8504D02*
X91688Y8506D01*
X91608Y8512D01*
X91528Y8521D01*
X91449Y8535D01*
X91370Y8552D01*
X91292Y8573D01*
X91215Y8597D01*
X91140Y8625D01*
X91066Y8657D01*
X90993Y8692D01*
X90923Y8731D01*
X90854Y8773D01*
X90787Y8818D01*
X90722Y8866D01*
X90660Y8918D01*
X90601Y8972D01*
X90544Y9029D01*
X90490Y9088D01*
X90438Y9150D01*
X90390Y9215D01*
X90345Y9282D01*
X90303Y9351D01*
X90264Y9421D01*
X90229Y9494D01*
X90197Y9568D01*
X90169Y9643D01*
X90145Y9720D01*
X90124Y9798D01*
X90107Y9877D01*
X90093Y9956D01*
X90084Y10036D01*
X90078Y10116D01*
X90076Y10197D01*
X90078Y10305D01*
X90083Y10412D01*
X90092Y10519D01*
X90105Y10626D01*
X90121Y10732D01*
X90141Y10838D01*
X90165Y10943D01*
X90192Y11047D01*
X90222Y11150D01*
X90256Y11252D01*
X90294Y11353D01*
X90335Y11452D01*
X90379Y11550D01*
X90426Y11647D01*
X90477Y11741D01*
X90531Y11835D01*
X90588Y11926D01*
X90648Y12015D01*
X90711Y12102D01*
X93251Y9350D02*
X93208Y9281D01*
X93162Y9214D01*
X93113Y9149D01*
X93061Y9087D01*
X93006Y9028D01*
X92948Y8971D01*
X92887Y8916D01*
X92825Y8865D01*
X92759Y8817D01*
X92692Y8772D01*
X92622Y8730D01*
X92551Y8691D01*
X92478Y8656D01*
X92403Y8624D01*
X92327Y8596D01*
X92250Y8572D01*
X92171Y8551D01*
X92092Y8534D01*
X92012Y8520D01*
X91931Y8511D01*
X91850Y8505D01*
X91769Y8503D01*
X94521Y11678D02*
X94564Y11747D01*
X94610Y11814D01*
X94659Y11879D01*
X94711Y11941D01*
X94766Y12000D01*
X94824Y12058D01*
X94885Y12112D01*
X94947Y12163D01*
X95013Y12211D01*
X95080Y12256D01*
X95150Y12298D01*
X95221Y12337D01*
X95294Y12372D01*
X95369Y12404D01*
X95445Y12432D01*
X95522Y12457D01*
X95601Y12477D01*
X95680Y12494D01*
X95760Y12508D01*
X95841Y12517D01*
X95922Y12523D01*
X96003Y12525D01*
X94521Y11678D02*
X93251Y9350D01*
X95579Y15607D02*
X90076Y15607D01*
X95579Y15607D02*
X95670Y15609D01*
X95761Y15615D01*
X95852Y15625D01*
X95942Y15638D01*
X96031Y15656D01*
X96120Y15677D01*
X96207Y15702D01*
X96294Y15731D01*
X96379Y15764D01*
X96462Y15800D01*
X96544Y15840D01*
X96624Y15883D01*
X96703Y15930D01*
X96779Y15980D01*
X96853Y16033D01*
X96924Y16089D01*
X96993Y16149D01*
X97060Y16211D01*
X97123Y16276D01*
X97184Y16344D01*
X97242Y16414D01*
X97297Y16487D01*
X97349Y16562D01*
X97397Y16639D01*
X97442Y16719D01*
X97484Y16800D01*
X97522Y16882D01*
X97556Y16967D01*
X97587Y17053D01*
X97614Y17140D01*
X97637Y17228D01*
X97656Y17317D01*
X97672Y17406D01*
X97684Y17497D01*
X97692Y17587D01*
X97696Y17678D01*
X97696Y17770D01*
X97692Y17861D01*
X97684Y17951D01*
X97672Y18042D01*
X97656Y18131D01*
X97637Y18220D01*
X97614Y18308D01*
X97587Y18395D01*
X97556Y18481D01*
X97522Y18566D01*
X97484Y18648D01*
X97442Y18729D01*
X97397Y18809D01*
X97349Y18886D01*
X97297Y18961D01*
X97242Y19034D01*
X97184Y19104D01*
X97123Y19172D01*
X97060Y19237D01*
X96993Y19299D01*
X96924Y19359D01*
X96853Y19415D01*
X96779Y19468D01*
X96703Y19518D01*
X96624Y19565D01*
X96544Y19608D01*
X96462Y19648D01*
X96379Y19684D01*
X96294Y19717D01*
X96207Y19746D01*
X96120Y19771D01*
X96031Y19792D01*
X95942Y19810D01*
X95852Y19823D01*
X95761Y19833D01*
X95670Y19839D01*
X95579Y19841D01*
X95579Y19840D02*
X90076Y19840D01*
X93463Y23506D02*
X93463Y25623D01*
X93462Y25623D02*
X93464Y25714D01*
X93470Y25805D01*
X93480Y25896D01*
X93493Y25986D01*
X93511Y26075D01*
X93532Y26164D01*
X93557Y26251D01*
X93586Y26338D01*
X93619Y26423D01*
X93655Y26506D01*
X93695Y26588D01*
X93738Y26668D01*
X93785Y26747D01*
X93835Y26823D01*
X93888Y26897D01*
X93944Y26968D01*
X94004Y27037D01*
X94066Y27104D01*
X94131Y27167D01*
X94199Y27228D01*
X94269Y27286D01*
X94342Y27341D01*
X94417Y27393D01*
X94494Y27441D01*
X94574Y27486D01*
X94655Y27528D01*
X94737Y27566D01*
X94822Y27600D01*
X94908Y27631D01*
X94995Y27658D01*
X95083Y27681D01*
X95172Y27700D01*
X95261Y27716D01*
X95352Y27728D01*
X95442Y27736D01*
X95533Y27740D01*
X95625Y27740D01*
X95716Y27736D01*
X95806Y27728D01*
X95897Y27716D01*
X95986Y27700D01*
X96075Y27681D01*
X96163Y27658D01*
X96250Y27631D01*
X96336Y27600D01*
X96421Y27566D01*
X96503Y27528D01*
X96584Y27486D01*
X96664Y27441D01*
X96741Y27393D01*
X96816Y27341D01*
X96889Y27286D01*
X96959Y27228D01*
X97027Y27167D01*
X97092Y27104D01*
X97154Y27037D01*
X97214Y26968D01*
X97270Y26897D01*
X97323Y26823D01*
X97373Y26747D01*
X97420Y26668D01*
X97463Y26588D01*
X97503Y26506D01*
X97539Y26423D01*
X97572Y26338D01*
X97601Y26251D01*
X97626Y26164D01*
X97647Y26075D01*
X97665Y25986D01*
X97678Y25896D01*
X97688Y25805D01*
X97694Y25714D01*
X97696Y25623D01*
X97696Y23506D01*
X90076Y23506D01*
X90076Y25623D01*
X90078Y25704D01*
X90084Y25784D01*
X90093Y25864D01*
X90107Y25943D01*
X90124Y26022D01*
X90145Y26100D01*
X90169Y26177D01*
X90197Y26252D01*
X90229Y26326D01*
X90264Y26399D01*
X90303Y26470D01*
X90345Y26538D01*
X90390Y26605D01*
X90438Y26670D01*
X90490Y26732D01*
X90544Y26791D01*
X90601Y26848D01*
X90660Y26902D01*
X90722Y26954D01*
X90787Y27002D01*
X90854Y27047D01*
X90923Y27089D01*
X90993Y27128D01*
X91066Y27163D01*
X91140Y27195D01*
X91215Y27223D01*
X91292Y27247D01*
X91370Y27268D01*
X91449Y27285D01*
X91528Y27299D01*
X91608Y27308D01*
X91688Y27314D01*
X91769Y27316D01*
X91850Y27314D01*
X91930Y27308D01*
X92010Y27299D01*
X92089Y27285D01*
X92168Y27268D01*
X92246Y27247D01*
X92323Y27223D01*
X92398Y27195D01*
X92472Y27163D01*
X92545Y27128D01*
X92616Y27089D01*
X92684Y27047D01*
X92751Y27002D01*
X92816Y26954D01*
X92878Y26902D01*
X92937Y26848D01*
X92994Y26791D01*
X93048Y26732D01*
X93100Y26670D01*
X93148Y26605D01*
X93193Y26538D01*
X93235Y26470D01*
X93274Y26399D01*
X93309Y26326D01*
X93341Y26252D01*
X93369Y26177D01*
X93393Y26100D01*
X93414Y26022D01*
X93431Y25943D01*
X93445Y25864D01*
X93454Y25784D01*
X93460Y25704D01*
X93462Y25623D01*
X97696Y32155D02*
X97696Y33849D01*
X97696Y32155D02*
X97694Y32074D01*
X97688Y31994D01*
X97679Y31914D01*
X97665Y31835D01*
X97648Y31756D01*
X97627Y31678D01*
X97603Y31601D01*
X97575Y31526D01*
X97543Y31452D01*
X97508Y31379D01*
X97469Y31309D01*
X97427Y31240D01*
X97382Y31173D01*
X97334Y31108D01*
X97282Y31046D01*
X97228Y30987D01*
X97171Y30930D01*
X97112Y30876D01*
X97050Y30824D01*
X96985Y30776D01*
X96918Y30731D01*
X96850Y30689D01*
X96779Y30650D01*
X96706Y30615D01*
X96632Y30583D01*
X96557Y30555D01*
X96480Y30531D01*
X96402Y30510D01*
X96323Y30493D01*
X96244Y30479D01*
X96164Y30470D01*
X96084Y30464D01*
X96003Y30462D01*
X91769Y30462D01*
X91769Y30463D02*
X91688Y30465D01*
X91608Y30471D01*
X91528Y30480D01*
X91449Y30494D01*
X91370Y30511D01*
X91292Y30532D01*
X91215Y30556D01*
X91140Y30584D01*
X91066Y30616D01*
X90993Y30651D01*
X90923Y30690D01*
X90854Y30732D01*
X90787Y30777D01*
X90722Y30825D01*
X90660Y30876D01*
X90601Y30931D01*
X90544Y30988D01*
X90490Y31047D01*
X90438Y31109D01*
X90390Y31174D01*
X90345Y31241D01*
X90303Y31309D01*
X90264Y31380D01*
X90229Y31453D01*
X90197Y31527D01*
X90169Y31602D01*
X90145Y31679D01*
X90124Y31757D01*
X90107Y31836D01*
X90093Y31915D01*
X90084Y31995D01*
X90078Y32075D01*
X90076Y32156D01*
X90076Y32155D02*
X90076Y33849D01*
X90076Y38694D02*
X97696Y36154D01*
X97696Y41234D02*
X90076Y38694D01*
X95791Y40599D02*
X95791Y36789D01*
X97696Y44178D02*
X90076Y44178D01*
X90076Y46295D01*
X90078Y46386D01*
X90084Y46477D01*
X90094Y46568D01*
X90107Y46658D01*
X90125Y46747D01*
X90146Y46836D01*
X90171Y46923D01*
X90200Y47010D01*
X90233Y47095D01*
X90269Y47178D01*
X90309Y47260D01*
X90352Y47340D01*
X90399Y47419D01*
X90449Y47495D01*
X90502Y47569D01*
X90558Y47640D01*
X90618Y47709D01*
X90680Y47776D01*
X90745Y47839D01*
X90813Y47900D01*
X90883Y47958D01*
X90956Y48013D01*
X91031Y48065D01*
X91108Y48113D01*
X91188Y48158D01*
X91269Y48200D01*
X91351Y48238D01*
X91436Y48272D01*
X91522Y48303D01*
X91609Y48330D01*
X91697Y48353D01*
X91786Y48372D01*
X91875Y48388D01*
X91966Y48400D01*
X92056Y48408D01*
X92147Y48412D01*
X92239Y48412D01*
X92330Y48408D01*
X92420Y48400D01*
X92511Y48388D01*
X92600Y48372D01*
X92689Y48353D01*
X92777Y48330D01*
X92864Y48303D01*
X92950Y48272D01*
X93035Y48238D01*
X93117Y48200D01*
X93198Y48158D01*
X93278Y48113D01*
X93355Y48065D01*
X93430Y48013D01*
X93503Y47958D01*
X93573Y47900D01*
X93641Y47839D01*
X93706Y47776D01*
X93768Y47709D01*
X93828Y47640D01*
X93884Y47569D01*
X93937Y47495D01*
X93987Y47419D01*
X94034Y47340D01*
X94077Y47260D01*
X94117Y47178D01*
X94153Y47095D01*
X94186Y47010D01*
X94215Y46923D01*
X94240Y46836D01*
X94261Y46747D01*
X94279Y46658D01*
X94292Y46568D01*
X94302Y46477D01*
X94308Y46386D01*
X94310Y46295D01*
X94309Y46295D02*
X94309Y44178D01*
X94309Y46718D02*
X97696Y48411D01*
X97696Y51737D02*
X90076Y51737D01*
X90076Y53854D01*
X90078Y53945D01*
X90084Y54036D01*
X90094Y54127D01*
X90107Y54217D01*
X90125Y54306D01*
X90146Y54395D01*
X90171Y54482D01*
X90200Y54569D01*
X90233Y54654D01*
X90269Y54737D01*
X90309Y54819D01*
X90352Y54899D01*
X90399Y54978D01*
X90449Y55054D01*
X90502Y55128D01*
X90558Y55199D01*
X90618Y55268D01*
X90680Y55335D01*
X90745Y55398D01*
X90813Y55459D01*
X90883Y55517D01*
X90956Y55572D01*
X91031Y55624D01*
X91108Y55672D01*
X91188Y55717D01*
X91269Y55759D01*
X91351Y55797D01*
X91436Y55831D01*
X91522Y55862D01*
X91609Y55889D01*
X91697Y55912D01*
X91786Y55931D01*
X91875Y55947D01*
X91966Y55959D01*
X92056Y55967D01*
X92147Y55971D01*
X92239Y55971D01*
X92330Y55967D01*
X92420Y55959D01*
X92511Y55947D01*
X92600Y55931D01*
X92689Y55912D01*
X92777Y55889D01*
X92864Y55862D01*
X92950Y55831D01*
X93035Y55797D01*
X93117Y55759D01*
X93198Y55717D01*
X93278Y55672D01*
X93355Y55624D01*
X93430Y55572D01*
X93503Y55517D01*
X93573Y55459D01*
X93641Y55398D01*
X93706Y55335D01*
X93768Y55268D01*
X93828Y55199D01*
X93884Y55128D01*
X93937Y55054D01*
X93987Y54978D01*
X94034Y54899D01*
X94077Y54819D01*
X94117Y54737D01*
X94153Y54654D01*
X94186Y54569D01*
X94215Y54482D01*
X94240Y54395D01*
X94261Y54306D01*
X94279Y54217D01*
X94292Y54127D01*
X94302Y54036D01*
X94308Y53945D01*
X94310Y53854D01*
X94309Y53854D02*
X94309Y51737D01*
X94309Y54277D02*
X97696Y55970D01*
X97696Y59664D02*
X90076Y59664D01*
X97696Y58817D02*
X97696Y60511D01*
X90076Y60511D02*
X90076Y58817D01*
X97696Y63656D02*
X97696Y67043D01*
X97696Y63656D02*
X90076Y63656D01*
X90076Y67043D01*
X93463Y66196D02*
X93463Y63656D01*
X90076Y70025D02*
X97696Y70025D01*
X90076Y70025D02*
X90076Y72142D01*
X90078Y72233D01*
X90084Y72324D01*
X90094Y72415D01*
X90107Y72505D01*
X90125Y72594D01*
X90146Y72683D01*
X90171Y72770D01*
X90200Y72857D01*
X90233Y72942D01*
X90269Y73025D01*
X90309Y73107D01*
X90352Y73187D01*
X90399Y73266D01*
X90449Y73342D01*
X90502Y73416D01*
X90558Y73487D01*
X90618Y73556D01*
X90680Y73623D01*
X90745Y73686D01*
X90813Y73747D01*
X90883Y73805D01*
X90956Y73860D01*
X91031Y73912D01*
X91108Y73960D01*
X91188Y74005D01*
X91269Y74047D01*
X91351Y74085D01*
X91436Y74119D01*
X91522Y74150D01*
X91609Y74177D01*
X91697Y74200D01*
X91786Y74219D01*
X91875Y74235D01*
X91966Y74247D01*
X92056Y74255D01*
X92147Y74259D01*
X92239Y74259D01*
X92330Y74255D01*
X92420Y74247D01*
X92511Y74235D01*
X92600Y74219D01*
X92689Y74200D01*
X92777Y74177D01*
X92864Y74150D01*
X92950Y74119D01*
X93035Y74085D01*
X93117Y74047D01*
X93198Y74005D01*
X93278Y73960D01*
X93355Y73912D01*
X93430Y73860D01*
X93503Y73805D01*
X93573Y73747D01*
X93641Y73686D01*
X93706Y73623D01*
X93768Y73556D01*
X93828Y73487D01*
X93884Y73416D01*
X93937Y73342D01*
X93987Y73266D01*
X94034Y73187D01*
X94077Y73107D01*
X94117Y73025D01*
X94153Y72942D01*
X94186Y72857D01*
X94215Y72770D01*
X94240Y72683D01*
X94261Y72594D01*
X94279Y72505D01*
X94292Y72415D01*
X94302Y72324D01*
X94308Y72233D01*
X94310Y72142D01*
X94309Y72142D02*
X94309Y70025D01*
X94309Y72565D02*
X97696Y74258D01*
X46896Y166820D02*
X39276Y166820D01*
X46896Y166820D02*
X46896Y170207D01*
X44779Y172903D02*
X41393Y172903D01*
X41302Y172905D01*
X41211Y172911D01*
X41120Y172921D01*
X41030Y172934D01*
X40941Y172952D01*
X40852Y172973D01*
X40765Y172998D01*
X40678Y173027D01*
X40593Y173060D01*
X40510Y173096D01*
X40428Y173136D01*
X40348Y173179D01*
X40269Y173226D01*
X40193Y173276D01*
X40119Y173329D01*
X40048Y173385D01*
X39979Y173445D01*
X39912Y173507D01*
X39849Y173572D01*
X39788Y173640D01*
X39730Y173710D01*
X39675Y173783D01*
X39623Y173858D01*
X39575Y173935D01*
X39530Y174015D01*
X39488Y174096D01*
X39450Y174178D01*
X39416Y174263D01*
X39385Y174349D01*
X39358Y174436D01*
X39335Y174524D01*
X39316Y174613D01*
X39300Y174702D01*
X39288Y174793D01*
X39280Y174883D01*
X39276Y174974D01*
X39276Y175066D01*
X39280Y175157D01*
X39288Y175247D01*
X39300Y175338D01*
X39316Y175427D01*
X39335Y175516D01*
X39358Y175604D01*
X39385Y175691D01*
X39416Y175777D01*
X39450Y175862D01*
X39488Y175944D01*
X39530Y176025D01*
X39575Y176105D01*
X39623Y176182D01*
X39675Y176257D01*
X39730Y176330D01*
X39788Y176400D01*
X39849Y176468D01*
X39912Y176533D01*
X39979Y176595D01*
X40048Y176655D01*
X40119Y176711D01*
X40193Y176764D01*
X40269Y176814D01*
X40348Y176861D01*
X40428Y176904D01*
X40510Y176944D01*
X40593Y176980D01*
X40678Y177013D01*
X40765Y177042D01*
X40852Y177067D01*
X40941Y177088D01*
X41030Y177106D01*
X41120Y177119D01*
X41211Y177129D01*
X41302Y177135D01*
X41393Y177137D01*
X44779Y177137D01*
X44870Y177135D01*
X44961Y177129D01*
X45052Y177119D01*
X45142Y177106D01*
X45231Y177088D01*
X45320Y177067D01*
X45407Y177042D01*
X45494Y177013D01*
X45579Y176980D01*
X45662Y176944D01*
X45744Y176904D01*
X45824Y176861D01*
X45903Y176814D01*
X45979Y176764D01*
X46053Y176711D01*
X46124Y176655D01*
X46193Y176595D01*
X46260Y176533D01*
X46323Y176468D01*
X46384Y176400D01*
X46442Y176330D01*
X46497Y176257D01*
X46549Y176182D01*
X46597Y176105D01*
X46642Y176025D01*
X46684Y175944D01*
X46722Y175862D01*
X46756Y175777D01*
X46787Y175691D01*
X46814Y175604D01*
X46837Y175516D01*
X46856Y175427D01*
X46872Y175338D01*
X46884Y175247D01*
X46892Y175157D01*
X46896Y175066D01*
X46896Y174974D01*
X46892Y174883D01*
X46884Y174793D01*
X46872Y174702D01*
X46856Y174613D01*
X46837Y174524D01*
X46814Y174436D01*
X46787Y174349D01*
X46756Y174263D01*
X46722Y174178D01*
X46684Y174096D01*
X46642Y174015D01*
X46597Y173935D01*
X46549Y173858D01*
X46497Y173783D01*
X46442Y173710D01*
X46384Y173640D01*
X46323Y173572D01*
X46260Y173507D01*
X46193Y173445D01*
X46124Y173385D01*
X46053Y173329D01*
X45979Y173276D01*
X45903Y173226D01*
X45824Y173179D01*
X45744Y173136D01*
X45662Y173096D01*
X45579Y173060D01*
X45494Y173027D01*
X45407Y172998D01*
X45320Y172973D01*
X45231Y172952D01*
X45142Y172934D01*
X45052Y172921D01*
X44961Y172911D01*
X44870Y172905D01*
X44779Y172903D01*
X42663Y183426D02*
X42663Y184696D01*
X46896Y184696D01*
X46896Y182156D01*
X46894Y182075D01*
X46888Y181995D01*
X46879Y181915D01*
X46865Y181836D01*
X46848Y181757D01*
X46827Y181679D01*
X46803Y181602D01*
X46775Y181527D01*
X46743Y181453D01*
X46708Y181380D01*
X46669Y181310D01*
X46627Y181241D01*
X46582Y181174D01*
X46534Y181109D01*
X46482Y181047D01*
X46428Y180988D01*
X46371Y180931D01*
X46312Y180877D01*
X46250Y180825D01*
X46185Y180777D01*
X46118Y180732D01*
X46050Y180690D01*
X45979Y180651D01*
X45906Y180616D01*
X45832Y180584D01*
X45757Y180556D01*
X45680Y180532D01*
X45602Y180511D01*
X45523Y180494D01*
X45444Y180480D01*
X45364Y180471D01*
X45284Y180465D01*
X45203Y180463D01*
X45203Y180462D02*
X40969Y180462D01*
X40969Y180463D02*
X40888Y180465D01*
X40808Y180471D01*
X40728Y180480D01*
X40649Y180494D01*
X40570Y180511D01*
X40492Y180532D01*
X40415Y180556D01*
X40340Y180584D01*
X40266Y180616D01*
X40193Y180651D01*
X40123Y180690D01*
X40054Y180732D01*
X39987Y180777D01*
X39922Y180825D01*
X39860Y180876D01*
X39801Y180931D01*
X39744Y180988D01*
X39690Y181047D01*
X39638Y181109D01*
X39590Y181174D01*
X39545Y181241D01*
X39503Y181309D01*
X39464Y181380D01*
X39429Y181453D01*
X39397Y181527D01*
X39369Y181602D01*
X39345Y181679D01*
X39324Y181757D01*
X39307Y181836D01*
X39293Y181915D01*
X39284Y181995D01*
X39278Y182075D01*
X39276Y182156D01*
X39276Y184696D01*
X39276Y188675D02*
X46896Y188675D01*
X46896Y187828D02*
X46896Y189522D01*
X39276Y189522D02*
X39276Y187828D01*
X46896Y194085D02*
X46896Y195778D01*
X46896Y194085D02*
X46894Y194004D01*
X46888Y193924D01*
X46879Y193844D01*
X46865Y193765D01*
X46848Y193686D01*
X46827Y193608D01*
X46803Y193531D01*
X46775Y193456D01*
X46743Y193382D01*
X46708Y193309D01*
X46669Y193239D01*
X46627Y193170D01*
X46582Y193103D01*
X46534Y193038D01*
X46482Y192976D01*
X46428Y192917D01*
X46371Y192860D01*
X46312Y192806D01*
X46250Y192754D01*
X46185Y192706D01*
X46118Y192661D01*
X46050Y192619D01*
X45979Y192580D01*
X45906Y192545D01*
X45832Y192513D01*
X45757Y192485D01*
X45680Y192461D01*
X45602Y192440D01*
X45523Y192423D01*
X45444Y192409D01*
X45364Y192400D01*
X45284Y192394D01*
X45203Y192392D01*
X40969Y192392D01*
X40888Y192394D01*
X40808Y192400D01*
X40728Y192409D01*
X40649Y192423D01*
X40570Y192440D01*
X40492Y192461D01*
X40415Y192485D01*
X40340Y192513D01*
X40266Y192545D01*
X40193Y192580D01*
X40123Y192619D01*
X40054Y192661D01*
X39987Y192706D01*
X39922Y192754D01*
X39860Y192805D01*
X39801Y192860D01*
X39744Y192917D01*
X39690Y192976D01*
X39638Y193038D01*
X39590Y193103D01*
X39545Y193170D01*
X39503Y193238D01*
X39464Y193309D01*
X39429Y193382D01*
X39397Y193456D01*
X39369Y193531D01*
X39345Y193608D01*
X39324Y193686D01*
X39307Y193765D01*
X39293Y193844D01*
X39284Y193924D01*
X39278Y194004D01*
X39276Y194085D01*
X39276Y195778D01*
X39276Y202652D02*
X46896Y202652D01*
X42663Y202652D02*
X42663Y206885D01*
X39276Y206885D02*
X46896Y206885D01*
X46896Y210864D02*
X39276Y210864D01*
X46896Y210018D02*
X46896Y211711D01*
X39276Y211711D02*
X39276Y210018D01*
X42663Y217807D02*
X42663Y219077D01*
X46896Y219077D01*
X46896Y216537D01*
X46894Y216456D01*
X46888Y216376D01*
X46879Y216296D01*
X46865Y216217D01*
X46848Y216138D01*
X46827Y216060D01*
X46803Y215983D01*
X46775Y215908D01*
X46743Y215834D01*
X46708Y215761D01*
X46669Y215691D01*
X46627Y215622D01*
X46582Y215555D01*
X46534Y215490D01*
X46482Y215428D01*
X46428Y215369D01*
X46371Y215312D01*
X46312Y215258D01*
X46250Y215206D01*
X46185Y215158D01*
X46118Y215113D01*
X46050Y215071D01*
X45979Y215032D01*
X45906Y214997D01*
X45832Y214965D01*
X45757Y214937D01*
X45680Y214913D01*
X45602Y214892D01*
X45523Y214875D01*
X45444Y214861D01*
X45364Y214852D01*
X45284Y214846D01*
X45203Y214844D01*
X40969Y214844D01*
X40888Y214846D01*
X40808Y214852D01*
X40728Y214861D01*
X40649Y214875D01*
X40570Y214892D01*
X40492Y214913D01*
X40415Y214937D01*
X40340Y214965D01*
X40266Y214997D01*
X40193Y215032D01*
X40123Y215071D01*
X40054Y215113D01*
X39987Y215158D01*
X39922Y215206D01*
X39860Y215257D01*
X39801Y215312D01*
X39744Y215369D01*
X39690Y215428D01*
X39638Y215490D01*
X39590Y215555D01*
X39545Y215622D01*
X39503Y215690D01*
X39464Y215761D01*
X39429Y215834D01*
X39397Y215908D01*
X39369Y215983D01*
X39345Y216060D01*
X39324Y216138D01*
X39307Y216217D01*
X39293Y216296D01*
X39284Y216376D01*
X39278Y216456D01*
X39276Y216537D01*
X39276Y219077D01*
X39276Y222647D02*
X46896Y222647D01*
X42663Y222647D02*
X42663Y226880D01*
X39276Y226880D02*
X46896Y226880D01*
X71720Y305917D02*
X66332Y311305D01*
X71720Y305917D02*
X74115Y308311D01*
X74525Y311715D02*
X72130Y314109D01*
X72067Y314175D01*
X72007Y314243D01*
X71950Y314314D01*
X71896Y314388D01*
X71845Y314463D01*
X71797Y314541D01*
X71753Y314621D01*
X71713Y314702D01*
X71676Y314785D01*
X71642Y314870D01*
X71612Y314956D01*
X71586Y315043D01*
X71564Y315132D01*
X71545Y315221D01*
X71531Y315311D01*
X71520Y315401D01*
X71513Y315492D01*
X71510Y315583D01*
X71511Y315674D01*
X71516Y315765D01*
X71525Y315856D01*
X71538Y315946D01*
X71554Y316036D01*
X71574Y316125D01*
X71599Y316212D01*
X71627Y316299D01*
X71658Y316384D01*
X71694Y316468D01*
X71733Y316551D01*
X71775Y316631D01*
X71821Y316710D01*
X71870Y316787D01*
X71922Y316861D01*
X71978Y316934D01*
X72037Y317003D01*
X72098Y317070D01*
X72163Y317135D01*
X72230Y317196D01*
X72299Y317255D01*
X72372Y317311D01*
X72446Y317363D01*
X72523Y317412D01*
X72602Y317458D01*
X72682Y317500D01*
X72765Y317539D01*
X72849Y317575D01*
X72934Y317606D01*
X73021Y317634D01*
X73108Y317659D01*
X73197Y317679D01*
X73287Y317695D01*
X73377Y317708D01*
X73468Y317717D01*
X73559Y317722D01*
X73650Y317723D01*
X73741Y317720D01*
X73832Y317713D01*
X73922Y317702D01*
X74012Y317688D01*
X74101Y317669D01*
X74190Y317647D01*
X74277Y317621D01*
X74363Y317591D01*
X74448Y317557D01*
X74531Y317520D01*
X74612Y317480D01*
X74692Y317436D01*
X74770Y317388D01*
X74845Y317337D01*
X74919Y317283D01*
X74990Y317226D01*
X75058Y317166D01*
X75124Y317103D01*
X75123Y317103D02*
X77518Y314708D01*
X77581Y314642D01*
X77641Y314574D01*
X77698Y314503D01*
X77752Y314429D01*
X77803Y314354D01*
X77851Y314276D01*
X77895Y314196D01*
X77935Y314115D01*
X77972Y314032D01*
X78006Y313947D01*
X78036Y313861D01*
X78062Y313774D01*
X78084Y313685D01*
X78103Y313596D01*
X78117Y313506D01*
X78128Y313416D01*
X78135Y313325D01*
X78138Y313234D01*
X78137Y313143D01*
X78132Y313052D01*
X78123Y312961D01*
X78110Y312871D01*
X78094Y312781D01*
X78074Y312692D01*
X78049Y312605D01*
X78021Y312518D01*
X77990Y312433D01*
X77954Y312349D01*
X77915Y312266D01*
X77873Y312186D01*
X77827Y312107D01*
X77778Y312030D01*
X77726Y311956D01*
X77670Y311883D01*
X77611Y311814D01*
X77550Y311747D01*
X77485Y311682D01*
X77418Y311621D01*
X77349Y311562D01*
X77276Y311506D01*
X77202Y311454D01*
X77125Y311405D01*
X77046Y311359D01*
X76966Y311317D01*
X76883Y311278D01*
X76799Y311242D01*
X76714Y311211D01*
X76627Y311183D01*
X76540Y311158D01*
X76451Y311138D01*
X76361Y311122D01*
X76271Y311109D01*
X76180Y311100D01*
X76089Y311095D01*
X75998Y311094D01*
X75907Y311097D01*
X75816Y311104D01*
X75726Y311115D01*
X75636Y311129D01*
X75547Y311148D01*
X75458Y311170D01*
X75371Y311196D01*
X75285Y311226D01*
X75200Y311260D01*
X75117Y311297D01*
X75036Y311337D01*
X74956Y311381D01*
X74878Y311429D01*
X74803Y311480D01*
X74729Y311534D01*
X74658Y311591D01*
X74590Y311651D01*
X74524Y311714D01*
X80468Y320652D02*
X81366Y321550D01*
X84360Y318556D01*
X82564Y316760D01*
X82563Y316761D02*
X82505Y316705D01*
X82444Y316652D01*
X82381Y316603D01*
X82315Y316556D01*
X82247Y316512D01*
X82177Y316472D01*
X82106Y316435D01*
X82032Y316402D01*
X81958Y316372D01*
X81882Y316345D01*
X81804Y316323D01*
X81726Y316304D01*
X81647Y316288D01*
X81567Y316277D01*
X81487Y316269D01*
X81406Y316265D01*
X81326Y316265D01*
X81245Y316269D01*
X81165Y316277D01*
X81085Y316288D01*
X81006Y316304D01*
X80928Y316323D01*
X80851Y316345D01*
X80774Y316372D01*
X80700Y316402D01*
X80626Y316435D01*
X80555Y316472D01*
X80485Y316512D01*
X80417Y316556D01*
X80351Y316603D01*
X80288Y316652D01*
X80227Y316705D01*
X80169Y316761D01*
X80169Y316760D02*
X77175Y319754D01*
X77176Y319754D02*
X77120Y319812D01*
X77067Y319873D01*
X77018Y319936D01*
X76971Y320002D01*
X76927Y320070D01*
X76887Y320140D01*
X76850Y320211D01*
X76817Y320285D01*
X76787Y320359D01*
X76760Y320435D01*
X76738Y320513D01*
X76719Y320591D01*
X76703Y320670D01*
X76692Y320750D01*
X76684Y320830D01*
X76680Y320911D01*
X76680Y320991D01*
X76684Y321072D01*
X76692Y321152D01*
X76703Y321232D01*
X76719Y321311D01*
X76738Y321389D01*
X76760Y321466D01*
X76787Y321543D01*
X76817Y321617D01*
X76850Y321691D01*
X76887Y321762D01*
X76927Y321832D01*
X76971Y321900D01*
X77018Y321966D01*
X77067Y322029D01*
X77120Y322090D01*
X77176Y322148D01*
X77175Y322148D02*
X78972Y323945D01*
X81785Y326758D02*
X87173Y321370D01*
X86575Y320771D02*
X87772Y321969D01*
X82384Y327357D02*
X81187Y326160D01*
X90999Y325195D02*
X92196Y326393D01*
X90998Y325196D02*
X90940Y325140D01*
X90879Y325087D01*
X90816Y325038D01*
X90750Y324991D01*
X90682Y324947D01*
X90612Y324907D01*
X90541Y324870D01*
X90467Y324837D01*
X90393Y324807D01*
X90317Y324780D01*
X90239Y324758D01*
X90161Y324739D01*
X90082Y324723D01*
X90002Y324712D01*
X89922Y324704D01*
X89841Y324700D01*
X89761Y324700D01*
X89680Y324704D01*
X89600Y324712D01*
X89520Y324723D01*
X89441Y324739D01*
X89363Y324758D01*
X89286Y324780D01*
X89209Y324807D01*
X89135Y324837D01*
X89061Y324870D01*
X88990Y324907D01*
X88920Y324947D01*
X88852Y324991D01*
X88786Y325038D01*
X88723Y325087D01*
X88662Y325140D01*
X88604Y325196D01*
X88604Y325195D02*
X85611Y328189D01*
X85555Y328247D01*
X85502Y328308D01*
X85453Y328371D01*
X85406Y328437D01*
X85362Y328505D01*
X85322Y328575D01*
X85285Y328646D01*
X85252Y328720D01*
X85222Y328794D01*
X85195Y328870D01*
X85173Y328948D01*
X85154Y329026D01*
X85138Y329105D01*
X85127Y329185D01*
X85119Y329265D01*
X85115Y329346D01*
X85115Y329426D01*
X85119Y329507D01*
X85127Y329587D01*
X85138Y329667D01*
X85154Y329746D01*
X85173Y329824D01*
X85195Y329901D01*
X85222Y329978D01*
X85252Y330052D01*
X85285Y330126D01*
X85322Y330197D01*
X85362Y330267D01*
X85406Y330335D01*
X85453Y330401D01*
X85502Y330464D01*
X85555Y330525D01*
X85611Y330583D01*
X85611Y330584D02*
X86808Y331781D01*
X91677Y336650D02*
X97065Y331262D01*
X99460Y333657D01*
X99870Y337060D02*
X97475Y339455D01*
X97412Y339521D01*
X97352Y339589D01*
X97295Y339660D01*
X97241Y339734D01*
X97190Y339809D01*
X97142Y339887D01*
X97098Y339967D01*
X97058Y340048D01*
X97021Y340131D01*
X96987Y340216D01*
X96957Y340302D01*
X96931Y340389D01*
X96909Y340478D01*
X96890Y340567D01*
X96876Y340657D01*
X96865Y340747D01*
X96858Y340838D01*
X96855Y340929D01*
X96856Y341020D01*
X96861Y341111D01*
X96870Y341202D01*
X96883Y341292D01*
X96899Y341382D01*
X96919Y341471D01*
X96944Y341558D01*
X96972Y341645D01*
X97003Y341730D01*
X97039Y341814D01*
X97078Y341897D01*
X97120Y341977D01*
X97166Y342056D01*
X97215Y342133D01*
X97267Y342207D01*
X97323Y342280D01*
X97382Y342349D01*
X97443Y342416D01*
X97508Y342481D01*
X97575Y342542D01*
X97644Y342601D01*
X97717Y342657D01*
X97791Y342709D01*
X97868Y342758D01*
X97947Y342804D01*
X98027Y342846D01*
X98110Y342885D01*
X98194Y342921D01*
X98279Y342952D01*
X98366Y342980D01*
X98453Y343005D01*
X98542Y343025D01*
X98632Y343041D01*
X98722Y343054D01*
X98813Y343063D01*
X98904Y343068D01*
X98995Y343069D01*
X99086Y343066D01*
X99177Y343059D01*
X99267Y343048D01*
X99357Y343034D01*
X99446Y343015D01*
X99535Y342993D01*
X99622Y342967D01*
X99708Y342937D01*
X99793Y342903D01*
X99876Y342866D01*
X99957Y342826D01*
X100037Y342782D01*
X100115Y342734D01*
X100190Y342683D01*
X100264Y342629D01*
X100335Y342572D01*
X100403Y342512D01*
X100469Y342449D01*
X100469Y342448D02*
X102864Y340054D01*
X102927Y339988D01*
X102987Y339920D01*
X103044Y339849D01*
X103098Y339775D01*
X103149Y339700D01*
X103197Y339622D01*
X103241Y339542D01*
X103281Y339461D01*
X103318Y339378D01*
X103352Y339293D01*
X103382Y339207D01*
X103408Y339120D01*
X103430Y339031D01*
X103449Y338942D01*
X103463Y338852D01*
X103474Y338762D01*
X103481Y338671D01*
X103484Y338580D01*
X103483Y338489D01*
X103478Y338398D01*
X103469Y338307D01*
X103456Y338217D01*
X103440Y338127D01*
X103420Y338038D01*
X103395Y337951D01*
X103367Y337864D01*
X103336Y337779D01*
X103300Y337695D01*
X103261Y337612D01*
X103219Y337532D01*
X103173Y337453D01*
X103124Y337376D01*
X103072Y337302D01*
X103016Y337229D01*
X102957Y337160D01*
X102896Y337093D01*
X102831Y337028D01*
X102764Y336967D01*
X102695Y336908D01*
X102622Y336852D01*
X102548Y336800D01*
X102471Y336751D01*
X102392Y336705D01*
X102312Y336663D01*
X102229Y336624D01*
X102145Y336588D01*
X102060Y336557D01*
X101973Y336529D01*
X101886Y336504D01*
X101797Y336484D01*
X101707Y336468D01*
X101617Y336455D01*
X101526Y336446D01*
X101435Y336441D01*
X101344Y336440D01*
X101253Y336443D01*
X101162Y336450D01*
X101072Y336461D01*
X100982Y336475D01*
X100893Y336494D01*
X100804Y336516D01*
X100717Y336542D01*
X100631Y336572D01*
X100546Y336606D01*
X100463Y336643D01*
X100382Y336683D01*
X100302Y336727D01*
X100224Y336775D01*
X100149Y336826D01*
X100075Y336880D01*
X100004Y336937D01*
X99936Y336997D01*
X99870Y337060D01*
X100943Y345916D02*
X107528Y341725D01*
X105134Y346515D01*
X109923Y344120D01*
X105732Y350705D01*
D11*
X72029Y294668D02*
X67539Y290178D01*
X72029Y294668D02*
X76519Y290178D01*
X81009Y294668D01*
X76519Y299158D01*
X81009Y303648D01*
X85499Y299158D01*
X89989Y303648D01*
X85499Y308139D01*
X89989Y312629D01*
X94480Y308139D01*
X98970Y312629D01*
X94480Y317119D01*
X98970Y321609D01*
X103460Y317119D01*
X107950Y321609D01*
X103460Y326099D01*
X107950Y330589D01*
X112440Y326099D01*
X116930Y330589D01*
X112440Y335079D01*
X116930Y339570D01*
X121420Y335079D01*
X125910Y339570D01*
X121420Y344060D01*
X125910Y348550D01*
X54722Y155481D02*
X54722Y149131D01*
X54722Y155481D02*
X61072Y155481D01*
X61072Y161831D01*
X54722Y161831D01*
X54722Y168182D01*
X61072Y168182D01*
X61072Y174531D01*
X54722Y174531D01*
X54722Y180881D01*
X61072Y180881D01*
X61072Y187231D01*
X54722Y187231D01*
X54722Y193581D01*
X61072Y193582D01*
X61072Y199932D01*
X54722Y199932D01*
X54722Y206282D01*
X61072Y206282D01*
X61072Y212631D01*
X54722Y212631D01*
X54722Y218981D01*
X61072Y218981D01*
X61072Y225331D01*
X54722Y225332D01*
X54722Y231682D01*
X61072Y231682D01*
X61072Y238032D01*
X54722Y238032D01*
X54722Y244381D01*
D10*
X38641Y112459D02*
X31021Y112459D01*
X35254Y112459D02*
X35254Y108225D01*
X38641Y108225D02*
X31021Y108225D01*
X31021Y104246D02*
X38641Y104246D01*
X31021Y105093D02*
X31021Y103399D01*
X38641Y103399D02*
X38641Y105093D01*
X35254Y97303D02*
X35254Y96033D01*
X31021Y96033D01*
X31021Y98573D01*
X31023Y98654D01*
X31029Y98734D01*
X31038Y98814D01*
X31052Y98893D01*
X31069Y98972D01*
X31090Y99050D01*
X31114Y99127D01*
X31142Y99202D01*
X31174Y99276D01*
X31209Y99349D01*
X31248Y99420D01*
X31290Y99488D01*
X31335Y99555D01*
X31383Y99620D01*
X31435Y99682D01*
X31489Y99741D01*
X31546Y99798D01*
X31605Y99852D01*
X31667Y99904D01*
X31732Y99952D01*
X31799Y99997D01*
X31868Y100039D01*
X31938Y100078D01*
X32011Y100113D01*
X32085Y100145D01*
X32160Y100173D01*
X32237Y100197D01*
X32315Y100218D01*
X32394Y100235D01*
X32473Y100249D01*
X32553Y100258D01*
X32633Y100264D01*
X32714Y100266D01*
X32714Y100267D02*
X36948Y100267D01*
X36948Y100266D02*
X37029Y100264D01*
X37109Y100258D01*
X37189Y100249D01*
X37268Y100235D01*
X37347Y100218D01*
X37425Y100197D01*
X37502Y100173D01*
X37577Y100145D01*
X37651Y100113D01*
X37724Y100078D01*
X37794Y100039D01*
X37863Y99997D01*
X37930Y99952D01*
X37995Y99904D01*
X38057Y99852D01*
X38116Y99798D01*
X38173Y99741D01*
X38227Y99682D01*
X38279Y99620D01*
X38327Y99555D01*
X38372Y99488D01*
X38414Y99420D01*
X38453Y99349D01*
X38488Y99276D01*
X38520Y99202D01*
X38548Y99127D01*
X38572Y99050D01*
X38593Y98972D01*
X38610Y98893D01*
X38624Y98814D01*
X38633Y98734D01*
X38639Y98654D01*
X38641Y98573D01*
X38641Y96033D01*
X38641Y92464D02*
X31021Y92464D01*
X35254Y92464D02*
X35254Y88230D01*
X38641Y88230D02*
X31021Y88230D01*
X32714Y84840D02*
X32714Y79760D01*
X35254Y79760D02*
X35254Y84840D01*
X38641Y76274D02*
X31021Y76274D01*
X38641Y76274D02*
X38641Y74157D01*
X38639Y74066D01*
X38633Y73975D01*
X38623Y73884D01*
X38610Y73794D01*
X38592Y73705D01*
X38571Y73616D01*
X38546Y73529D01*
X38517Y73442D01*
X38484Y73357D01*
X38448Y73274D01*
X38408Y73192D01*
X38365Y73112D01*
X38318Y73033D01*
X38268Y72957D01*
X38215Y72883D01*
X38159Y72812D01*
X38099Y72743D01*
X38037Y72676D01*
X37972Y72613D01*
X37904Y72552D01*
X37834Y72494D01*
X37761Y72439D01*
X37686Y72387D01*
X37609Y72339D01*
X37529Y72294D01*
X37448Y72252D01*
X37366Y72214D01*
X37281Y72180D01*
X37195Y72149D01*
X37108Y72122D01*
X37020Y72099D01*
X36931Y72080D01*
X36842Y72064D01*
X36751Y72052D01*
X36661Y72044D01*
X36570Y72040D01*
X36478Y72040D01*
X36387Y72044D01*
X36297Y72052D01*
X36206Y72064D01*
X36117Y72080D01*
X36028Y72099D01*
X35940Y72122D01*
X35853Y72149D01*
X35767Y72180D01*
X35682Y72214D01*
X35600Y72252D01*
X35519Y72294D01*
X35439Y72339D01*
X35362Y72387D01*
X35287Y72439D01*
X35214Y72494D01*
X35144Y72552D01*
X35076Y72613D01*
X35011Y72676D01*
X34949Y72743D01*
X34889Y72812D01*
X34833Y72883D01*
X34780Y72957D01*
X34730Y73033D01*
X34683Y73112D01*
X34640Y73192D01*
X34600Y73274D01*
X34564Y73357D01*
X34531Y73442D01*
X34502Y73529D01*
X34477Y73616D01*
X34456Y73705D01*
X34438Y73794D01*
X34425Y73884D01*
X34415Y73975D01*
X34409Y74066D01*
X34407Y74157D01*
X34408Y74157D02*
X34408Y76274D01*
X31021Y69722D02*
X38641Y67182D01*
X31021Y64642D01*
X32926Y65277D02*
X32926Y69087D01*
X31021Y61727D02*
X38641Y61727D01*
X31021Y61727D02*
X31021Y58340D01*
X26449Y112459D02*
X18829Y112459D01*
X18829Y109072D01*
X20946Y106375D02*
X24332Y106375D01*
X24332Y106376D02*
X24423Y106374D01*
X24514Y106368D01*
X24605Y106358D01*
X24695Y106345D01*
X24784Y106327D01*
X24873Y106306D01*
X24960Y106281D01*
X25047Y106252D01*
X25132Y106219D01*
X25215Y106183D01*
X25297Y106143D01*
X25377Y106100D01*
X25456Y106053D01*
X25532Y106003D01*
X25606Y105950D01*
X25677Y105894D01*
X25746Y105834D01*
X25813Y105772D01*
X25876Y105707D01*
X25937Y105639D01*
X25995Y105569D01*
X26050Y105496D01*
X26102Y105421D01*
X26150Y105344D01*
X26195Y105264D01*
X26237Y105183D01*
X26275Y105101D01*
X26309Y105016D01*
X26340Y104930D01*
X26367Y104843D01*
X26390Y104755D01*
X26409Y104666D01*
X26425Y104577D01*
X26437Y104486D01*
X26445Y104396D01*
X26449Y104305D01*
X26449Y104213D01*
X26445Y104122D01*
X26437Y104032D01*
X26425Y103941D01*
X26409Y103852D01*
X26390Y103763D01*
X26367Y103675D01*
X26340Y103588D01*
X26309Y103502D01*
X26275Y103417D01*
X26237Y103335D01*
X26195Y103254D01*
X26150Y103174D01*
X26102Y103097D01*
X26050Y103022D01*
X25995Y102949D01*
X25937Y102879D01*
X25876Y102811D01*
X25813Y102746D01*
X25746Y102684D01*
X25677Y102624D01*
X25606Y102568D01*
X25532Y102515D01*
X25456Y102465D01*
X25377Y102418D01*
X25297Y102375D01*
X25215Y102335D01*
X25132Y102299D01*
X25047Y102266D01*
X24960Y102237D01*
X24873Y102212D01*
X24784Y102191D01*
X24695Y102173D01*
X24605Y102160D01*
X24514Y102150D01*
X24423Y102144D01*
X24332Y102142D01*
X20946Y102142D01*
X20855Y102144D01*
X20764Y102150D01*
X20673Y102160D01*
X20583Y102173D01*
X20494Y102191D01*
X20405Y102212D01*
X20318Y102237D01*
X20231Y102266D01*
X20146Y102299D01*
X20063Y102335D01*
X19981Y102375D01*
X19901Y102418D01*
X19822Y102465D01*
X19746Y102515D01*
X19672Y102568D01*
X19601Y102624D01*
X19532Y102684D01*
X19465Y102746D01*
X19402Y102811D01*
X19341Y102879D01*
X19283Y102949D01*
X19228Y103022D01*
X19176Y103097D01*
X19128Y103174D01*
X19083Y103254D01*
X19041Y103335D01*
X19003Y103417D01*
X18969Y103502D01*
X18938Y103588D01*
X18911Y103675D01*
X18888Y103763D01*
X18869Y103852D01*
X18853Y103941D01*
X18841Y104032D01*
X18833Y104122D01*
X18829Y104213D01*
X18829Y104305D01*
X18833Y104396D01*
X18841Y104486D01*
X18853Y104577D01*
X18869Y104666D01*
X18888Y104755D01*
X18911Y104843D01*
X18938Y104930D01*
X18969Y105016D01*
X19003Y105101D01*
X19041Y105183D01*
X19083Y105264D01*
X19128Y105344D01*
X19176Y105421D01*
X19228Y105496D01*
X19283Y105569D01*
X19341Y105639D01*
X19402Y105707D01*
X19465Y105772D01*
X19532Y105834D01*
X19601Y105894D01*
X19672Y105950D01*
X19746Y106003D01*
X19822Y106053D01*
X19901Y106100D01*
X19981Y106143D01*
X20063Y106183D01*
X20146Y106219D01*
X20231Y106252D01*
X20318Y106281D01*
X20405Y106306D01*
X20494Y106327D01*
X20583Y106345D01*
X20673Y106358D01*
X20764Y106368D01*
X20855Y106374D01*
X20946Y106376D01*
X26449Y99355D02*
X18829Y97662D01*
X23909Y95968D01*
X18829Y94275D01*
X26449Y92582D01*
X20522Y89730D02*
X20522Y84650D01*
X23062Y84650D02*
X23062Y89730D01*
X26449Y81260D02*
X18829Y81260D01*
X18829Y77027D02*
X26449Y81260D01*
X26449Y77027D02*
X18829Y77027D01*
X18829Y72072D02*
X26449Y72072D01*
X26449Y74189D02*
X26449Y69955D01*
X20522Y63372D02*
X20441Y63374D01*
X20361Y63380D01*
X20281Y63389D01*
X20202Y63403D01*
X20123Y63420D01*
X20045Y63441D01*
X19968Y63465D01*
X19893Y63493D01*
X19819Y63525D01*
X19746Y63560D01*
X19675Y63599D01*
X19607Y63641D01*
X19540Y63686D01*
X19475Y63734D01*
X19413Y63786D01*
X19354Y63840D01*
X19297Y63897D01*
X19243Y63956D01*
X19191Y64018D01*
X19143Y64083D01*
X19098Y64150D01*
X19056Y64219D01*
X19017Y64289D01*
X18982Y64362D01*
X18950Y64436D01*
X18922Y64511D01*
X18898Y64588D01*
X18877Y64666D01*
X18860Y64745D01*
X18846Y64824D01*
X18837Y64904D01*
X18831Y64984D01*
X18829Y65065D01*
X18831Y65183D01*
X18837Y65300D01*
X18846Y65417D01*
X18860Y65534D01*
X18877Y65651D01*
X18898Y65766D01*
X18923Y65881D01*
X18952Y65996D01*
X18985Y66109D01*
X19021Y66221D01*
X19061Y66331D01*
X19104Y66441D01*
X19151Y66549D01*
X19202Y66655D01*
X19256Y66759D01*
X19313Y66862D01*
X19374Y66963D01*
X19438Y67062D01*
X19505Y67158D01*
X19576Y67252D01*
X19649Y67344D01*
X19726Y67434D01*
X19805Y67521D01*
X19887Y67605D01*
X24756Y67393D02*
X24837Y67391D01*
X24917Y67385D01*
X24997Y67376D01*
X25076Y67362D01*
X25155Y67345D01*
X25233Y67324D01*
X25310Y67300D01*
X25385Y67272D01*
X25459Y67240D01*
X25532Y67205D01*
X25603Y67166D01*
X25671Y67124D01*
X25738Y67079D01*
X25803Y67031D01*
X25865Y66979D01*
X25924Y66925D01*
X25981Y66868D01*
X26035Y66809D01*
X26087Y66747D01*
X26135Y66682D01*
X26180Y66615D01*
X26222Y66547D01*
X26261Y66476D01*
X26296Y66403D01*
X26328Y66329D01*
X26356Y66254D01*
X26380Y66177D01*
X26401Y66099D01*
X26418Y66020D01*
X26432Y65941D01*
X26441Y65861D01*
X26447Y65781D01*
X26449Y65700D01*
X26447Y65592D01*
X26442Y65485D01*
X26433Y65378D01*
X26420Y65271D01*
X26404Y65165D01*
X26384Y65059D01*
X26360Y64954D01*
X26333Y64850D01*
X26303Y64747D01*
X26269Y64645D01*
X26231Y64544D01*
X26190Y64445D01*
X26146Y64347D01*
X26099Y64250D01*
X26048Y64156D01*
X25994Y64062D01*
X25937Y63971D01*
X25877Y63882D01*
X25814Y63795D01*
X23274Y66546D02*
X23317Y66615D01*
X23363Y66682D01*
X23412Y66747D01*
X23464Y66809D01*
X23519Y66868D01*
X23577Y66925D01*
X23638Y66980D01*
X23700Y67031D01*
X23766Y67079D01*
X23833Y67124D01*
X23903Y67166D01*
X23974Y67205D01*
X24047Y67240D01*
X24122Y67272D01*
X24198Y67300D01*
X24275Y67325D01*
X24354Y67345D01*
X24433Y67362D01*
X24513Y67376D01*
X24594Y67385D01*
X24675Y67391D01*
X24756Y67393D01*
X22004Y64218D02*
X21961Y64149D01*
X21915Y64082D01*
X21866Y64017D01*
X21814Y63955D01*
X21759Y63896D01*
X21701Y63839D01*
X21640Y63784D01*
X21578Y63733D01*
X21512Y63685D01*
X21445Y63640D01*
X21375Y63598D01*
X21304Y63559D01*
X21231Y63524D01*
X21156Y63492D01*
X21080Y63464D01*
X21003Y63439D01*
X20924Y63419D01*
X20845Y63402D01*
X20765Y63388D01*
X20684Y63379D01*
X20603Y63373D01*
X20522Y63371D01*
X22004Y64218D02*
X23274Y66547D01*
X18829Y58859D02*
X18829Y57166D01*
X18829Y58859D02*
X18831Y58940D01*
X18837Y59020D01*
X18846Y59100D01*
X18860Y59179D01*
X18877Y59258D01*
X18898Y59336D01*
X18922Y59413D01*
X18950Y59488D01*
X18982Y59562D01*
X19017Y59635D01*
X19056Y59706D01*
X19098Y59774D01*
X19143Y59841D01*
X19191Y59906D01*
X19243Y59968D01*
X19297Y60027D01*
X19354Y60084D01*
X19413Y60138D01*
X19475Y60190D01*
X19540Y60238D01*
X19607Y60283D01*
X19676Y60325D01*
X19746Y60364D01*
X19819Y60399D01*
X19893Y60431D01*
X19968Y60459D01*
X20045Y60483D01*
X20123Y60504D01*
X20202Y60521D01*
X20281Y60535D01*
X20361Y60544D01*
X20441Y60550D01*
X20522Y60552D01*
X20522Y60553D02*
X24756Y60553D01*
X24756Y60552D02*
X24837Y60550D01*
X24917Y60544D01*
X24997Y60535D01*
X25076Y60521D01*
X25155Y60504D01*
X25233Y60483D01*
X25310Y60459D01*
X25385Y60431D01*
X25459Y60399D01*
X25532Y60364D01*
X25602Y60325D01*
X25671Y60283D01*
X25738Y60238D01*
X25803Y60190D01*
X25865Y60138D01*
X25924Y60084D01*
X25981Y60027D01*
X26035Y59968D01*
X26087Y59906D01*
X26135Y59841D01*
X26180Y59774D01*
X26222Y59706D01*
X26261Y59635D01*
X26296Y59562D01*
X26328Y59488D01*
X26356Y59413D01*
X26380Y59336D01*
X26401Y59258D01*
X26418Y59179D01*
X26432Y59100D01*
X26441Y59020D01*
X26447Y58940D01*
X26449Y58859D01*
X26449Y57166D01*
X139446Y329729D02*
X139446Y331422D01*
X139446Y329729D02*
X139444Y329648D01*
X139438Y329568D01*
X139429Y329488D01*
X139415Y329409D01*
X139398Y329330D01*
X139377Y329252D01*
X139353Y329175D01*
X139325Y329100D01*
X139293Y329026D01*
X139258Y328953D01*
X139219Y328883D01*
X139177Y328814D01*
X139132Y328747D01*
X139084Y328682D01*
X139032Y328620D01*
X138978Y328561D01*
X138921Y328504D01*
X138862Y328450D01*
X138800Y328398D01*
X138735Y328350D01*
X138668Y328305D01*
X138600Y328263D01*
X138529Y328224D01*
X138456Y328189D01*
X138382Y328157D01*
X138307Y328129D01*
X138230Y328105D01*
X138152Y328084D01*
X138073Y328067D01*
X137994Y328053D01*
X137914Y328044D01*
X137834Y328038D01*
X137753Y328036D01*
X133519Y328036D01*
X133438Y328038D01*
X133358Y328044D01*
X133278Y328053D01*
X133199Y328067D01*
X133120Y328084D01*
X133042Y328105D01*
X132965Y328129D01*
X132890Y328157D01*
X132816Y328189D01*
X132743Y328224D01*
X132673Y328263D01*
X132604Y328305D01*
X132537Y328350D01*
X132472Y328398D01*
X132410Y328449D01*
X132351Y328504D01*
X132294Y328561D01*
X132240Y328620D01*
X132188Y328682D01*
X132140Y328747D01*
X132095Y328814D01*
X132053Y328882D01*
X132014Y328953D01*
X131979Y329026D01*
X131947Y329100D01*
X131919Y329175D01*
X131895Y329252D01*
X131874Y329330D01*
X131857Y329409D01*
X131843Y329488D01*
X131834Y329568D01*
X131828Y329648D01*
X131826Y329729D01*
X131826Y331422D01*
X131826Y334407D02*
X139446Y334407D01*
X139446Y337794D01*
X139446Y340831D02*
X131826Y340831D01*
X131826Y345064D02*
X136483Y340831D01*
X134789Y342524D02*
X139446Y345064D01*
D12*
X106680Y187960D02*
X96520Y187960D01*
X110236Y199898D02*
X110236Y206502D01*
X106680Y218440D02*
X82550Y218440D01*
D13*
X99100Y210700D03*
D12*
X81280Y281940D02*
X71120Y281940D01*
X71120Y251460D02*
X95250Y251460D01*
D14*
X78740Y259080D03*
D10*
X113517Y157316D02*
X122830Y153929D01*
X121984Y162206D02*
X114364Y159666D01*
X114364Y164746D02*
X121984Y162206D01*
X121984Y168058D02*
X114364Y168058D01*
X121984Y167212D02*
X121984Y168905D01*
X114364Y168905D02*
X114364Y167212D01*
X114364Y172038D02*
X121984Y172038D01*
X114364Y172038D02*
X114364Y174154D01*
X114363Y174154D02*
X114365Y174244D01*
X114371Y174334D01*
X114380Y174423D01*
X114393Y174512D01*
X114411Y174600D01*
X114431Y174687D01*
X114456Y174774D01*
X114484Y174859D01*
X114516Y174943D01*
X114551Y175026D01*
X114590Y175107D01*
X114632Y175186D01*
X114677Y175264D01*
X114726Y175339D01*
X114778Y175413D01*
X114833Y175484D01*
X114891Y175553D01*
X114952Y175619D01*
X115015Y175682D01*
X115081Y175743D01*
X115150Y175801D01*
X115221Y175856D01*
X115295Y175908D01*
X115370Y175957D01*
X115448Y176002D01*
X115527Y176044D01*
X115608Y176083D01*
X115691Y176118D01*
X115775Y176150D01*
X115860Y176178D01*
X115947Y176203D01*
X116034Y176223D01*
X116122Y176241D01*
X116211Y176254D01*
X116300Y176263D01*
X116390Y176269D01*
X116480Y176271D01*
X119867Y176271D01*
X119957Y176269D01*
X120047Y176263D01*
X120136Y176254D01*
X120225Y176241D01*
X120313Y176223D01*
X120400Y176203D01*
X120487Y176178D01*
X120572Y176150D01*
X120656Y176118D01*
X120739Y176083D01*
X120820Y176044D01*
X120899Y176002D01*
X120977Y175957D01*
X121052Y175908D01*
X121126Y175856D01*
X121197Y175801D01*
X121266Y175743D01*
X121332Y175682D01*
X121395Y175619D01*
X121456Y175553D01*
X121514Y175484D01*
X121569Y175413D01*
X121621Y175339D01*
X121670Y175264D01*
X121715Y175186D01*
X121757Y175107D01*
X121796Y175026D01*
X121831Y174943D01*
X121863Y174859D01*
X121891Y174774D01*
X121916Y174687D01*
X121936Y174600D01*
X121954Y174512D01*
X121967Y174423D01*
X121976Y174334D01*
X121982Y174244D01*
X121984Y174154D01*
X121984Y172038D01*
M02*
