G04 EAGLE Gerber RS-274X export*
G75*
%MOMM*%
%FSLAX34Y34*%
%LPD*%
%INSoldermask Top*%
%IPPOS*%
%AMOC8*
5,1,8,0,0,1.08239X$1,22.5*%
G01*
%ADD10C,1.127000*%
%ADD11C,2.100000*%
%ADD12C,1.627000*%
%ADD13R,1.227000X1.127000*%
%ADD14R,1.447800X0.685800*%


D10*
X0Y0D03*
X0Y25400D03*
X0Y50800D03*
X0Y76200D03*
X0Y101600D03*
X0Y127000D03*
X0Y152400D03*
X0Y177800D03*
X0Y203200D03*
X0Y228600D03*
X0Y254000D03*
X0Y279400D03*
X0Y304800D03*
X0Y330200D03*
X0Y355600D03*
X0Y381000D03*
X0Y406400D03*
X0Y431800D03*
X0Y457200D03*
X0Y482600D03*
X152400Y0D03*
X152400Y25400D03*
X152400Y50800D03*
X152400Y76200D03*
X152400Y101600D03*
X152400Y127000D03*
X152400Y152400D03*
X152400Y177800D03*
X152400Y203200D03*
X152400Y228600D03*
X152400Y254000D03*
X152400Y279400D03*
X152400Y304800D03*
X152400Y330200D03*
X152400Y355600D03*
X152400Y381000D03*
X152400Y406400D03*
X152400Y431800D03*
X152400Y457200D03*
X152400Y482600D03*
D11*
X0Y203200D03*
X152400Y228600D03*
X152400Y355600D03*
D12*
X152400Y228600D03*
D13*
X108638Y266700D03*
X125638Y266700D03*
X93100Y228600D03*
X110100Y228600D03*
D12*
X133350Y38100D03*
X133350Y12700D03*
X0Y203200D03*
X152400Y355600D03*
D14*
X88646Y212598D03*
X88646Y203200D03*
X88646Y193802D03*
X114554Y193802D03*
X114554Y212598D03*
X89154Y257302D03*
X89154Y266700D03*
X89154Y276098D03*
X63246Y276098D03*
X63246Y257302D03*
X63246Y266700D03*
D12*
X19050Y38100D03*
X133350Y165100D03*
M02*
