G04 EAGLE Gerber RS-274X export*
G75*
%MOMM*%
%FSLAX34Y34*%
%LPD*%
%INBottom Copper*%
%IPPOS*%
%AMOC8*
5,1,8,0,0,1.08239X$1,22.5*%
G01*
%ADD10C,0.228600*%
%ADD11C,0.800000*%
%ADD12C,0.800000*%

G36*
X83516Y3822D02*
X83516Y3822D01*
X83616Y3824D01*
X83688Y3842D01*
X83762Y3851D01*
X83857Y3884D01*
X83954Y3909D01*
X84020Y3943D01*
X84090Y3968D01*
X84175Y4023D01*
X84264Y4069D01*
X84321Y4117D01*
X84383Y4157D01*
X84453Y4229D01*
X84529Y4294D01*
X84574Y4354D01*
X84625Y4408D01*
X84677Y4494D01*
X84737Y4575D01*
X84766Y4643D01*
X84804Y4707D01*
X84835Y4803D01*
X84875Y4895D01*
X84888Y4968D01*
X84910Y5039D01*
X84918Y5139D01*
X84936Y5238D01*
X84932Y5312D01*
X84938Y5386D01*
X84923Y5486D01*
X84918Y5586D01*
X84898Y5657D01*
X84887Y5731D01*
X84850Y5824D01*
X84822Y5921D01*
X84785Y5986D01*
X84758Y6055D01*
X84701Y6137D01*
X84652Y6225D01*
X84587Y6301D01*
X84559Y6341D01*
X84533Y6365D01*
X84493Y6411D01*
X37307Y53597D01*
X35705Y55472D01*
X35635Y55587D01*
X35600Y55632D01*
X35572Y55682D01*
X35431Y55847D01*
X35420Y55861D01*
X35417Y55864D01*
X35414Y55868D01*
X34024Y57257D01*
X32951Y59848D01*
X32951Y62220D01*
X32946Y62262D01*
X32947Y62340D01*
X32773Y64542D01*
X32773Y114666D01*
X32770Y114692D01*
X32772Y114718D01*
X32750Y114865D01*
X32733Y115012D01*
X32725Y115037D01*
X32721Y115063D01*
X32666Y115201D01*
X32616Y115340D01*
X32602Y115362D01*
X32592Y115387D01*
X32507Y115508D01*
X32427Y115633D01*
X32408Y115651D01*
X32393Y115673D01*
X32283Y115772D01*
X32176Y115875D01*
X32154Y115889D01*
X32134Y115906D01*
X32004Y115978D01*
X31877Y116054D01*
X31852Y116062D01*
X31829Y116075D01*
X31686Y116115D01*
X31545Y116160D01*
X31519Y116162D01*
X31494Y116170D01*
X31250Y116189D01*
X5334Y116189D01*
X5308Y116186D01*
X5282Y116188D01*
X5135Y116166D01*
X4988Y116149D01*
X4963Y116141D01*
X4937Y116137D01*
X4799Y116082D01*
X4660Y116032D01*
X4638Y116018D01*
X4613Y116008D01*
X4492Y115923D01*
X4367Y115843D01*
X4349Y115824D01*
X4327Y115809D01*
X4228Y115699D01*
X4125Y115592D01*
X4111Y115570D01*
X4094Y115550D01*
X4022Y115420D01*
X3946Y115293D01*
X3938Y115268D01*
X3925Y115245D01*
X3885Y115102D01*
X3840Y114961D01*
X3838Y114935D01*
X3830Y114910D01*
X3811Y114666D01*
X3811Y21078D01*
X3812Y21068D01*
X3811Y21058D01*
X3832Y20895D01*
X3851Y20732D01*
X3854Y20722D01*
X3855Y20712D01*
X3913Y20559D01*
X3968Y20404D01*
X3974Y20395D01*
X3977Y20386D01*
X4068Y20249D01*
X4157Y20111D01*
X4164Y20104D01*
X4170Y20096D01*
X4289Y19984D01*
X4408Y19869D01*
X4416Y19864D01*
X4424Y19857D01*
X4565Y19774D01*
X4707Y19690D01*
X4716Y19687D01*
X4725Y19682D01*
X4882Y19634D01*
X5039Y19584D01*
X5049Y19583D01*
X5059Y19580D01*
X5222Y19569D01*
X5386Y19556D01*
X5396Y19557D01*
X5406Y19557D01*
X5568Y19583D01*
X5731Y19607D01*
X5740Y19611D01*
X5750Y19613D01*
X5902Y19675D01*
X6055Y19736D01*
X6063Y19742D01*
X6072Y19746D01*
X6206Y19842D01*
X6341Y19935D01*
X6348Y19943D01*
X6356Y19948D01*
X6523Y20127D01*
X6878Y20570D01*
X6920Y20580D01*
X6958Y20598D01*
X6999Y20610D01*
X7115Y20675D01*
X7233Y20733D01*
X7253Y20749D01*
X8719Y20749D01*
X8769Y20754D01*
X8888Y20758D01*
X10348Y20920D01*
X10384Y20897D01*
X10424Y20884D01*
X10461Y20863D01*
X10589Y20827D01*
X10714Y20784D01*
X10739Y20782D01*
X11776Y19745D01*
X11816Y19713D01*
X11902Y19632D01*
X15903Y16431D01*
X16312Y12746D01*
X16308Y12732D01*
X16295Y12574D01*
X16279Y12417D01*
X16281Y12401D01*
X16280Y12384D01*
X16303Y12228D01*
X16324Y12071D01*
X16329Y12056D01*
X16332Y12040D01*
X16390Y11893D01*
X16445Y11745D01*
X16454Y11731D01*
X16460Y11716D01*
X16550Y11586D01*
X16638Y11454D01*
X16650Y11443D01*
X16659Y11430D01*
X16776Y11324D01*
X16892Y11215D01*
X16906Y11207D01*
X16918Y11196D01*
X17057Y11120D01*
X17193Y11040D01*
X17209Y11036D01*
X17223Y11028D01*
X17376Y10985D01*
X17526Y10938D01*
X17543Y10937D01*
X17559Y10933D01*
X17802Y10913D01*
X19323Y10913D01*
X19349Y10916D01*
X19375Y10914D01*
X19522Y10936D01*
X19669Y10953D01*
X19694Y10962D01*
X19720Y10966D01*
X19857Y11021D01*
X19997Y11071D01*
X20019Y11085D01*
X20043Y11095D01*
X20165Y11179D01*
X20290Y11260D01*
X20308Y11279D01*
X20330Y11294D01*
X20429Y11403D01*
X20532Y11510D01*
X20546Y11533D01*
X20563Y11552D01*
X20635Y11682D01*
X20711Y11809D01*
X20719Y11834D01*
X20732Y11857D01*
X20772Y12000D01*
X20817Y12141D01*
X20819Y12167D01*
X20826Y12193D01*
X20846Y12437D01*
X20846Y16241D01*
X20840Y16290D01*
X20837Y16409D01*
X20674Y17869D01*
X20697Y17905D01*
X20711Y17945D01*
X20732Y17983D01*
X20768Y18110D01*
X20811Y18235D01*
X20813Y18260D01*
X21850Y19297D01*
X21881Y19337D01*
X21962Y19423D01*
X22880Y20570D01*
X22922Y20580D01*
X22960Y20598D01*
X23001Y20610D01*
X23116Y20675D01*
X23235Y20733D01*
X23255Y20749D01*
X24721Y20749D01*
X24771Y20754D01*
X24889Y20758D01*
X26350Y20920D01*
X26386Y20897D01*
X26426Y20884D01*
X26463Y20863D01*
X26591Y20827D01*
X26716Y20784D01*
X26741Y20782D01*
X27701Y19822D01*
X27777Y19762D01*
X27846Y19694D01*
X27912Y19654D01*
X27974Y19605D01*
X28061Y19564D01*
X28144Y19514D01*
X28218Y19490D01*
X28289Y19456D01*
X28383Y19436D01*
X28475Y19406D01*
X28553Y19400D01*
X28630Y19383D01*
X28726Y19385D01*
X28822Y19376D01*
X28900Y19388D01*
X28978Y19389D01*
X29072Y19413D01*
X29167Y19426D01*
X29240Y19455D01*
X29316Y19474D01*
X29402Y19518D01*
X29492Y19554D01*
X29556Y19598D01*
X29626Y19634D01*
X29699Y19696D01*
X29779Y19751D01*
X29832Y19809D01*
X29891Y19860D01*
X29949Y19937D01*
X29978Y19969D01*
X33318Y21083D01*
X35786Y19848D01*
X35843Y19828D01*
X35896Y19799D01*
X36006Y19768D01*
X36114Y19729D01*
X36173Y19722D01*
X36232Y19706D01*
X36346Y19701D01*
X36460Y19688D01*
X36520Y19694D01*
X36580Y19692D01*
X36692Y19713D01*
X36806Y19726D01*
X36863Y19746D01*
X36922Y19757D01*
X37111Y19833D01*
X37135Y19842D01*
X37140Y19845D01*
X37149Y19848D01*
X39617Y21083D01*
X42912Y19985D01*
X44465Y16879D01*
X41047Y6625D01*
X41043Y6607D01*
X41035Y6590D01*
X41007Y6437D01*
X40975Y6284D01*
X40975Y6265D01*
X40972Y6247D01*
X40979Y6092D01*
X40983Y5935D01*
X40987Y5917D01*
X40988Y5899D01*
X41012Y5801D01*
X40971Y5688D01*
X40968Y5658D01*
X40958Y5629D01*
X40947Y5485D01*
X40929Y5342D01*
X40933Y5312D01*
X40930Y5282D01*
X40952Y5139D01*
X40968Y4995D01*
X40978Y4967D01*
X40982Y4937D01*
X41035Y4803D01*
X41083Y4667D01*
X41100Y4641D01*
X41111Y4613D01*
X41193Y4495D01*
X41271Y4373D01*
X41293Y4352D01*
X41310Y4327D01*
X41417Y4231D01*
X41520Y4129D01*
X41546Y4114D01*
X41568Y4094D01*
X41695Y4024D01*
X41818Y3949D01*
X41847Y3940D01*
X41874Y3925D01*
X42013Y3886D01*
X42150Y3841D01*
X42180Y3839D01*
X42209Y3830D01*
X42453Y3811D01*
X83416Y3811D01*
X83516Y3822D01*
G37*
D10*
X148650Y112042D02*
X148445Y112040D01*
X148240Y112032D01*
X148036Y112020D01*
X147832Y112003D01*
X147628Y111981D01*
X147425Y111954D01*
X147223Y111922D01*
X147021Y111886D01*
X146820Y111845D01*
X146621Y111799D01*
X146422Y111748D01*
X146225Y111692D01*
X146029Y111632D01*
X145835Y111567D01*
X145642Y111498D01*
X145451Y111424D01*
X145262Y111345D01*
X145075Y111262D01*
X144889Y111174D01*
X144890Y111174D02*
X144804Y111143D01*
X144719Y111108D01*
X144636Y111069D01*
X144555Y111026D01*
X144476Y110981D01*
X144398Y110932D01*
X144323Y110879D01*
X144250Y110824D01*
X144180Y110765D01*
X144112Y110704D01*
X144047Y110639D01*
X143985Y110572D01*
X143925Y110503D01*
X143869Y110430D01*
X143816Y110356D01*
X143766Y110279D01*
X143719Y110200D01*
X143676Y110120D01*
X143636Y110037D01*
X143600Y109953D01*
X143567Y109867D01*
X143538Y109781D01*
X143513Y109692D01*
X143492Y109603D01*
X143474Y109514D01*
X143461Y109423D01*
X143451Y109332D01*
X143445Y109241D01*
X143443Y109149D01*
X143445Y109057D01*
X143451Y108966D01*
X143461Y108875D01*
X143474Y108784D01*
X143492Y108695D01*
X143513Y108606D01*
X143538Y108517D01*
X143567Y108431D01*
X143600Y108345D01*
X143636Y108261D01*
X143676Y108178D01*
X143719Y108098D01*
X143766Y108019D01*
X143816Y107942D01*
X143869Y107868D01*
X143925Y107795D01*
X143985Y107726D01*
X144047Y107659D01*
X144112Y107594D01*
X144180Y107533D01*
X144250Y107474D01*
X144323Y107419D01*
X144398Y107366D01*
X144476Y107317D01*
X144555Y107272D01*
X144636Y107229D01*
X144719Y107190D01*
X144804Y107155D01*
X144890Y107124D01*
X144889Y107124D02*
X145075Y107036D01*
X145262Y106953D01*
X145451Y106874D01*
X145642Y106800D01*
X145835Y106731D01*
X146029Y106666D01*
X146225Y106606D01*
X146422Y106550D01*
X146621Y106499D01*
X146820Y106453D01*
X147021Y106412D01*
X147223Y106376D01*
X147425Y106344D01*
X147628Y106317D01*
X147832Y106295D01*
X148036Y106278D01*
X148240Y106266D01*
X148445Y106258D01*
X148650Y106256D01*
X148650Y112042D02*
X148855Y112040D01*
X149060Y112032D01*
X149264Y112020D01*
X149468Y112003D01*
X149672Y111981D01*
X149875Y111954D01*
X150077Y111922D01*
X150279Y111886D01*
X150480Y111845D01*
X150679Y111799D01*
X150878Y111748D01*
X151075Y111692D01*
X151271Y111632D01*
X151465Y111567D01*
X151658Y111498D01*
X151849Y111424D01*
X152038Y111345D01*
X152225Y111262D01*
X152411Y111174D01*
X152410Y111174D02*
X152496Y111143D01*
X152581Y111108D01*
X152664Y111069D01*
X152745Y111026D01*
X152824Y110981D01*
X152902Y110932D01*
X152977Y110879D01*
X153050Y110824D01*
X153120Y110765D01*
X153188Y110704D01*
X153253Y110639D01*
X153315Y110572D01*
X153375Y110503D01*
X153431Y110430D01*
X153484Y110356D01*
X153534Y110279D01*
X153581Y110200D01*
X153624Y110120D01*
X153664Y110037D01*
X153700Y109953D01*
X153733Y109867D01*
X153762Y109781D01*
X153787Y109692D01*
X153808Y109603D01*
X153826Y109514D01*
X153839Y109423D01*
X153849Y109332D01*
X153855Y109241D01*
X153857Y109149D01*
X152411Y107124D02*
X152225Y107036D01*
X152038Y106953D01*
X151849Y106874D01*
X151658Y106800D01*
X151465Y106731D01*
X151271Y106666D01*
X151075Y106606D01*
X150878Y106550D01*
X150679Y106499D01*
X150480Y106453D01*
X150279Y106412D01*
X150077Y106376D01*
X149875Y106344D01*
X149672Y106317D01*
X149468Y106295D01*
X149264Y106278D01*
X149060Y106266D01*
X148855Y106258D01*
X148650Y106256D01*
X152410Y107124D02*
X152496Y107155D01*
X152581Y107190D01*
X152664Y107229D01*
X152745Y107272D01*
X152824Y107317D01*
X152902Y107366D01*
X152977Y107419D01*
X153050Y107474D01*
X153120Y107533D01*
X153188Y107594D01*
X153253Y107659D01*
X153315Y107726D01*
X153375Y107795D01*
X153431Y107868D01*
X153484Y107942D01*
X153534Y108019D01*
X153581Y108098D01*
X153624Y108178D01*
X153664Y108261D01*
X153700Y108345D01*
X153733Y108431D01*
X153762Y108517D01*
X153787Y108606D01*
X153808Y108695D01*
X153826Y108784D01*
X153839Y108875D01*
X153849Y108966D01*
X153855Y109057D01*
X153857Y109149D01*
X151543Y111463D02*
X145757Y106835D01*
X148071Y100612D02*
X148071Y97140D01*
X148072Y97140D02*
X148074Y97047D01*
X148080Y96954D01*
X148089Y96861D01*
X148102Y96769D01*
X148119Y96677D01*
X148139Y96586D01*
X148163Y96496D01*
X148191Y96407D01*
X148222Y96319D01*
X148257Y96233D01*
X148295Y96148D01*
X148337Y96065D01*
X148382Y95983D01*
X148430Y95903D01*
X148482Y95825D01*
X148536Y95750D01*
X148594Y95677D01*
X148654Y95606D01*
X148717Y95537D01*
X148783Y95471D01*
X148852Y95408D01*
X148923Y95348D01*
X148996Y95290D01*
X149071Y95236D01*
X149149Y95184D01*
X149229Y95136D01*
X149311Y95091D01*
X149394Y95049D01*
X149479Y95011D01*
X149565Y94976D01*
X149653Y94945D01*
X149742Y94917D01*
X149832Y94893D01*
X149923Y94873D01*
X150015Y94856D01*
X150107Y94843D01*
X150200Y94834D01*
X150293Y94828D01*
X150386Y94826D01*
X150964Y94826D01*
X151071Y94828D01*
X151178Y94834D01*
X151284Y94844D01*
X151390Y94858D01*
X151496Y94875D01*
X151600Y94897D01*
X151704Y94922D01*
X151807Y94952D01*
X151909Y94985D01*
X152009Y95021D01*
X152108Y95062D01*
X152205Y95106D01*
X152301Y95154D01*
X152395Y95205D01*
X152487Y95259D01*
X152577Y95317D01*
X152664Y95379D01*
X152750Y95443D01*
X152833Y95510D01*
X152913Y95581D01*
X152991Y95655D01*
X153066Y95731D01*
X153138Y95810D01*
X153207Y95891D01*
X153273Y95976D01*
X153336Y96062D01*
X153395Y96151D01*
X153451Y96242D01*
X153504Y96335D01*
X153554Y96429D01*
X153600Y96526D01*
X153642Y96624D01*
X153680Y96724D01*
X153715Y96825D01*
X153747Y96927D01*
X153774Y97031D01*
X153797Y97135D01*
X153817Y97240D01*
X153833Y97346D01*
X153845Y97452D01*
X153853Y97559D01*
X153857Y97666D01*
X153857Y97772D01*
X153853Y97879D01*
X153845Y97986D01*
X153833Y98092D01*
X153817Y98198D01*
X153797Y98303D01*
X153774Y98407D01*
X153747Y98511D01*
X153715Y98613D01*
X153680Y98714D01*
X153642Y98814D01*
X153600Y98912D01*
X153554Y99009D01*
X153504Y99103D01*
X153451Y99196D01*
X153395Y99287D01*
X153336Y99376D01*
X153273Y99462D01*
X153207Y99547D01*
X153138Y99628D01*
X153066Y99707D01*
X152991Y99783D01*
X152913Y99857D01*
X152833Y99928D01*
X152750Y99995D01*
X152664Y100059D01*
X152577Y100121D01*
X152487Y100179D01*
X152395Y100233D01*
X152301Y100284D01*
X152205Y100332D01*
X152108Y100376D01*
X152009Y100417D01*
X151909Y100453D01*
X151807Y100486D01*
X151704Y100516D01*
X151600Y100541D01*
X151496Y100563D01*
X151390Y100580D01*
X151284Y100594D01*
X151178Y100604D01*
X151071Y100610D01*
X150964Y100612D01*
X148071Y100612D01*
X147936Y100610D01*
X147802Y100604D01*
X147668Y100594D01*
X147534Y100581D01*
X147400Y100563D01*
X147267Y100542D01*
X147135Y100516D01*
X147003Y100487D01*
X146873Y100454D01*
X146743Y100418D01*
X146615Y100377D01*
X146488Y100333D01*
X146362Y100285D01*
X146238Y100233D01*
X146115Y100178D01*
X145994Y100120D01*
X145874Y100057D01*
X145757Y99992D01*
X145641Y99923D01*
X145527Y99850D01*
X145416Y99775D01*
X145307Y99696D01*
X145200Y99614D01*
X145096Y99529D01*
X144994Y99441D01*
X144894Y99350D01*
X144798Y99256D01*
X144704Y99160D01*
X144613Y99060D01*
X144525Y98958D01*
X144440Y98854D01*
X144358Y98747D01*
X144279Y98638D01*
X144204Y98527D01*
X144131Y98413D01*
X144062Y98298D01*
X143997Y98180D01*
X143934Y98061D01*
X143876Y97939D01*
X143821Y97816D01*
X143769Y97692D01*
X143721Y97566D01*
X143677Y97439D01*
X143636Y97311D01*
X143600Y97181D01*
X143567Y97051D01*
X143538Y96919D01*
X143512Y96787D01*
X143491Y96654D01*
X143473Y96520D01*
X143460Y96387D01*
X143450Y96252D01*
X143444Y96118D01*
X143442Y95983D01*
X142286Y85118D02*
X155014Y89746D01*
X148650Y80038D02*
X148445Y80036D01*
X148240Y80028D01*
X148036Y80016D01*
X147832Y79999D01*
X147628Y79977D01*
X147425Y79950D01*
X147223Y79918D01*
X147021Y79882D01*
X146820Y79841D01*
X146621Y79795D01*
X146422Y79744D01*
X146225Y79688D01*
X146029Y79628D01*
X145835Y79563D01*
X145642Y79494D01*
X145451Y79420D01*
X145262Y79341D01*
X145075Y79258D01*
X144889Y79170D01*
X144890Y79170D02*
X144804Y79139D01*
X144719Y79104D01*
X144636Y79065D01*
X144555Y79022D01*
X144476Y78977D01*
X144398Y78928D01*
X144323Y78875D01*
X144250Y78820D01*
X144180Y78761D01*
X144112Y78700D01*
X144047Y78635D01*
X143985Y78568D01*
X143925Y78499D01*
X143869Y78426D01*
X143816Y78352D01*
X143766Y78275D01*
X143719Y78196D01*
X143676Y78116D01*
X143636Y78033D01*
X143600Y77949D01*
X143567Y77863D01*
X143538Y77777D01*
X143513Y77688D01*
X143492Y77599D01*
X143474Y77510D01*
X143461Y77419D01*
X143451Y77328D01*
X143445Y77237D01*
X143443Y77145D01*
X143445Y77053D01*
X143451Y76962D01*
X143461Y76871D01*
X143474Y76780D01*
X143492Y76691D01*
X143513Y76602D01*
X143538Y76513D01*
X143567Y76427D01*
X143600Y76341D01*
X143636Y76257D01*
X143676Y76174D01*
X143719Y76094D01*
X143766Y76015D01*
X143816Y75938D01*
X143869Y75864D01*
X143925Y75791D01*
X143985Y75722D01*
X144047Y75655D01*
X144112Y75590D01*
X144180Y75529D01*
X144250Y75470D01*
X144323Y75415D01*
X144398Y75362D01*
X144476Y75313D01*
X144555Y75268D01*
X144636Y75225D01*
X144719Y75186D01*
X144804Y75151D01*
X144890Y75120D01*
X144889Y75120D02*
X145075Y75032D01*
X145262Y74949D01*
X145451Y74870D01*
X145642Y74796D01*
X145835Y74727D01*
X146029Y74662D01*
X146225Y74602D01*
X146422Y74546D01*
X146621Y74495D01*
X146820Y74449D01*
X147021Y74408D01*
X147223Y74372D01*
X147425Y74340D01*
X147628Y74313D01*
X147832Y74291D01*
X148036Y74274D01*
X148240Y74262D01*
X148445Y74254D01*
X148650Y74252D01*
X148650Y80038D02*
X148855Y80036D01*
X149060Y80028D01*
X149264Y80016D01*
X149468Y79999D01*
X149672Y79977D01*
X149875Y79950D01*
X150077Y79918D01*
X150279Y79882D01*
X150480Y79841D01*
X150679Y79795D01*
X150878Y79744D01*
X151075Y79688D01*
X151271Y79628D01*
X151465Y79563D01*
X151658Y79494D01*
X151849Y79420D01*
X152038Y79341D01*
X152225Y79258D01*
X152411Y79170D01*
X152410Y79170D02*
X152496Y79139D01*
X152581Y79104D01*
X152664Y79065D01*
X152745Y79022D01*
X152824Y78977D01*
X152902Y78928D01*
X152977Y78875D01*
X153050Y78820D01*
X153120Y78761D01*
X153188Y78700D01*
X153253Y78635D01*
X153315Y78568D01*
X153375Y78499D01*
X153431Y78426D01*
X153484Y78352D01*
X153534Y78275D01*
X153581Y78196D01*
X153624Y78116D01*
X153664Y78033D01*
X153700Y77949D01*
X153733Y77863D01*
X153762Y77777D01*
X153787Y77688D01*
X153808Y77599D01*
X153826Y77510D01*
X153839Y77419D01*
X153849Y77328D01*
X153855Y77237D01*
X153857Y77145D01*
X152411Y75120D02*
X152225Y75032D01*
X152038Y74949D01*
X151849Y74870D01*
X151658Y74796D01*
X151465Y74727D01*
X151271Y74662D01*
X151075Y74602D01*
X150878Y74546D01*
X150679Y74495D01*
X150480Y74449D01*
X150279Y74408D01*
X150077Y74372D01*
X149875Y74340D01*
X149672Y74313D01*
X149468Y74291D01*
X149264Y74274D01*
X149060Y74262D01*
X148855Y74254D01*
X148650Y74252D01*
X152410Y75120D02*
X152496Y75151D01*
X152581Y75186D01*
X152664Y75225D01*
X152745Y75268D01*
X152824Y75313D01*
X152902Y75362D01*
X152977Y75415D01*
X153050Y75470D01*
X153120Y75529D01*
X153188Y75590D01*
X153253Y75655D01*
X153315Y75722D01*
X153375Y75791D01*
X153431Y75864D01*
X153484Y75938D01*
X153534Y76015D01*
X153581Y76094D01*
X153624Y76174D01*
X153664Y76257D01*
X153700Y76341D01*
X153733Y76427D01*
X153762Y76513D01*
X153787Y76602D01*
X153808Y76691D01*
X153826Y76780D01*
X153839Y76871D01*
X153849Y76962D01*
X153855Y77053D01*
X153857Y77145D01*
X151543Y79459D02*
X145757Y74831D01*
X153857Y68608D02*
X153857Y65136D01*
X153855Y65040D01*
X153849Y64945D01*
X153839Y64850D01*
X153825Y64755D01*
X153808Y64661D01*
X153786Y64568D01*
X153761Y64476D01*
X153732Y64385D01*
X153699Y64295D01*
X153662Y64206D01*
X153622Y64120D01*
X153578Y64035D01*
X153531Y63952D01*
X153480Y63870D01*
X153426Y63791D01*
X153369Y63715D01*
X153309Y63640D01*
X153245Y63569D01*
X153179Y63500D01*
X153110Y63434D01*
X153039Y63370D01*
X152964Y63310D01*
X152888Y63253D01*
X152809Y63199D01*
X152728Y63148D01*
X152644Y63101D01*
X152559Y63057D01*
X152473Y63017D01*
X152384Y62980D01*
X152294Y62947D01*
X152203Y62918D01*
X152111Y62893D01*
X152018Y62871D01*
X151924Y62854D01*
X151829Y62840D01*
X151734Y62830D01*
X151639Y62824D01*
X151543Y62822D01*
X150386Y62822D01*
X150293Y62824D01*
X150200Y62830D01*
X150107Y62839D01*
X150015Y62852D01*
X149923Y62869D01*
X149832Y62889D01*
X149742Y62913D01*
X149653Y62941D01*
X149565Y62972D01*
X149479Y63007D01*
X149394Y63045D01*
X149311Y63087D01*
X149229Y63132D01*
X149149Y63180D01*
X149071Y63232D01*
X148996Y63286D01*
X148923Y63344D01*
X148852Y63404D01*
X148783Y63467D01*
X148717Y63533D01*
X148654Y63602D01*
X148594Y63673D01*
X148536Y63746D01*
X148482Y63821D01*
X148430Y63899D01*
X148382Y63979D01*
X148337Y64061D01*
X148295Y64144D01*
X148257Y64229D01*
X148222Y64315D01*
X148191Y64403D01*
X148163Y64492D01*
X148139Y64582D01*
X148119Y64673D01*
X148102Y64765D01*
X148089Y64857D01*
X148080Y64950D01*
X148074Y65043D01*
X148072Y65136D01*
X148071Y65136D02*
X148071Y68608D01*
X143443Y68608D01*
X143443Y62822D01*
X142286Y53114D02*
X155014Y57742D01*
X143443Y44852D02*
X143445Y44752D01*
X143451Y44653D01*
X143460Y44553D01*
X143474Y44455D01*
X143491Y44356D01*
X143511Y44259D01*
X143536Y44162D01*
X143564Y44066D01*
X143596Y43972D01*
X143632Y43879D01*
X143671Y43787D01*
X143713Y43697D01*
X143759Y43608D01*
X143809Y43521D01*
X143861Y43437D01*
X143917Y43354D01*
X143976Y43273D01*
X144038Y43195D01*
X144103Y43119D01*
X144171Y43046D01*
X144241Y42976D01*
X144314Y42908D01*
X144390Y42843D01*
X144468Y42781D01*
X144549Y42722D01*
X144632Y42666D01*
X144716Y42614D01*
X144803Y42564D01*
X144892Y42518D01*
X144982Y42476D01*
X145074Y42437D01*
X145167Y42401D01*
X145261Y42369D01*
X145357Y42341D01*
X145454Y42316D01*
X145551Y42296D01*
X145650Y42279D01*
X145748Y42265D01*
X145848Y42256D01*
X145947Y42250D01*
X146047Y42248D01*
X143443Y44852D02*
X143445Y44966D01*
X143451Y45079D01*
X143460Y45192D01*
X143474Y45305D01*
X143491Y45418D01*
X143512Y45529D01*
X143537Y45640D01*
X143566Y45750D01*
X143598Y45859D01*
X143634Y45967D01*
X143674Y46074D01*
X143717Y46179D01*
X143764Y46282D01*
X143815Y46384D01*
X143868Y46484D01*
X143926Y46583D01*
X143986Y46679D01*
X144050Y46773D01*
X144117Y46865D01*
X144187Y46955D01*
X144260Y47042D01*
X144335Y47127D01*
X144414Y47209D01*
X144496Y47288D01*
X144580Y47364D01*
X144666Y47438D01*
X144755Y47509D01*
X144847Y47576D01*
X144941Y47641D01*
X145036Y47702D01*
X145134Y47760D01*
X145234Y47814D01*
X145336Y47865D01*
X145439Y47913D01*
X145544Y47957D01*
X145650Y47997D01*
X145757Y48034D01*
X148072Y43117D02*
X147999Y43043D01*
X147924Y42973D01*
X147847Y42905D01*
X147767Y42841D01*
X147685Y42779D01*
X147600Y42720D01*
X147513Y42664D01*
X147425Y42612D01*
X147334Y42563D01*
X147242Y42517D01*
X147148Y42475D01*
X147053Y42436D01*
X146956Y42401D01*
X146858Y42369D01*
X146759Y42341D01*
X146659Y42317D01*
X146559Y42296D01*
X146457Y42279D01*
X146355Y42266D01*
X146253Y42257D01*
X146150Y42251D01*
X146047Y42249D01*
X148071Y43116D02*
X153857Y48034D01*
X153857Y42248D01*
X148650Y36604D02*
X148445Y36602D01*
X148240Y36594D01*
X148036Y36582D01*
X147832Y36565D01*
X147628Y36543D01*
X147425Y36516D01*
X147223Y36484D01*
X147021Y36448D01*
X146820Y36407D01*
X146621Y36361D01*
X146422Y36310D01*
X146225Y36254D01*
X146029Y36194D01*
X145835Y36129D01*
X145642Y36060D01*
X145451Y35986D01*
X145262Y35907D01*
X145075Y35824D01*
X144889Y35736D01*
X144890Y35736D02*
X144804Y35705D01*
X144719Y35670D01*
X144636Y35631D01*
X144555Y35588D01*
X144476Y35543D01*
X144398Y35494D01*
X144323Y35441D01*
X144250Y35386D01*
X144180Y35327D01*
X144112Y35266D01*
X144047Y35201D01*
X143985Y35134D01*
X143925Y35065D01*
X143869Y34992D01*
X143816Y34918D01*
X143766Y34841D01*
X143719Y34762D01*
X143676Y34682D01*
X143636Y34599D01*
X143600Y34515D01*
X143567Y34429D01*
X143538Y34343D01*
X143513Y34254D01*
X143492Y34165D01*
X143474Y34076D01*
X143461Y33985D01*
X143451Y33894D01*
X143445Y33803D01*
X143443Y33711D01*
X143445Y33619D01*
X143451Y33528D01*
X143461Y33437D01*
X143474Y33346D01*
X143492Y33257D01*
X143513Y33168D01*
X143538Y33079D01*
X143567Y32993D01*
X143600Y32907D01*
X143636Y32823D01*
X143676Y32740D01*
X143719Y32660D01*
X143766Y32581D01*
X143816Y32504D01*
X143869Y32430D01*
X143925Y32357D01*
X143985Y32288D01*
X144047Y32221D01*
X144112Y32156D01*
X144180Y32095D01*
X144250Y32036D01*
X144323Y31981D01*
X144398Y31928D01*
X144476Y31879D01*
X144555Y31834D01*
X144636Y31791D01*
X144719Y31752D01*
X144804Y31717D01*
X144890Y31686D01*
X144889Y31686D02*
X145075Y31598D01*
X145262Y31515D01*
X145451Y31436D01*
X145642Y31362D01*
X145835Y31293D01*
X146029Y31228D01*
X146225Y31168D01*
X146422Y31112D01*
X146621Y31061D01*
X146820Y31015D01*
X147021Y30974D01*
X147223Y30938D01*
X147425Y30906D01*
X147628Y30879D01*
X147832Y30857D01*
X148036Y30840D01*
X148240Y30828D01*
X148445Y30820D01*
X148650Y30818D01*
X148650Y36604D02*
X148855Y36602D01*
X149060Y36594D01*
X149264Y36582D01*
X149468Y36565D01*
X149672Y36543D01*
X149875Y36516D01*
X150077Y36484D01*
X150279Y36448D01*
X150480Y36407D01*
X150679Y36361D01*
X150878Y36310D01*
X151075Y36254D01*
X151271Y36194D01*
X151465Y36129D01*
X151658Y36060D01*
X151849Y35986D01*
X152038Y35907D01*
X152225Y35824D01*
X152411Y35736D01*
X152410Y35736D02*
X152496Y35705D01*
X152581Y35670D01*
X152664Y35631D01*
X152745Y35588D01*
X152824Y35543D01*
X152902Y35494D01*
X152977Y35441D01*
X153050Y35386D01*
X153120Y35327D01*
X153188Y35266D01*
X153253Y35201D01*
X153315Y35134D01*
X153375Y35065D01*
X153431Y34992D01*
X153484Y34918D01*
X153534Y34841D01*
X153581Y34762D01*
X153624Y34682D01*
X153664Y34599D01*
X153700Y34515D01*
X153733Y34429D01*
X153762Y34343D01*
X153787Y34254D01*
X153808Y34165D01*
X153826Y34076D01*
X153839Y33985D01*
X153849Y33894D01*
X153855Y33803D01*
X153857Y33711D01*
X152411Y31686D02*
X152225Y31598D01*
X152038Y31515D01*
X151849Y31436D01*
X151658Y31362D01*
X151465Y31293D01*
X151271Y31228D01*
X151075Y31168D01*
X150878Y31112D01*
X150679Y31061D01*
X150480Y31015D01*
X150279Y30974D01*
X150077Y30938D01*
X149875Y30906D01*
X149672Y30879D01*
X149468Y30857D01*
X149264Y30840D01*
X149060Y30828D01*
X148855Y30820D01*
X148650Y30818D01*
X152410Y31686D02*
X152496Y31717D01*
X152581Y31752D01*
X152664Y31791D01*
X152745Y31834D01*
X152824Y31879D01*
X152902Y31928D01*
X152977Y31981D01*
X153050Y32036D01*
X153120Y32095D01*
X153188Y32156D01*
X153253Y32221D01*
X153315Y32288D01*
X153375Y32357D01*
X153431Y32430D01*
X153484Y32504D01*
X153534Y32581D01*
X153581Y32660D01*
X153624Y32740D01*
X153664Y32823D01*
X153700Y32907D01*
X153733Y32993D01*
X153762Y33079D01*
X153787Y33168D01*
X153808Y33257D01*
X153826Y33346D01*
X153839Y33437D01*
X153849Y33528D01*
X153855Y33619D01*
X153857Y33711D01*
X151543Y36025D02*
X145757Y31397D01*
X143443Y21992D02*
X143445Y21892D01*
X143451Y21793D01*
X143460Y21693D01*
X143474Y21595D01*
X143491Y21496D01*
X143511Y21399D01*
X143536Y21302D01*
X143564Y21206D01*
X143596Y21112D01*
X143632Y21019D01*
X143671Y20927D01*
X143713Y20837D01*
X143759Y20748D01*
X143809Y20661D01*
X143861Y20577D01*
X143917Y20494D01*
X143976Y20413D01*
X144038Y20335D01*
X144103Y20259D01*
X144171Y20186D01*
X144241Y20116D01*
X144314Y20048D01*
X144390Y19983D01*
X144468Y19921D01*
X144549Y19862D01*
X144632Y19806D01*
X144716Y19754D01*
X144803Y19704D01*
X144892Y19658D01*
X144982Y19616D01*
X145074Y19577D01*
X145167Y19541D01*
X145261Y19509D01*
X145357Y19481D01*
X145454Y19456D01*
X145551Y19436D01*
X145650Y19419D01*
X145748Y19405D01*
X145848Y19396D01*
X145947Y19390D01*
X146047Y19388D01*
X143443Y21992D02*
X143445Y22106D01*
X143451Y22219D01*
X143460Y22332D01*
X143474Y22445D01*
X143491Y22558D01*
X143512Y22669D01*
X143537Y22780D01*
X143566Y22890D01*
X143598Y22999D01*
X143634Y23107D01*
X143674Y23214D01*
X143717Y23319D01*
X143764Y23422D01*
X143815Y23524D01*
X143868Y23624D01*
X143926Y23723D01*
X143986Y23819D01*
X144050Y23913D01*
X144117Y24005D01*
X144187Y24095D01*
X144260Y24182D01*
X144335Y24267D01*
X144414Y24349D01*
X144496Y24428D01*
X144580Y24504D01*
X144666Y24578D01*
X144755Y24649D01*
X144847Y24716D01*
X144941Y24781D01*
X145036Y24842D01*
X145134Y24900D01*
X145234Y24954D01*
X145336Y25005D01*
X145439Y25053D01*
X145544Y25097D01*
X145650Y25137D01*
X145757Y25174D01*
X148072Y20257D02*
X147999Y20183D01*
X147924Y20113D01*
X147847Y20045D01*
X147767Y19981D01*
X147685Y19919D01*
X147600Y19860D01*
X147513Y19804D01*
X147425Y19752D01*
X147334Y19703D01*
X147242Y19657D01*
X147148Y19615D01*
X147053Y19576D01*
X146956Y19541D01*
X146858Y19509D01*
X146759Y19481D01*
X146659Y19457D01*
X146559Y19436D01*
X146457Y19419D01*
X146355Y19406D01*
X146253Y19397D01*
X146150Y19391D01*
X146047Y19389D01*
X148071Y20256D02*
X153857Y25174D01*
X153857Y19388D01*
X153857Y13744D02*
X153857Y10851D01*
X153855Y10744D01*
X153849Y10637D01*
X153839Y10531D01*
X153825Y10425D01*
X153808Y10319D01*
X153786Y10215D01*
X153761Y10111D01*
X153731Y10008D01*
X153698Y9906D01*
X153662Y9806D01*
X153621Y9707D01*
X153577Y9610D01*
X153529Y9514D01*
X153478Y9420D01*
X153424Y9328D01*
X153366Y9238D01*
X153304Y9151D01*
X153240Y9065D01*
X153173Y8982D01*
X153102Y8902D01*
X153028Y8824D01*
X152952Y8749D01*
X152873Y8677D01*
X152792Y8608D01*
X152707Y8542D01*
X152621Y8479D01*
X152532Y8420D01*
X152441Y8364D01*
X152348Y8311D01*
X152254Y8261D01*
X152157Y8215D01*
X152059Y8173D01*
X151959Y8135D01*
X151858Y8100D01*
X151756Y8068D01*
X151652Y8041D01*
X151548Y8018D01*
X151443Y7998D01*
X151337Y7982D01*
X151231Y7970D01*
X151124Y7962D01*
X151017Y7958D01*
X150911Y7958D01*
X150804Y7962D01*
X150697Y7970D01*
X150591Y7982D01*
X150485Y7998D01*
X150380Y8018D01*
X150276Y8041D01*
X150172Y8068D01*
X150070Y8100D01*
X149969Y8135D01*
X149869Y8173D01*
X149771Y8215D01*
X149674Y8261D01*
X149580Y8311D01*
X149487Y8364D01*
X149396Y8420D01*
X149307Y8479D01*
X149221Y8542D01*
X149136Y8608D01*
X149055Y8677D01*
X148976Y8749D01*
X148900Y8824D01*
X148826Y8902D01*
X148755Y8982D01*
X148688Y9065D01*
X148624Y9151D01*
X148562Y9238D01*
X148504Y9328D01*
X148450Y9420D01*
X148399Y9514D01*
X148351Y9610D01*
X148307Y9707D01*
X148266Y9806D01*
X148230Y9906D01*
X148197Y10008D01*
X148167Y10111D01*
X148142Y10215D01*
X148120Y10319D01*
X148103Y10425D01*
X148089Y10531D01*
X148079Y10637D01*
X148073Y10744D01*
X148071Y10851D01*
X143443Y10273D02*
X143443Y13744D01*
X143443Y10273D02*
X143445Y10179D01*
X143451Y10084D01*
X143460Y9990D01*
X143474Y9897D01*
X143491Y9804D01*
X143512Y9712D01*
X143537Y9621D01*
X143565Y9531D01*
X143597Y9442D01*
X143633Y9355D01*
X143672Y9269D01*
X143715Y9185D01*
X143761Y9102D01*
X143810Y9022D01*
X143863Y8944D01*
X143919Y8867D01*
X143978Y8794D01*
X144039Y8722D01*
X144104Y8654D01*
X144172Y8587D01*
X144242Y8524D01*
X144314Y8464D01*
X144389Y8406D01*
X144467Y8352D01*
X144546Y8301D01*
X144627Y8253D01*
X144711Y8209D01*
X144796Y8168D01*
X144882Y8131D01*
X144970Y8097D01*
X145060Y8066D01*
X145150Y8040D01*
X145242Y8017D01*
X145335Y7998D01*
X145428Y7983D01*
X145521Y7971D01*
X145615Y7963D01*
X145710Y7959D01*
X145804Y7959D01*
X145899Y7963D01*
X145993Y7971D01*
X146086Y7983D01*
X146179Y7998D01*
X146272Y8017D01*
X146364Y8040D01*
X146454Y8066D01*
X146544Y8097D01*
X146632Y8131D01*
X146718Y8168D01*
X146803Y8209D01*
X146887Y8253D01*
X146968Y8301D01*
X147047Y8352D01*
X147125Y8406D01*
X147200Y8464D01*
X147272Y8524D01*
X147342Y8587D01*
X147410Y8654D01*
X147475Y8722D01*
X147536Y8794D01*
X147595Y8867D01*
X147651Y8944D01*
X147704Y9022D01*
X147753Y9102D01*
X147799Y9185D01*
X147842Y9269D01*
X147881Y9355D01*
X147917Y9442D01*
X147949Y9531D01*
X147977Y9621D01*
X148002Y9712D01*
X148023Y9804D01*
X148040Y9897D01*
X148054Y9990D01*
X148063Y10084D01*
X148069Y10179D01*
X148071Y10273D01*
X148071Y12587D01*
X39939Y16557D02*
X36468Y6143D01*
X32996Y16557D01*
X27930Y14243D02*
X25038Y16557D01*
X25038Y6143D01*
X27930Y6143D02*
X22145Y6143D01*
X17326Y6143D02*
X17326Y6722D01*
X16747Y6722D01*
X16747Y6143D01*
X17326Y6143D01*
X11929Y14243D02*
X9036Y16557D01*
X9036Y6143D01*
X11929Y6143D02*
X6143Y6143D01*
D11*
X40000Y73750D03*
D12*
X40000Y61250D02*
X81250Y20000D01*
X40000Y61250D02*
X40000Y73750D01*
D11*
X81250Y20000D03*
X10000Y40000D03*
X25000Y40000D03*
X73750Y10000D03*
X60000Y10000D03*
X10000Y110000D03*
X25000Y110000D03*
M02*
