G04 EAGLE Gerber RS-274X export*
G75*
%MOMM*%
%FSLAX34Y34*%
%LPD*%
%INSilkscreen Bottom*%
%IPPOS*%
%AMOC8*
5,1,8,0,0,1.08239X$1,22.5*%
G01*
%ADD10C,0.050800*%


D10*
X134263Y100069D02*
X134265Y99988D01*
X134271Y99908D01*
X134280Y99828D01*
X134294Y99749D01*
X134311Y99670D01*
X134332Y99592D01*
X134356Y99515D01*
X134384Y99440D01*
X134416Y99366D01*
X134451Y99293D01*
X134490Y99223D01*
X134532Y99154D01*
X134577Y99087D01*
X134625Y99022D01*
X134677Y98960D01*
X134731Y98901D01*
X134788Y98844D01*
X134847Y98790D01*
X134909Y98738D01*
X134974Y98690D01*
X135041Y98645D01*
X135110Y98603D01*
X135180Y98564D01*
X135253Y98529D01*
X135327Y98497D01*
X135402Y98469D01*
X135479Y98445D01*
X135557Y98424D01*
X135636Y98407D01*
X135715Y98393D01*
X135795Y98384D01*
X135875Y98378D01*
X135956Y98376D01*
X136074Y98378D01*
X136191Y98384D01*
X136308Y98393D01*
X136425Y98407D01*
X136542Y98424D01*
X136657Y98445D01*
X136772Y98470D01*
X136887Y98499D01*
X137000Y98532D01*
X137112Y98568D01*
X137222Y98608D01*
X137332Y98651D01*
X137440Y98698D01*
X137546Y98749D01*
X137650Y98803D01*
X137753Y98860D01*
X137854Y98921D01*
X137953Y98985D01*
X138049Y99052D01*
X138143Y99123D01*
X138235Y99196D01*
X138325Y99273D01*
X138412Y99352D01*
X138496Y99434D01*
X138284Y104303D02*
X138282Y104384D01*
X138276Y104464D01*
X138267Y104544D01*
X138253Y104623D01*
X138236Y104702D01*
X138215Y104780D01*
X138191Y104857D01*
X138163Y104932D01*
X138131Y105006D01*
X138096Y105079D01*
X138057Y105150D01*
X138015Y105218D01*
X137970Y105285D01*
X137922Y105350D01*
X137870Y105412D01*
X137816Y105471D01*
X137759Y105528D01*
X137700Y105582D01*
X137638Y105634D01*
X137573Y105682D01*
X137506Y105727D01*
X137438Y105769D01*
X137367Y105808D01*
X137294Y105843D01*
X137220Y105875D01*
X137145Y105903D01*
X137068Y105927D01*
X136990Y105948D01*
X136911Y105965D01*
X136832Y105979D01*
X136752Y105988D01*
X136672Y105994D01*
X136591Y105996D01*
X136483Y105994D01*
X136376Y105989D01*
X136269Y105980D01*
X136162Y105967D01*
X136056Y105951D01*
X135950Y105931D01*
X135845Y105907D01*
X135741Y105880D01*
X135638Y105850D01*
X135536Y105816D01*
X135435Y105778D01*
X135336Y105737D01*
X135238Y105693D01*
X135141Y105646D01*
X135047Y105595D01*
X134953Y105541D01*
X134862Y105484D01*
X134773Y105424D01*
X134686Y105361D01*
X137438Y102821D02*
X137507Y102864D01*
X137574Y102910D01*
X137639Y102959D01*
X137701Y103011D01*
X137760Y103066D01*
X137817Y103124D01*
X137872Y103185D01*
X137923Y103247D01*
X137971Y103313D01*
X138016Y103380D01*
X138058Y103450D01*
X138097Y103521D01*
X138132Y103594D01*
X138164Y103669D01*
X138192Y103745D01*
X138217Y103822D01*
X138237Y103901D01*
X138254Y103980D01*
X138268Y104060D01*
X138277Y104141D01*
X138283Y104222D01*
X138285Y104303D01*
X135110Y101551D02*
X135041Y101508D01*
X134974Y101462D01*
X134909Y101413D01*
X134847Y101361D01*
X134788Y101306D01*
X134731Y101248D01*
X134676Y101187D01*
X134625Y101125D01*
X134577Y101059D01*
X134532Y100992D01*
X134490Y100922D01*
X134451Y100851D01*
X134416Y100778D01*
X134384Y100703D01*
X134356Y100627D01*
X134331Y100550D01*
X134311Y100471D01*
X134294Y100392D01*
X134280Y100312D01*
X134271Y100231D01*
X134265Y100150D01*
X134263Y100069D01*
X135109Y101551D02*
X137438Y102821D01*
X131168Y98376D02*
X127781Y98376D01*
X131168Y98376D02*
X131168Y105996D01*
X127781Y105996D01*
X128628Y102609D02*
X131168Y102609D01*
X121878Y102609D02*
X120608Y102609D01*
X120608Y98376D01*
X123148Y98376D01*
X123229Y98378D01*
X123309Y98384D01*
X123389Y98393D01*
X123468Y98407D01*
X123547Y98424D01*
X123625Y98445D01*
X123702Y98469D01*
X123777Y98497D01*
X123851Y98529D01*
X123924Y98564D01*
X123995Y98603D01*
X124063Y98645D01*
X124130Y98690D01*
X124195Y98738D01*
X124257Y98790D01*
X124316Y98844D01*
X124373Y98901D01*
X124427Y98960D01*
X124479Y99022D01*
X124527Y99087D01*
X124572Y99154D01*
X124614Y99223D01*
X124653Y99293D01*
X124688Y99366D01*
X124720Y99440D01*
X124748Y99515D01*
X124772Y99592D01*
X124793Y99670D01*
X124810Y99749D01*
X124824Y99828D01*
X124833Y99908D01*
X124839Y99988D01*
X124841Y100069D01*
X124841Y104303D01*
X124839Y104384D01*
X124833Y104464D01*
X124824Y104544D01*
X124810Y104623D01*
X124793Y104702D01*
X124772Y104780D01*
X124748Y104857D01*
X124720Y104932D01*
X124688Y105006D01*
X124653Y105079D01*
X124614Y105150D01*
X124572Y105218D01*
X124527Y105285D01*
X124479Y105350D01*
X124427Y105412D01*
X124373Y105471D01*
X124316Y105528D01*
X124257Y105582D01*
X124195Y105634D01*
X124130Y105682D01*
X124063Y105727D01*
X123995Y105769D01*
X123924Y105808D01*
X123851Y105843D01*
X123777Y105875D01*
X123702Y105903D01*
X123625Y105927D01*
X123547Y105948D01*
X123468Y105965D01*
X123389Y105979D01*
X123309Y105988D01*
X123229Y105994D01*
X123148Y105996D01*
X120608Y105996D01*
X115165Y105996D02*
X117705Y98376D01*
X112625Y98376D02*
X115165Y105996D01*
X113260Y100281D02*
X117070Y100281D01*
X105757Y98376D02*
X105757Y105996D01*
X103217Y101763D01*
X100677Y105996D01*
X100677Y98376D01*
X97711Y98376D02*
X95171Y105996D01*
X92631Y98376D01*
X93266Y100281D02*
X97076Y100281D01*
X87676Y98376D02*
X87595Y98378D01*
X87515Y98384D01*
X87435Y98393D01*
X87356Y98407D01*
X87277Y98424D01*
X87199Y98445D01*
X87122Y98469D01*
X87047Y98497D01*
X86973Y98529D01*
X86900Y98564D01*
X86830Y98603D01*
X86761Y98645D01*
X86694Y98690D01*
X86629Y98738D01*
X86567Y98790D01*
X86508Y98844D01*
X86451Y98901D01*
X86397Y98960D01*
X86345Y99022D01*
X86297Y99087D01*
X86252Y99154D01*
X86210Y99223D01*
X86171Y99293D01*
X86136Y99366D01*
X86104Y99440D01*
X86076Y99515D01*
X86052Y99592D01*
X86031Y99670D01*
X86014Y99749D01*
X86000Y99828D01*
X85991Y99908D01*
X85985Y99988D01*
X85983Y100069D01*
X87676Y98376D02*
X87794Y98378D01*
X87911Y98384D01*
X88028Y98393D01*
X88145Y98407D01*
X88262Y98424D01*
X88377Y98445D01*
X88492Y98470D01*
X88607Y98499D01*
X88720Y98532D01*
X88832Y98568D01*
X88942Y98608D01*
X89052Y98651D01*
X89160Y98698D01*
X89266Y98749D01*
X89370Y98803D01*
X89473Y98860D01*
X89574Y98921D01*
X89673Y98985D01*
X89769Y99052D01*
X89863Y99123D01*
X89955Y99196D01*
X90045Y99273D01*
X90132Y99352D01*
X90216Y99434D01*
X90004Y104303D02*
X90002Y104384D01*
X89996Y104464D01*
X89987Y104544D01*
X89973Y104623D01*
X89956Y104702D01*
X89935Y104780D01*
X89911Y104857D01*
X89883Y104932D01*
X89851Y105006D01*
X89816Y105079D01*
X89777Y105150D01*
X89735Y105218D01*
X89690Y105285D01*
X89642Y105350D01*
X89590Y105412D01*
X89536Y105471D01*
X89479Y105528D01*
X89420Y105582D01*
X89358Y105634D01*
X89293Y105682D01*
X89226Y105727D01*
X89158Y105769D01*
X89087Y105808D01*
X89014Y105843D01*
X88940Y105875D01*
X88865Y105903D01*
X88788Y105927D01*
X88710Y105948D01*
X88631Y105965D01*
X88552Y105979D01*
X88472Y105988D01*
X88392Y105994D01*
X88311Y105996D01*
X88203Y105994D01*
X88096Y105989D01*
X87989Y105980D01*
X87882Y105967D01*
X87776Y105951D01*
X87670Y105931D01*
X87565Y105907D01*
X87461Y105880D01*
X87358Y105850D01*
X87256Y105816D01*
X87155Y105778D01*
X87056Y105737D01*
X86958Y105693D01*
X86861Y105646D01*
X86767Y105595D01*
X86673Y105541D01*
X86582Y105484D01*
X86493Y105424D01*
X86406Y105361D01*
X89157Y102821D02*
X89226Y102864D01*
X89293Y102910D01*
X89358Y102959D01*
X89420Y103011D01*
X89479Y103066D01*
X89536Y103124D01*
X89591Y103185D01*
X89642Y103247D01*
X89690Y103313D01*
X89735Y103380D01*
X89777Y103450D01*
X89816Y103521D01*
X89851Y103594D01*
X89883Y103669D01*
X89911Y103745D01*
X89936Y103822D01*
X89956Y103901D01*
X89973Y103980D01*
X89987Y104060D01*
X89996Y104141D01*
X90002Y104222D01*
X90004Y104303D01*
X86829Y101551D02*
X86760Y101508D01*
X86693Y101462D01*
X86628Y101413D01*
X86566Y101361D01*
X86507Y101306D01*
X86450Y101248D01*
X86395Y101187D01*
X86344Y101125D01*
X86296Y101059D01*
X86251Y100992D01*
X86209Y100922D01*
X86170Y100851D01*
X86135Y100778D01*
X86103Y100703D01*
X86075Y100627D01*
X86050Y100550D01*
X86030Y100471D01*
X86013Y100392D01*
X85999Y100312D01*
X85990Y100231D01*
X85984Y100150D01*
X85982Y100069D01*
X86829Y101551D02*
X89158Y102821D01*
X81516Y105996D02*
X81516Y98376D01*
X83632Y105996D02*
X79399Y105996D01*
X76548Y98376D02*
X73161Y98376D01*
X76548Y98376D02*
X76548Y105996D01*
X73161Y105996D01*
X74008Y102609D02*
X76548Y102609D01*
X70179Y105996D02*
X70179Y98376D01*
X70179Y105996D02*
X68062Y105996D01*
X67971Y105994D01*
X67880Y105988D01*
X67789Y105978D01*
X67699Y105965D01*
X67610Y105947D01*
X67521Y105926D01*
X67434Y105901D01*
X67347Y105872D01*
X67262Y105839D01*
X67179Y105803D01*
X67097Y105763D01*
X67017Y105720D01*
X66938Y105673D01*
X66862Y105623D01*
X66788Y105570D01*
X66717Y105514D01*
X66648Y105454D01*
X66581Y105392D01*
X66518Y105327D01*
X66457Y105259D01*
X66399Y105189D01*
X66344Y105116D01*
X66292Y105041D01*
X66244Y104964D01*
X66199Y104884D01*
X66157Y104803D01*
X66119Y104721D01*
X66085Y104636D01*
X66054Y104550D01*
X66027Y104463D01*
X66004Y104375D01*
X65985Y104286D01*
X65969Y104197D01*
X65957Y104106D01*
X65949Y104016D01*
X65945Y103925D01*
X65945Y103833D01*
X65949Y103742D01*
X65957Y103652D01*
X65969Y103561D01*
X65985Y103472D01*
X66004Y103383D01*
X66027Y103295D01*
X66054Y103208D01*
X66085Y103122D01*
X66119Y103037D01*
X66157Y102955D01*
X66199Y102874D01*
X66244Y102794D01*
X66292Y102717D01*
X66344Y102642D01*
X66399Y102569D01*
X66457Y102499D01*
X66518Y102431D01*
X66581Y102366D01*
X66648Y102304D01*
X66717Y102244D01*
X66788Y102188D01*
X66862Y102135D01*
X66938Y102085D01*
X67017Y102038D01*
X67097Y101995D01*
X67179Y101955D01*
X67262Y101919D01*
X67347Y101886D01*
X67434Y101857D01*
X67521Y101832D01*
X67610Y101811D01*
X67699Y101793D01*
X67789Y101780D01*
X67880Y101770D01*
X67971Y101764D01*
X68062Y101762D01*
X68062Y101763D02*
X70179Y101763D01*
X67639Y101763D02*
X65946Y98376D01*
X56708Y98376D02*
X56627Y98378D01*
X56547Y98384D01*
X56467Y98393D01*
X56388Y98407D01*
X56309Y98424D01*
X56231Y98445D01*
X56154Y98469D01*
X56079Y98497D01*
X56005Y98529D01*
X55932Y98564D01*
X55862Y98603D01*
X55793Y98645D01*
X55726Y98690D01*
X55661Y98738D01*
X55599Y98790D01*
X55540Y98844D01*
X55483Y98901D01*
X55429Y98960D01*
X55377Y99022D01*
X55329Y99087D01*
X55284Y99154D01*
X55242Y99223D01*
X55203Y99293D01*
X55168Y99366D01*
X55136Y99440D01*
X55108Y99515D01*
X55084Y99592D01*
X55063Y99670D01*
X55046Y99749D01*
X55032Y99828D01*
X55023Y99908D01*
X55017Y99988D01*
X55015Y100069D01*
X56708Y98376D02*
X56826Y98378D01*
X56943Y98384D01*
X57060Y98393D01*
X57177Y98407D01*
X57294Y98424D01*
X57409Y98445D01*
X57524Y98470D01*
X57639Y98499D01*
X57752Y98532D01*
X57864Y98568D01*
X57974Y98608D01*
X58084Y98651D01*
X58192Y98698D01*
X58298Y98749D01*
X58402Y98803D01*
X58505Y98860D01*
X58606Y98921D01*
X58705Y98985D01*
X58801Y99052D01*
X58895Y99123D01*
X58987Y99196D01*
X59077Y99273D01*
X59164Y99352D01*
X59248Y99434D01*
X59036Y104303D02*
X59034Y104384D01*
X59028Y104464D01*
X59019Y104544D01*
X59005Y104623D01*
X58988Y104702D01*
X58967Y104780D01*
X58943Y104857D01*
X58915Y104932D01*
X58883Y105006D01*
X58848Y105079D01*
X58809Y105150D01*
X58767Y105218D01*
X58722Y105285D01*
X58674Y105350D01*
X58622Y105412D01*
X58568Y105471D01*
X58511Y105528D01*
X58452Y105582D01*
X58390Y105634D01*
X58325Y105682D01*
X58258Y105727D01*
X58190Y105769D01*
X58119Y105808D01*
X58046Y105843D01*
X57972Y105875D01*
X57897Y105903D01*
X57820Y105927D01*
X57742Y105948D01*
X57663Y105965D01*
X57584Y105979D01*
X57504Y105988D01*
X57424Y105994D01*
X57343Y105996D01*
X57235Y105994D01*
X57128Y105989D01*
X57021Y105980D01*
X56914Y105967D01*
X56808Y105951D01*
X56702Y105931D01*
X56597Y105907D01*
X56493Y105880D01*
X56390Y105850D01*
X56288Y105816D01*
X56187Y105778D01*
X56088Y105737D01*
X55990Y105693D01*
X55893Y105646D01*
X55799Y105595D01*
X55705Y105541D01*
X55614Y105484D01*
X55525Y105424D01*
X55438Y105361D01*
X58190Y102821D02*
X58259Y102864D01*
X58326Y102910D01*
X58391Y102959D01*
X58453Y103011D01*
X58512Y103066D01*
X58569Y103124D01*
X58624Y103185D01*
X58675Y103247D01*
X58723Y103313D01*
X58768Y103380D01*
X58810Y103450D01*
X58849Y103521D01*
X58884Y103594D01*
X58916Y103669D01*
X58944Y103745D01*
X58969Y103822D01*
X58989Y103901D01*
X59006Y103980D01*
X59020Y104060D01*
X59029Y104141D01*
X59035Y104222D01*
X59037Y104303D01*
X55862Y101551D02*
X55793Y101508D01*
X55726Y101462D01*
X55661Y101413D01*
X55599Y101361D01*
X55540Y101306D01*
X55483Y101248D01*
X55428Y101187D01*
X55377Y101125D01*
X55329Y101059D01*
X55284Y100992D01*
X55242Y100922D01*
X55203Y100851D01*
X55168Y100778D01*
X55136Y100703D01*
X55108Y100627D01*
X55083Y100550D01*
X55063Y100471D01*
X55046Y100392D01*
X55032Y100312D01*
X55023Y100231D01*
X55017Y100150D01*
X55015Y100069D01*
X55862Y101551D02*
X58190Y102821D01*
X52600Y105996D02*
X50060Y102398D01*
X47520Y105996D01*
X50060Y102398D02*
X50060Y98376D01*
X42566Y98376D02*
X42485Y98378D01*
X42405Y98384D01*
X42325Y98393D01*
X42246Y98407D01*
X42167Y98424D01*
X42089Y98445D01*
X42012Y98469D01*
X41937Y98497D01*
X41863Y98529D01*
X41790Y98564D01*
X41720Y98603D01*
X41651Y98645D01*
X41584Y98690D01*
X41519Y98738D01*
X41457Y98790D01*
X41398Y98844D01*
X41341Y98901D01*
X41287Y98960D01*
X41235Y99022D01*
X41187Y99087D01*
X41142Y99154D01*
X41100Y99223D01*
X41061Y99293D01*
X41026Y99366D01*
X40994Y99440D01*
X40966Y99515D01*
X40942Y99592D01*
X40921Y99670D01*
X40904Y99749D01*
X40890Y99828D01*
X40881Y99908D01*
X40875Y99988D01*
X40873Y100069D01*
X42566Y98376D02*
X42684Y98378D01*
X42801Y98384D01*
X42918Y98393D01*
X43035Y98407D01*
X43152Y98424D01*
X43267Y98445D01*
X43382Y98470D01*
X43497Y98499D01*
X43610Y98532D01*
X43722Y98568D01*
X43832Y98608D01*
X43942Y98651D01*
X44050Y98698D01*
X44156Y98749D01*
X44260Y98803D01*
X44363Y98860D01*
X44464Y98921D01*
X44563Y98985D01*
X44659Y99052D01*
X44753Y99123D01*
X44845Y99196D01*
X44935Y99273D01*
X45022Y99352D01*
X45106Y99434D01*
X44894Y104303D02*
X44892Y104384D01*
X44886Y104464D01*
X44877Y104544D01*
X44863Y104623D01*
X44846Y104702D01*
X44825Y104780D01*
X44801Y104857D01*
X44773Y104932D01*
X44741Y105006D01*
X44706Y105079D01*
X44667Y105150D01*
X44625Y105218D01*
X44580Y105285D01*
X44532Y105350D01*
X44480Y105412D01*
X44426Y105471D01*
X44369Y105528D01*
X44310Y105582D01*
X44248Y105634D01*
X44183Y105682D01*
X44116Y105727D01*
X44048Y105769D01*
X43977Y105808D01*
X43904Y105843D01*
X43830Y105875D01*
X43755Y105903D01*
X43678Y105927D01*
X43600Y105948D01*
X43521Y105965D01*
X43442Y105979D01*
X43362Y105988D01*
X43282Y105994D01*
X43201Y105996D01*
X43093Y105994D01*
X42986Y105989D01*
X42879Y105980D01*
X42772Y105967D01*
X42666Y105951D01*
X42560Y105931D01*
X42455Y105907D01*
X42351Y105880D01*
X42248Y105850D01*
X42146Y105816D01*
X42045Y105778D01*
X41946Y105737D01*
X41848Y105693D01*
X41751Y105646D01*
X41657Y105595D01*
X41563Y105541D01*
X41472Y105484D01*
X41383Y105424D01*
X41296Y105361D01*
X44047Y102821D02*
X44116Y102864D01*
X44183Y102910D01*
X44248Y102959D01*
X44310Y103011D01*
X44369Y103066D01*
X44426Y103124D01*
X44481Y103185D01*
X44532Y103247D01*
X44580Y103313D01*
X44625Y103380D01*
X44667Y103450D01*
X44706Y103521D01*
X44741Y103594D01*
X44773Y103669D01*
X44801Y103745D01*
X44826Y103822D01*
X44846Y103901D01*
X44863Y103980D01*
X44877Y104060D01*
X44886Y104141D01*
X44892Y104222D01*
X44894Y104303D01*
X41719Y101551D02*
X41650Y101508D01*
X41583Y101462D01*
X41518Y101413D01*
X41456Y101361D01*
X41397Y101306D01*
X41340Y101248D01*
X41285Y101187D01*
X41234Y101125D01*
X41186Y101059D01*
X41141Y100992D01*
X41099Y100922D01*
X41060Y100851D01*
X41025Y100778D01*
X40993Y100703D01*
X40965Y100627D01*
X40940Y100550D01*
X40920Y100471D01*
X40903Y100392D01*
X40889Y100312D01*
X40880Y100231D01*
X40874Y100150D01*
X40872Y100069D01*
X41719Y101551D02*
X44047Y102821D01*
X36405Y105996D02*
X36405Y98376D01*
X38522Y105996D02*
X34289Y105996D01*
X31438Y98376D02*
X28051Y98376D01*
X31438Y98376D02*
X31438Y105996D01*
X28051Y105996D01*
X28898Y102609D02*
X31438Y102609D01*
X25046Y105996D02*
X25046Y98376D01*
X22506Y101763D02*
X25046Y105996D01*
X22506Y101763D02*
X19966Y105996D01*
X19966Y98376D01*
X138496Y93804D02*
X138496Y86184D01*
X138496Y93804D02*
X136379Y93804D01*
X136288Y93802D01*
X136197Y93796D01*
X136106Y93786D01*
X136016Y93773D01*
X135927Y93755D01*
X135838Y93734D01*
X135751Y93709D01*
X135664Y93680D01*
X135579Y93647D01*
X135496Y93611D01*
X135414Y93571D01*
X135334Y93528D01*
X135255Y93481D01*
X135179Y93431D01*
X135105Y93378D01*
X135034Y93322D01*
X134965Y93262D01*
X134898Y93200D01*
X134835Y93135D01*
X134774Y93067D01*
X134716Y92997D01*
X134661Y92924D01*
X134609Y92849D01*
X134561Y92772D01*
X134516Y92692D01*
X134474Y92611D01*
X134436Y92529D01*
X134402Y92444D01*
X134371Y92358D01*
X134344Y92271D01*
X134321Y92183D01*
X134302Y92094D01*
X134286Y92005D01*
X134274Y91914D01*
X134266Y91824D01*
X134262Y91733D01*
X134262Y91641D01*
X134266Y91550D01*
X134274Y91460D01*
X134286Y91369D01*
X134302Y91280D01*
X134321Y91191D01*
X134344Y91103D01*
X134371Y91016D01*
X134402Y90930D01*
X134436Y90845D01*
X134474Y90763D01*
X134516Y90682D01*
X134561Y90602D01*
X134609Y90525D01*
X134661Y90450D01*
X134716Y90377D01*
X134774Y90307D01*
X134835Y90239D01*
X134898Y90174D01*
X134965Y90112D01*
X135034Y90052D01*
X135105Y89996D01*
X135179Y89943D01*
X135255Y89893D01*
X135334Y89846D01*
X135414Y89803D01*
X135496Y89763D01*
X135579Y89727D01*
X135664Y89694D01*
X135751Y89665D01*
X135838Y89640D01*
X135927Y89619D01*
X136016Y89601D01*
X136106Y89588D01*
X136197Y89578D01*
X136288Y89572D01*
X136379Y89570D01*
X136379Y89571D02*
X138496Y89571D01*
X135956Y89571D02*
X134263Y86184D01*
X128016Y90417D02*
X126746Y90417D01*
X126746Y86184D01*
X129286Y86184D01*
X129367Y86186D01*
X129447Y86192D01*
X129527Y86201D01*
X129606Y86215D01*
X129685Y86232D01*
X129763Y86253D01*
X129840Y86277D01*
X129915Y86305D01*
X129989Y86337D01*
X130062Y86372D01*
X130133Y86411D01*
X130201Y86453D01*
X130268Y86498D01*
X130333Y86546D01*
X130395Y86598D01*
X130454Y86652D01*
X130511Y86709D01*
X130565Y86768D01*
X130617Y86830D01*
X130665Y86895D01*
X130710Y86962D01*
X130752Y87031D01*
X130791Y87101D01*
X130826Y87174D01*
X130858Y87248D01*
X130886Y87323D01*
X130910Y87400D01*
X130931Y87478D01*
X130948Y87557D01*
X130962Y87636D01*
X130971Y87716D01*
X130977Y87796D01*
X130979Y87877D01*
X130979Y92111D01*
X130977Y92192D01*
X130971Y92272D01*
X130962Y92352D01*
X130948Y92431D01*
X130931Y92510D01*
X130910Y92588D01*
X130886Y92665D01*
X130858Y92740D01*
X130826Y92814D01*
X130791Y92887D01*
X130752Y92958D01*
X130710Y93026D01*
X130665Y93093D01*
X130617Y93158D01*
X130565Y93220D01*
X130511Y93279D01*
X130454Y93336D01*
X130395Y93390D01*
X130333Y93442D01*
X130268Y93490D01*
X130201Y93535D01*
X130133Y93577D01*
X130062Y93616D01*
X129989Y93651D01*
X129915Y93683D01*
X129840Y93711D01*
X129763Y93735D01*
X129685Y93756D01*
X129606Y93773D01*
X129527Y93787D01*
X129447Y93796D01*
X129367Y93802D01*
X129286Y93804D01*
X126746Y93804D01*
X123080Y90417D02*
X120963Y90417D01*
X120963Y90418D02*
X120872Y90416D01*
X120781Y90410D01*
X120690Y90400D01*
X120600Y90387D01*
X120511Y90369D01*
X120422Y90348D01*
X120335Y90323D01*
X120248Y90294D01*
X120163Y90261D01*
X120080Y90225D01*
X119998Y90185D01*
X119918Y90142D01*
X119839Y90095D01*
X119763Y90045D01*
X119689Y89992D01*
X119618Y89936D01*
X119549Y89876D01*
X119482Y89814D01*
X119419Y89749D01*
X119358Y89681D01*
X119300Y89611D01*
X119245Y89538D01*
X119193Y89463D01*
X119145Y89386D01*
X119100Y89306D01*
X119058Y89225D01*
X119020Y89143D01*
X118986Y89058D01*
X118955Y88972D01*
X118928Y88885D01*
X118905Y88797D01*
X118886Y88708D01*
X118870Y88619D01*
X118858Y88528D01*
X118850Y88438D01*
X118846Y88347D01*
X118846Y88255D01*
X118850Y88164D01*
X118858Y88074D01*
X118870Y87983D01*
X118886Y87894D01*
X118905Y87805D01*
X118928Y87717D01*
X118955Y87630D01*
X118986Y87544D01*
X119020Y87459D01*
X119058Y87377D01*
X119100Y87296D01*
X119145Y87216D01*
X119193Y87139D01*
X119245Y87064D01*
X119300Y86991D01*
X119358Y86921D01*
X119419Y86853D01*
X119482Y86788D01*
X119549Y86726D01*
X119618Y86666D01*
X119689Y86610D01*
X119763Y86557D01*
X119839Y86507D01*
X119918Y86460D01*
X119998Y86417D01*
X120080Y86377D01*
X120163Y86341D01*
X120248Y86308D01*
X120335Y86279D01*
X120422Y86254D01*
X120511Y86233D01*
X120600Y86215D01*
X120690Y86202D01*
X120781Y86192D01*
X120872Y86186D01*
X120963Y86184D01*
X123080Y86184D01*
X123080Y93804D01*
X120963Y93804D01*
X120882Y93802D01*
X120802Y93796D01*
X120722Y93787D01*
X120643Y93773D01*
X120564Y93756D01*
X120486Y93735D01*
X120409Y93711D01*
X120334Y93683D01*
X120260Y93651D01*
X120187Y93616D01*
X120117Y93577D01*
X120048Y93535D01*
X119981Y93490D01*
X119916Y93442D01*
X119854Y93390D01*
X119795Y93336D01*
X119738Y93279D01*
X119684Y93220D01*
X119632Y93158D01*
X119584Y93093D01*
X119539Y93026D01*
X119497Y92958D01*
X119458Y92887D01*
X119423Y92814D01*
X119391Y92740D01*
X119363Y92665D01*
X119339Y92588D01*
X119318Y92510D01*
X119301Y92431D01*
X119287Y92352D01*
X119278Y92272D01*
X119272Y92192D01*
X119270Y92111D01*
X119272Y92030D01*
X119278Y91950D01*
X119287Y91870D01*
X119301Y91791D01*
X119318Y91712D01*
X119339Y91634D01*
X119363Y91557D01*
X119391Y91482D01*
X119423Y91408D01*
X119458Y91335D01*
X119497Y91265D01*
X119539Y91196D01*
X119584Y91129D01*
X119632Y91064D01*
X119684Y91002D01*
X119738Y90943D01*
X119795Y90886D01*
X119854Y90832D01*
X119916Y90780D01*
X119981Y90732D01*
X120048Y90687D01*
X120116Y90645D01*
X120187Y90606D01*
X120260Y90571D01*
X120334Y90539D01*
X120409Y90511D01*
X120486Y90487D01*
X120564Y90466D01*
X120643Y90449D01*
X120722Y90435D01*
X120802Y90426D01*
X120882Y90420D01*
X120963Y90418D01*
X111947Y86184D02*
X108560Y86184D01*
X111947Y86184D02*
X111947Y93804D01*
X108560Y93804D01*
X109407Y90417D02*
X111947Y90417D01*
X105620Y93804D02*
X105620Y86184D01*
X101386Y86184D02*
X105620Y93804D01*
X101386Y93804D02*
X101386Y86184D01*
X96386Y86184D02*
X94693Y86184D01*
X96386Y86184D02*
X96467Y86186D01*
X96547Y86192D01*
X96627Y86201D01*
X96706Y86215D01*
X96785Y86232D01*
X96863Y86253D01*
X96940Y86277D01*
X97015Y86305D01*
X97089Y86337D01*
X97162Y86372D01*
X97233Y86411D01*
X97301Y86453D01*
X97368Y86498D01*
X97433Y86546D01*
X97495Y86598D01*
X97554Y86652D01*
X97611Y86709D01*
X97665Y86768D01*
X97717Y86830D01*
X97765Y86895D01*
X97810Y86962D01*
X97852Y87031D01*
X97891Y87101D01*
X97926Y87174D01*
X97958Y87248D01*
X97986Y87323D01*
X98010Y87400D01*
X98031Y87478D01*
X98048Y87557D01*
X98062Y87636D01*
X98071Y87716D01*
X98077Y87796D01*
X98079Y87877D01*
X98080Y87877D02*
X98080Y92111D01*
X98079Y92111D02*
X98077Y92192D01*
X98071Y92272D01*
X98062Y92352D01*
X98048Y92431D01*
X98031Y92510D01*
X98010Y92588D01*
X97986Y92665D01*
X97958Y92740D01*
X97926Y92814D01*
X97891Y92887D01*
X97852Y92958D01*
X97810Y93026D01*
X97765Y93093D01*
X97717Y93158D01*
X97665Y93220D01*
X97611Y93279D01*
X97554Y93336D01*
X97495Y93390D01*
X97433Y93442D01*
X97368Y93490D01*
X97301Y93535D01*
X97233Y93577D01*
X97162Y93616D01*
X97089Y93651D01*
X97015Y93683D01*
X96940Y93711D01*
X96863Y93735D01*
X96785Y93756D01*
X96706Y93773D01*
X96627Y93787D01*
X96547Y93796D01*
X96467Y93802D01*
X96386Y93804D01*
X94693Y93804D01*
X91965Y91687D02*
X91965Y88301D01*
X91965Y91687D02*
X91963Y91778D01*
X91957Y91869D01*
X91947Y91960D01*
X91934Y92050D01*
X91916Y92139D01*
X91895Y92228D01*
X91870Y92315D01*
X91841Y92402D01*
X91808Y92487D01*
X91772Y92570D01*
X91732Y92652D01*
X91689Y92732D01*
X91642Y92811D01*
X91592Y92887D01*
X91539Y92961D01*
X91483Y93032D01*
X91423Y93101D01*
X91361Y93168D01*
X91296Y93231D01*
X91228Y93292D01*
X91158Y93350D01*
X91085Y93405D01*
X91010Y93457D01*
X90933Y93505D01*
X90853Y93550D01*
X90772Y93592D01*
X90690Y93630D01*
X90605Y93664D01*
X90519Y93695D01*
X90432Y93722D01*
X90344Y93745D01*
X90255Y93764D01*
X90166Y93780D01*
X90075Y93792D01*
X89985Y93800D01*
X89894Y93804D01*
X89802Y93804D01*
X89711Y93800D01*
X89621Y93792D01*
X89530Y93780D01*
X89441Y93764D01*
X89352Y93745D01*
X89264Y93722D01*
X89177Y93695D01*
X89091Y93664D01*
X89006Y93630D01*
X88924Y93592D01*
X88843Y93550D01*
X88763Y93505D01*
X88686Y93457D01*
X88611Y93405D01*
X88538Y93350D01*
X88468Y93292D01*
X88400Y93231D01*
X88335Y93168D01*
X88273Y93101D01*
X88213Y93032D01*
X88157Y92961D01*
X88104Y92887D01*
X88054Y92811D01*
X88007Y92732D01*
X87964Y92652D01*
X87924Y92570D01*
X87888Y92487D01*
X87855Y92402D01*
X87826Y92315D01*
X87801Y92228D01*
X87780Y92139D01*
X87762Y92050D01*
X87749Y91960D01*
X87739Y91869D01*
X87733Y91778D01*
X87731Y91687D01*
X87731Y88301D01*
X87733Y88210D01*
X87739Y88119D01*
X87749Y88028D01*
X87762Y87938D01*
X87780Y87849D01*
X87801Y87760D01*
X87826Y87673D01*
X87855Y87586D01*
X87888Y87501D01*
X87924Y87418D01*
X87964Y87336D01*
X88007Y87256D01*
X88054Y87177D01*
X88104Y87101D01*
X88157Y87027D01*
X88213Y86956D01*
X88273Y86887D01*
X88335Y86820D01*
X88400Y86757D01*
X88468Y86696D01*
X88538Y86638D01*
X88611Y86583D01*
X88686Y86531D01*
X88763Y86483D01*
X88843Y86438D01*
X88924Y86396D01*
X89006Y86358D01*
X89091Y86324D01*
X89177Y86293D01*
X89264Y86266D01*
X89352Y86243D01*
X89441Y86224D01*
X89530Y86208D01*
X89621Y86196D01*
X89711Y86188D01*
X89802Y86184D01*
X89894Y86184D01*
X89985Y86188D01*
X90075Y86196D01*
X90166Y86208D01*
X90255Y86224D01*
X90344Y86243D01*
X90432Y86266D01*
X90519Y86293D01*
X90605Y86324D01*
X90690Y86358D01*
X90772Y86396D01*
X90853Y86438D01*
X90933Y86483D01*
X91010Y86531D01*
X91085Y86583D01*
X91158Y86638D01*
X91228Y86696D01*
X91296Y86757D01*
X91361Y86820D01*
X91423Y86887D01*
X91483Y86956D01*
X91539Y87027D01*
X91592Y87101D01*
X91642Y87177D01*
X91689Y87256D01*
X91732Y87336D01*
X91772Y87418D01*
X91808Y87501D01*
X91841Y87586D01*
X91870Y87673D01*
X91895Y87760D01*
X91916Y87849D01*
X91934Y87938D01*
X91947Y88028D01*
X91957Y88119D01*
X91963Y88210D01*
X91965Y88301D01*
X84406Y86184D02*
X84406Y93804D01*
X82289Y93804D01*
X82199Y93802D01*
X82109Y93796D01*
X82020Y93787D01*
X81931Y93774D01*
X81843Y93756D01*
X81756Y93736D01*
X81669Y93711D01*
X81584Y93683D01*
X81500Y93651D01*
X81417Y93616D01*
X81336Y93577D01*
X81257Y93535D01*
X81179Y93490D01*
X81104Y93441D01*
X81030Y93389D01*
X80959Y93334D01*
X80890Y93276D01*
X80824Y93215D01*
X80761Y93152D01*
X80700Y93086D01*
X80642Y93017D01*
X80587Y92946D01*
X80535Y92872D01*
X80486Y92797D01*
X80441Y92719D01*
X80399Y92640D01*
X80360Y92559D01*
X80325Y92476D01*
X80293Y92392D01*
X80265Y92307D01*
X80240Y92220D01*
X80220Y92133D01*
X80202Y92045D01*
X80189Y91956D01*
X80180Y91867D01*
X80174Y91777D01*
X80172Y91687D01*
X80172Y88301D01*
X80174Y88211D01*
X80180Y88121D01*
X80189Y88032D01*
X80202Y87943D01*
X80220Y87855D01*
X80240Y87768D01*
X80265Y87681D01*
X80293Y87596D01*
X80325Y87512D01*
X80360Y87429D01*
X80399Y87348D01*
X80441Y87269D01*
X80486Y87191D01*
X80535Y87116D01*
X80587Y87042D01*
X80642Y86971D01*
X80700Y86902D01*
X80761Y86836D01*
X80824Y86773D01*
X80890Y86712D01*
X80959Y86654D01*
X81030Y86599D01*
X81104Y86547D01*
X81179Y86498D01*
X81257Y86453D01*
X81336Y86411D01*
X81417Y86372D01*
X81500Y86337D01*
X81584Y86305D01*
X81669Y86277D01*
X81756Y86252D01*
X81843Y86232D01*
X81931Y86214D01*
X82020Y86201D01*
X82109Y86192D01*
X82199Y86186D01*
X82289Y86184D01*
X84406Y86184D01*
X76590Y86184D02*
X73203Y86184D01*
X76590Y86184D02*
X76590Y93804D01*
X73203Y93804D01*
X74050Y90417D02*
X76590Y90417D01*
X70221Y93804D02*
X70221Y86184D01*
X70221Y93804D02*
X68104Y93804D01*
X68013Y93802D01*
X67922Y93796D01*
X67831Y93786D01*
X67741Y93773D01*
X67652Y93755D01*
X67563Y93734D01*
X67476Y93709D01*
X67389Y93680D01*
X67304Y93647D01*
X67221Y93611D01*
X67139Y93571D01*
X67059Y93528D01*
X66980Y93481D01*
X66904Y93431D01*
X66830Y93378D01*
X66759Y93322D01*
X66690Y93262D01*
X66623Y93200D01*
X66560Y93135D01*
X66499Y93067D01*
X66441Y92997D01*
X66386Y92924D01*
X66334Y92849D01*
X66286Y92772D01*
X66241Y92692D01*
X66199Y92611D01*
X66161Y92529D01*
X66127Y92444D01*
X66096Y92358D01*
X66069Y92271D01*
X66046Y92183D01*
X66027Y92094D01*
X66011Y92005D01*
X65999Y91914D01*
X65991Y91824D01*
X65987Y91733D01*
X65987Y91641D01*
X65991Y91550D01*
X65999Y91460D01*
X66011Y91369D01*
X66027Y91280D01*
X66046Y91191D01*
X66069Y91103D01*
X66096Y91016D01*
X66127Y90930D01*
X66161Y90845D01*
X66199Y90763D01*
X66241Y90682D01*
X66286Y90602D01*
X66334Y90525D01*
X66386Y90450D01*
X66441Y90377D01*
X66499Y90307D01*
X66560Y90239D01*
X66623Y90174D01*
X66690Y90112D01*
X66759Y90052D01*
X66830Y89996D01*
X66904Y89943D01*
X66980Y89893D01*
X67059Y89846D01*
X67139Y89803D01*
X67221Y89763D01*
X67304Y89727D01*
X67389Y89694D01*
X67476Y89665D01*
X67563Y89640D01*
X67652Y89619D01*
X67741Y89601D01*
X67831Y89588D01*
X67922Y89578D01*
X68013Y89572D01*
X68104Y89570D01*
X68104Y89571D02*
X70221Y89571D01*
X67681Y89571D02*
X65988Y86184D01*
X56750Y86184D02*
X56669Y86186D01*
X56589Y86192D01*
X56509Y86201D01*
X56430Y86215D01*
X56351Y86232D01*
X56273Y86253D01*
X56196Y86277D01*
X56121Y86305D01*
X56047Y86337D01*
X55974Y86372D01*
X55904Y86411D01*
X55835Y86453D01*
X55768Y86498D01*
X55703Y86546D01*
X55641Y86598D01*
X55582Y86652D01*
X55525Y86709D01*
X55471Y86768D01*
X55419Y86830D01*
X55371Y86895D01*
X55326Y86962D01*
X55284Y87031D01*
X55245Y87101D01*
X55210Y87174D01*
X55178Y87248D01*
X55150Y87323D01*
X55126Y87400D01*
X55105Y87478D01*
X55088Y87557D01*
X55074Y87636D01*
X55065Y87716D01*
X55059Y87796D01*
X55057Y87877D01*
X56750Y86184D02*
X56868Y86186D01*
X56985Y86192D01*
X57102Y86201D01*
X57219Y86215D01*
X57336Y86232D01*
X57451Y86253D01*
X57566Y86278D01*
X57681Y86307D01*
X57794Y86340D01*
X57906Y86376D01*
X58016Y86416D01*
X58126Y86459D01*
X58234Y86506D01*
X58340Y86557D01*
X58444Y86611D01*
X58547Y86668D01*
X58648Y86729D01*
X58747Y86793D01*
X58843Y86860D01*
X58937Y86931D01*
X59029Y87004D01*
X59119Y87081D01*
X59206Y87160D01*
X59290Y87242D01*
X59078Y92111D02*
X59076Y92192D01*
X59070Y92272D01*
X59061Y92352D01*
X59047Y92431D01*
X59030Y92510D01*
X59009Y92588D01*
X58985Y92665D01*
X58957Y92740D01*
X58925Y92814D01*
X58890Y92887D01*
X58851Y92958D01*
X58809Y93026D01*
X58764Y93093D01*
X58716Y93158D01*
X58664Y93220D01*
X58610Y93279D01*
X58553Y93336D01*
X58494Y93390D01*
X58432Y93442D01*
X58367Y93490D01*
X58300Y93535D01*
X58232Y93577D01*
X58161Y93616D01*
X58088Y93651D01*
X58014Y93683D01*
X57939Y93711D01*
X57862Y93735D01*
X57784Y93756D01*
X57705Y93773D01*
X57626Y93787D01*
X57546Y93796D01*
X57466Y93802D01*
X57385Y93804D01*
X57277Y93802D01*
X57170Y93797D01*
X57063Y93788D01*
X56956Y93775D01*
X56850Y93759D01*
X56744Y93739D01*
X56639Y93715D01*
X56535Y93688D01*
X56432Y93658D01*
X56330Y93624D01*
X56229Y93586D01*
X56130Y93545D01*
X56032Y93501D01*
X55935Y93454D01*
X55841Y93403D01*
X55747Y93349D01*
X55656Y93292D01*
X55567Y93232D01*
X55480Y93169D01*
X58232Y90629D02*
X58301Y90672D01*
X58368Y90718D01*
X58433Y90767D01*
X58495Y90819D01*
X58554Y90874D01*
X58611Y90932D01*
X58666Y90993D01*
X58717Y91055D01*
X58765Y91121D01*
X58810Y91188D01*
X58852Y91258D01*
X58891Y91329D01*
X58926Y91402D01*
X58958Y91477D01*
X58986Y91553D01*
X59011Y91630D01*
X59031Y91709D01*
X59048Y91788D01*
X59062Y91868D01*
X59071Y91949D01*
X59077Y92030D01*
X59079Y92111D01*
X55904Y89359D02*
X55835Y89316D01*
X55768Y89270D01*
X55703Y89221D01*
X55641Y89169D01*
X55582Y89114D01*
X55525Y89056D01*
X55470Y88995D01*
X55419Y88933D01*
X55371Y88867D01*
X55326Y88800D01*
X55284Y88730D01*
X55245Y88659D01*
X55210Y88586D01*
X55178Y88511D01*
X55150Y88435D01*
X55125Y88358D01*
X55105Y88279D01*
X55088Y88200D01*
X55074Y88120D01*
X55065Y88039D01*
X55059Y87958D01*
X55057Y87877D01*
X55904Y89359D02*
X58232Y90629D01*
X52514Y93804D02*
X50820Y86184D01*
X49127Y91264D01*
X47434Y86184D01*
X45740Y93804D01*
X42299Y93804D02*
X42299Y86184D01*
X41453Y86184D02*
X43146Y86184D01*
X43146Y93804D02*
X41453Y93804D01*
X36935Y93804D02*
X36935Y86184D01*
X39052Y93804D02*
X34818Y93804D01*
X30550Y86184D02*
X28856Y86184D01*
X30550Y86184D02*
X30631Y86186D01*
X30711Y86192D01*
X30791Y86201D01*
X30870Y86215D01*
X30949Y86232D01*
X31027Y86253D01*
X31104Y86277D01*
X31179Y86305D01*
X31253Y86337D01*
X31326Y86372D01*
X31397Y86411D01*
X31465Y86453D01*
X31532Y86498D01*
X31597Y86546D01*
X31659Y86598D01*
X31718Y86652D01*
X31775Y86709D01*
X31829Y86768D01*
X31881Y86830D01*
X31929Y86895D01*
X31974Y86962D01*
X32016Y87031D01*
X32055Y87101D01*
X32090Y87174D01*
X32122Y87248D01*
X32150Y87323D01*
X32174Y87400D01*
X32195Y87478D01*
X32212Y87557D01*
X32226Y87636D01*
X32235Y87716D01*
X32241Y87796D01*
X32243Y87877D01*
X32243Y92111D01*
X32241Y92192D01*
X32235Y92272D01*
X32226Y92352D01*
X32212Y92431D01*
X32195Y92510D01*
X32174Y92588D01*
X32150Y92665D01*
X32122Y92740D01*
X32090Y92814D01*
X32055Y92887D01*
X32016Y92958D01*
X31974Y93026D01*
X31929Y93093D01*
X31881Y93158D01*
X31829Y93220D01*
X31775Y93279D01*
X31718Y93336D01*
X31659Y93390D01*
X31597Y93442D01*
X31532Y93490D01*
X31465Y93535D01*
X31397Y93577D01*
X31326Y93616D01*
X31253Y93651D01*
X31179Y93683D01*
X31104Y93711D01*
X31027Y93735D01*
X30949Y93756D01*
X30870Y93773D01*
X30791Y93787D01*
X30711Y93796D01*
X30631Y93802D01*
X30550Y93804D01*
X28856Y93804D01*
X25884Y93804D02*
X25884Y86184D01*
X25884Y90417D02*
X21651Y90417D01*
X21651Y93804D02*
X21651Y86184D01*
X18069Y86184D02*
X14682Y86184D01*
X18069Y86184D02*
X18069Y93804D01*
X14682Y93804D01*
X15529Y90417D02*
X18069Y90417D01*
X11700Y93804D02*
X11700Y86184D01*
X11700Y93804D02*
X9583Y93804D01*
X9492Y93802D01*
X9401Y93796D01*
X9310Y93786D01*
X9220Y93773D01*
X9131Y93755D01*
X9042Y93734D01*
X8955Y93709D01*
X8868Y93680D01*
X8783Y93647D01*
X8700Y93611D01*
X8618Y93571D01*
X8538Y93528D01*
X8459Y93481D01*
X8383Y93431D01*
X8309Y93378D01*
X8238Y93322D01*
X8169Y93262D01*
X8102Y93200D01*
X8039Y93135D01*
X7978Y93067D01*
X7920Y92997D01*
X7865Y92924D01*
X7813Y92849D01*
X7765Y92772D01*
X7720Y92692D01*
X7678Y92611D01*
X7640Y92529D01*
X7606Y92444D01*
X7575Y92358D01*
X7548Y92271D01*
X7525Y92183D01*
X7506Y92094D01*
X7490Y92005D01*
X7478Y91914D01*
X7470Y91824D01*
X7466Y91733D01*
X7466Y91641D01*
X7470Y91550D01*
X7478Y91460D01*
X7490Y91369D01*
X7506Y91280D01*
X7525Y91191D01*
X7548Y91103D01*
X7575Y91016D01*
X7606Y90930D01*
X7640Y90845D01*
X7678Y90763D01*
X7720Y90682D01*
X7765Y90602D01*
X7813Y90525D01*
X7865Y90450D01*
X7920Y90377D01*
X7978Y90307D01*
X8039Y90239D01*
X8102Y90174D01*
X8169Y90112D01*
X8238Y90052D01*
X8309Y89996D01*
X8383Y89943D01*
X8459Y89893D01*
X8538Y89846D01*
X8618Y89803D01*
X8700Y89763D01*
X8783Y89727D01*
X8868Y89694D01*
X8955Y89665D01*
X9042Y89640D01*
X9131Y89619D01*
X9220Y89601D01*
X9310Y89588D01*
X9401Y89578D01*
X9492Y89572D01*
X9583Y89570D01*
X9583Y89571D02*
X11700Y89571D01*
X9160Y89571D02*
X7466Y86184D01*
X135109Y61800D02*
X136803Y61800D01*
X136884Y61802D01*
X136964Y61808D01*
X137044Y61817D01*
X137123Y61831D01*
X137202Y61848D01*
X137280Y61869D01*
X137357Y61893D01*
X137432Y61921D01*
X137506Y61953D01*
X137579Y61988D01*
X137650Y62027D01*
X137718Y62069D01*
X137785Y62114D01*
X137850Y62162D01*
X137912Y62214D01*
X137971Y62268D01*
X138028Y62325D01*
X138082Y62384D01*
X138134Y62446D01*
X138182Y62511D01*
X138227Y62578D01*
X138269Y62647D01*
X138308Y62717D01*
X138343Y62790D01*
X138375Y62864D01*
X138403Y62939D01*
X138427Y63016D01*
X138448Y63094D01*
X138465Y63173D01*
X138479Y63252D01*
X138488Y63332D01*
X138494Y63412D01*
X138496Y63493D01*
X138496Y67727D01*
X138494Y67808D01*
X138488Y67888D01*
X138479Y67968D01*
X138465Y68047D01*
X138448Y68126D01*
X138427Y68204D01*
X138403Y68281D01*
X138375Y68356D01*
X138343Y68430D01*
X138308Y68503D01*
X138269Y68574D01*
X138227Y68642D01*
X138182Y68709D01*
X138134Y68774D01*
X138082Y68836D01*
X138028Y68895D01*
X137971Y68952D01*
X137912Y69006D01*
X137850Y69058D01*
X137785Y69106D01*
X137718Y69151D01*
X137650Y69193D01*
X137579Y69232D01*
X137506Y69267D01*
X137432Y69299D01*
X137357Y69327D01*
X137280Y69351D01*
X137202Y69372D01*
X137123Y69389D01*
X137044Y69403D01*
X136964Y69412D01*
X136884Y69418D01*
X136803Y69420D01*
X135109Y69420D01*
X132381Y67303D02*
X132381Y63917D01*
X132381Y67303D02*
X132379Y67394D01*
X132373Y67485D01*
X132363Y67576D01*
X132350Y67666D01*
X132332Y67755D01*
X132311Y67844D01*
X132286Y67931D01*
X132257Y68018D01*
X132224Y68103D01*
X132188Y68186D01*
X132148Y68268D01*
X132105Y68348D01*
X132058Y68427D01*
X132008Y68503D01*
X131955Y68577D01*
X131899Y68648D01*
X131839Y68717D01*
X131777Y68784D01*
X131712Y68847D01*
X131644Y68908D01*
X131574Y68966D01*
X131501Y69021D01*
X131426Y69073D01*
X131349Y69121D01*
X131269Y69166D01*
X131188Y69208D01*
X131106Y69246D01*
X131021Y69280D01*
X130935Y69311D01*
X130848Y69338D01*
X130760Y69361D01*
X130671Y69380D01*
X130582Y69396D01*
X130491Y69408D01*
X130401Y69416D01*
X130310Y69420D01*
X130218Y69420D01*
X130127Y69416D01*
X130037Y69408D01*
X129946Y69396D01*
X129857Y69380D01*
X129768Y69361D01*
X129680Y69338D01*
X129593Y69311D01*
X129507Y69280D01*
X129422Y69246D01*
X129340Y69208D01*
X129259Y69166D01*
X129179Y69121D01*
X129102Y69073D01*
X129027Y69021D01*
X128954Y68966D01*
X128884Y68908D01*
X128816Y68847D01*
X128751Y68784D01*
X128689Y68717D01*
X128629Y68648D01*
X128573Y68577D01*
X128520Y68503D01*
X128470Y68427D01*
X128423Y68348D01*
X128380Y68268D01*
X128340Y68186D01*
X128304Y68103D01*
X128271Y68018D01*
X128242Y67931D01*
X128217Y67844D01*
X128196Y67755D01*
X128178Y67666D01*
X128165Y67576D01*
X128155Y67485D01*
X128149Y67394D01*
X128147Y67303D01*
X128148Y67303D02*
X128148Y63917D01*
X128147Y63917D02*
X128149Y63826D01*
X128155Y63735D01*
X128165Y63644D01*
X128178Y63554D01*
X128196Y63465D01*
X128217Y63376D01*
X128242Y63289D01*
X128271Y63202D01*
X128304Y63117D01*
X128340Y63034D01*
X128380Y62952D01*
X128423Y62872D01*
X128470Y62793D01*
X128520Y62717D01*
X128573Y62643D01*
X128629Y62572D01*
X128689Y62503D01*
X128751Y62436D01*
X128816Y62373D01*
X128884Y62312D01*
X128954Y62254D01*
X129027Y62199D01*
X129102Y62147D01*
X129179Y62099D01*
X129259Y62054D01*
X129340Y62012D01*
X129422Y61974D01*
X129507Y61940D01*
X129593Y61909D01*
X129680Y61882D01*
X129768Y61859D01*
X129857Y61840D01*
X129946Y61824D01*
X130037Y61812D01*
X130127Y61804D01*
X130218Y61800D01*
X130310Y61800D01*
X130401Y61804D01*
X130491Y61812D01*
X130582Y61824D01*
X130671Y61840D01*
X130760Y61859D01*
X130848Y61882D01*
X130935Y61909D01*
X131021Y61940D01*
X131106Y61974D01*
X131188Y62012D01*
X131269Y62054D01*
X131349Y62099D01*
X131426Y62147D01*
X131501Y62199D01*
X131574Y62254D01*
X131644Y62312D01*
X131712Y62373D01*
X131777Y62436D01*
X131839Y62503D01*
X131899Y62572D01*
X131955Y62643D01*
X132008Y62717D01*
X132058Y62793D01*
X132105Y62872D01*
X132148Y62952D01*
X132188Y63034D01*
X132224Y63117D01*
X132257Y63202D01*
X132286Y63289D01*
X132311Y63376D01*
X132332Y63465D01*
X132350Y63554D01*
X132363Y63644D01*
X132373Y63735D01*
X132379Y63826D01*
X132381Y63917D01*
X124822Y61800D02*
X124822Y69420D01*
X120589Y61800D01*
X120589Y69420D01*
X113274Y63493D02*
X113276Y63412D01*
X113282Y63332D01*
X113291Y63252D01*
X113305Y63173D01*
X113322Y63094D01*
X113343Y63016D01*
X113367Y62939D01*
X113395Y62864D01*
X113427Y62790D01*
X113462Y62717D01*
X113501Y62647D01*
X113543Y62578D01*
X113588Y62511D01*
X113636Y62446D01*
X113688Y62384D01*
X113742Y62325D01*
X113799Y62268D01*
X113858Y62214D01*
X113920Y62162D01*
X113985Y62114D01*
X114052Y62069D01*
X114121Y62027D01*
X114191Y61988D01*
X114264Y61953D01*
X114338Y61921D01*
X114413Y61893D01*
X114490Y61869D01*
X114568Y61848D01*
X114647Y61831D01*
X114726Y61817D01*
X114806Y61808D01*
X114886Y61802D01*
X114967Y61800D01*
X115085Y61802D01*
X115202Y61808D01*
X115319Y61817D01*
X115436Y61831D01*
X115553Y61848D01*
X115668Y61869D01*
X115783Y61894D01*
X115898Y61923D01*
X116011Y61956D01*
X116123Y61992D01*
X116233Y62032D01*
X116343Y62075D01*
X116451Y62122D01*
X116557Y62173D01*
X116661Y62227D01*
X116764Y62284D01*
X116865Y62345D01*
X116964Y62409D01*
X117060Y62476D01*
X117154Y62547D01*
X117246Y62620D01*
X117336Y62697D01*
X117423Y62776D01*
X117507Y62858D01*
X117295Y67727D02*
X117293Y67808D01*
X117287Y67888D01*
X117278Y67968D01*
X117264Y68047D01*
X117247Y68126D01*
X117226Y68204D01*
X117202Y68281D01*
X117174Y68356D01*
X117142Y68430D01*
X117107Y68503D01*
X117068Y68574D01*
X117026Y68642D01*
X116981Y68709D01*
X116933Y68774D01*
X116881Y68836D01*
X116827Y68895D01*
X116770Y68952D01*
X116711Y69006D01*
X116649Y69058D01*
X116584Y69106D01*
X116517Y69151D01*
X116449Y69193D01*
X116378Y69232D01*
X116305Y69267D01*
X116231Y69299D01*
X116156Y69327D01*
X116079Y69351D01*
X116001Y69372D01*
X115922Y69389D01*
X115843Y69403D01*
X115763Y69412D01*
X115683Y69418D01*
X115602Y69420D01*
X115494Y69418D01*
X115387Y69413D01*
X115280Y69404D01*
X115173Y69391D01*
X115067Y69375D01*
X114961Y69355D01*
X114856Y69331D01*
X114752Y69304D01*
X114649Y69274D01*
X114547Y69240D01*
X114446Y69202D01*
X114347Y69161D01*
X114249Y69117D01*
X114152Y69070D01*
X114058Y69019D01*
X113964Y68965D01*
X113873Y68908D01*
X113784Y68848D01*
X113697Y68785D01*
X116448Y66245D02*
X116517Y66288D01*
X116584Y66334D01*
X116649Y66383D01*
X116711Y66435D01*
X116770Y66490D01*
X116827Y66548D01*
X116882Y66609D01*
X116933Y66671D01*
X116981Y66737D01*
X117026Y66804D01*
X117068Y66874D01*
X117107Y66945D01*
X117142Y67018D01*
X117174Y67093D01*
X117202Y67169D01*
X117227Y67246D01*
X117247Y67325D01*
X117264Y67404D01*
X117278Y67484D01*
X117287Y67565D01*
X117293Y67646D01*
X117295Y67727D01*
X114120Y64975D02*
X114051Y64932D01*
X113984Y64886D01*
X113919Y64837D01*
X113857Y64785D01*
X113798Y64730D01*
X113741Y64672D01*
X113686Y64611D01*
X113635Y64549D01*
X113587Y64483D01*
X113542Y64416D01*
X113500Y64346D01*
X113461Y64275D01*
X113426Y64202D01*
X113394Y64127D01*
X113366Y64051D01*
X113341Y63974D01*
X113321Y63895D01*
X113304Y63816D01*
X113290Y63736D01*
X113281Y63655D01*
X113275Y63574D01*
X113273Y63493D01*
X114120Y64975D02*
X116449Y66245D01*
X110436Y67303D02*
X110436Y63917D01*
X110436Y67303D02*
X110434Y67394D01*
X110428Y67485D01*
X110418Y67576D01*
X110405Y67666D01*
X110387Y67755D01*
X110366Y67844D01*
X110341Y67931D01*
X110312Y68018D01*
X110279Y68103D01*
X110243Y68186D01*
X110203Y68268D01*
X110160Y68348D01*
X110113Y68427D01*
X110063Y68503D01*
X110010Y68577D01*
X109954Y68648D01*
X109894Y68717D01*
X109832Y68784D01*
X109767Y68847D01*
X109699Y68908D01*
X109629Y68966D01*
X109556Y69021D01*
X109481Y69073D01*
X109404Y69121D01*
X109324Y69166D01*
X109243Y69208D01*
X109161Y69246D01*
X109076Y69280D01*
X108990Y69311D01*
X108903Y69338D01*
X108815Y69361D01*
X108726Y69380D01*
X108637Y69396D01*
X108546Y69408D01*
X108456Y69416D01*
X108365Y69420D01*
X108273Y69420D01*
X108182Y69416D01*
X108092Y69408D01*
X108001Y69396D01*
X107912Y69380D01*
X107823Y69361D01*
X107735Y69338D01*
X107648Y69311D01*
X107562Y69280D01*
X107477Y69246D01*
X107395Y69208D01*
X107314Y69166D01*
X107234Y69121D01*
X107157Y69073D01*
X107082Y69021D01*
X107009Y68966D01*
X106939Y68908D01*
X106871Y68847D01*
X106806Y68784D01*
X106744Y68717D01*
X106684Y68648D01*
X106628Y68577D01*
X106575Y68503D01*
X106525Y68427D01*
X106478Y68348D01*
X106435Y68268D01*
X106395Y68186D01*
X106359Y68103D01*
X106326Y68018D01*
X106297Y67931D01*
X106272Y67844D01*
X106251Y67755D01*
X106233Y67666D01*
X106220Y67576D01*
X106210Y67485D01*
X106204Y67394D01*
X106202Y67303D01*
X106202Y63917D01*
X106204Y63826D01*
X106210Y63735D01*
X106220Y63644D01*
X106233Y63554D01*
X106251Y63465D01*
X106272Y63376D01*
X106297Y63289D01*
X106326Y63202D01*
X106359Y63117D01*
X106395Y63034D01*
X106435Y62952D01*
X106478Y62872D01*
X106525Y62793D01*
X106575Y62717D01*
X106628Y62643D01*
X106684Y62572D01*
X106744Y62503D01*
X106806Y62436D01*
X106871Y62373D01*
X106939Y62312D01*
X107009Y62254D01*
X107082Y62199D01*
X107157Y62147D01*
X107234Y62099D01*
X107314Y62054D01*
X107395Y62012D01*
X107477Y61974D01*
X107562Y61940D01*
X107648Y61909D01*
X107735Y61882D01*
X107823Y61859D01*
X107912Y61840D01*
X108001Y61824D01*
X108092Y61812D01*
X108182Y61804D01*
X108273Y61800D01*
X108365Y61800D01*
X108456Y61804D01*
X108546Y61812D01*
X108637Y61824D01*
X108726Y61840D01*
X108815Y61859D01*
X108903Y61882D01*
X108990Y61909D01*
X109076Y61940D01*
X109161Y61974D01*
X109243Y62012D01*
X109324Y62054D01*
X109404Y62099D01*
X109481Y62147D01*
X109556Y62199D01*
X109629Y62254D01*
X109699Y62312D01*
X109767Y62373D01*
X109832Y62436D01*
X109894Y62503D01*
X109954Y62572D01*
X110010Y62643D01*
X110063Y62717D01*
X110113Y62793D01*
X110160Y62872D01*
X110203Y62952D01*
X110243Y63034D01*
X110279Y63117D01*
X110312Y63202D01*
X110341Y63289D01*
X110366Y63376D01*
X110387Y63465D01*
X110405Y63554D01*
X110418Y63644D01*
X110428Y63735D01*
X110434Y63826D01*
X110436Y63917D01*
X102864Y61800D02*
X102864Y69420D01*
X102864Y61800D02*
X99477Y61800D01*
X96524Y61800D02*
X93137Y61800D01*
X96524Y61800D02*
X96524Y69420D01*
X93137Y69420D01*
X93984Y66033D02*
X96524Y66033D01*
X88145Y61800D02*
X88064Y61802D01*
X87984Y61808D01*
X87904Y61817D01*
X87825Y61831D01*
X87746Y61848D01*
X87668Y61869D01*
X87591Y61893D01*
X87516Y61921D01*
X87442Y61953D01*
X87369Y61988D01*
X87299Y62027D01*
X87230Y62069D01*
X87163Y62114D01*
X87098Y62162D01*
X87036Y62214D01*
X86977Y62268D01*
X86920Y62325D01*
X86866Y62384D01*
X86814Y62446D01*
X86766Y62511D01*
X86721Y62578D01*
X86679Y62647D01*
X86640Y62717D01*
X86605Y62790D01*
X86573Y62864D01*
X86545Y62939D01*
X86521Y63016D01*
X86500Y63094D01*
X86483Y63173D01*
X86469Y63252D01*
X86460Y63332D01*
X86454Y63412D01*
X86452Y63493D01*
X88145Y61800D02*
X88263Y61802D01*
X88380Y61808D01*
X88497Y61817D01*
X88614Y61831D01*
X88731Y61848D01*
X88846Y61869D01*
X88961Y61894D01*
X89076Y61923D01*
X89189Y61956D01*
X89301Y61992D01*
X89411Y62032D01*
X89521Y62075D01*
X89629Y62122D01*
X89735Y62173D01*
X89839Y62227D01*
X89942Y62284D01*
X90043Y62345D01*
X90142Y62409D01*
X90238Y62476D01*
X90332Y62547D01*
X90424Y62620D01*
X90514Y62697D01*
X90601Y62776D01*
X90685Y62858D01*
X90473Y67727D02*
X90471Y67808D01*
X90465Y67888D01*
X90456Y67968D01*
X90442Y68047D01*
X90425Y68126D01*
X90404Y68204D01*
X90380Y68281D01*
X90352Y68356D01*
X90320Y68430D01*
X90285Y68503D01*
X90246Y68574D01*
X90204Y68642D01*
X90159Y68709D01*
X90111Y68774D01*
X90059Y68836D01*
X90005Y68895D01*
X89948Y68952D01*
X89889Y69006D01*
X89827Y69058D01*
X89762Y69106D01*
X89695Y69151D01*
X89627Y69193D01*
X89556Y69232D01*
X89483Y69267D01*
X89409Y69299D01*
X89334Y69327D01*
X89257Y69351D01*
X89179Y69372D01*
X89100Y69389D01*
X89021Y69403D01*
X88941Y69412D01*
X88861Y69418D01*
X88780Y69420D01*
X88672Y69418D01*
X88565Y69413D01*
X88458Y69404D01*
X88351Y69391D01*
X88245Y69375D01*
X88139Y69355D01*
X88034Y69331D01*
X87930Y69304D01*
X87827Y69274D01*
X87725Y69240D01*
X87624Y69202D01*
X87525Y69161D01*
X87427Y69117D01*
X87330Y69070D01*
X87236Y69019D01*
X87142Y68965D01*
X87051Y68908D01*
X86962Y68848D01*
X86875Y68785D01*
X89626Y66245D02*
X89695Y66288D01*
X89762Y66334D01*
X89827Y66383D01*
X89889Y66435D01*
X89948Y66490D01*
X90005Y66548D01*
X90060Y66609D01*
X90111Y66671D01*
X90159Y66737D01*
X90204Y66804D01*
X90246Y66874D01*
X90285Y66945D01*
X90320Y67018D01*
X90352Y67093D01*
X90380Y67169D01*
X90405Y67246D01*
X90425Y67325D01*
X90442Y67404D01*
X90456Y67484D01*
X90465Y67565D01*
X90471Y67646D01*
X90473Y67727D01*
X87298Y64975D02*
X87229Y64932D01*
X87162Y64886D01*
X87097Y64837D01*
X87035Y64785D01*
X86976Y64730D01*
X86919Y64672D01*
X86864Y64611D01*
X86813Y64549D01*
X86765Y64483D01*
X86720Y64416D01*
X86678Y64346D01*
X86639Y64275D01*
X86604Y64202D01*
X86572Y64127D01*
X86544Y64051D01*
X86519Y63974D01*
X86499Y63895D01*
X86482Y63816D01*
X86468Y63736D01*
X86459Y63655D01*
X86453Y63574D01*
X86451Y63493D01*
X87298Y64975D02*
X89626Y66245D01*
X79468Y63917D02*
X79468Y69420D01*
X79468Y63917D02*
X79466Y63826D01*
X79460Y63735D01*
X79450Y63644D01*
X79437Y63554D01*
X79419Y63465D01*
X79398Y63376D01*
X79373Y63289D01*
X79344Y63202D01*
X79311Y63117D01*
X79275Y63034D01*
X79235Y62952D01*
X79192Y62872D01*
X79145Y62793D01*
X79095Y62717D01*
X79042Y62643D01*
X78986Y62572D01*
X78926Y62503D01*
X78864Y62436D01*
X78799Y62373D01*
X78731Y62312D01*
X78661Y62254D01*
X78588Y62199D01*
X78513Y62147D01*
X78436Y62099D01*
X78356Y62054D01*
X78275Y62012D01*
X78193Y61974D01*
X78108Y61940D01*
X78022Y61909D01*
X77935Y61882D01*
X77847Y61859D01*
X77758Y61840D01*
X77669Y61824D01*
X77578Y61812D01*
X77488Y61804D01*
X77397Y61800D01*
X77305Y61800D01*
X77214Y61804D01*
X77124Y61812D01*
X77033Y61824D01*
X76944Y61840D01*
X76855Y61859D01*
X76767Y61882D01*
X76680Y61909D01*
X76594Y61940D01*
X76509Y61974D01*
X76427Y62012D01*
X76346Y62054D01*
X76266Y62099D01*
X76189Y62147D01*
X76114Y62199D01*
X76041Y62254D01*
X75971Y62312D01*
X75903Y62373D01*
X75838Y62436D01*
X75776Y62503D01*
X75716Y62572D01*
X75660Y62643D01*
X75607Y62717D01*
X75557Y62793D01*
X75510Y62872D01*
X75467Y62952D01*
X75427Y63034D01*
X75391Y63117D01*
X75358Y63202D01*
X75329Y63289D01*
X75304Y63376D01*
X75283Y63465D01*
X75265Y63554D01*
X75252Y63644D01*
X75242Y63735D01*
X75236Y63826D01*
X75234Y63917D01*
X75235Y63917D02*
X75235Y69420D01*
X71665Y69420D02*
X71665Y61800D01*
X67432Y61800D02*
X71665Y69420D01*
X67432Y69420D02*
X67432Y61800D01*
X63849Y61800D02*
X63849Y69420D01*
X63849Y61800D02*
X60463Y61800D01*
X57510Y61800D02*
X54123Y61800D01*
X57510Y61800D02*
X57510Y69420D01*
X54123Y69420D01*
X54970Y66033D02*
X57510Y66033D01*
X51850Y61800D02*
X49310Y69420D01*
X46770Y61800D01*
X47405Y63705D02*
X51215Y63705D01*
X41815Y61800D02*
X41734Y61802D01*
X41654Y61808D01*
X41574Y61817D01*
X41495Y61831D01*
X41416Y61848D01*
X41338Y61869D01*
X41261Y61893D01*
X41186Y61921D01*
X41112Y61953D01*
X41039Y61988D01*
X40969Y62027D01*
X40900Y62069D01*
X40833Y62114D01*
X40768Y62162D01*
X40706Y62214D01*
X40647Y62268D01*
X40590Y62325D01*
X40536Y62384D01*
X40484Y62446D01*
X40436Y62511D01*
X40391Y62578D01*
X40349Y62647D01*
X40310Y62717D01*
X40275Y62790D01*
X40243Y62864D01*
X40215Y62939D01*
X40191Y63016D01*
X40170Y63094D01*
X40153Y63173D01*
X40139Y63252D01*
X40130Y63332D01*
X40124Y63412D01*
X40122Y63493D01*
X41815Y61800D02*
X41933Y61802D01*
X42050Y61808D01*
X42167Y61817D01*
X42284Y61831D01*
X42401Y61848D01*
X42516Y61869D01*
X42631Y61894D01*
X42746Y61923D01*
X42859Y61956D01*
X42971Y61992D01*
X43081Y62032D01*
X43191Y62075D01*
X43299Y62122D01*
X43405Y62173D01*
X43509Y62227D01*
X43612Y62284D01*
X43713Y62345D01*
X43812Y62409D01*
X43908Y62476D01*
X44002Y62547D01*
X44094Y62620D01*
X44184Y62697D01*
X44271Y62776D01*
X44355Y62858D01*
X44143Y67727D02*
X44141Y67808D01*
X44135Y67888D01*
X44126Y67968D01*
X44112Y68047D01*
X44095Y68126D01*
X44074Y68204D01*
X44050Y68281D01*
X44022Y68356D01*
X43990Y68430D01*
X43955Y68503D01*
X43916Y68574D01*
X43874Y68642D01*
X43829Y68709D01*
X43781Y68774D01*
X43729Y68836D01*
X43675Y68895D01*
X43618Y68952D01*
X43559Y69006D01*
X43497Y69058D01*
X43432Y69106D01*
X43365Y69151D01*
X43297Y69193D01*
X43226Y69232D01*
X43153Y69267D01*
X43079Y69299D01*
X43004Y69327D01*
X42927Y69351D01*
X42849Y69372D01*
X42770Y69389D01*
X42691Y69403D01*
X42611Y69412D01*
X42531Y69418D01*
X42450Y69420D01*
X42342Y69418D01*
X42235Y69413D01*
X42128Y69404D01*
X42021Y69391D01*
X41915Y69375D01*
X41809Y69355D01*
X41704Y69331D01*
X41600Y69304D01*
X41497Y69274D01*
X41395Y69240D01*
X41294Y69202D01*
X41195Y69161D01*
X41097Y69117D01*
X41000Y69070D01*
X40906Y69019D01*
X40812Y68965D01*
X40721Y68908D01*
X40632Y68848D01*
X40545Y68785D01*
X43297Y66245D02*
X43366Y66288D01*
X43433Y66334D01*
X43498Y66383D01*
X43560Y66435D01*
X43619Y66490D01*
X43676Y66548D01*
X43731Y66609D01*
X43782Y66671D01*
X43830Y66737D01*
X43875Y66804D01*
X43917Y66874D01*
X43956Y66945D01*
X43991Y67018D01*
X44023Y67093D01*
X44051Y67169D01*
X44076Y67246D01*
X44096Y67325D01*
X44113Y67404D01*
X44127Y67484D01*
X44136Y67565D01*
X44142Y67646D01*
X44144Y67727D01*
X40969Y64975D02*
X40900Y64932D01*
X40833Y64886D01*
X40768Y64837D01*
X40706Y64785D01*
X40647Y64730D01*
X40590Y64672D01*
X40535Y64611D01*
X40484Y64549D01*
X40436Y64483D01*
X40391Y64416D01*
X40349Y64346D01*
X40310Y64275D01*
X40275Y64202D01*
X40243Y64127D01*
X40215Y64051D01*
X40190Y63974D01*
X40170Y63895D01*
X40153Y63816D01*
X40139Y63736D01*
X40130Y63655D01*
X40124Y63574D01*
X40122Y63493D01*
X40968Y64975D02*
X43297Y66245D01*
X37040Y69420D02*
X37040Y61800D01*
X37040Y66033D02*
X32807Y66033D01*
X32807Y69420D02*
X32807Y61800D01*
X29224Y61800D02*
X25838Y61800D01*
X29224Y61800D02*
X29224Y69420D01*
X25838Y69420D01*
X26684Y66033D02*
X29224Y66033D01*
X22897Y69420D02*
X22897Y61800D01*
X22897Y69420D02*
X20781Y69420D01*
X20691Y69418D01*
X20601Y69412D01*
X20512Y69403D01*
X20423Y69390D01*
X20335Y69372D01*
X20248Y69352D01*
X20161Y69327D01*
X20076Y69299D01*
X19992Y69267D01*
X19909Y69232D01*
X19828Y69193D01*
X19749Y69151D01*
X19671Y69106D01*
X19596Y69057D01*
X19522Y69005D01*
X19451Y68950D01*
X19382Y68892D01*
X19316Y68831D01*
X19253Y68768D01*
X19192Y68702D01*
X19134Y68633D01*
X19079Y68562D01*
X19027Y68488D01*
X18978Y68413D01*
X18933Y68335D01*
X18891Y68256D01*
X18852Y68175D01*
X18817Y68092D01*
X18785Y68008D01*
X18757Y67923D01*
X18732Y67836D01*
X18712Y67749D01*
X18694Y67661D01*
X18681Y67572D01*
X18672Y67483D01*
X18666Y67393D01*
X18664Y67303D01*
X18664Y63917D01*
X18666Y63827D01*
X18672Y63737D01*
X18681Y63648D01*
X18694Y63559D01*
X18712Y63471D01*
X18732Y63384D01*
X18757Y63297D01*
X18785Y63212D01*
X18817Y63128D01*
X18852Y63045D01*
X18891Y62964D01*
X18933Y62885D01*
X18978Y62807D01*
X19027Y62732D01*
X19079Y62658D01*
X19134Y62587D01*
X19192Y62518D01*
X19253Y62452D01*
X19316Y62389D01*
X19382Y62328D01*
X19451Y62270D01*
X19522Y62215D01*
X19596Y62163D01*
X19671Y62114D01*
X19749Y62069D01*
X19828Y62027D01*
X19909Y61988D01*
X19992Y61953D01*
X20076Y61921D01*
X20161Y61893D01*
X20248Y61868D01*
X20335Y61848D01*
X20423Y61830D01*
X20512Y61817D01*
X20601Y61808D01*
X20691Y61802D01*
X20781Y61800D01*
X22897Y61800D01*
X135956Y37416D02*
X138496Y45036D01*
X133416Y45036D02*
X135956Y37416D01*
X130104Y37416D02*
X130104Y45036D01*
X130951Y37416D02*
X129257Y37416D01*
X129257Y45036D02*
X130951Y45036D01*
X126125Y45036D02*
X126125Y37416D01*
X126125Y45036D02*
X124008Y45036D01*
X123918Y45034D01*
X123828Y45028D01*
X123739Y45019D01*
X123650Y45006D01*
X123562Y44988D01*
X123475Y44968D01*
X123388Y44943D01*
X123303Y44915D01*
X123219Y44883D01*
X123136Y44848D01*
X123055Y44809D01*
X122976Y44767D01*
X122898Y44722D01*
X122823Y44673D01*
X122749Y44621D01*
X122678Y44566D01*
X122609Y44508D01*
X122543Y44447D01*
X122480Y44384D01*
X122419Y44318D01*
X122361Y44249D01*
X122306Y44178D01*
X122254Y44104D01*
X122205Y44029D01*
X122160Y43951D01*
X122118Y43872D01*
X122079Y43791D01*
X122044Y43708D01*
X122012Y43624D01*
X121984Y43539D01*
X121959Y43452D01*
X121939Y43365D01*
X121921Y43277D01*
X121908Y43188D01*
X121899Y43099D01*
X121893Y43009D01*
X121891Y42919D01*
X121891Y39533D01*
X121893Y39443D01*
X121899Y39353D01*
X121908Y39264D01*
X121921Y39175D01*
X121939Y39087D01*
X121959Y39000D01*
X121984Y38913D01*
X122012Y38828D01*
X122044Y38744D01*
X122079Y38661D01*
X122118Y38580D01*
X122160Y38501D01*
X122205Y38423D01*
X122254Y38348D01*
X122306Y38274D01*
X122361Y38203D01*
X122419Y38134D01*
X122480Y38068D01*
X122543Y38005D01*
X122609Y37944D01*
X122678Y37886D01*
X122749Y37831D01*
X122823Y37779D01*
X122898Y37730D01*
X122976Y37685D01*
X123055Y37643D01*
X123136Y37604D01*
X123219Y37569D01*
X123303Y37537D01*
X123388Y37509D01*
X123475Y37484D01*
X123562Y37464D01*
X123650Y37446D01*
X123739Y37433D01*
X123828Y37424D01*
X123918Y37418D01*
X124008Y37416D01*
X126125Y37416D01*
X112368Y37416D02*
X112287Y37418D01*
X112207Y37424D01*
X112127Y37433D01*
X112048Y37447D01*
X111969Y37464D01*
X111891Y37485D01*
X111814Y37509D01*
X111739Y37537D01*
X111665Y37569D01*
X111592Y37604D01*
X111522Y37643D01*
X111453Y37685D01*
X111386Y37730D01*
X111321Y37778D01*
X111259Y37830D01*
X111200Y37884D01*
X111143Y37941D01*
X111089Y38000D01*
X111037Y38062D01*
X110989Y38127D01*
X110944Y38194D01*
X110902Y38263D01*
X110863Y38333D01*
X110828Y38406D01*
X110796Y38480D01*
X110768Y38555D01*
X110744Y38632D01*
X110723Y38710D01*
X110706Y38789D01*
X110692Y38868D01*
X110683Y38948D01*
X110677Y39028D01*
X110675Y39109D01*
X112368Y37416D02*
X112486Y37418D01*
X112603Y37424D01*
X112720Y37433D01*
X112837Y37447D01*
X112954Y37464D01*
X113069Y37485D01*
X113184Y37510D01*
X113299Y37539D01*
X113412Y37572D01*
X113524Y37608D01*
X113634Y37648D01*
X113744Y37691D01*
X113852Y37738D01*
X113958Y37789D01*
X114062Y37843D01*
X114165Y37900D01*
X114266Y37961D01*
X114365Y38025D01*
X114461Y38092D01*
X114555Y38163D01*
X114647Y38236D01*
X114737Y38313D01*
X114824Y38392D01*
X114908Y38474D01*
X114696Y43343D02*
X114694Y43424D01*
X114688Y43504D01*
X114679Y43584D01*
X114665Y43663D01*
X114648Y43742D01*
X114627Y43820D01*
X114603Y43897D01*
X114575Y43972D01*
X114543Y44046D01*
X114508Y44119D01*
X114469Y44190D01*
X114427Y44258D01*
X114382Y44325D01*
X114334Y44390D01*
X114282Y44452D01*
X114228Y44511D01*
X114171Y44568D01*
X114112Y44622D01*
X114050Y44674D01*
X113985Y44722D01*
X113918Y44767D01*
X113850Y44809D01*
X113779Y44848D01*
X113706Y44883D01*
X113632Y44915D01*
X113557Y44943D01*
X113480Y44967D01*
X113402Y44988D01*
X113323Y45005D01*
X113244Y45019D01*
X113164Y45028D01*
X113084Y45034D01*
X113003Y45036D01*
X112895Y45034D01*
X112788Y45029D01*
X112681Y45020D01*
X112574Y45007D01*
X112468Y44991D01*
X112362Y44971D01*
X112257Y44947D01*
X112153Y44920D01*
X112050Y44890D01*
X111948Y44856D01*
X111847Y44818D01*
X111748Y44777D01*
X111650Y44733D01*
X111553Y44686D01*
X111459Y44635D01*
X111365Y44581D01*
X111274Y44524D01*
X111185Y44464D01*
X111098Y44401D01*
X113849Y41861D02*
X113918Y41904D01*
X113985Y41950D01*
X114050Y41999D01*
X114112Y42051D01*
X114171Y42106D01*
X114228Y42164D01*
X114283Y42225D01*
X114334Y42287D01*
X114382Y42353D01*
X114427Y42420D01*
X114469Y42490D01*
X114508Y42561D01*
X114543Y42634D01*
X114575Y42709D01*
X114603Y42785D01*
X114628Y42862D01*
X114648Y42941D01*
X114665Y43020D01*
X114679Y43100D01*
X114688Y43181D01*
X114694Y43262D01*
X114696Y43343D01*
X111521Y40591D02*
X111452Y40548D01*
X111385Y40502D01*
X111320Y40453D01*
X111258Y40401D01*
X111199Y40346D01*
X111142Y40288D01*
X111087Y40227D01*
X111036Y40165D01*
X110988Y40099D01*
X110943Y40032D01*
X110901Y39962D01*
X110862Y39891D01*
X110827Y39818D01*
X110795Y39743D01*
X110767Y39667D01*
X110742Y39590D01*
X110722Y39511D01*
X110705Y39432D01*
X110691Y39352D01*
X110682Y39271D01*
X110676Y39190D01*
X110674Y39109D01*
X111521Y40591D02*
X113850Y41861D01*
X108131Y45036D02*
X106438Y37416D01*
X104745Y42496D01*
X103051Y37416D01*
X101358Y45036D01*
X97917Y45036D02*
X97917Y37416D01*
X98764Y37416D02*
X97070Y37416D01*
X97070Y45036D02*
X98764Y45036D01*
X92553Y45036D02*
X92553Y37416D01*
X94669Y45036D02*
X90436Y45036D01*
X86167Y37416D02*
X84474Y37416D01*
X86167Y37416D02*
X86248Y37418D01*
X86328Y37424D01*
X86408Y37433D01*
X86487Y37447D01*
X86566Y37464D01*
X86644Y37485D01*
X86721Y37509D01*
X86796Y37537D01*
X86870Y37569D01*
X86943Y37604D01*
X87014Y37643D01*
X87082Y37685D01*
X87149Y37730D01*
X87214Y37778D01*
X87276Y37830D01*
X87335Y37884D01*
X87392Y37941D01*
X87446Y38000D01*
X87498Y38062D01*
X87546Y38127D01*
X87591Y38194D01*
X87633Y38263D01*
X87672Y38333D01*
X87707Y38406D01*
X87739Y38480D01*
X87767Y38555D01*
X87791Y38632D01*
X87812Y38710D01*
X87829Y38789D01*
X87843Y38868D01*
X87852Y38948D01*
X87858Y39028D01*
X87860Y39109D01*
X87861Y39109D02*
X87861Y43343D01*
X87860Y43343D02*
X87858Y43424D01*
X87852Y43504D01*
X87843Y43584D01*
X87829Y43663D01*
X87812Y43742D01*
X87791Y43820D01*
X87767Y43897D01*
X87739Y43972D01*
X87707Y44046D01*
X87672Y44119D01*
X87633Y44190D01*
X87591Y44258D01*
X87546Y44325D01*
X87498Y44390D01*
X87446Y44452D01*
X87392Y44511D01*
X87335Y44568D01*
X87276Y44622D01*
X87214Y44674D01*
X87149Y44722D01*
X87082Y44767D01*
X87014Y44809D01*
X86943Y44848D01*
X86870Y44883D01*
X86796Y44915D01*
X86721Y44943D01*
X86644Y44967D01*
X86566Y44988D01*
X86487Y45005D01*
X86408Y45019D01*
X86328Y45028D01*
X86248Y45034D01*
X86167Y45036D01*
X84474Y45036D01*
X81502Y45036D02*
X81502Y37416D01*
X81502Y41649D02*
X77269Y41649D01*
X77269Y45036D02*
X77269Y37416D01*
X69785Y37416D02*
X69785Y45036D01*
X69785Y37416D02*
X66398Y37416D01*
X63702Y39533D02*
X63702Y42919D01*
X63700Y43010D01*
X63694Y43101D01*
X63684Y43192D01*
X63671Y43282D01*
X63653Y43371D01*
X63632Y43460D01*
X63607Y43547D01*
X63578Y43634D01*
X63545Y43719D01*
X63509Y43802D01*
X63469Y43884D01*
X63426Y43964D01*
X63379Y44043D01*
X63329Y44119D01*
X63276Y44193D01*
X63220Y44264D01*
X63160Y44333D01*
X63098Y44400D01*
X63033Y44463D01*
X62965Y44524D01*
X62895Y44582D01*
X62822Y44637D01*
X62747Y44689D01*
X62670Y44737D01*
X62590Y44782D01*
X62509Y44824D01*
X62427Y44862D01*
X62342Y44896D01*
X62256Y44927D01*
X62169Y44954D01*
X62081Y44977D01*
X61992Y44996D01*
X61903Y45012D01*
X61812Y45024D01*
X61722Y45032D01*
X61631Y45036D01*
X61539Y45036D01*
X61448Y45032D01*
X61358Y45024D01*
X61267Y45012D01*
X61178Y44996D01*
X61089Y44977D01*
X61001Y44954D01*
X60914Y44927D01*
X60828Y44896D01*
X60743Y44862D01*
X60661Y44824D01*
X60580Y44782D01*
X60500Y44737D01*
X60423Y44689D01*
X60348Y44637D01*
X60275Y44582D01*
X60205Y44524D01*
X60137Y44463D01*
X60072Y44400D01*
X60010Y44333D01*
X59950Y44264D01*
X59894Y44193D01*
X59841Y44119D01*
X59791Y44043D01*
X59744Y43964D01*
X59701Y43884D01*
X59661Y43802D01*
X59625Y43719D01*
X59592Y43634D01*
X59563Y43547D01*
X59538Y43460D01*
X59517Y43371D01*
X59499Y43282D01*
X59486Y43192D01*
X59476Y43101D01*
X59470Y43010D01*
X59468Y42919D01*
X59468Y39533D01*
X59470Y39442D01*
X59476Y39351D01*
X59486Y39260D01*
X59499Y39170D01*
X59517Y39081D01*
X59538Y38992D01*
X59563Y38905D01*
X59592Y38818D01*
X59625Y38733D01*
X59661Y38650D01*
X59701Y38568D01*
X59744Y38488D01*
X59791Y38409D01*
X59841Y38333D01*
X59894Y38259D01*
X59950Y38188D01*
X60010Y38119D01*
X60072Y38052D01*
X60137Y37989D01*
X60205Y37928D01*
X60275Y37870D01*
X60348Y37815D01*
X60423Y37763D01*
X60500Y37715D01*
X60580Y37670D01*
X60661Y37628D01*
X60743Y37590D01*
X60828Y37556D01*
X60914Y37525D01*
X61001Y37498D01*
X61089Y37475D01*
X61178Y37456D01*
X61267Y37440D01*
X61358Y37428D01*
X61448Y37420D01*
X61539Y37416D01*
X61631Y37416D01*
X61722Y37420D01*
X61812Y37428D01*
X61903Y37440D01*
X61992Y37456D01*
X62081Y37475D01*
X62169Y37498D01*
X62256Y37525D01*
X62342Y37556D01*
X62427Y37590D01*
X62509Y37628D01*
X62590Y37670D01*
X62670Y37715D01*
X62747Y37763D01*
X62822Y37815D01*
X62895Y37870D01*
X62965Y37928D01*
X63033Y37989D01*
X63098Y38052D01*
X63160Y38119D01*
X63220Y38188D01*
X63276Y38259D01*
X63329Y38333D01*
X63379Y38409D01*
X63426Y38488D01*
X63469Y38568D01*
X63509Y38650D01*
X63545Y38733D01*
X63578Y38818D01*
X63607Y38905D01*
X63632Y38992D01*
X63653Y39081D01*
X63671Y39170D01*
X63684Y39260D01*
X63694Y39351D01*
X63700Y39442D01*
X63702Y39533D01*
X53179Y41649D02*
X51909Y41649D01*
X51909Y37416D01*
X54449Y37416D01*
X54530Y37418D01*
X54610Y37424D01*
X54690Y37433D01*
X54769Y37447D01*
X54848Y37464D01*
X54926Y37485D01*
X55003Y37509D01*
X55078Y37537D01*
X55152Y37569D01*
X55225Y37604D01*
X55296Y37643D01*
X55364Y37685D01*
X55431Y37730D01*
X55496Y37778D01*
X55558Y37830D01*
X55617Y37884D01*
X55674Y37941D01*
X55728Y38000D01*
X55780Y38062D01*
X55828Y38127D01*
X55873Y38194D01*
X55915Y38263D01*
X55954Y38333D01*
X55989Y38406D01*
X56021Y38480D01*
X56049Y38555D01*
X56073Y38632D01*
X56094Y38710D01*
X56111Y38789D01*
X56125Y38868D01*
X56134Y38948D01*
X56140Y39028D01*
X56142Y39109D01*
X56143Y39109D02*
X56143Y43343D01*
X56142Y43343D02*
X56140Y43424D01*
X56134Y43504D01*
X56125Y43584D01*
X56111Y43663D01*
X56094Y43742D01*
X56073Y43820D01*
X56049Y43897D01*
X56021Y43972D01*
X55989Y44046D01*
X55954Y44119D01*
X55915Y44190D01*
X55873Y44258D01*
X55828Y44325D01*
X55780Y44390D01*
X55728Y44452D01*
X55674Y44511D01*
X55617Y44568D01*
X55558Y44622D01*
X55496Y44674D01*
X55431Y44722D01*
X55364Y44767D01*
X55296Y44809D01*
X55225Y44848D01*
X55152Y44883D01*
X55078Y44915D01*
X55003Y44943D01*
X54926Y44967D01*
X54848Y44988D01*
X54769Y45005D01*
X54690Y45019D01*
X54610Y45028D01*
X54530Y45034D01*
X54449Y45036D01*
X51909Y45036D01*
X47930Y45036D02*
X47930Y37416D01*
X48777Y37416D02*
X47083Y37416D01*
X47083Y45036D02*
X48777Y45036D01*
X42520Y37416D02*
X40827Y37416D01*
X42520Y37416D02*
X42601Y37418D01*
X42681Y37424D01*
X42761Y37433D01*
X42840Y37447D01*
X42919Y37464D01*
X42997Y37485D01*
X43074Y37509D01*
X43149Y37537D01*
X43223Y37569D01*
X43296Y37604D01*
X43367Y37643D01*
X43435Y37685D01*
X43502Y37730D01*
X43567Y37778D01*
X43629Y37830D01*
X43688Y37884D01*
X43745Y37941D01*
X43799Y38000D01*
X43851Y38062D01*
X43899Y38127D01*
X43944Y38194D01*
X43986Y38263D01*
X44025Y38333D01*
X44060Y38406D01*
X44092Y38480D01*
X44120Y38555D01*
X44144Y38632D01*
X44165Y38710D01*
X44182Y38789D01*
X44196Y38868D01*
X44205Y38948D01*
X44211Y39028D01*
X44213Y39109D01*
X44213Y43343D01*
X44211Y43424D01*
X44205Y43504D01*
X44196Y43584D01*
X44182Y43663D01*
X44165Y43742D01*
X44144Y43820D01*
X44120Y43897D01*
X44092Y43972D01*
X44060Y44046D01*
X44025Y44119D01*
X43986Y44190D01*
X43944Y44258D01*
X43899Y44325D01*
X43851Y44390D01*
X43799Y44452D01*
X43745Y44511D01*
X43688Y44568D01*
X43629Y44622D01*
X43567Y44674D01*
X43502Y44722D01*
X43435Y44767D01*
X43367Y44809D01*
X43296Y44848D01*
X43223Y44883D01*
X43149Y44915D01*
X43074Y44943D01*
X42997Y44967D01*
X42919Y44988D01*
X42840Y45005D01*
X42761Y45019D01*
X42681Y45028D01*
X42601Y45034D01*
X42520Y45036D01*
X40827Y45036D01*
X138496Y32844D02*
X138496Y25224D01*
X138496Y29457D02*
X134263Y29457D01*
X134263Y32844D02*
X134263Y25224D01*
X130283Y25224D02*
X130283Y32844D01*
X131130Y25224D02*
X129437Y25224D01*
X129437Y32844D02*
X131130Y32844D01*
X123341Y29457D02*
X122071Y29457D01*
X122071Y25224D01*
X124611Y25224D01*
X124692Y25226D01*
X124772Y25232D01*
X124852Y25241D01*
X124931Y25255D01*
X125010Y25272D01*
X125088Y25293D01*
X125165Y25317D01*
X125240Y25345D01*
X125314Y25377D01*
X125387Y25412D01*
X125458Y25451D01*
X125526Y25493D01*
X125593Y25538D01*
X125658Y25586D01*
X125720Y25638D01*
X125779Y25692D01*
X125836Y25749D01*
X125890Y25808D01*
X125942Y25870D01*
X125990Y25935D01*
X126035Y26002D01*
X126077Y26071D01*
X126116Y26141D01*
X126151Y26214D01*
X126183Y26288D01*
X126211Y26363D01*
X126235Y26440D01*
X126256Y26518D01*
X126273Y26597D01*
X126287Y26676D01*
X126296Y26756D01*
X126302Y26836D01*
X126304Y26917D01*
X126304Y31151D01*
X126302Y31232D01*
X126296Y31312D01*
X126287Y31392D01*
X126273Y31471D01*
X126256Y31550D01*
X126235Y31628D01*
X126211Y31705D01*
X126183Y31780D01*
X126151Y31854D01*
X126116Y31927D01*
X126077Y31998D01*
X126035Y32066D01*
X125990Y32133D01*
X125942Y32198D01*
X125890Y32260D01*
X125836Y32319D01*
X125779Y32376D01*
X125720Y32430D01*
X125658Y32482D01*
X125593Y32530D01*
X125526Y32575D01*
X125458Y32617D01*
X125387Y32656D01*
X125314Y32691D01*
X125240Y32723D01*
X125165Y32751D01*
X125088Y32775D01*
X125010Y32796D01*
X124931Y32813D01*
X124852Y32827D01*
X124772Y32836D01*
X124692Y32842D01*
X124611Y32844D01*
X122071Y32844D01*
X118501Y32844D02*
X118501Y25224D01*
X118501Y29457D02*
X114268Y29457D01*
X114268Y32844D02*
X114268Y25224D01*
X110878Y26917D02*
X105798Y26917D01*
X105798Y29457D02*
X110878Y29457D01*
X102311Y32844D02*
X102311Y25224D01*
X102311Y32844D02*
X100195Y32844D01*
X100104Y32842D01*
X100013Y32836D01*
X99922Y32826D01*
X99832Y32813D01*
X99743Y32795D01*
X99654Y32774D01*
X99567Y32749D01*
X99480Y32720D01*
X99395Y32687D01*
X99312Y32651D01*
X99230Y32611D01*
X99150Y32568D01*
X99071Y32521D01*
X98995Y32471D01*
X98921Y32418D01*
X98850Y32362D01*
X98781Y32302D01*
X98714Y32240D01*
X98651Y32175D01*
X98590Y32107D01*
X98532Y32037D01*
X98477Y31964D01*
X98425Y31889D01*
X98377Y31812D01*
X98332Y31732D01*
X98290Y31651D01*
X98252Y31569D01*
X98218Y31484D01*
X98187Y31398D01*
X98160Y31311D01*
X98137Y31223D01*
X98118Y31134D01*
X98102Y31045D01*
X98090Y30954D01*
X98082Y30864D01*
X98078Y30773D01*
X98078Y30681D01*
X98082Y30590D01*
X98090Y30500D01*
X98102Y30409D01*
X98118Y30320D01*
X98137Y30231D01*
X98160Y30143D01*
X98187Y30056D01*
X98218Y29970D01*
X98252Y29885D01*
X98290Y29803D01*
X98332Y29722D01*
X98377Y29642D01*
X98425Y29565D01*
X98477Y29490D01*
X98532Y29417D01*
X98590Y29347D01*
X98651Y29279D01*
X98714Y29214D01*
X98781Y29152D01*
X98850Y29092D01*
X98921Y29036D01*
X98995Y28983D01*
X99071Y28933D01*
X99150Y28886D01*
X99230Y28843D01*
X99312Y28803D01*
X99395Y28767D01*
X99480Y28734D01*
X99567Y28705D01*
X99654Y28680D01*
X99743Y28659D01*
X99832Y28641D01*
X99922Y28628D01*
X100013Y28618D01*
X100104Y28612D01*
X100195Y28610D01*
X100195Y28611D02*
X102311Y28611D01*
X95760Y25224D02*
X93220Y32844D01*
X90680Y25224D01*
X91315Y27129D02*
X95125Y27129D01*
X87764Y25224D02*
X87764Y32844D01*
X87764Y25224D02*
X84378Y25224D01*
X138496Y20652D02*
X138496Y13032D01*
X135109Y13032D01*
X132413Y15149D02*
X132413Y18535D01*
X132411Y18626D01*
X132405Y18717D01*
X132395Y18808D01*
X132382Y18898D01*
X132364Y18987D01*
X132343Y19076D01*
X132318Y19163D01*
X132289Y19250D01*
X132256Y19335D01*
X132220Y19418D01*
X132180Y19500D01*
X132137Y19580D01*
X132090Y19659D01*
X132040Y19735D01*
X131987Y19809D01*
X131931Y19880D01*
X131871Y19949D01*
X131809Y20016D01*
X131744Y20079D01*
X131676Y20140D01*
X131606Y20198D01*
X131533Y20253D01*
X131458Y20305D01*
X131381Y20353D01*
X131301Y20398D01*
X131220Y20440D01*
X131138Y20478D01*
X131053Y20512D01*
X130967Y20543D01*
X130880Y20570D01*
X130792Y20593D01*
X130703Y20612D01*
X130614Y20628D01*
X130523Y20640D01*
X130433Y20648D01*
X130342Y20652D01*
X130250Y20652D01*
X130159Y20648D01*
X130069Y20640D01*
X129978Y20628D01*
X129889Y20612D01*
X129800Y20593D01*
X129712Y20570D01*
X129625Y20543D01*
X129539Y20512D01*
X129454Y20478D01*
X129372Y20440D01*
X129291Y20398D01*
X129211Y20353D01*
X129134Y20305D01*
X129059Y20253D01*
X128986Y20198D01*
X128916Y20140D01*
X128848Y20079D01*
X128783Y20016D01*
X128721Y19949D01*
X128661Y19880D01*
X128605Y19809D01*
X128552Y19735D01*
X128502Y19659D01*
X128455Y19580D01*
X128412Y19500D01*
X128372Y19418D01*
X128336Y19335D01*
X128303Y19250D01*
X128274Y19163D01*
X128249Y19076D01*
X128228Y18987D01*
X128210Y18898D01*
X128197Y18808D01*
X128187Y18717D01*
X128181Y18626D01*
X128179Y18535D01*
X128180Y18535D02*
X128180Y15149D01*
X128179Y15149D02*
X128181Y15058D01*
X128187Y14967D01*
X128197Y14876D01*
X128210Y14786D01*
X128228Y14697D01*
X128249Y14608D01*
X128274Y14521D01*
X128303Y14434D01*
X128336Y14349D01*
X128372Y14266D01*
X128412Y14184D01*
X128455Y14104D01*
X128502Y14025D01*
X128552Y13949D01*
X128605Y13875D01*
X128661Y13804D01*
X128721Y13735D01*
X128783Y13668D01*
X128848Y13605D01*
X128916Y13544D01*
X128986Y13486D01*
X129059Y13431D01*
X129134Y13379D01*
X129211Y13331D01*
X129291Y13286D01*
X129372Y13244D01*
X129454Y13206D01*
X129539Y13172D01*
X129625Y13141D01*
X129712Y13114D01*
X129800Y13091D01*
X129889Y13072D01*
X129978Y13056D01*
X130069Y13044D01*
X130159Y13036D01*
X130250Y13032D01*
X130342Y13032D01*
X130433Y13036D01*
X130523Y13044D01*
X130614Y13056D01*
X130703Y13072D01*
X130792Y13091D01*
X130880Y13114D01*
X130967Y13141D01*
X131053Y13172D01*
X131138Y13206D01*
X131220Y13244D01*
X131301Y13286D01*
X131381Y13331D01*
X131458Y13379D01*
X131533Y13431D01*
X131606Y13486D01*
X131676Y13544D01*
X131744Y13605D01*
X131809Y13668D01*
X131871Y13735D01*
X131931Y13804D01*
X131987Y13875D01*
X132040Y13949D01*
X132090Y14025D01*
X132137Y14104D01*
X132180Y14184D01*
X132220Y14266D01*
X132256Y14349D01*
X132289Y14434D01*
X132318Y14521D01*
X132343Y14608D01*
X132364Y14697D01*
X132382Y14786D01*
X132395Y14876D01*
X132405Y14967D01*
X132411Y15058D01*
X132413Y15149D01*
X125392Y20652D02*
X123699Y13032D01*
X122006Y18112D01*
X120312Y13032D01*
X118619Y20652D01*
X115767Y14725D02*
X110687Y14725D01*
X110687Y17265D02*
X115767Y17265D01*
X107297Y20652D02*
X107297Y13032D01*
X103064Y13032D02*
X107297Y20652D01*
X103064Y20652D02*
X103064Y13032D01*
X98109Y13032D02*
X98109Y20652D01*
X95993Y20652D02*
X100226Y20652D01*
X91102Y13032D02*
X91021Y13034D01*
X90941Y13040D01*
X90861Y13049D01*
X90782Y13063D01*
X90703Y13080D01*
X90625Y13101D01*
X90548Y13125D01*
X90473Y13153D01*
X90399Y13185D01*
X90326Y13220D01*
X90256Y13259D01*
X90187Y13301D01*
X90120Y13346D01*
X90055Y13394D01*
X89993Y13446D01*
X89934Y13500D01*
X89877Y13557D01*
X89823Y13616D01*
X89771Y13678D01*
X89723Y13743D01*
X89678Y13810D01*
X89636Y13879D01*
X89597Y13949D01*
X89562Y14022D01*
X89530Y14096D01*
X89502Y14171D01*
X89478Y14248D01*
X89457Y14326D01*
X89440Y14405D01*
X89426Y14484D01*
X89417Y14564D01*
X89411Y14644D01*
X89409Y14725D01*
X91102Y13032D02*
X91220Y13034D01*
X91337Y13040D01*
X91454Y13049D01*
X91571Y13063D01*
X91688Y13080D01*
X91803Y13101D01*
X91918Y13126D01*
X92033Y13155D01*
X92146Y13188D01*
X92258Y13224D01*
X92368Y13264D01*
X92478Y13307D01*
X92586Y13354D01*
X92692Y13405D01*
X92796Y13459D01*
X92899Y13516D01*
X93000Y13577D01*
X93099Y13641D01*
X93195Y13708D01*
X93289Y13779D01*
X93381Y13852D01*
X93471Y13929D01*
X93558Y14008D01*
X93642Y14090D01*
X93430Y18959D02*
X93428Y19040D01*
X93422Y19120D01*
X93413Y19200D01*
X93399Y19279D01*
X93382Y19358D01*
X93361Y19436D01*
X93337Y19513D01*
X93309Y19588D01*
X93277Y19662D01*
X93242Y19735D01*
X93203Y19806D01*
X93161Y19874D01*
X93116Y19941D01*
X93068Y20006D01*
X93016Y20068D01*
X92962Y20127D01*
X92905Y20184D01*
X92846Y20238D01*
X92784Y20290D01*
X92719Y20338D01*
X92652Y20383D01*
X92584Y20425D01*
X92513Y20464D01*
X92440Y20499D01*
X92366Y20531D01*
X92291Y20559D01*
X92214Y20583D01*
X92136Y20604D01*
X92057Y20621D01*
X91978Y20635D01*
X91898Y20644D01*
X91818Y20650D01*
X91737Y20652D01*
X91629Y20650D01*
X91522Y20645D01*
X91415Y20636D01*
X91308Y20623D01*
X91202Y20607D01*
X91096Y20587D01*
X90991Y20563D01*
X90887Y20536D01*
X90784Y20506D01*
X90682Y20472D01*
X90581Y20434D01*
X90482Y20393D01*
X90384Y20349D01*
X90287Y20302D01*
X90193Y20251D01*
X90099Y20197D01*
X90008Y20140D01*
X89919Y20080D01*
X89832Y20017D01*
X92584Y17477D02*
X92653Y17520D01*
X92720Y17566D01*
X92785Y17615D01*
X92847Y17667D01*
X92906Y17722D01*
X92963Y17780D01*
X93018Y17841D01*
X93069Y17903D01*
X93117Y17969D01*
X93162Y18036D01*
X93204Y18106D01*
X93243Y18177D01*
X93278Y18250D01*
X93310Y18325D01*
X93338Y18401D01*
X93363Y18478D01*
X93383Y18557D01*
X93400Y18636D01*
X93414Y18716D01*
X93423Y18797D01*
X93429Y18878D01*
X93431Y18959D01*
X90256Y16207D02*
X90187Y16164D01*
X90120Y16118D01*
X90055Y16069D01*
X89993Y16017D01*
X89934Y15962D01*
X89877Y15904D01*
X89822Y15843D01*
X89771Y15781D01*
X89723Y15715D01*
X89678Y15648D01*
X89636Y15578D01*
X89597Y15507D01*
X89562Y15434D01*
X89530Y15359D01*
X89502Y15283D01*
X89477Y15206D01*
X89457Y15127D01*
X89440Y15048D01*
X89426Y14968D01*
X89417Y14887D01*
X89411Y14806D01*
X89409Y14725D01*
X90256Y16207D02*
X92584Y17477D01*
X84897Y13032D02*
X83203Y13032D01*
X84897Y13032D02*
X84978Y13034D01*
X85058Y13040D01*
X85138Y13049D01*
X85217Y13063D01*
X85296Y13080D01*
X85374Y13101D01*
X85451Y13125D01*
X85526Y13153D01*
X85600Y13185D01*
X85673Y13220D01*
X85744Y13259D01*
X85812Y13301D01*
X85879Y13346D01*
X85944Y13394D01*
X86006Y13446D01*
X86065Y13500D01*
X86122Y13557D01*
X86176Y13616D01*
X86228Y13678D01*
X86276Y13743D01*
X86321Y13810D01*
X86363Y13879D01*
X86402Y13949D01*
X86437Y14022D01*
X86469Y14096D01*
X86497Y14171D01*
X86521Y14248D01*
X86542Y14326D01*
X86559Y14405D01*
X86573Y14484D01*
X86582Y14564D01*
X86588Y14644D01*
X86590Y14725D01*
X86590Y18959D01*
X86588Y19040D01*
X86582Y19120D01*
X86573Y19200D01*
X86559Y19279D01*
X86542Y19358D01*
X86521Y19436D01*
X86497Y19513D01*
X86469Y19588D01*
X86437Y19662D01*
X86402Y19735D01*
X86363Y19806D01*
X86321Y19874D01*
X86276Y19941D01*
X86228Y20006D01*
X86176Y20068D01*
X86122Y20127D01*
X86065Y20184D01*
X86006Y20238D01*
X85944Y20290D01*
X85879Y20338D01*
X85812Y20383D01*
X85744Y20425D01*
X85673Y20464D01*
X85600Y20499D01*
X85526Y20531D01*
X85451Y20559D01*
X85374Y20583D01*
X85296Y20604D01*
X85217Y20621D01*
X85138Y20635D01*
X85058Y20644D01*
X84978Y20650D01*
X84897Y20652D01*
X83203Y20652D01*
M02*
